0
SECTION
2
HEADER
9
$INSUNITS
70
4
9
$ACADVER
1
AC1014
9
$HANDSEED
5
FFFF
0
ENDSEC
0
SECTION
2
TABLES
0
TABLE
2
VPORT
5
8
100
AcDbSymbolTable
0
ENDTAB
0
TABLE
2
LTYPE
5
5
100
AcDbSymbolTable
0
LTYPE
5
14
100
AcDbSymbolTableRecord
100
AcDbLinetypeTableRecord
2
BYBLOCK
70
0
0
LTYPE
5
15
100
AcDbSymbolTableRecord
100
AcDbLinetypeTableRecord
2
BYLAYER
70
0
0
ENDTAB
0
TABLE
2
LAYER
5
2
100
AcDbSymbolTable
70
2
0
LAYER
5
50
100
AcDbSymbolTableRecord
100
AcDbLayerTableRecord
2
0
70
0
6
CONTINUOUS
0
ENDTAB
0
TABLE
2
STYLE
5
3
100
AcDbSymbolTable
70
1
0
STYLE
5
11
100
AcDbSymbolTableRecord
100
AcDbTextStyleTableRecord
2
STANDARD
70
0
0
ENDTAB
0
TABLE
2
VIEW
5
6
100
AcDbSymbolTable
70
0
0
ENDTAB
0
TABLE
2
UCS
5
7
100
AcDbSymbolTable
70
0
0
ENDTAB
0
TABLE
2
APPID
5
9
100
AcDbSymbolTable
70
2
0
APPID
5
12
100
AcDbSymbolTableRecord
100
AcDbRegAppTableRecord
2
ACAD
70
0
0
ENDTAB
0
TABLE
2
DIMSTYLE
5
A
100
AcDbSymbolTable
70
1
0
ENDTAB
0
TABLE
2
BLOCK_RECORD
5
1
100
AcDbSymbolTable
70
1
0
BLOCK_RECORD
5
1F
100
AcDbSymbolTableRecord
100
AcDbBlockTableRecord
2
*MODEL_SPACE
0
BLOCK_RECORD
5
1B
100
AcDbSymbolTableRecord
100
AcDbBlockTableRecord
2
*PAPER_SPACE
0
ENDTAB
0
ENDSEC
0
SECTION
2
BLOCKS
0
BLOCK
5
20
100
AcDbEntity
100
AcDbBlockBegin
2
*MODEL_SPACE
0
ENDBLK
5
21
100
AcDbEntity
100
AcDbBlockEnd
0
BLOCK
5
1C
100
AcDbEntity
100
AcDbBlockBegin
2
*PAPER_SPACE
0
ENDBLK
5
1D
100
AcDbEntity
100
AcDbBlockEnd
0
ENDSEC
0
SECTION
2
ENTITIES
0
ARC
5
100
100
AcDbEntity
8
0
100
AcDbCircle
10
-185.26521253726398
20
-410.85226674624835
30
-3.265567016796922e-07
40
1.999999999999996
210
0
220
0
230
1
100
AcDbArc
50
-45
51
134.99999999999943
0
LINE
5
101
100
AcDbEntity
8
0
100
AcDbLine
10
-183.85099897489087
20
-412.26648030862145
30
-3.265567016796922e-07
11
-183.85099897489098
21
-429.58805318387533
31
-3.265567016796922e-07
0
LINE
5
102
100
AcDbEntity
8
0
100
AcDbLine
10
-183.85099897489098
20
-429.58805318387533
30
-3.265567016796922e-07
11
-150.00099134549299
21
-429.58805318387533
31
-3.265567016796922e-07
0
ARC
5
103
100
AcDbEntity
8
0
100
AcDbCircle
10
-150.00099134549299
20
-424.58805318387533
30
-3.265567016796922e-07
40
5
210
0
220
0
230
1
100
AcDbArc
50
-90
51
0
0
LINE
5
104
100
AcDbEntity
8
0
100
AcDbLine
10
-145.00099134549299
20
-424.58805318387533
30
-3.265567016796922e-07
11
-145.00099134549299
21
-274.58805318387539
31
-3.265567016796922e-07
0
ARC
5
105
100
AcDbEntity
8
0
100
AcDbCircle
10
-150.001000882233
20
-274.58805318387539
30
-3.265567016796922e-07
40
5.0000095367400199
210
0
220
0
230
1
100
AcDbArc
50
0
51
90
0
LINE
5
106
100
AcDbEntity
8
0
100
AcDbLine
10
-150.001000882233
20
-269.58805318387539
30
-3.265567016796922e-07
11
-183.85099897489098
21
-269.58805318387539
31
-3.265567016796922e-07
0
LINE
5
107
100
AcDbEntity
8
0
100
AcDbLine
10
-183.85099897489098
20
-269.58805318387539
30
-3.265567016796922e-07
11
-183.85099897489098
21
-286.90962605912938
31
-3.265567016796922e-07
0
ARC
5
108
100
AcDbEntity
8
0
100
AcDbCircle
10
-185.26521253726398
20
-288.32383962150237
30
-3.265567016796922e-07
40
1.999999999999996
210
0
220
0
230
1
100
AcDbArc
50
-135.0000000000006
51
45
0
LINE
5
109
100
AcDbEntity
8
0
100
AcDbLine
10
-186.67942609963706
20
-289.73805318387542
30
-3.265567016796922e-07
11
-191.32257185014498
21
-289.73805318387531
31
-3.265567016796922e-07
0
ARC
5
110
100
AcDbEntity
8
0
100
AcDbCircle
10
-192.73678541251797
20
-288.32383962150237
30
-3.265567016796922e-07
40
1.999999999999996
210
0
220
0
230
1
100
AcDbArc
50
135
51
315.00000000000119
0
LINE
5
111
100
AcDbEntity
8
0
100
AcDbLine
10
-194.15099897489108
20
-286.90962605912927
30
-3.265567016796922e-07
11
-194.150998974891
21
-269.58805318387539
31
-3.265567016796922e-07
0
LINE
5
112
100
AcDbEntity
8
0
100
AcDbLine
10
-194.150998974891
20
-269.58805318387539
30
-3.265567016796922e-07
11
-200.00099897489096
21
-269.58805318387539
31
-3.265567016796922e-07
0
ARC
5
113
100
AcDbEntity
8
0
100
AcDbCircle
10
-200.00099897489096
20
-274.58805318387539
30
-3.265567016796922e-07
40
5
210
0
220
-0
230
1
100
AcDbArc
50
90
51
180
0
LINE
5
114
100
AcDbEntity
8
0
100
AcDbLine
10
-205.00099897489096
20
-274.58805318387539
30
-3.265567016796922e-07
11
-205.00099897489096
21
-424.58805318387533
31
-3.265567016796922e-07
0
ARC
5
115
100
AcDbEntity
8
0
100
AcDbCircle
10
-200.00099897489096
20
-424.58805318387533
30
-3.265567016796922e-07
40
5
210
0
220
0
230
1
100
AcDbArc
50
180
51
270
0
LINE
5
116
100
AcDbEntity
8
0
100
AcDbLine
10
-200.00099897489096
20
-429.58805318387533
30
-3.265567016796922e-07
11
-194.150998974891
21
-429.58805318387533
31
-3.265567016796922e-07
0
LINE
5
117
100
AcDbEntity
8
0
100
AcDbLine
10
-194.150998974891
20
-429.58805318387533
30
-3.265567016796922e-07
11
-194.150998974891
21
-412.26648030862134
31
-3.265567016796922e-07
0
ARC
5
118
100
AcDbEntity
8
0
100
AcDbCircle
10
-192.73678541251797
20
-410.85226674624835
30
-3.265567016796922e-07
40
1.999999999999996
210
0
220
-0
230
1
100
AcDbArc
50
45
51
224.99999999999943
0
LINE
5
119
100
AcDbEntity
8
0
100
AcDbLine
10
-191.32257185014487
20
-409.43805318387524
30
-3.265567016796922e-07
11
-186.67942609963706
21
-409.43805318387524
31
-3.265567016796922e-07
0
LWPOLYLINE
5
120
100
AcDbEntity
8
0
100
AcDbPolyline
90
8
70
1
43
0.0
10
-183.85099897489087
20
-356.90906787440321
42
-0.99999999999999989
10
-186.67942609963706
20
-359.73749499914936
10
-191.32257185014487
20
-359.73749499914936
42
-0.99999999999999989
10
-194.15099897489108
20
-356.90906787440321
10
-194.15099897489108
20
-342.26592212389539
42
-0.99999999999999989
10
-191.32257185014487
20
-339.43749499914924
10
-186.67942609963706
20
-339.43749499914924
42
-0.99999999999999989
10
-183.85099897489087
20
-342.26592212389539
0
CIRCLE
5
121
100
AcDbEntity
8
0
100
AcDbCircle
10
167.00100190584396
20
-416.08805374524133
30
3.2655669903439358e-07
40
2.6000000000000201
210
1.6380346650499384e-17
220
-2.1686690427522299e-19
230
-1
0
CIRCLE
5
122
100
AcDbEntity
8
0
100
AcDbCircle
10
167.00100190584297
20
-283.08805374523939
30
3.2655669900555037e-07
40
2.6000000000000201
210
1.6380346650499384e-17
220
-2.1686690427522299e-19
230
-1
0
CIRCLE
5
123
100
AcDbEntity
8
0
100
AcDbCircle
10
177.501001905847
20
-326.58805374523632
30
3.2655670167967854e-07
40
2.1000000000000099
210
1.0410563220850448e-22
220
-1.4842066395592448e-23
230
-1
0
CIRCLE
5
124
100
AcDbEntity
8
0
100
AcDbCircle
10
162.501001905847
20
-326.58805374523632
30
3.2655670167968013e-07
40
2.1000000000000099
210
1.0410563220850448e-22
220
-1.4842066395592448e-23
230
-1
0
CIRCLE
5
125
100
AcDbEntity
8
0
100
AcDbCircle
10
162.501001905847
20
-372.58805374523632
30
3.2655670167968081e-07
40
2.1000000000000099
210
1.0410563220850448e-22
220
-1.4842066395592448e-23
230
-1
0
CIRCLE
5
126
100
AcDbEntity
8
0
100
AcDbCircle
10
177.501001905847
20
-372.58805374523632
30
3.2655670167967923e-07
40
2.1000000000000099
210
1.0410563220850448e-22
220
-1.4842066395592448e-23
230
-1
0
CIRCLE
5
127
100
AcDbEntity
8
0
100
AcDbCircle
10
162.00100190584601
20
-349.58805374523638
30
3.2655670167968055e-07
40
11.25
210
1.0410563220850448e-22
220
-1.4842066395592448e-23
230
-1
0
ARC
5
128
100
AcDbEntity
8
0
100
AcDbCircle
10
-185.26521253726401
20
-410.85226674624835
30
0
40
1.999999999999996
210
-0
220
0
230
1
100
AcDbArc
50
-45
51
135
0
LINE
5
129
100
AcDbEntity
8
0
100
AcDbLine
10
-183.8509989748909
20
-412.26648030862145
30
0
11
-183.85099897489101
21
-429.58805318387533
31
0
0
LINE
5
130
100
AcDbEntity
8
0
100
AcDbLine
10
-183.85099897489101
20
-429.58805318387533
30
0
11
-150.00099134549299
21
-429.58805318387533
31
0
0
ARC
5
131
100
AcDbEntity
8
0
100
AcDbCircle
10
-150.00099134549299
20
-424.58805318387533
30
0
40
5
210
0
220
0
230
1
100
AcDbArc
50
-90
51
0
0
LINE
5
132
100
AcDbEntity
8
0
100
AcDbLine
10
-145.00099134549299
20
-424.58805318387533
30
0
11
-145.00099134549299
21
-274.58805318387539
31
0
0
ARC
5
133
100
AcDbEntity
8
0
100
AcDbCircle
10
-150.001000882233
20
-274.58805318387539
30
0
40
5.0000095367400199
210
0
220
-7.4056144101804038e-37
230
1
100
AcDbArc
50
0
51
90
0
LINE
5
134
100
AcDbEntity
8
0
100
AcDbLine
10
-150.001000882233
20
-269.58805318387539
30
3.7028072050902016e-36
11
-183.85099897489098
21
-269.58805318387539
31
0
0
LINE
5
135
100
AcDbEntity
8
0
100
AcDbLine
10
-183.85099897489098
20
-269.58805318387539
30
0
11
-183.85099897489101
21
-286.90962605912938
31
0
0
ARC
5
136
100
AcDbEntity
8
0
100
AcDbCircle
10
-185.26521253726401
20
-288.32383962150237
30
0
40
1.999999999999996
210
0
220
0
230
1
100
AcDbArc
50
-135.00000000000117
51
45
0
LINE
5
137
100
AcDbEntity
8
0
100
AcDbLine
10
-186.67942609963711
20
-289.73805318387542
30
0
11
-191.32257185014504
21
-289.73805318387531
31
0
0
ARC
5
138
100
AcDbEntity
8
0
100
AcDbCircle
10
-192.736785412518
20
-288.32383962150237
30
1.4518802441296717e-52
40
1.999999999999996
210
8.3120002671291974e-39
220
8.312000267129093e-39
230
1
100
AcDbArc
50
135
51
315.00000000000057
0
LINE
5
139
100
AcDbEntity
8
0
100
AcDbLine
10
-194.15099897489111
20
-286.90962605912927
30
2.9377320556048417e-52
11
-194.15099897489102
21
-269.58805318387539
31
0
0
LINE
5
140
100
AcDbEntity
8
0
100
AcDbLine
10
-194.15099897489102
20
-269.58805318387539
30
0
11
-200.00099897489099
21
-269.58805318387539
31
0
0
ARC
5
141
100
AcDbEntity
8
0
100
AcDbCircle
10
-200.00099897489099
20
-274.58805318387539
30
0
40
5.0000000000000355
210
0
220
-0
230
1
100
AcDbArc
50
90
51
180
0
LINE
5
142
100
AcDbEntity
8
0
100
AcDbLine
10
-205.00099897489105
20
-274.58805318387539
30
0
11
-205.00099897489099
21
-424.58805318387533
31
0
0
ARC
5
143
100
AcDbEntity
8
0
100
AcDbCircle
10
-200.00099897489108
20
-424.58805318387539
30
0
40
4.9999999999999289
210
0
220
0
230
1
100
AcDbArc
50
180
51
270.00000000000097
0
LINE
5
144
100
AcDbEntity
8
0
100
AcDbLine
10
-200.00099897489099
20
-429.58805318387533
30
0
11
-194.15099897489102
21
-429.58805318387533
31
0
0
LINE
5
145
100
AcDbEntity
8
0
100
AcDbLine
10
-194.15099897489102
20
-429.58805318387533
30
0
11
-194.15099897489102
21
-412.26648030862134
31
0
0
ARC
5
146
100
AcDbEntity
8
0
100
AcDbCircle
10
-192.736785412518
20
-410.85226674624835
30
0
40
1.999999999999996
210
0
220
-0
230
1
100
AcDbArc
50
45.000000000000568
51
224.99999999999943
0
LINE
5
147
100
AcDbEntity
8
0
100
AcDbLine
10
-191.32257185014493
20
-409.43805318387524
30
0
11
-186.67942609963711
21
-409.43805318387524
31
0
0
CIRCLE
5
148
100
AcDbEntity
8
0
100
AcDbCircle
10
-167.00100190584402
20
-416.08805374524133
30
0
40
2.6000000000000201
210
-2.3783777200187343e-34
220
7.5231638452626401e-36
230
1
0
CIRCLE
5
149
100
AcDbEntity
8
0
100
AcDbCircle
10
-167.001001905843
20
-283.08805374523939
30
0
40
2.6000000000000201
210
-2.3783777200187343e-34
220
7.5231638452626401e-36
230
1
0
CIRCLE
5
150
100
AcDbEntity
8
0
100
AcDbCircle
10
-177.50100190584703
20
-326.58805374523632
30
0
40
2.1000000000000099
210
1.634903240351751e-67
220
-2.9387358770557188e-39
230
1
0
CIRCLE
5
151
100
AcDbEntity
8
0
100
AcDbCircle
10
-162.50100190584703
20
-326.58805374523632
30
0
40
2.1000000000000099
210
1.634903240351751e-67
220
-2.9387358770557188e-39
230
1
0
CIRCLE
5
152
100
AcDbEntity
8
0
100
AcDbCircle
10
-162.50100190584703
20
-372.58805374523632
30
0
40
2.1000000000000099
210
1.634903240351751e-67
220
-2.9387358770557188e-39
230
1
0
CIRCLE
5
153
100
AcDbEntity
8
0
100
AcDbCircle
10
-177.50100190584703
20
-372.58805374523632
30
0
40
2.1000000000000099
210
1.634903240351751e-67
220
-2.9387358770557188e-39
230
1
0
CIRCLE
5
154
100
AcDbEntity
8
0
100
AcDbCircle
10
-162.00100190584604
20
-349.58805374523638
30
0
40
11.25
210
0
220
-0
230
1
0
LWPOLYLINE
5
155
100
AcDbEntity
8
0
100
AcDbPolyline
90
8
70
1
43
0.0
10
-183.8509989748909
20
-356.90906787440321
42
-0.99999999999999989
10
-186.67942609963711
20
-359.73749499914936
10
-191.32257185014493
20
-359.73749499914936
42
-0.99999999999999989
10
-194.15099897489111
20
-356.90906787440321
10
-194.15099897489111
20
-342.26592212389539
42
-0.99999999999999989
10
-191.32257185014493
20
-339.43749499914924
10
-186.67942609963711
20
-339.43749499914924
42
-0.99999999999999989
10
-183.8509989748909
20
-342.26592212389539
0
ENDSEC
0
SECTION
2
OBJECTS
0
DICTIONARY
5
C
100
AcDbDictionary
3
ACAD_GROUP
350
D
3
ACAD_MLINESTYLE
350
17
0
DICTIONARY
5
D
100
AcDbDictionary
0
DICTIONARY
5
1A
330
C
100
AcDbDictionary
0
DICTIONARY
5
17
100
AcDbDictionary
0
ENDSEC
0
EOF
