0
SECTION
2
HEADER
9
$INSUNITS
70
4
9
$ACADVER
1
AC1014
9
$HANDSEED
5
FFFF
0
ENDSEC
0
SECTION
2
TABLES
0
TABLE
2
VPORT
5
8
100
AcDbSymbolTable
0
ENDTAB
0
TABLE
2
LTYPE
5
5
100
AcDbSymbolTable
0
LTYPE
5
14
100
AcDbSymbolTableRecord
100
AcDbLinetypeTableRecord
2
BYBLOCK
70
0
0
LTYPE
5
15
100
AcDbSymbolTableRecord
100
AcDbLinetypeTableRecord
2
BYLAYER
70
0
0
ENDTAB
0
TABLE
2
LAYER
5
2
100
AcDbSymbolTable
70
2
0
LAYER
5
50
100
AcDbSymbolTableRecord
100
AcDbLayerTableRecord
2
0
70
0
6
CONTINUOUS
0
ENDTAB
0
TABLE
2
STYLE
5
3
100
AcDbSymbolTable
70
1
0
STYLE
5
11
100
AcDbSymbolTableRecord
100
AcDbTextStyleTableRecord
2
STANDARD
70
0
0
ENDTAB
0
TABLE
2
VIEW
5
6
100
AcDbSymbolTable
70
0
0
ENDTAB
0
TABLE
2
UCS
5
7
100
AcDbSymbolTable
70
0
0
ENDTAB
0
TABLE
2
APPID
5
9
100
AcDbSymbolTable
70
2
0
APPID
5
12
100
AcDbSymbolTableRecord
100
AcDbRegAppTableRecord
2
ACAD
70
0
0
ENDTAB
0
TABLE
2
DIMSTYLE
5
A
100
AcDbSymbolTable
70
1
0
ENDTAB
0
TABLE
2
BLOCK_RECORD
5
1
100
AcDbSymbolTable
70
1
0
BLOCK_RECORD
5
1F
100
AcDbSymbolTableRecord
100
AcDbBlockTableRecord
2
*MODEL_SPACE
0
BLOCK_RECORD
5
1B
100
AcDbSymbolTableRecord
100
AcDbBlockTableRecord
2
*PAPER_SPACE
0
ENDTAB
0
ENDSEC
0
SECTION
2
BLOCKS
0
BLOCK
5
20
100
AcDbEntity
100
AcDbBlockBegin
2
*MODEL_SPACE
0
ENDBLK
5
21
100
AcDbEntity
100
AcDbBlockEnd
0
BLOCK
5
1C
100
AcDbEntity
100
AcDbBlockBegin
2
*PAPER_SPACE
0
ENDBLK
5
1D
100
AcDbEntity
100
AcDbBlockEnd
0
ENDSEC
0
SECTION
2
ENTITIES
0
LWPOLYLINE
5
100
100
AcDbEntity
8
0
100
AcDbPolyline
90
28
70
1
43
0.0
10
191.32257303759116
20
-409.43805318387547
42
-0.99999999999999989
10
194.15100016233734
20
-412.26648030862168
10
194.15100016233725
20
-429.58805318387556
10
203.50100016233725
20
-429.58805318387556
42
0.41421356237309503
10
208.50100016233725
20
-424.58805318387556
10
208.50100016233725
20
-274.58805318387556
42
0.41421356237309503
10
203.50100016233725
20
-269.58805318387556
10
194.15100016233725
20
-269.58805318387556
10
194.15100016233751
20
-287.13943576301523
42
-0.99999999999999989
10
191.552382741477
20
-289.73805318387582
10
186.67942728708334
20
-289.73805318387565
42
-0.99999999999999989
10
183.85100016233713
20
-286.90962605912938
10
183.85100016233724
20
-269.58805318387556
10
150.00100206967926
20
-269.58805318387556
42
0.41421356237309503
10
145.00100206967926
20
-274.58805318387556
10
145.00100206967926
20
-311.08749499914848
42
-0.41421356237309503
10
140.00100206967926
20
-316.08749499914848
10
138.43100309329228
20
-316.08749499914848
42
0.41421356237306567
10
128.50100309329218
20
-326.01749499914854
10
128.50100309329224
20
-373.15749499914949
42
0.41421356237306567
10
138.43100309329228
20
-383.08749499914853
10
140.00099253293922
20
-383.0874949991495
42
-0.41421356237309503
10
145.00099253293922
20
-388.0874949991495
10
145.00099253293922
20
-424.58805318387556
42
0.41421356237309503
10
150.00099253293922
20
-429.58805318387556
10
183.85100016233724
20
-429.58805318387556
10
183.85100016233713
20
-412.26648030862168
42
-0.99999999999999989
10
186.67942728708334
20
-409.43805318387547
0
LWPOLYLINE
5
101
100
AcDbEntity
8
0
100
AcDbPolyline
90
8
70
1
43
0.0
10
183.85100016233713
20
-342.26592212389562
42
-0.99999999999999989
10
186.67942728708334
20
-339.43749499914941
10
191.32257303759116
20
-339.43749499914941
42
-0.99999999999999989
10
194.15100016233734
20
-342.26592212389562
10
194.15100016233734
20
-356.90906787440338
42
-0.99999999999999989
10
191.32257303759116
20
-359.73749499914959
10
186.67942728708334
20
-359.73749499914959
42
-0.99999999999999989
10
183.85100016233713
20
-356.90906787440338
0
CIRCLE
5
102
100
AcDbEntity
8
0
100
AcDbCircle
10
162.00100309329326
20
-349.5874949991495
30
3.2655705695106008e-07
40
19.25
210
-1.04105631567555e-22
220
-1.4842066543503868e-23
230
1
0
CIRCLE
5
103
100
AcDbEntity
8
0
100
AcDbCircle
10
167.00100309329025
20
-416.0880537452415
30
3.2655691484251292e-07
40
2.6000000000000201
210
-1.6380346650498586e-17
220
-2.1686690427053961e-19
230
1
0
CIRCLE
5
104
100
AcDbEntity
8
0
100
AcDbCircle
10
167.00100309328923
20
-283.08805374523956
30
3.2655705695106008e-07
40
2.6000000000000201
210
-1.6380346650498586e-17
220
-2.1686690427053961e-19
230
1
0
CIRCLE
5
105
100
AcDbEntity
8
0
100
AcDbCircle
10
201.32600016233727
20
-349.58805318387556
30
3.2655691484251292e-07
40
1.6000000000000003
210
-1.04105631567555e-22
220
-1.4842066543503868e-23
230
1
0
CIRCLE
5
106
100
AcDbEntity
8
0
100
AcDbCircle
10
201.32600016233727
20
-384.55055318387554
30
3.2655691484251292e-07
40
1.6000000000000003
210
-1.04105631567555e-22
220
-1.4842066543503868e-23
230
1
0
CIRCLE
5
107
100
AcDbEntity
8
0
100
AcDbCircle
10
201.32600016233727
20
-314.62555318387552
30
3.2655691484251292e-07
40
1.6000000000000003
210
-1.04105631567555e-22
220
-1.4842066543503868e-23
230
1
0
CIRCLE
5
108
100
AcDbEntity
8
0
100
AcDbCircle
10
201.32600016233727
20
-419.51305318387551
30
3.2655691484251292e-07
40
1.6000000000000003
210
-1.04105631567555e-22
220
-1.4842066543503868e-23
230
1
0
CIRCLE
5
109
100
AcDbEntity
8
0
100
AcDbCircle
10
201.32600016233727
20
-279.66305318387555
30
3.2655705695106008e-07
40
1.6000000000000003
210
-1.04105631567555e-22
220
-1.4842066543503868e-23
230
1
0
CIRCLE
5
110
100
AcDbEntity
8
0
100
AcDbCircle
10
138.43100309329228
20
-373.15749499914853
30
3.2655705695106008e-07
40
2.6000000000000001
210
-1.04105631567555e-22
220
-1.4842066543503868e-23
230
1
0
CIRCLE
5
111
100
AcDbEntity
8
0
100
AcDbCircle
10
138.43100309329228
20
-326.01749499914951
30
3.2655705695106008e-07
40
2.6000000000000001
210
-1.04105631567555e-22
220
-1.4842066543503868e-23
230
1
0
CIRCLE
5
112
100
AcDbEntity
8
0
100
AcDbCircle
10
185.57100309329326
20
-326.01749499914951
30
3.2655705695106008e-07
40
2.6000000000000201
210
-1.04105631567555e-22
220
-1.4842066543503868e-23
230
1
0
CIRCLE
5
113
100
AcDbEntity
8
0
100
AcDbCircle
10
185.57100309329326
20
-373.15749499914949
30
3.2655691484251292e-07
40
2.6000000000000201
210
-1.04105631567555e-22
220
-1.4842066543503868e-23
230
1
0
LWPOLYLINE
5
114
100
AcDbEntity
8
0
100
AcDbPolyline
90
28
70
1
43
0.0
10
191.32257303759116
20
-409.43805318387547
42
-0.99999999999999989
10
194.15100016233734
20
-412.26648030862168
10
194.15100016233725
20
-429.58805318387556
10
203.50100016233725
20
-429.58805318387556
42
0.41421356237310336
10
208.50100016233725
20
-424.58805318387556
10
208.50100016233725
20
-274.58805318387556
42
0.41421356237309503
10
203.50100016233725
20
-269.58805318387556
10
194.15100016233725
20
-269.58805318387556
10
194.15100016233751
20
-287.13943576301523
42
-0.99999999999999989
10
191.552382741477
20
-289.73805318387582
10
186.67942728708334
20
-289.73805318387565
42
-0.99999999999999989
10
183.85100016233713
20
-286.90962605912938
10
183.85100016233724
20
-269.58805318387556
10
150.00100206967926
20
-269.58805318387556
42
0.41421356237309398
10
145.00100206967926
20
-274.58805318387556
10
145.00100206967926
20
-311.08749499914848
42
-0.41421356237309503
10
140.00100206967926
20
-316.08749499914848
10
138.43100309329228
20
-316.08749499914848
42
0.41421356237306567
10
128.50100309329218
20
-326.01749499914854
10
128.50100309329224
20
-373.15749499914949
42
0.41421356237306567
10
138.43100309329228
20
-383.08749499914853
10
140.00099253293922
20
-383.0874949991495
42
-0.41421356237309503
10
145.00099253293922
20
-388.0874949991495
10
145.00099253293922
20
-424.58805318387556
42
0.41421356237310125
10
150.00099253293922
20
-429.58805318387562
10
183.85100016233724
20
-429.58805318387556
10
183.85100016233713
20
-412.26648030862168
42
-0.99999999999999989
10
186.67942728708334
20
-409.43805318387547
0
CIRCLE
5
115
100
AcDbEntity
8
0
100
AcDbCircle
10
162.00100309329326
20
-349.5874949991495
30
0
40
19.25
210
-2.4651903288156624e-32
220
2.4651903288156624e-32
230
1
0
CIRCLE
5
116
100
AcDbEntity
8
0
100
AcDbCircle
10
167.00100309329025
20
-416.0880537452415
30
0
40
2.6000000000000201
210
0
220
-0
230
1
0
CIRCLE
5
117
100
AcDbEntity
8
0
100
AcDbCircle
10
167.00100309328923
20
-283.08805374523956
30
0
40
2.6000000000000201
210
0
220
-0
230
1
0
CIRCLE
5
118
100
AcDbEntity
8
0
100
AcDbCircle
10
201.32600016233727
20
-349.58805318387556
30
0
40
1.6000000000000003
210
0
220
-0
230
1
0
CIRCLE
5
119
100
AcDbEntity
8
0
100
AcDbCircle
10
201.32600016233727
20
-384.55055318387554
30
0
40
1.6000000000000003
210
0
220
-0
230
1
0
CIRCLE
5
120
100
AcDbEntity
8
0
100
AcDbCircle
10
201.32600016233727
20
-314.62555318387552
30
0
40
1.6000000000000003
210
0
220
-0
230
1
0
CIRCLE
5
121
100
AcDbEntity
8
0
100
AcDbCircle
10
201.32600016233727
20
-419.51305318387551
30
0
40
1.6000000000000003
210
0
220
-0
230
1
0
CIRCLE
5
122
100
AcDbEntity
8
0
100
AcDbCircle
10
201.32600016233727
20
-279.66305318387555
30
0
40
1.6000000000000003
210
0
220
-0
230
1
0
LWPOLYLINE
5
123
100
AcDbEntity
8
0
100
AcDbPolyline
90
8
70
1
43
0.0
10
183.85100016233713
20
-342.26592212389562
42
-0.99999999999999989
10
186.67942728708334
20
-339.43749499914941
10
191.32257303759116
20
-339.43749499914941
42
-0.99999999999999989
10
194.15100016233734
20
-342.26592212389562
10
194.15100016233734
20
-356.90906787440338
42
-0.99999999999999989
10
191.32257303759116
20
-359.73749499914959
10
186.67942728708334
20
-359.73749499914959
42
-0.99999999999999989
10
183.85100016233713
20
-356.90906787440338
0
CIRCLE
5
124
100
AcDbEntity
8
0
100
AcDbCircle
10
138.43100309329327
20
-373.15749499914949
30
0
40
2.6000000000000001
210
2.4651903288156619e-32
220
-1.3139703663004948e-61
230
1
0
CIRCLE
5
125
100
AcDbEntity
8
0
100
AcDbCircle
10
138.43100309329327
20
-326.01749499914951
30
0
40
2.6000000000000001
210
2.4651903288156619e-32
220
-1.3139703663004948e-61
230
1
0
CIRCLE
5
126
100
AcDbEntity
8
0
100
AcDbCircle
10
185.57100309329326
20
-326.01749499914951
30
0
40
2.6000000000000201
210
0
220
-0
230
1
0
CIRCLE
5
127
100
AcDbEntity
8
0
100
AcDbCircle
10
185.57100309329326
20
-373.15749499914949
30
0
40
2.6000000000000201
210
0
220
-0
230
1
0
ENDSEC
0
SECTION
2
OBJECTS
0
DICTIONARY
5
C
100
AcDbDictionary
3
ACAD_GROUP
350
D
3
ACAD_MLINESTYLE
350
17
0
DICTIONARY
5
D
100
AcDbDictionary
0
DICTIONARY
5
1A
330
C
100
AcDbDictionary
0
DICTIONARY
5
17
100
AcDbDictionary
0
ENDSEC
0
EOF
