0
SECTION
2
HEADER
9
$INSUNITS
70
4
9
$ACADVER
1
AC1014
9
$HANDSEED
5
FFFF
0
ENDSEC
0
SECTION
2
TABLES
0
TABLE
2
VPORT
5
8
100
AcDbSymbolTable
0
ENDTAB
0
TABLE
2
LTYPE
5
5
100
AcDbSymbolTable
0
LTYPE
5
14
100
AcDbSymbolTableRecord
100
AcDbLinetypeTableRecord
2
BYBLOCK
70
0
0
LTYPE
5
15
100
AcDbSymbolTableRecord
100
AcDbLinetypeTableRecord
2
BYLAYER
70
0
0
ENDTAB
0
TABLE
2
LAYER
5
2
100
AcDbSymbolTable
70
2
0
LAYER
5
50
100
AcDbSymbolTableRecord
100
AcDbLayerTableRecord
2
0
70
0
6
CONTINUOUS
0
ENDTAB
0
TABLE
2
STYLE
5
3
100
AcDbSymbolTable
70
1
0
STYLE
5
11
100
AcDbSymbolTableRecord
100
AcDbTextStyleTableRecord
2
STANDARD
70
0
0
ENDTAB
0
TABLE
2
VIEW
5
6
100
AcDbSymbolTable
70
0
0
ENDTAB
0
TABLE
2
UCS
5
7
100
AcDbSymbolTable
70
0
0
ENDTAB
0
TABLE
2
APPID
5
9
100
AcDbSymbolTable
70
2
0
APPID
5
12
100
AcDbSymbolTableRecord
100
AcDbRegAppTableRecord
2
ACAD
70
0
0
ENDTAB
0
TABLE
2
DIMSTYLE
5
A
100
AcDbSymbolTable
70
1
0
ENDTAB
0
TABLE
2
BLOCK_RECORD
5
1
100
AcDbSymbolTable
70
1
0
BLOCK_RECORD
5
1F
100
AcDbSymbolTableRecord
100
AcDbBlockTableRecord
2
*MODEL_SPACE
0
BLOCK_RECORD
5
1B
100
AcDbSymbolTableRecord
100
AcDbBlockTableRecord
2
*PAPER_SPACE
0
ENDTAB
0
ENDSEC
0
SECTION
2
BLOCKS
0
BLOCK
5
20
100
AcDbEntity
100
AcDbBlockBegin
2
*MODEL_SPACE
0
ENDBLK
5
21
100
AcDbEntity
100
AcDbBlockEnd
0
BLOCK
5
1C
100
AcDbEntity
100
AcDbBlockBegin
2
*PAPER_SPACE
0
ENDBLK
5
1D
100
AcDbEntity
100
AcDbBlockEnd
0
ENDSEC
0
SECTION
2
ENTITIES
0
ARC
5
100
100
AcDbEntity
8
0
100
AcDbCircle
10
-322.43170856152233
20
837.65175629052806
30
3.4443856868904277e-05
40
2.0000000000000466
210
0
220
0
230
1
100
AcDbArc
50
-135
51
44.999999999996547
0
LINE
5
101
100
AcDbEntity
8
0
100
AcDbLine
10
-323.84592212389543
20
836.23754272815495
30
3.4443856868904277e-05
11
-328.18906787440324
21
836.23754272815506
31
3.4443856868904277e-05
0
ARC
5
102
100
AcDbEntity
8
0
100
AcDbCircle
10
-329.60328143677634
20
837.65175629052806
30
3.4443856868904277e-05
40
1.999999999999996
210
0
220
0
230
1
100
AcDbArc
50
135.00000000000347
51
315.00000000000227
0
LINE
5
103
100
AcDbEntity
8
0
100
AcDbLine
10
-331.01749499914951
20
839.06596985290105
30
3.4443856868904277e-05
11
-331.01749499914933
21
846.23754272815506
31
3.4443856868904277e-05
0
LINE
5
104
100
AcDbEntity
8
0
100
AcDbLine
10
-331.01749499914933
20
846.23754272815506
30
3.4443856868904277e-05
11
-336.75906787440334
21
846.23754272815506
31
3.4443856868904277e-05
0
ARC
5
105
100
AcDbEntity
8
0
100
AcDbCircle
10
-338.17328143677634
20
847.65175629052806
30
3.4443856868904277e-05
40
1.999999999999996
210
0
220
0
230
1
100
AcDbArc
50
135.00000000000347
51
315
0
LINE
5
106
100
AcDbEntity
8
0
100
AcDbLine
10
-339.5874949991495
20
849.06596985290105
30
3.4443856868904277e-05
11
-339.58749499914927
21
855.73754272815506
31
3.4443856868904277e-05
0
LINE
5
107
100
AcDbEntity
8
0
100
AcDbLine
10
-339.58749499914927
20
855.73754272815506
30
3.4443856868904277e-05
11
-359.58749499914927
21
855.73754272815506
31
3.4443856868904277e-05
0
LINE
5
108
100
AcDbEntity
8
0
100
AcDbLine
10
-359.58749499914927
20
855.73754272815506
30
3.4443856868904277e-05
11
-359.58749499914927
21
849.06596985290093
31
3.4443856868904277e-05
0
ARC
5
109
100
AcDbEntity
8
0
100
AcDbCircle
10
-361.00170856152232
20
847.65175629052806
30
3.4443856868904277e-05
40
2.0000000000000466
210
0
220
0
230
1
100
AcDbArc
50
-135
51
44.999999999996547
0
LINE
5
110
100
AcDbEntity
8
0
100
AcDbLine
10
-362.41592212389543
20
846.23754272815495
30
3.4443856868904277e-05
11
-368.15749499914932
21
846.23754272815506
31
3.4443856868904277e-05
0
LINE
5
111
100
AcDbEntity
8
0
100
AcDbLine
10
-368.15749499914932
20
846.23754272815506
30
3.4443856868904277e-05
11
-368.15749499914932
21
839.06596985290093
31
3.4443856868904277e-05
0
ARC
5
112
100
AcDbEntity
8
0
100
AcDbCircle
10
-369.57170856152231
20
837.65175629052806
30
3.4443856868904277e-05
40
2.0000000000000466
210
0
220
0
230
1
100
AcDbArc
50
-135
51
44.999999999997691
0
LINE
5
113
100
AcDbEntity
8
0
100
AcDbLine
10
-370.98592212389542
20
836.23754272815495
30
3.4443856868904277e-05
11
-375.32906787440334
21
836.23754272815506
31
3.4443856868904277e-05
0
ARC
5
114
100
AcDbEntity
8
0
100
AcDbCircle
10
-376.74328143677633
20
837.65175629052806
30
3.4443856868904277e-05
40
1.999999999999996
210
0
220
0
230
1
100
AcDbArc
50
135.00000000000347
51
315
0
LINE
5
115
100
AcDbEntity
8
0
100
AcDbLine
10
-378.15749499914949
20
839.06596985290105
30
3.4443856868904277e-05
11
-378.15749499914932
21
846.23754272815506
31
3.4443856868904277e-05
0
LINE
5
116
100
AcDbEntity
8
0
100
AcDbLine
10
-378.15749499914932
20
846.23754272815506
30
3.4443856868904277e-05
11
-406.75962605912935
21
846.23754272815506
31
3.4443856868904277e-05
0
ARC
5
117
100
AcDbEntity
8
0
100
AcDbCircle
10
-408.1738396215024
20
847.65175629052806
30
3.4443856868904277e-05
40
1.999999999999996
210
0
220
0
230
1
100
AcDbArc
50
135.00000000000347
51
315.00000000000119
0
LINE
5
118
100
AcDbEntity
8
0
100
AcDbLine
10
-409.58805318387556
20
849.06596985290105
30
3.4443856868904277e-05
11
-409.58805318387533
21
856.23754272815506
31
3.4443856868904277e-05
0
LINE
5
119
100
AcDbEntity
8
0
100
AcDbLine
10
-409.58805318387533
20
856.23754272815506
30
3.4443856868904277e-05
11
-429.58805318387533
21
856.23754272815506
31
3.4443856868904277e-05
0
LINE
5
120
100
AcDbEntity
8
0
100
AcDbLine
10
-429.58805318387533
20
856.23754272815506
30
3.4443856868904277e-05
11
-429.58805318387533
21
566.23760257121876
31
3.4443857011012824e-05
0
LINE
5
121
100
AcDbEntity
8
0
100
AcDbLine
10
-429.58805318387533
20
566.23760257121876
30
3.4443857011012824e-05
11
-409.58805318387533
21
566.23760257121876
31
3.4443857011012824e-05
0
LINE
5
122
100
AcDbEntity
8
0
100
AcDbLine
10
-409.58805318387533
20
566.23760257121876
30
3.4443857011012824e-05
11
-409.58805318387533
21
573.40917544647277
31
3.4443857011012824e-05
0
ARC
5
123
100
AcDbEntity
8
0
100
AcDbCircle
10
-408.1738396215024
20
574.82338900884577
30
3.4443857011012824e-05
40
2.0000000000000466
210
0
220
-0
230
1
100
AcDbArc
50
44.999999999998849
51
225.00000000000117
0
LINE
5
124
100
AcDbEntity
8
0
100
AcDbLine
10
-406.75962605912923
20
576.23760257121887
30
3.4443857011012824e-05
11
-362.41648030862132
21
576.23760257121876
31
3.4443857011012824e-05
0
ARC
5
125
100
AcDbEntity
8
0
100
AcDbCircle
10
-361.00226674624832
20
574.82338900884577
30
3.4443857011012824e-05
40
1.999999999999996
210
0
220
0
230
1
100
AcDbArc
50
-45.000000000001165
51
135
0
LINE
5
126
100
AcDbEntity
8
0
100
AcDbLine
10
-359.58805318387527
20
573.40917544647266
30
3.4443857011012824e-05
11
-359.58805318387533
21
566.23760257121876
31
3.4443857011012824e-05
0
LINE
5
127
100
AcDbEntity
8
0
100
AcDbLine
10
-359.58805318387533
20
566.23760257121876
30
3.4443857011012824e-05
11
-339.58805318387533
21
566.23760257121876
31
3.4443857011012824e-05
0
LINE
5
128
100
AcDbEntity
8
0
100
AcDbLine
10
-339.58805318387533
20
566.23760257121876
30
3.4443857011012824e-05
11
-339.58805318387533
21
573.40917544647277
31
3.4443857011012824e-05
0
ARC
5
129
100
AcDbEntity
8
0
100
AcDbCircle
10
-338.17383962150234
20
574.82338900884577
30
3.4443857011012824e-05
40
1.999999999999996
210
0
220
-0
230
1
100
AcDbArc
50
45
51
225
0
LINE
5
130
100
AcDbEntity
8
0
100
AcDbLine
10
-336.75962605912923
20
576.23760257121887
30
3.4443857011012824e-05
11
-292.41648030862126
21
576.23760257121876
31
3.4443856975485687e-05
0
ARC
5
131
100
AcDbEntity
8
0
100
AcDbCircle
10
-291.00226674624827
20
574.82338900884577
30
3.4443856975485687e-05
40
2.0000000000000213
210
0
220
0
230
1
100
AcDbArc
50
-45
51
135
0
LINE
5
132
100
AcDbEntity
8
0
100
AcDbLine
10
-289.58805318387516
20
573.40917544647266
30
3.4443856975485687e-05
11
-289.58805318387527
21
566.23760257121876
31
3.4443856975485687e-05
0
LINE
5
133
100
AcDbEntity
8
0
100
AcDbLine
10
-289.58805318387527
20
566.23760257121876
30
3.4443856975485687e-05
11
-269.58805318387527
21
566.23760257121876
31
3.4443856975485687e-05
0
LINE
5
134
100
AcDbEntity
8
0
100
AcDbLine
10
-269.58805318387527
20
566.23760257121876
30
3.4443856975485687e-05
11
-269.58805318387527
21
856.23754272815506
31
3.444385683337714e-05
0
LINE
5
135
100
AcDbEntity
8
0
100
AcDbLine
10
-269.58805318387527
20
856.23754272815506
30
3.444385683337714e-05
11
-289.58805318387527
21
856.23754272815506
31
3.444385683337714e-05
0
LINE
5
136
100
AcDbEntity
8
0
100
AcDbLine
10
-289.58805318387527
20
856.23754272815506
30
3.444385683337714e-05
11
-289.58805318387527
21
849.06596985290093
31
3.444385683337714e-05
0
ARC
5
137
100
AcDbEntity
8
0
100
AcDbCircle
10
-291.00226674624827
20
847.65175629052806
30
3.444385683337714e-05
40
2.0000000000000213
210
0
220
0
230
1
100
AcDbArc
50
-134.99999999999886
51
44.999999999997691
0
LINE
5
138
100
AcDbEntity
8
0
100
AcDbLine
10
-292.41648030862132
20
846.23754272815495
30
3.444385683337714e-05
11
-321.01749499914933
21
846.23754272815506
31
3.4443856868904277e-05
0
LINE
5
139
100
AcDbEntity
8
0
100
AcDbLine
10
-321.01749499914933
20
846.23754272815506
30
3.4443856868904277e-05
11
-321.01749499914916
21
839.06596985290105
31
3.4443856868904277e-05
0
CIRCLE
5
140
100
AcDbEntity
8
0
100
AcDbCircle
10
-337.5880546795633
20
642.73756887437105
30
3.4443856975485687e-05
40
2.6000000000000503
210
-5.5565390004134223e-29
220
1.0410563169081451e-22
230
1
0
CIRCLE
5
141
100
AcDbEntity
8
0
100
AcDbCircle
10
-361.58805467956324
20
642.73756887437105
30
3.4443856975485687e-05
40
2.6000000000000503
210
-5.5565390004134223e-29
220
1.0410563169081451e-22
230
1
0
CIRCLE
5
142
100
AcDbEntity
8
0
100
AcDbCircle
10
-337.5880546795633
20
682.73756887437105
30
3.444385693995855e-05
40
2.5999999999999801
210
-5.5614693810710536e-29
220
1.0410563169081451e-22
230
1
0
CIRCLE
5
143
100
AcDbEntity
8
0
100
AcDbCircle
10
-361.58805467956324
20
682.73756887437105
30
3.444385693995855e-05
40
2.5999999999999801
210
-5.5614693810710536e-29
220
1.0410563169081451e-22
230
1
0
CIRCLE
5
144
100
AcDbEntity
8
0
100
AcDbCircle
10
-283.08805318387533
20
698.90420939482192
30
3.4443856904431414e-05
40
2.5999999999999801
210
-5.5614693810710536e-29
220
1.0410563169081451e-22
230
1
0
CIRCLE
5
145
100
AcDbEntity
8
0
100
AcDbCircle
10
-416.08805318387533
20
767.57087606148889
30
3.4443856904431414e-05
40
2.5999999999999801
210
-5.5614693810710536e-29
220
1.0410563169081451e-22
230
1
0
CIRCLE
5
146
100
AcDbEntity
8
0
100
AcDbCircle
10
-416.08805318387533
20
698.90420939482192
30
3.444385693995855e-05
40
2.5999999999999801
210
-5.5614693810710536e-29
220
1.0410563169081451e-22
230
1
0
CIRCLE
5
147
100
AcDbEntity
8
0
100
AcDbCircle
10
-283.08805318387533
20
767.57087606148889
30
3.4443856868904277e-05
40
2.5999999999999801
210
-5.5614693810710536e-29
220
1.0410563169081451e-22
230
1
0
CIRCLE
5
148
100
AcDbEntity
8
0
100
AcDbCircle
10
-283.08805318387533
20
630.23754272815484
30
3.444385693995855e-05
40
2.5999999999999801
210
-5.5614693810710536e-29
220
1.0410563169081451e-22
230
1
0
CIRCLE
5
149
100
AcDbEntity
8
0
100
AcDbCircle
10
-416.08805318387533
20
836.23754272815506
30
3.4443856868904277e-05
40
2.5999999999999801
210
-5.5614693810710536e-29
220
1.0410563169081451e-22
230
1
0
CIRCLE
5
150
100
AcDbEntity
8
0
100
AcDbCircle
10
-416.08805318387533
20
630.23754272815484
30
3.4443856975485687e-05
40
2.5999999999999801
210
-5.5614693810710536e-29
220
1.0410563169081451e-22
230
1
0
CIRCLE
5
151
100
AcDbEntity
8
0
100
AcDbCircle
10
-283.08805318387533
20
836.23754272815506
30
3.444385683337714e-05
40
2.5999999999999801
210
-5.5614693810710536e-29
220
1.0410563169081451e-22
230
1
0
CIRCLE
5
152
100
AcDbEntity
8
0
100
AcDbCircle
10
-281.58805318387624
20
580.23760257123979
30
3.4443856975485687e-05
40
1.6000000000000003
210
-5.5614693810710536e-29
220
1.0410563169081451e-22
230
1
0
CIRCLE
5
153
100
AcDbEntity
8
0
100
AcDbCircle
10
-301.58805318387425
20
652.23760257119693
30
3.444385693995855e-05
40
1.6000000000000003
210
-5.5614693810710536e-29
220
1.0410563169081451e-22
230
1
0
CIRCLE
5
154
100
AcDbEntity
8
0
100
AcDbCircle
10
-301.58805318387624
20
725.2376025712399
30
3.4443856904431414e-05
40
1.6000000000000003
210
-5.5614693810710536e-29
220
1.0410563169081451e-22
230
1
0
CIRCLE
5
155
100
AcDbEntity
8
0
100
AcDbCircle
10
-397.5880531838763
20
725.2376025712399
30
3.444385693995855e-05
40
1.5999999999999701
210
-5.5614693810710536e-29
220
1.0410563169081451e-22
230
1
0
CIRCLE
5
156
100
AcDbEntity
8
0
100
AcDbCircle
10
-417.58805318387431
20
652.23760257119795
30
3.4443856975485687e-05
40
1.5999999999999701
210
-5.5614693810710536e-29
220
1.0410563169081451e-22
230
1
0
CIRCLE
5
157
100
AcDbEntity
8
0
100
AcDbCircle
10
-397.5880531838763
20
580.23760257124081
30
3.4443857011012824e-05
40
1.5999999999999701
210
-5.5614693810710536e-29
220
1.0410563169081451e-22
230
1
0
CIRCLE
5
158
100
AcDbEntity
8
0
100
AcDbCircle
10
-397.5880531838763
20
600.23760257124081
30
3.4443857011012824e-05
40
1.5999999999999701
210
-5.5614693810710536e-29
220
1.0410563169081451e-22
230
1
0
CIRCLE
5
159
100
AcDbEntity
8
0
100
AcDbCircle
10
-417.58805318387431
20
672.23760257119795
30
3.4443856975485687e-05
40
1.5999999999999701
210
-5.5614693810710536e-29
220
1.0410563169081451e-22
230
1
0
CIRCLE
5
160
100
AcDbEntity
8
0
100
AcDbCircle
10
-397.5880531838763
20
745.2376025712399
30
3.444385693995855e-05
40
1.5999999999999701
210
-5.5614693810710536e-29
220
1.0410563169081451e-22
230
1
0
CIRCLE
5
161
100
AcDbEntity
8
0
100
AcDbCircle
10
-281.58805318387624
20
725.2376025712399
30
3.4443856904431414e-05
40
1.6000000000000003
210
-5.5614693810710536e-29
220
1.0410563169081451e-22
230
1
0
CIRCLE
5
162
100
AcDbEntity
8
0
100
AcDbCircle
10
-281.58805318387425
20
652.23760257119693
30
3.444385693995855e-05
40
1.6000000000000003
210
-5.5614693810710536e-29
220
1.0410563169081451e-22
230
1
0
CIRCLE
5
163
100
AcDbEntity
8
0
100
AcDbCircle
10
-301.58805318387624
20
580.23760257123979
30
3.4443856975485687e-05
40
1.6000000000000003
210
-5.5614693810710536e-29
220
1.0410563169081451e-22
230
1
0
CIRCLE
5
164
100
AcDbEntity
8
0
100
AcDbCircle
10
-281.58805318387624
20
600.23760257123979
30
3.4443856975485687e-05
40
1.6000000000000003
210
-5.5614693810710536e-29
220
1.0410563169081451e-22
230
1
0
CIRCLE
5
165
100
AcDbEntity
8
0
100
AcDbCircle
10
-301.58805318387425
20
672.23760257119693
30
3.444385693995855e-05
40
1.6000000000000003
210
-5.5614693810710536e-29
220
1.0410563169081451e-22
230
1
0
CIRCLE
5
166
100
AcDbEntity
8
0
100
AcDbCircle
10
-301.58805318387624
20
745.2376025712399
30
3.4443856904431414e-05
40
1.6000000000000003
210
-5.5614693810710536e-29
220
1.0410563169081451e-22
230
1
0
CIRCLE
5
167
100
AcDbEntity
8
0
100
AcDbCircle
10
-417.5880531838763
20
725.2376025712399
30
3.444385693995855e-05
40
1.5999999999999701
210
-5.5614693810710536e-29
220
1.0410563169081451e-22
230
1
0
CIRCLE
5
168
100
AcDbEntity
8
0
100
AcDbCircle
10
-397.58805318387431
20
652.23760257119795
30
3.4443856975485687e-05
40
1.5999999999999701
210
-5.5614693810710536e-29
220
1.0410563169081451e-22
230
1
0
CIRCLE
5
169
100
AcDbEntity
8
0
100
AcDbCircle
10
-417.5880531838763
20
580.23760257124081
30
3.4443857011012824e-05
40
1.5999999999999701
210
-5.5614693810710536e-29
220
1.0410563169081451e-22
230
1
0
CIRCLE
5
170
100
AcDbEntity
8
0
100
AcDbCircle
10
-417.5880531838763
20
600.23760257124081
30
3.4443857011012824e-05
40
1.5999999999999701
210
-5.5614693810710536e-29
220
1.0410563169081451e-22
230
1
0
CIRCLE
5
171
100
AcDbEntity
8
0
100
AcDbCircle
10
-397.58805318387431
20
672.23760257119795
30
3.4443856975485687e-05
40
1.5999999999999701
210
-5.5614693810710536e-29
220
1.0410563169081451e-22
230
1
0
CIRCLE
5
172
100
AcDbEntity
8
0
100
AcDbCircle
10
-417.5880531838763
20
745.2376025712399
30
3.444385693995855e-05
40
1.5999999999999701
210
-5.5614693810710536e-29
220
1.0410563169081451e-22
230
1
0
CIRCLE
5
173
100
AcDbEntity
8
0
100
AcDbCircle
10
-281.58805318387624
20
745.2376025712399
30
3.4443856904431414e-05
40
1.6000000000000003
210
-5.5614693810710536e-29
220
1.0410563169081451e-22
230
1
0
CIRCLE
5
174
100
AcDbEntity
8
0
100
AcDbCircle
10
-281.58805318387425
20
672.23760257119693
30
3.444385693995855e-05
40
1.6000000000000003
210
-5.5614693810710536e-29
220
1.0410563169081451e-22
230
1
0
CIRCLE
5
175
100
AcDbEntity
8
0
100
AcDbCircle
10
-301.58805318387624
20
600.23760257123979
30
3.4443856975485687e-05
40
1.6000000000000003
210
-5.5614693810710536e-29
220
1.0410563169081451e-22
230
1
0
CIRCLE
5
176
100
AcDbEntity
8
0
100
AcDbCircle
10
-326.58805374523632
20
800.48760304330995
30
3.4443856904431414e-05
40
2.5
210
-5.5663997617286849e-29
220
1.0410563169081451e-22
230
1
0
CIRCLE
5
177
100
AcDbEntity
8
0
100
AcDbCircle
10
-374.53047544153833
20
641.25971859277206
30
3.4443856975485687e-05
40
2.1000000000000099
210
-5.5614693810710536e-29
220
1.0410563169081451e-22
230
1
0
CIRCLE
5
178
100
AcDbEntity
8
0
100
AcDbCircle
10
-324.55706486867132
20
611.21544732992481
30
3.4443856975485687e-05
40
2.1000000000000099
210
-5.5614693810710536e-29
220
1.0410563169081451e-22
230
1
0
CIRCLE
5
179
100
AcDbEntity
8
0
100
AcDbCircle
10
-324.53049505140933
20
641.21543556400286
30
3.4443856975485687e-05
40
2.1000000000000099
210
-5.5614693810710536e-29
220
1.0410563169081451e-22
230
1
0
CIRCLE
5
180
100
AcDbEntity
8
0
100
AcDbCircle
10
-372.58805374523632
20
800.48760304330995
30
3.4443856904431414e-05
40
2.5
210
-5.5663997617286849e-29
220
1.0410563169081451e-22
230
1
0
CIRCLE
5
181
100
AcDbEntity
8
0
100
AcDbCircle
10
-326.58805374523632
20
787.48760304330995
30
3.4443856904431414e-05
40
2.5
210
-5.5663997617286849e-29
220
1.0410563169081451e-22
230
1
0
CIRCLE
5
182
100
AcDbEntity
8
0
100
AcDbCircle
10
-374.55704525880031
20
611.25973035869481
30
3.4443856975485687e-05
40
2.1000000000000099
210
-5.5614693810710536e-29
220
1.0410563169081451e-22
230
1
0
CIRCLE
5
183
100
AcDbEntity
8
0
100
AcDbCircle
10
-326.58805374523632
20
586.23760304330983
30
3.4443857011012824e-05
40
2.5
210
-5.5663997617286849e-29
220
1.0410563169081451e-22
230
1
0
CIRCLE
5
184
100
AcDbEntity
8
0
100
AcDbCircle
10
-372.58805374523632
20
586.23760304330983
30
3.4443857011012824e-05
40
2.5
210
-5.5663997617286849e-29
220
1.0410563169081451e-22
230
1
0
CIRCLE
5
185
100
AcDbEntity
8
0
100
AcDbCircle
10
-372.58805374523632
20
787.48760304330995
30
3.4443856904431414e-05
40
2.5000000000000706
210
-5.5565390004134223e-29
220
1.0410563169081451e-22
230
1
0
ARC
5
186
100
AcDbEntity
8
0
100
AcDbCircle
10
-322.43170856152233
20
837.65175629052806
30
1.2726636443574999e-45
40
2.0000000000000466
210
6.9726111936839911e-32
220
-3.941151930913548e-45
230
1
100
AcDbArc
50
-135
51
45
0
LINE
5
187
100
AcDbEntity
8
0
100
AcDbLine
10
-323.84592212389543
20
836.23754272815495
30
9.8607613152619064e-32
11
-328.18906787440324
21
836.23754272815506
31
-2.9741622460775075e-46
0
ARC
5
188
100
AcDbEntity
8
0
100
AcDbCircle
10
-329.60328143677634
20
837.65175629052817
30
-4.9674935795889511e-45
40
1.9999999999998954
210
3.4863055968419315e-32
220
3.4863055968422807e-32
230
1
100
AcDbArc
50
135.0000000000058
51
315
0
LINE
5
189
100
AcDbEntity
8
0
100
AcDbLine
10
-331.01749499914951
20
839.06596985290105
30
6.0379748909465256e-48
11
-331.01749499914933
21
846.23754272815506
31
0
0
LINE
5
190
100
AcDbEntity
8
0
100
AcDbLine
10
-331.01749499914933
20
846.23754272815506
30
0
11
-336.75906787440334
21
846.23754272815506
31
-3.9317974251004977e-46
0
ARC
5
191
100
AcDbEntity
8
0
100
AcDbCircle
10
-338.17328143677634
20
847.65175629052806
30
6.240157223946451e-45
40
1.999999999999996
210
3.4863055968417093e-32
220
-1.0458916790526096e-31
230
1
100
AcDbArc
50
135.00000000000347
51
315
0
LINE
5
192
100
AcDbEntity
8
0
100
AcDbLine
10
-339.5874949991495
20
849.06596985290105
30
1.9721522630524551e-31
11
-339.58749499914927
21
855.73754272815506
31
0
0
LINE
5
193
100
AcDbEntity
8
0
100
AcDbLine
10
-339.58749499914927
20
855.73754272815506
30
0
11
-359.58749499914927
21
855.73754272815506
31
-1.3695889647404485e-45
0
LINE
5
194
100
AcDbEntity
8
0
100
AcDbLine
10
-359.58749499914927
20
855.73754272815506
30
-1.3695889647404485e-45
11
-359.58749499914927
21
849.06596985290093
31
0
0
ARC
5
195
100
AcDbEntity
8
0
100
AcDbCircle
10
-361.00170856152232
20
847.65175629052806
30
1.2726636443574999e-45
40
2.0000000000000466
210
6.9726111936839911e-32
220
-3.941151930913548e-45
230
1
100
AcDbArc
50
-135
51
44.999999999996547
0
LINE
5
196
100
AcDbEntity
8
0
100
AcDbLine
10
-362.41592212389543
20
846.23754272815495
30
9.8607613152619064e-32
11
-368.15749499914932
21
846.23754272815506
31
-3.9317974251004494e-46
0
LINE
5
197
100
AcDbEntity
8
0
100
AcDbLine
10
-368.15749499914932
20
846.23754272815506
30
-3.9317974251004494e-46
11
-368.15749499914932
21
839.06596985290093
31
0
0
ARC
5
198
100
AcDbEntity
8
0
100
AcDbCircle
10
-369.57170856152231
20
837.65175629052806
30
1.2726636443574999e-45
40
2.0000000000000466
210
6.9726111936839911e-32
220
-3.941151930913548e-45
230
1
100
AcDbArc
50
-135
51
44.999999999997691
0
LINE
5
199
100
AcDbEntity
8
0
100
AcDbLine
10
-370.98592212389542
20
836.23754272815495
30
9.8607613152619064e-32
11
-375.32906787440334
21
836.23754272815506
31
-2.9741622460775561e-46
0
ARC
5
200
100
AcDbEntity
8
0
100
AcDbCircle
10
-376.74328143677633
20
837.65175629052806
30
6.240157223946451e-45
40
1.999999999999996
210
3.4863055968417093e-32
220
-1.0458916790526096e-31
230
1
100
AcDbArc
50
135.00000000000347
51
315
0
LINE
5
201
100
AcDbEntity
8
0
100
AcDbLine
10
-378.15749499914949
20
839.06596985290105
30
1.9721522630524551e-31
11
-378.15749499914932
21
846.23754272815506
31
0
0
LINE
5
202
100
AcDbEntity
8
0
100
AcDbLine
10
-378.15749499914932
20
846.23754272815506
30
0
11
-406.75962605912935
21
846.23754272815506
31
-1.9586581533904369e-45
0
ARC
5
203
100
AcDbEntity
8
0
100
AcDbCircle
10
-408.1738396215024
20
847.65175629052806
30
6.240157223946451e-45
40
1.999999999999996
210
3.4863055968417093e-32
220
-1.0458916790526096e-31
230
1
100
AcDbArc
50
135.00000000000347
51
315.00000000000119
0
LINE
5
204
100
AcDbEntity
8
0
100
AcDbLine
10
-409.58805318387556
20
849.06596985290105
30
1.9721522630524551e-31
11
-409.58805318387533
21
856.23754272815506
31
0
0
LINE
5
205
100
AcDbEntity
8
0
100
AcDbLine
10
-409.58805318387533
20
856.23754272815506
30
0
11
-429.58805318387533
21
856.23754272815506
31
-1.3695889647404485e-45
0
LINE
5
206
100
AcDbEntity
8
0
100
AcDbLine
10
-429.58805318387533
20
856.23754272815506
30
-1.3695889647404485e-45
11
-429.58805318387533
21
566.23760257121887
31
0
0
LINE
5
207
100
AcDbEntity
8
0
100
AcDbLine
10
-429.58805318387533
20
566.23760257121887
30
0
11
-409.58805318387533
21
566.23760257121876
31
1.3695889647404485e-45
0
LINE
5
208
100
AcDbEntity
8
0
100
AcDbLine
10
-409.58805318387533
20
566.23760257121876
30
1.3695889647404485e-45
11
-409.58805318387533
21
573.40917544647277
31
0
0
ARC
5
209
100
AcDbEntity
8
0
100
AcDbCircle
10
-408.17383962150234
20
574.82338900884565
30
-2.5042736227680776e-45
40
2.0000000000000466
210
3.5087199829383115e-45
220
-6.972611193684037e-32
230
1
100
AcDbArc
50
45.000000000002302
51
224.99999999999767
0
LINE
5
210
100
AcDbEntity
8
0
100
AcDbLine
10
-406.75962605912923
20
576.23760257121887
30
9.8607613152621505e-32
11
-362.41648030862132
21
576.23760257121876
31
3.036594154088658e-45
0
ARC
5
211
100
AcDbEntity
8
0
100
AcDbCircle
10
-361.00226674624832
20
574.82338900884577
30
0
40
1.999999999999996
210
3.4863055968421061e-32
220
3.4863055968421061e-32
230
1
100
AcDbArc
50
-45.000000000001165
51
135
0
LINE
5
212
100
AcDbEntity
8
0
100
AcDbLine
10
-359.58805318387527
20
573.40917544647266
30
-6.0379748909462242e-48
11
-359.58805318387533
21
566.23760257121876
31
0
0
LINE
5
213
100
AcDbEntity
8
0
100
AcDbLine
10
-359.58805318387533
20
566.23760257121876
30
0
11
-339.58805318387533
21
566.23760257121876
31
1.3695889647404485e-45
0
LINE
5
214
100
AcDbEntity
8
0
100
AcDbLine
10
-339.58805318387533
20
566.23760257121876
30
1.3695889647404485e-45
11
-339.58805318387533
21
573.40917544647277
31
0
0
ARC
5
215
100
AcDbEntity
8
0
100
AcDbCircle
10
-338.17383962150234
20
574.82338900884577
30
0
40
1.999999999999996
210
3.4863055968421072e-32
220
3.4863055968421072e-32
230
1
100
AcDbArc
50
45
51
225
0
LINE
5
216
100
AcDbEntity
8
0
100
AcDbLine
10
-336.75962605912923
20
576.23760257121887
30
-9.8607613152626498e-32
11
-292.41648030862132
21
576.23760257121876
31
3.036594154088658e-45
0
ARC
5
217
100
AcDbEntity
8
0
100
AcDbCircle
10
-291.00226674624827
20
574.82338900884577
30
0
40
2.0000000000000213
210
0
220
0
230
1
100
AcDbArc
50
-45
51
135.00000000000117
0
LINE
5
218
100
AcDbEntity
8
0
100
AcDbLine
10
-289.58805318387516
20
573.40917544647266
30
0
11
-289.58805318387527
21
566.23760257121876
31
0
0
LINE
5
219
100
AcDbEntity
8
0
100
AcDbLine
10
-289.58805318387527
20
566.23760257121876
30
0
11
-269.58805318387527
21
566.23760257121876
31
1.3695889647404485e-45
0
LINE
5
220
100
AcDbEntity
8
0
100
AcDbLine
10
-269.58805318387527
20
566.23760257121876
30
1.3695889647404485e-45
11
-269.58805318387527
21
856.23754272815495
31
0
0
LINE
5
221
100
AcDbEntity
8
0
100
AcDbLine
10
-269.58805318387527
20
856.23754272815495
30
0
11
-289.58805318387527
21
856.23754272815506
31
-1.3695889647404485e-45
0
LINE
5
222
100
AcDbEntity
8
0
100
AcDbLine
10
-289.58805318387527
20
856.23754272815506
30
-1.3695889647404485e-45
11
-289.58805318387527
21
849.06596985290093
31
0
0
ARC
5
223
100
AcDbEntity
8
0
100
AcDbCircle
10
-291.00226674624827
20
847.65175629052806
30
1.3684555315672042e-47
40
2.0000000000000213
210
6.9726111936841903e-32
220
-3.2733456315087524e-45
230
1
100
AcDbArc
50
-134.99999999999886
51
44.999999999997691
0
LINE
5
224
100
AcDbEntity
8
0
100
AcDbLine
10
-292.41648030862132
20
846.23754272815495
30
9.8607613152619075e-32
11
-321.01749499914933
21
846.23754272815506
31
-1.9585817050263304e-45
0
LINE
5
225
100
AcDbEntity
8
0
100
AcDbLine
10
-321.01749499914933
20
846.23754272815506
30
-1.9585817050263304e-45
11
-321.01749499914922
21
839.06596985290116
31
-9.8607613152616535e-32
0
CIRCLE
5
226
100
AcDbEntity
8
0
100
AcDbCircle
10
-337.5880546795633
20
642.73756887437105
30
0
40
2.6000000000000503
210
3.5536537887028454e-33
220
2.5429096507047328e-50
230
1
0
CIRCLE
5
227
100
AcDbEntity
8
0
100
AcDbCircle
10
-361.58805467956324
20
642.73756887437105
30
0
40
2.6000000000000503
210
3.5536537887028454e-33
220
2.5429096507047328e-50
230
1
0
CIRCLE
5
228
100
AcDbEntity
8
0
100
AcDbCircle
10
-337.5880546795633
20
682.73756887437105
30
0
40
2.5999999999999801
210
3.5536537887028454e-33
220
2.5429096507047328e-50
230
1
0
CIRCLE
5
229
100
AcDbEntity
8
0
100
AcDbCircle
10
-361.58805467956324
20
682.73756887437105
30
0
40
2.5999999999999801
210
3.5536537887028454e-33
220
2.5429096507047328e-50
230
1
0
CIRCLE
5
230
100
AcDbEntity
8
0
100
AcDbCircle
10
-283.08805318387533
20
698.90420939482192
30
0
40
2.5999999999999801
210
1.0769207796144742e-34
220
2.3354847562427991e-53
230
1
0
CIRCLE
5
231
100
AcDbEntity
8
0
100
AcDbCircle
10
-416.08805318387533
20
767.57087606148889
30
-3.5527136788005009e-14
40
2.5999999999999801
210
1.0769207796144742e-34
220
2.3354847562427991e-53
230
1
0
CIRCLE
5
232
100
AcDbEntity
8
0
100
AcDbCircle
10
-416.08805318387533
20
698.90420939482192
30
0
40
2.5999999999999801
210
1.0769207796144742e-34
220
2.3354847562427991e-53
230
1
0
CIRCLE
5
233
100
AcDbEntity
8
0
100
AcDbCircle
10
-283.08805318387533
20
767.57087606148889
30
0
40
2.5999999999999801
210
1.0769207796144742e-34
220
2.3354847562427991e-53
230
1
0
CIRCLE
5
234
100
AcDbEntity
8
0
100
AcDbCircle
10
-283.08805318387533
20
630.23754272815484
30
0
40
2.5999999999999801
210
1.0769207796144742e-34
220
2.3354847562427991e-53
230
1
0
CIRCLE
5
235
100
AcDbEntity
8
0
100
AcDbCircle
10
-416.08805318387533
20
836.23754272815506
30
-3.5527136788005009e-14
40
2.5999999999999801
210
1.0769207796144742e-34
220
2.3354847562427991e-53
230
1
0
CIRCLE
5
236
100
AcDbEntity
8
0
100
AcDbCircle
10
-416.08805318387533
20
630.23754272815484
30
0
40
2.5999999999999801
210
1.0769207796144742e-34
220
2.3354847562427991e-53
230
1
0
CIRCLE
5
237
100
AcDbEntity
8
0
100
AcDbCircle
10
-283.08805318387533
20
836.23754272815506
30
-3.5527136788005009e-14
40
2.5999999999999801
210
1.0769207796144742e-34
220
2.3354847562427991e-53
230
1
0
CIRCLE
5
238
100
AcDbEntity
8
0
100
AcDbCircle
10
-281.58805318387624
20
580.23760257123979
30
0
40
1.6000000000000003
210
1.0769207795841114e-34
220
2.3354847561111093e-53
230
1
0
CIRCLE
5
239
100
AcDbEntity
8
0
100
AcDbCircle
10
-301.58805318387425
20
652.23760257119693
30
0
40
1.6000000000000003
210
1.0769207795841114e-34
220
2.3354847561111093e-53
230
1
0
CIRCLE
5
240
100
AcDbEntity
8
0
100
AcDbCircle
10
-301.58805318387624
20
725.2376025712399
30
0
40
1.6000000000000003
210
1.0769207795841114e-34
220
2.3354847561111093e-53
230
1
0
CIRCLE
5
241
100
AcDbEntity
8
0
100
AcDbCircle
10
-397.5880531838763
20
725.2376025712399
30
0
40
1.5999999999999701
210
1.0769207795841114e-34
220
2.3354847561111093e-53
230
1
0
CIRCLE
5
242
100
AcDbEntity
8
0
100
AcDbCircle
10
-417.58805318387431
20
652.23760257119795
30
0
40
1.5999999999999701
210
1.0769207795841114e-34
220
2.3354847561111093e-53
230
1
0
CIRCLE
5
243
100
AcDbEntity
8
0
100
AcDbCircle
10
-397.5880531838763
20
580.23760257124081
30
0
40
1.5999999999999701
210
1.0769207795841114e-34
220
2.3354847561111093e-53
230
1
0
CIRCLE
5
244
100
AcDbEntity
8
0
100
AcDbCircle
10
-397.5880531838763
20
600.23760257124081
30
0
40
1.5999999999999701
210
1.0769207795841114e-34
220
2.3354847561111093e-53
230
1
0
CIRCLE
5
245
100
AcDbEntity
8
0
100
AcDbCircle
10
-417.58805318387431
20
672.23760257119795
30
0
40
1.5999999999999701
210
1.0769207795841114e-34
220
2.3354847561111093e-53
230
1
0
CIRCLE
5
246
100
AcDbEntity
8
0
100
AcDbCircle
10
-397.5880531838763
20
745.2376025712399
30
0
40
1.5999999999999701
210
1.0769207795841114e-34
220
2.3354847561111093e-53
230
1
0
CIRCLE
5
247
100
AcDbEntity
8
0
100
AcDbCircle
10
-281.58805318387624
20
725.2376025712399
30
0
40
1.6000000000000003
210
1.0769207795841114e-34
220
2.3354847561111093e-53
230
1
0
CIRCLE
5
248
100
AcDbEntity
8
0
100
AcDbCircle
10
-281.58805318387425
20
652.23760257119693
30
0
40
1.6000000000000003
210
1.0769207795841114e-34
220
2.3354847561111093e-53
230
1
0
CIRCLE
5
249
100
AcDbEntity
8
0
100
AcDbCircle
10
-301.58805318387624
20
580.23760257123979
30
0
40
1.6000000000000003
210
1.0769207795841114e-34
220
2.3354847561111093e-53
230
1
0
CIRCLE
5
250
100
AcDbEntity
8
0
100
AcDbCircle
10
-281.58805318387624
20
600.23760257123979
30
0
40
1.6000000000000003
210
1.0769207795841114e-34
220
2.3354847561111093e-53
230
1
0
CIRCLE
5
251
100
AcDbEntity
8
0
100
AcDbCircle
10
-301.58805318387425
20
672.23760257119693
30
0
40
1.6000000000000003
210
1.0769207795841114e-34
220
2.3354847561111093e-53
230
1
0
CIRCLE
5
252
100
AcDbEntity
8
0
100
AcDbCircle
10
-301.58805318387624
20
745.2376025712399
30
0
40
1.6000000000000003
210
1.0769207795841114e-34
220
2.3354847561111093e-53
230
1
0
CIRCLE
5
253
100
AcDbEntity
8
0
100
AcDbCircle
10
-417.5880531838763
20
725.2376025712399
30
0
40
1.5999999999999701
210
1.0769207795841114e-34
220
2.3354847561111093e-53
230
1
0
CIRCLE
5
254
100
AcDbEntity
8
0
100
AcDbCircle
10
-397.58805318387431
20
652.23760257119795
30
0
40
1.5999999999999701
210
1.0769207795841114e-34
220
2.3354847561111093e-53
230
1
0
CIRCLE
5
255
100
AcDbEntity
8
0
100
AcDbCircle
10
-417.5880531838763
20
580.23760257124081
30
0
40
1.5999999999999701
210
1.0769207795841114e-34
220
2.3354847561111093e-53
230
1
0
CIRCLE
5
256
100
AcDbEntity
8
0
100
AcDbCircle
10
-417.5880531838763
20
600.23760257124081
30
0
40
1.5999999999999701
210
1.0769207795841114e-34
220
2.3354847561111093e-53
230
1
0
CIRCLE
5
257
100
AcDbEntity
8
0
100
AcDbCircle
10
-397.58805318387431
20
672.23760257119795
30
0
40
1.5999999999999701
210
1.0769207795841114e-34
220
2.3354847561111093e-53
230
1
0
CIRCLE
5
258
100
AcDbEntity
8
0
100
AcDbCircle
10
-417.5880531838763
20
745.2376025712399
30
0
40
1.5999999999999701
210
1.0769207795841114e-34
220
2.3354847561111093e-53
230
1
0
CIRCLE
5
259
100
AcDbEntity
8
0
100
AcDbCircle
10
-281.58805318387624
20
745.2376025712399
30
0
40
1.6000000000000003
210
1.0769207795841114e-34
220
2.3354847561111093e-53
230
1
0
CIRCLE
5
260
100
AcDbEntity
8
0
100
AcDbCircle
10
-281.58805318387425
20
672.23760257119693
30
0
40
1.6000000000000003
210
1.0769207795841114e-34
220
2.3354847561111093e-53
230
1
0
CIRCLE
5
261
100
AcDbEntity
8
0
100
AcDbCircle
10
-301.58805318387624
20
600.23760257123979
30
0
40
1.6000000000000003
210
1.0769207795841114e-34
220
2.3354847561111093e-53
230
1
0
CIRCLE
5
262
100
AcDbEntity
8
0
100
AcDbCircle
10
-326.58805374523632
20
800.48760304330995
30
3.5527136788005009e-14
40
2.5
210
1.0769207795557098e-34
220
2.3354847559879261e-53
230
1
0
CIRCLE
5
263
100
AcDbEntity
8
0
100
AcDbCircle
10
-374.53047544153833
20
641.25971859277206
30
0
40
2.1000000000000099
210
1.0769207795557098e-34
220
2.3354847559879261e-53
230
1
0
CIRCLE
5
264
100
AcDbEntity
8
0
100
AcDbCircle
10
-324.55706486867132
20
611.21544732992481
30
0
40
2.1000000000000099
210
1.0769207795557098e-34
220
2.3354847559879261e-53
230
1
0
CIRCLE
5
265
100
AcDbEntity
8
0
100
AcDbCircle
10
-324.53049505140933
20
641.21543556400286
30
0
40
2.1000000000000099
210
1.0769207795557098e-34
220
2.3354847559879261e-53
230
1
0
CIRCLE
5
266
100
AcDbEntity
8
0
100
AcDbCircle
10
-372.58805374523632
20
800.48760304330995
30
0
40
2.5
210
1.0769207795557098e-34
220
2.3354847559879261e-53
230
1
0
CIRCLE
5
267
100
AcDbEntity
8
0
100
AcDbCircle
10
-326.58805374523632
20
787.48760304330995
30
0
40
2.5
210
1.0769207795557098e-34
220
2.3354847559879261e-53
230
1
0
CIRCLE
5
268
100
AcDbEntity
8
0
100
AcDbCircle
10
-374.55704525880031
20
611.25973035869481
30
0
40
2.1000000000000099
210
1.0769207795557098e-34
220
2.3354847559879261e-53
230
1
0
CIRCLE
5
269
100
AcDbEntity
8
0
100
AcDbCircle
10
-326.58805374523632
20
586.23760304330983
30
3.5527136788005009e-14
40
2.5
210
1.0769207795557098e-34
220
2.3354847559879261e-53
230
1
0
CIRCLE
5
270
100
AcDbEntity
8
0
100
AcDbCircle
10
-372.58805374523632
20
586.23760304330983
30
0
40
2.5
210
1.0769207795557098e-34
220
2.3354847559879261e-53
230
1
0
CIRCLE
5
271
100
AcDbEntity
8
0
100
AcDbCircle
10
-372.58805374523632
20
787.48760304330995
30
0
40
2.5000000000000706
210
1.0769207795557096e-34
220
2.3354847559879251e-53
230
1
0
ENDSEC
0
SECTION
2
OBJECTS
0
DICTIONARY
5
C
100
AcDbDictionary
3
ACAD_GROUP
350
D
3
ACAD_MLINESTYLE
350
17
0
DICTIONARY
5
D
100
AcDbDictionary
0
DICTIONARY
5
1A
330
C
100
AcDbDictionary
0
DICTIONARY
5
17
100
AcDbDictionary
0
ENDSEC
0
EOF
