0
SECTION
2
HEADER
9
$INSUNITS
70
4
9
$ACADVER
1
AC1014
9
$HANDSEED
5
FFFF
0
ENDSEC
0
SECTION
2
TABLES
0
TABLE
2
VPORT
5
8
100
AcDbSymbolTable
0
ENDTAB
0
TABLE
2
LTYPE
5
5
100
AcDbSymbolTable
0
LTYPE
5
14
100
AcDbSymbolTableRecord
100
AcDbLinetypeTableRecord
2
BYBLOCK
70
0
0
LTYPE
5
15
100
AcDbSymbolTableRecord
100
AcDbLinetypeTableRecord
2
BYLAYER
70
0
0
ENDTAB
0
TABLE
2
LAYER
5
2
100
AcDbSymbolTable
70
2
0
LAYER
5
50
100
AcDbSymbolTableRecord
100
AcDbLayerTableRecord
2
0
70
0
6
CONTINUOUS
0
ENDTAB
0
TABLE
2
STYLE
5
3
100
AcDbSymbolTable
70
1
0
STYLE
5
11
100
AcDbSymbolTableRecord
100
AcDbTextStyleTableRecord
2
STANDARD
70
0
0
ENDTAB
0
TABLE
2
VIEW
5
6
100
AcDbSymbolTable
70
0
0
ENDTAB
0
TABLE
2
UCS
5
7
100
AcDbSymbolTable
70
0
0
ENDTAB
0
TABLE
2
APPID
5
9
100
AcDbSymbolTable
70
2
0
APPID
5
12
100
AcDbSymbolTableRecord
100
AcDbRegAppTableRecord
2
ACAD
70
0
0
ENDTAB
0
TABLE
2
DIMSTYLE
5
A
100
AcDbSymbolTable
70
1
0
ENDTAB
0
TABLE
2
BLOCK_RECORD
5
1
100
AcDbSymbolTable
70
1
0
BLOCK_RECORD
5
1F
100
AcDbSymbolTableRecord
100
AcDbBlockTableRecord
2
*MODEL_SPACE
0
BLOCK_RECORD
5
1B
100
AcDbSymbolTableRecord
100
AcDbBlockTableRecord
2
*PAPER_SPACE
0
ENDTAB
0
ENDSEC
0
SECTION
2
BLOCKS
0
BLOCK
5
20
100
AcDbEntity
100
AcDbBlockBegin
2
*MODEL_SPACE
0
ENDBLK
5
21
100
AcDbEntity
100
AcDbBlockEnd
0
BLOCK
5
1C
100
AcDbEntity
100
AcDbBlockBegin
2
*PAPER_SPACE
0
ENDBLK
5
1D
100
AcDbEntity
100
AcDbBlockEnd
0
ENDSEC
0
SECTION
2
ENTITIES
0
LWPOLYLINE
5
100
100
AcDbEntity
8
0
100
AcDbPolyline
90
28
70
1
43
0.0
10
191.32257185014504
20
-409.43805318387541
42
-0.99999999999999989
10
194.15099897489119
20
-412.26648030862157
10
194.15099897489114
20
-429.58805318387545
10
203.50099897489113
20
-429.58805318387545
42
0.41421356237309503
10
208.50099897489113
20
-424.58805318387545
10
208.50099897489113
20
-274.58805318387545
42
0.41421356237309503
10
203.50099897489113
20
-269.58805318387545
10
194.15099897489114
20
-269.58805318387545
10
194.15099897489139
20
-287.13943576301511
42
-0.99999999999999989
10
191.55238155403086
20
-289.73805318387571
10
186.6794260996372
20
-289.73805318387559
42
-0.99999999999999989
10
183.85099897489101
20
-286.90962605912932
10
183.85099897489113
20
-269.58805318387545
10
150.00100088223311
20
-269.58805318387545
42
0.41421356237309503
10
145.00100088223311
20
-274.58805318387545
10
145.00100088223311
20
-311.08749499914842
42
-0.41421356237309503
10
140.00100088223311
20
-316.08749499914842
10
138.43100190584613
20
-316.08749499914842
42
0.41421356237306567
10
128.50100190584604
20
-326.01749499914843
10
128.5010019058461
20
-373.15749499914943
42
0.41421356237306567
10
138.43100190584613
20
-383.08749499914848
10
140.00099134549311
20
-383.08749499914944
42
-0.41421356237309503
10
145.00099134549311
20
-388.08749499914944
10
145.00099134549311
20
-424.58805318387545
42
0.41421356237309503
10
150.00099134549311
20
-429.58805318387545
10
183.85099897489113
20
-429.58805318387545
10
183.85099897489101
20
-412.26648030862157
42
-0.99999999999999989
10
186.6794260996372
20
-409.43805318387541
0
LWPOLYLINE
5
101
100
AcDbEntity
8
0
100
AcDbPolyline
90
8
70
1
43
0.0
10
183.85099897489101
20
-342.26592212389556
42
-0.99999999999999989
10
186.6794260996372
20
-339.43749499914935
10
191.32257185014504
20
-339.43749499914935
42
-0.99999999999999989
10
194.15099897489119
20
-342.26592212389556
10
194.15099897489119
20
-356.90906787440332
42
-0.99999999999999989
10
191.32257185014504
20
-359.73749499914953
10
186.6794260996372
20
-359.73749499914953
42
-0.99999999999999989
10
183.85099897489101
20
-356.90906787440332
0
CIRCLE
5
102
100
AcDbEntity
8
0
100
AcDbCircle
10
162.00100190584715
20
-349.58749499914944
30
3.2655677273396577e-07
40
19.25
210
-1.04105631567555e-22
220
-1.4842066346288641e-23
230
1
0
CIRCLE
5
103
100
AcDbEntity
8
0
100
AcDbCircle
10
167.00100190584411
20
-416.08805374524144
30
3.2655663062541862e-07
40
2.6000000000000201
210
-1.6380346650498586e-17
220
-2.1686690427034239e-19
230
1
0
CIRCLE
5
104
100
AcDbEntity
8
0
100
AcDbCircle
10
167.00100190584311
20
-283.08805374523951
30
3.2655677273396577e-07
40
2.6000000000000201
210
-1.6380346650498586e-17
220
-2.1686690427034239e-19
230
1
0
CIRCLE
5
105
100
AcDbEntity
8
0
100
AcDbCircle
10
201.32599897489115
20
-349.58805318387545
30
3.2655663062541862e-07
40
1.6000000000000003
210
-1.04105631567555e-22
220
-1.4842066346288641e-23
230
1
0
CIRCLE
5
106
100
AcDbEntity
8
0
100
AcDbCircle
10
201.32599897489115
20
-384.55055318387542
30
3.2655663062541862e-07
40
1.6000000000000003
210
-1.04105631567555e-22
220
-1.4842066346288641e-23
230
1
0
CIRCLE
5
107
100
AcDbEntity
8
0
100
AcDbCircle
10
201.32599897489115
20
-314.62555318387547
30
3.2655663062541862e-07
40
1.6000000000000003
210
-1.04105631567555e-22
220
-1.4842066346288641e-23
230
1
0
CIRCLE
5
108
100
AcDbEntity
8
0
100
AcDbCircle
10
201.32599897489115
20
-419.51305318387546
30
3.2655663062541862e-07
40
1.6000000000000003
210
-1.04105631567555e-22
220
-1.4842066346288641e-23
230
1
0
CIRCLE
5
109
100
AcDbEntity
8
0
100
AcDbCircle
10
201.32599897489115
20
-279.66305318387549
30
3.2655677273396577e-07
40
1.6000000000000003
210
-1.04105631567555e-22
220
-1.4842066346288641e-23
230
1
0
CIRCLE
5
110
100
AcDbEntity
8
0
100
AcDbCircle
10
138.43100190584613
20
-373.15749499914841
30
3.2655677273396577e-07
40
2.6000000000000001
210
-1.04105631567555e-22
220
-1.4842066346288641e-23
230
1
0
CIRCLE
5
111
100
AcDbEntity
8
0
100
AcDbCircle
10
138.43100190584613
20
-326.01749499914945
30
3.2655677273396577e-07
40
2.6000000000000001
210
-1.04105631567555e-22
220
-1.4842066346288641e-23
230
1
0
CIRCLE
5
112
100
AcDbEntity
8
0
100
AcDbCircle
10
185.57100190584714
20
-326.01749499914945
30
3.2655677273396577e-07
40
2.6000000000000201
210
-1.04105631567555e-22
220
-1.4842066346288641e-23
230
1
0
CIRCLE
5
113
100
AcDbEntity
8
0
100
AcDbCircle
10
185.57100190584714
20
-373.15749499914943
30
3.2655663062541862e-07
40
2.6000000000000201
210
-1.04105631567555e-22
220
-1.4842066346288641e-23
230
1
0
LWPOLYLINE
5
114
100
AcDbEntity
8
0
100
AcDbPolyline
90
28
70
1
43
0.0
10
191.32257185014504
20
-409.43805318387541
42
-0.99999999999999989
10
194.15099897489119
20
-412.26648030862157
10
194.15099897489114
20
-429.58805318387545
10
203.50099897489113
20
-429.58805318387545
42
0.41421356237310125
10
208.5009989748911
20
-424.58805318387545
10
208.50099897489113
20
-274.58805318387545
42
0.41421356237309293
10
203.50099897489113
20
-269.58805318387545
10
194.15099897489114
20
-269.58805318387545
10
194.15099897489139
20
-287.13943576301511
42
-0.99999999999999989
10
191.55238155403086
20
-289.73805318387571
10
186.67942609963728
20
-289.73805318387559
42
-0.99999999999999989
10
183.85099897489101
20
-286.90962605912932
10
183.85099897489113
20
-269.58805318387545
10
150.00100088223314
20
-269.58805318387545
42
0.41421356237309503
10
145.00100088223314
20
-274.58805318387545
10
145.00100088223311
20
-311.08749499914842
42
-0.41421356237309503
10
140.00100088223311
20
-316.08749499914842
10
138.43100190584613
20
-316.08749499914842
42
0.41421356237306567
10
128.50100190584604
20
-326.01749499914843
10
128.5010019058461
20
-373.15749499914943
42
0.41421356237306567
10
138.43100190584613
20
-383.08749499914848
10
140.00099134549311
20
-383.08749499914944
42
-0.41421356237309503
10
145.00099134549311
20
-388.08749499914944
10
145.00099134549311
20
-424.58805318387545
42
0.41421356237310125
10
150.00099134549311
20
-429.58805318387545
10
183.85099897489113
20
-429.58805318387545
10
183.85099897489101
20
-412.26648030862157
42
-0.99999999999999989
10
186.6794260996372
20
-409.43805318387541
0
CIRCLE
5
115
100
AcDbEntity
8
0
100
AcDbCircle
10
162.00100190584715
20
-349.58749499914944
30
0
40
19.25
210
-2.4651903288156624e-32
220
2.4651903288156624e-32
230
1
0
CIRCLE
5
116
100
AcDbEntity
8
0
100
AcDbCircle
10
167.00100190584411
20
-416.08805374524144
30
0
40
2.6000000000000201
210
0
220
-0
230
1
0
CIRCLE
5
117
100
AcDbEntity
8
0
100
AcDbCircle
10
167.00100190584311
20
-283.08805374523951
30
0
40
2.6000000000000201
210
0
220
-0
230
1
0
CIRCLE
5
118
100
AcDbEntity
8
0
100
AcDbCircle
10
201.32599897489115
20
-349.58805318387545
30
0
40
1.6000000000000003
210
0
220
-0
230
1
0
CIRCLE
5
119
100
AcDbEntity
8
0
100
AcDbCircle
10
201.32599897489115
20
-384.55055318387542
30
0
40
1.6000000000000003
210
0
220
-0
230
1
0
CIRCLE
5
120
100
AcDbEntity
8
0
100
AcDbCircle
10
201.32599897489115
20
-314.62555318387547
30
0
40
1.6000000000000003
210
0
220
-0
230
1
0
CIRCLE
5
121
100
AcDbEntity
8
0
100
AcDbCircle
10
201.32599897489115
20
-419.51305318387546
30
0
40
1.6000000000000003
210
0
220
-0
230
1
0
CIRCLE
5
122
100
AcDbEntity
8
0
100
AcDbCircle
10
201.32599897489115
20
-279.66305318387549
30
0
40
1.6000000000000003
210
0
220
-0
230
1
0
LWPOLYLINE
5
123
100
AcDbEntity
8
0
100
AcDbPolyline
90
8
70
1
43
0.0
10
183.85099897489101
20
-342.26592212389556
42
-0.99999999999999989
10
186.6794260996372
20
-339.43749499914935
10
191.32257185014504
20
-339.43749499914935
42
-0.99999999999999989
10
194.15099897489119
20
-342.26592212389556
10
194.15099897489119
20
-356.90906787440332
42
-0.99999999999999989
10
191.32257185014504
20
-359.73749499914953
10
186.6794260996372
20
-359.73749499914953
42
-0.99999999999999989
10
183.85099897489101
20
-356.90906787440332
0
CIRCLE
5
124
100
AcDbEntity
8
0
100
AcDbCircle
10
138.43100190584713
20
-373.15749499914943
30
0
40
2.6000000000000001
210
2.4651903288156619e-32
220
-2.4651903288156619e-32
230
1
0
CIRCLE
5
125
100
AcDbEntity
8
0
100
AcDbCircle
10
138.43100190584713
20
-326.01749499914945
30
0
40
2.6000000000000001
210
2.4651903288156619e-32
220
-2.4651903288156619e-32
230
1
0
CIRCLE
5
126
100
AcDbEntity
8
0
100
AcDbCircle
10
185.57100190584714
20
-326.01749499914945
30
0
40
2.6000000000000201
210
0
220
-0
230
1
0
CIRCLE
5
127
100
AcDbEntity
8
0
100
AcDbCircle
10
185.57100190584714
20
-373.15749499914943
30
0
40
2.6000000000000201
210
0
220
-0
230
1
0
ENDSEC
0
SECTION
2
OBJECTS
0
DICTIONARY
5
C
100
AcDbDictionary
3
ACAD_GROUP
350
D
3
ACAD_MLINESTYLE
350
17
0
DICTIONARY
5
D
100
AcDbDictionary
0
DICTIONARY
5
1A
330
C
100
AcDbDictionary
0
DICTIONARY
5
17
100
AcDbDictionary
0
ENDSEC
0
EOF
