0
SECTION
2
HEADER
9
$INSUNITS
70
4
9
$ACADVER
1
AC1014
9
$HANDSEED
5
FFFF
0
ENDSEC
0
SECTION
2
TABLES
0
TABLE
2
VPORT
5
8
100
AcDbSymbolTable
0
ENDTAB
0
TABLE
2
LTYPE
5
5
100
AcDbSymbolTable
0
LTYPE
5
14
100
AcDbSymbolTableRecord
100
AcDbLinetypeTableRecord
2
BYBLOCK
70
0
0
LTYPE
5
15
100
AcDbSymbolTableRecord
100
AcDbLinetypeTableRecord
2
BYLAYER
70
0
0
ENDTAB
0
TABLE
2
LAYER
5
2
100
AcDbSymbolTable
70
2
0
LAYER
5
50
100
AcDbSymbolTableRecord
100
AcDbLayerTableRecord
2
0
70
0
6
CONTINUOUS
0
ENDTAB
0
TABLE
2
STYLE
5
3
100
AcDbSymbolTable
70
1
0
STYLE
5
11
100
AcDbSymbolTableRecord
100
AcDbTextStyleTableRecord
2
STANDARD
70
0
0
ENDTAB
0
TABLE
2
VIEW
5
6
100
AcDbSymbolTable
70
0
0
ENDTAB
0
TABLE
2
UCS
5
7
100
AcDbSymbolTable
70
0
0
ENDTAB
0
TABLE
2
APPID
5
9
100
AcDbSymbolTable
70
2
0
APPID
5
12
100
AcDbSymbolTableRecord
100
AcDbRegAppTableRecord
2
ACAD
70
0
0
ENDTAB
0
TABLE
2
DIMSTYLE
5
A
100
AcDbSymbolTable
70
1
0
ENDTAB
0
TABLE
2
BLOCK_RECORD
5
1
100
AcDbSymbolTable
70
1
0
BLOCK_RECORD
5
1F
100
AcDbSymbolTableRecord
100
AcDbBlockTableRecord
2
*MODEL_SPACE
0
BLOCK_RECORD
5
1B
100
AcDbSymbolTableRecord
100
AcDbBlockTableRecord
2
*PAPER_SPACE
0
ENDTAB
0
ENDSEC
0
SECTION
2
BLOCKS
0
BLOCK
5
20
100
AcDbEntity
100
AcDbBlockBegin
2
*MODEL_SPACE
0
ENDBLK
5
21
100
AcDbEntity
100
AcDbBlockEnd
0
BLOCK
5
1C
100
AcDbEntity
100
AcDbBlockBegin
2
*PAPER_SPACE
0
ENDBLK
5
1D
100
AcDbEntity
100
AcDbBlockEnd
0
ENDSEC
0
SECTION
2
ENTITIES
0
CIRCLE
5
100
100
AcDbEntity
8
0
100
AcDbCircle
10
372.58805374523934
20
782.48760304328368
30
0
40
2.4999999999999289
210
3.4543478535931611e-33
220
-2.4718395552745107e-50
230
1
0
CIRCLE
5
101
100
AcDbEntity
8
0
100
AcDbCircle
10
326.58805374523928
20
782.48760304330233
30
0
40
2.5
210
3.4543478535931611e-33
220
-2.4718395552745107e-50
230
1
0
CIRCLE
5
102
100
AcDbEntity
8
0
100
AcDbCircle
10
372.58805374524451
20
795.48760304328368
30
0
40
2.5
210
3.4543478535931611e-33
220
-2.4718395552745107e-50
230
1
0
CIRCLE
5
103
100
AcDbEntity
8
0
100
AcDbCircle
10
326.58805374524445
20
795.48760304330233
30
0
40
2.5
210
3.4543478535931611e-33
220
-2.4718395552745107e-50
230
1
0
CIRCLE
5
104
100
AcDbEntity
8
0
100
AcDbCircle
10
337.58805467956284
20
642.73756887437105
30
0
40
2.6000000000000512
210
3.4543478535930666e-33
220
-9.8607613152626476e-32
230
1
0
CIRCLE
5
105
100
AcDbEntity
8
0
100
AcDbCircle
10
361.58805467956279
20
642.73756887437105
30
0
40
2.6000000000000512
210
3.4543478535930666e-33
220
-9.8607613152626476e-32
230
1
0
CIRCLE
5
106
100
AcDbEntity
8
0
100
AcDbCircle
10
337.5880546795629
20
682.73756887437094
30
-3.5527136788005009e-14
40
2.5999999999999801
210
3.4543478535930666e-33
220
-2.4718395552743749e-50
230
1
0
CIRCLE
5
107
100
AcDbEntity
8
0
100
AcDbCircle
10
361.58805467956284
20
682.73756887437094
30
0
40
2.5999999999999801
210
3.4543478535930666e-33
220
-2.4718395552743749e-50
230
1
0
CIRCLE
5
108
100
AcDbEntity
8
0
100
AcDbCircle
10
283.08805318387488
20
698.90420939482192
30
0
40
2.5999999999999801
210
1.0468265072352436e-34
220
-2.2699431467042512e-53
230
1
0
CIRCLE
5
109
100
AcDbEntity
8
0
100
AcDbCircle
10
416.08805318387476
20
767.57087606148866
30
0
40
2.5999999999999801
210
1.0468265072352436e-34
220
-2.2699431467042512e-53
230
1
0
CIRCLE
5
110
100
AcDbEntity
8
0
100
AcDbCircle
10
416.08805318387482
20
698.90420939482215
30
0
40
2.5999999999999801
210
1.0468265072352436e-34
220
-2.2699431467042512e-53
230
1
0
CIRCLE
5
111
100
AcDbEntity
8
0
100
AcDbCircle
10
283.08805318387476
20
767.57087606148855
30
0
40
2.5999999999999801
210
1.0468265072352436e-34
220
-2.2699431467042512e-53
230
1
0
CIRCLE
5
112
100
AcDbEntity
8
0
100
AcDbCircle
10
283.08805318387488
20
630.23754272815506
30
3.5527136788005009e-14
40
2.5999999999999801
210
1.0468265072352436e-34
220
-2.2699431467042512e-53
230
1
0
CIRCLE
5
113
100
AcDbEntity
8
0
100
AcDbCircle
10
416.08805318387482
20
836.23754272815495
30
0
40
2.5999999999999801
210
1.0468265072352436e-34
220
-2.2699431467042512e-53
230
1
0
CIRCLE
5
114
100
AcDbEntity
8
0
100
AcDbCircle
10
416.08805318387482
20
630.23754272815518
30
3.5527136788005009e-14
40
2.5999999999999801
210
1.0468265072352436e-34
220
-2.2699431467042512e-53
230
1
0
CIRCLE
5
115
100
AcDbEntity
8
0
100
AcDbCircle
10
283.08805318387488
20
836.23754272815472
30
0
40
2.5999999999999801
210
1.0468265072352436e-34
220
-2.2699431467042512e-53
230
1
0
ARC
5
116
100
AcDbEntity
8
0
100
AcDbCircle
10
322.43170856152199
20
837.65175629052828
30
-3.5527136788005009e-14
40
1.999999999999996
210
0
220
0
230
1
100
AcDbArc
50
134.99999999999653
51
314.99999999999773
0
LINE
5
117
100
AcDbEntity
8
0
100
AcDbLine
10
321.01749499914894
20
839.0659698529015
30
-3.5527136788005009e-14
11
321.01749499914894
21
846.23754272815529
31
-3.5527136788005009e-14
0
LINE
5
118
100
AcDbEntity
8
0
100
AcDbLine
10
321.01749499914894
20
846.23754272815529
30
-3.5527136788005009e-14
11
292.4164803086212
21
846.23754272815529
31
-3.5527136788005009e-14
0
ARC
5
119
100
AcDbEntity
8
0
100
AcDbCircle
10
291.0022667462481
20
847.65175629052828
30
3.5527136788005009e-14
40
1.999999999999996
210
0
220
0
230
1
100
AcDbArc
50
134.99999999999653
51
315.00000000000227
0
LINE
5
120
100
AcDbEntity
8
0
100
AcDbLine
10
289.58805318387505
20
849.0659698529015
30
3.5527136788005009e-14
11
289.58805318387499
21
856.23754272815529
31
3.5527136788005009e-14
0
LINE
5
121
100
AcDbEntity
8
0
100
AcDbLine
10
289.58805318387499
20
856.23754272815529
30
3.5527136788005009e-14
11
269.58805318387499
21
856.23754272815529
31
3.5527136788005009e-14
0
LINE
5
122
100
AcDbEntity
8
0
100
AcDbLine
10
269.58805318387499
20
856.23754272815529
30
3.5527136788005009e-14
11
269.58805318387505
21
566.2376025712191
31
0
0
LINE
5
123
100
AcDbEntity
8
0
100
AcDbLine
10
269.58805318387505
20
566.2376025712191
30
0
11
289.58805318387505
21
566.23760257121899
31
1.2941128703950697e-45
0
LINE
5
124
100
AcDbEntity
8
0
100
AcDbLine
10
289.58805318387505
20
566.23760257121899
30
1.2941128703950697e-45
11
289.5880531838751
21
573.40917544647289
31
3.5527136788005009e-14
0
ARC
5
125
100
AcDbEntity
8
0
100
AcDbCircle
10
291.00226674624827
20
574.82338900884599
30
2.7369110631344083e-47
40
2.0000000000000213
210
3.4863055968420163e-32
220
-3.4863055968421061e-32
230
1
100
AcDbArc
50
44.999999999996547
51
224.99999999999883
0
LINE
5
126
100
AcDbEntity
8
0
100
AcDbLine
10
292.41648030862143
20
576.23760257121899
30
-4.8985066502459135e-45
11
336.75962605912872
21
576.23760257121887
31
-1.5479664109831875e-30
0
ARC
5
127
100
AcDbEntity
8
0
100
AcDbCircle
10
338.17383962150194
20
574.82338900884599
30
-6.8422776578360209e-48
40
2.0000000000000466
210
3.4863055968418439e-32
220
3.4863055968423683e-32
230
1
100
AcDbArc
50
-45.000000000002288
51
135.00000000000693
0
LINE
5
128
100
AcDbEntity
8
0
100
AcDbLine
10
339.58805318387505
20
573.40917544647277
30
9.8906324294030743e-45
11
339.58805318387505
21
566.23760257121899
31
0
0
LINE
5
129
100
AcDbEntity
8
0
100
AcDbLine
10
339.58805318387505
20
566.23760257121899
30
0
11
359.58805318387505
21
566.23760257121899
31
1.2941128703950697e-45
0
LINE
5
130
100
AcDbEntity
8
0
100
AcDbLine
10
359.58805318387505
20
566.23760257121899
30
1.2941128703950697e-45
11
359.58805318387505
21
573.40917544647277
31
0
0
ARC
5
131
100
AcDbEntity
8
0
100
AcDbCircle
10
361.00226674624815
20
574.82338900884599
30
-2.4774337208151441e-45
40
1.9999999999999458
210
1.7406754361534837e-45
220
6.9726111936842155e-32
230
1
100
AcDbArc
50
44.999999999996547
51
225.00000000000227
0
LINE
5
132
100
AcDbEntity
8
0
100
AcDbLine
10
362.41648030862132
20
576.23760257121899
30
-9.8607613152621538e-32
11
406.75962605912889
21
576.23760257121899
31
2.8692517814768139e-45
0
ARC
5
133
100
AcDbEntity
8
0
100
AcDbCircle
10
408.17383962150194
20
574.82338900884588
30
-4.9401244689576071e-45
40
1.999999999999996
210
2.6383822648615684e-45
220
6.9726111936841235e-32
230
1
100
AcDbArc
50
-45.00000000000346
51
134.99999999999886
0
LINE
5
134
100
AcDbEntity
8
0
100
AcDbLine
10
409.58805318387499
20
573.40917544647266
30
9.8607613152621516e-32
11
409.58805318387499
21
566.23760257121887
31
0
0
LINE
5
135
100
AcDbEntity
8
0
100
AcDbLine
10
409.58805318387499
20
566.23760257121887
30
0
11
429.58805318387499
21
566.23760257121887
31
3.5527136788005009e-14
0
LINE
5
136
100
AcDbEntity
8
0
100
AcDbLine
10
429.58805318387499
20
566.23760257121887
30
3.5527136788005009e-14
11
429.58805318387488
21
856.23754272815518
31
3.5527136788005009e-14
0
LINE
5
137
100
AcDbEntity
8
0
100
AcDbLine
10
429.58805318387488
20
856.23754272815518
30
3.5527136788005009e-14
11
409.58805318387499
21
856.23754272815529
31
3.5527136788005009e-14
0
LINE
5
138
100
AcDbEntity
8
0
100
AcDbLine
10
409.58805318387499
20
856.23754272815529
30
3.5527136788005009e-14
11
409.58805318387499
21
849.0659698529015
31
3.5527136788005009e-14
0
ARC
5
139
100
AcDbEntity
8
0
100
AcDbCircle
10
408.17383962150188
20
847.65175629052828
30
3.5527136788005009e-14
40
2.0000000000000466
210
0
220
0
230
1
100
AcDbArc
50
-135.00000000000463
51
45.000000000002302
0
LINE
5
140
100
AcDbEntity
8
0
100
AcDbLine
10
406.75962605912866
20
846.23754272815529
30
3.5527136788005009e-14
11
378.15749499914892
21
846.23754272815529
31
-1.8507192962723205e-45
0
LINE
5
141
100
AcDbEntity
8
0
100
AcDbLine
10
378.15749499914892
20
846.23754272815529
30
-1.8507192962723205e-45
11
378.15749499914892
21
839.0659698529015
31
-3.5527136788005009e-14
0
ARC
5
142
100
AcDbEntity
8
0
100
AcDbCircle
10
376.74328143677587
20
837.65175629052828
30
1.2316099784104838e-45
40
2.0000000000000466
210
-6.9726111936839484e-32
220
-1.762570724658559e-45
230
1
100
AcDbArc
50
-135.0000000000058
51
45.00000000000346
0
LINE
5
143
100
AcDbEntity
8
0
100
AcDbLine
10
375.3290678744026
20
836.23754272815529
30
-9.860761315263392e-32
11
370.98592212389519
21
836.23754272815529
31
-2.8102604068666982e-46
0
ARC
5
144
100
AcDbEntity
8
0
100
AcDbCircle
10
369.57170856152197
20
837.65175629052828
30
1.2458237424048466e-45
40
1.999999999999996
210
6.9726111936842538e-32
220
3.0324974579529232e-45
230
1
100
AcDbArc
50
134.99999999999653
51
315.0000000000046
0
LINE
5
145
100
AcDbEntity
8
0
100
AcDbLine
10
368.15749499914892
20
839.0659698529015
30
9.8607613152619075e-32
11
368.15749499914892
21
846.23754272815529
31
-3.5527136788005009e-14
0
LINE
5
146
100
AcDbEntity
8
0
100
AcDbLine
10
368.15749499914892
20
846.23754272815529
30
-3.5527136788005009e-14
11
362.4159221238952
21
846.23754272815529
31
-3.5527136788005009e-14
0
ARC
5
147
100
AcDbEntity
8
0
100
AcDbCircle
10
361.00170856152198
20
847.65175629052828
30
1.2458237424048466e-45
40
1.999999999999996
210
6.9726111936842538e-32
220
3.0324974579529232e-45
230
1
100
AcDbArc
50
134.99999999999653
51
315.0000000000046
0
LINE
5
148
100
AcDbEntity
8
0
100
AcDbLine
10
359.58749499914893
20
849.0659698529015
30
9.8607613152619075e-32
11
359.58749499914893
21
855.7375427281554
31
2.9582283945787943e-30
0
LINE
5
149
100
AcDbEntity
8
0
100
AcDbLine
10
359.58749499914893
20
855.7375427281554
30
2.9582283945787943e-30
11
339.58749499914893
21
855.7375427281554
31
-1.2941128703950697e-45
0
LINE
5
150
100
AcDbEntity
8
0
100
AcDbLine
10
339.58749499914893
20
855.7375427281554
30
-1.2941128703950697e-45
11
339.58749499914893
21
849.0659698529015
31
0
0
ARC
5
151
100
AcDbEntity
8
0
100
AcDbCircle
10
338.17328143677582
20
847.65175629052828
30
1.2316099784104838e-45
40
2.0000000000000466
210
-6.9726111936839484e-32
220
-1.762570724658559e-45
230
1
100
AcDbArc
50
-135.00000000000463
51
45.000000000002302
0
LINE
5
152
100
AcDbEntity
8
0
100
AcDbLine
10
336.7590678744026
20
846.23754272815529
30
-9.860761315263392e-32
11
331.01749499914894
21
846.23754272815529
31
-3.5527136788005009e-14
0
LINE
5
153
100
AcDbEntity
8
0
100
AcDbLine
10
331.01749499914894
20
846.23754272815529
30
-3.5527136788005009e-14
11
331.01749499914894
21
839.0659698529015
31
-3.5527136788005009e-14
0
ARC
5
154
100
AcDbEntity
8
0
100
AcDbCircle
10
329.60328143677589
20
837.65175629052828
30
-3.5527136788005009e-14
40
2.0000000000000466
210
0
220
0
230
1
100
AcDbArc
50
-135.0000000000058
51
45.00000000000346
0
LINE
5
155
100
AcDbEntity
8
0
100
AcDbLine
10
328.18906787440261
20
836.23754272815529
30
-3.5527136788005009e-14
11
323.84592212389498
21
836.23754272815518
31
-3.5527136788005009e-14
0
CIRCLE
5
156
100
AcDbEntity
8
0
100
AcDbCircle
10
281.5880531838759
20
580.23760257124013
30
0
40
1.6000000000000014
210
1.0468265072057305e-34
220
-2.2699431465762548e-53
230
1
0
CIRCLE
5
157
100
AcDbEntity
8
0
100
AcDbCircle
10
301.58805318387397
20
652.23760257119716
30
0
40
1.6000000000000014
210
1.0468265072057305e-34
220
-2.2699431465762548e-53
230
1
0
CIRCLE
5
158
100
AcDbEntity
8
0
100
AcDbCircle
10
301.5880531838759
20
725.23760257124025
30
3.5527136788005009e-14
40
1.6000000000000014
210
1.0468265072057305e-34
220
-2.2699431465762548e-53
230
1
0
CIRCLE
5
159
100
AcDbEntity
8
0
100
AcDbCircle
10
397.58805318387579
20
725.23760257124025
30
0
40
1.5999999999999659
210
1.0468265072057305e-34
220
-2.2699431465762548e-53
230
1
0
CIRCLE
5
160
100
AcDbEntity
8
0
100
AcDbCircle
10
417.5880531838738
20
652.23760257119818
30
0
40
1.5999999999999659
210
1.0468265072057305e-34
220
-2.2699431465762548e-53
230
1
0
CIRCLE
5
161
100
AcDbEntity
8
0
100
AcDbCircle
10
397.58805318387579
20
580.23760257124115
30
0
40
1.5999999999999659
210
1.0468265072057305e-34
220
-2.2699431465762548e-53
230
1
0
CIRCLE
5
162
100
AcDbEntity
8
0
100
AcDbCircle
10
397.58805318387579
20
600.23760257124115
30
0
40
1.5999999999999659
210
1.0468265072057305e-34
220
-2.2699431465762548e-53
230
1
0
CIRCLE
5
163
100
AcDbEntity
8
0
100
AcDbCircle
10
417.5880531838738
20
672.23760257119818
30
0
40
1.5999999999999659
210
1.0468265072057305e-34
220
-2.2699431465762548e-53
230
1
0
CIRCLE
5
164
100
AcDbEntity
8
0
100
AcDbCircle
10
397.58805318387579
20
745.23760257124025
30
0
40
1.5999999999999659
210
1.0468265072057305e-34
220
-2.2699431465762548e-53
230
1
0
CIRCLE
5
165
100
AcDbEntity
8
0
100
AcDbCircle
10
281.5880531838759
20
725.23760257124025
30
0
40
1.6000000000000014
210
1.0468265072057305e-34
220
-2.2699431465762548e-53
230
1
0
CIRCLE
5
166
100
AcDbEntity
8
0
100
AcDbCircle
10
281.58805318387397
20
652.23760257119716
30
0
40
1.6000000000000014
210
1.0468265072057305e-34
220
-2.2699431465762548e-53
230
1
0
CIRCLE
5
167
100
AcDbEntity
8
0
100
AcDbCircle
10
301.5880531838759
20
580.23760257124013
30
0
40
1.6000000000000014
210
1.0468265072057305e-34
220
-2.2699431465762548e-53
230
1
0
CIRCLE
5
168
100
AcDbEntity
8
0
100
AcDbCircle
10
281.5880531838759
20
600.23760257124013
30
0
40
1.6000000000000014
210
1.0468265072057305e-34
220
-2.2699431465762548e-53
230
1
0
CIRCLE
5
169
100
AcDbEntity
8
0
100
AcDbCircle
10
301.58805318387397
20
672.23760257119716
30
0
40
1.6000000000000014
210
1.0468265072057305e-34
220
-2.2699431465762548e-53
230
1
0
CIRCLE
5
170
100
AcDbEntity
8
0
100
AcDbCircle
10
301.5880531838759
20
745.23760257124025
30
0
40
1.6000000000000014
210
1.0468265072057305e-34
220
-2.2699431465762548e-53
230
1
0
CIRCLE
5
171
100
AcDbEntity
8
0
100
AcDbCircle
10
417.58805318387579
20
725.23760257124025
30
0
40
1.5999999999999659
210
1.0468265072057305e-34
220
-2.2699431465762548e-53
230
1
0
CIRCLE
5
172
100
AcDbEntity
8
0
100
AcDbCircle
10
397.5880531838738
20
652.23760257119818
30
0
40
1.5999999999999659
210
1.0468265072057305e-34
220
-2.2699431465762548e-53
230
1
0
CIRCLE
5
173
100
AcDbEntity
8
0
100
AcDbCircle
10
417.58805318387579
20
580.23760257124115
30
0
40
1.5999999999999659
210
1.0468265072057305e-34
220
-2.2699431465762548e-53
230
1
0
CIRCLE
5
174
100
AcDbEntity
8
0
100
AcDbCircle
10
417.58805318387579
20
600.23760257124115
30
0
40
1.5999999999999659
210
1.0468265072057305e-34
220
-2.2699431465762548e-53
230
1
0
CIRCLE
5
175
100
AcDbEntity
8
0
100
AcDbCircle
10
397.5880531838738
20
672.23760257119818
30
0
40
1.5999999999999659
210
1.0468265072057305e-34
220
-2.2699431465762548e-53
230
1
0
CIRCLE
5
176
100
AcDbEntity
8
0
100
AcDbCircle
10
417.58805318387579
20
745.23760257124025
30
0
40
1.5999999999999659
210
1.0468265072057305e-34
220
-2.2699431465762548e-53
230
1
0
CIRCLE
5
177
100
AcDbEntity
8
0
100
AcDbCircle
10
281.5880531838759
20
745.23760257124025
30
0
40
1.6000000000000014
210
1.0468265072057305e-34
220
-2.2699431465762548e-53
230
1
0
CIRCLE
5
178
100
AcDbEntity
8
0
100
AcDbCircle
10
281.58805318387397
20
672.23760257119716
30
0
40
1.6000000000000014
210
1.0468265072057305e-34
220
-2.2699431465762548e-53
230
1
0
CIRCLE
5
179
100
AcDbEntity
8
0
100
AcDbCircle
10
301.5880531838759
20
600.23760257124013
30
0
40
1.6000000000000014
210
1.0468265072057305e-34
220
-2.2699431465762548e-53
230
1
0
CIRCLE
5
180
100
AcDbEntity
8
0
100
AcDbCircle
10
372.58805374523581
20
586.23760304331017
30
0
40
2.5
210
1.0468265071781214e-34
220
-2.2699431464565166e-53
230
1
0
CIRCLE
5
181
100
AcDbEntity
8
0
100
AcDbCircle
10
326.58805374523581
20
586.23760304331017
30
0
40
2.5
210
1.0468265071781214e-34
220
-2.2699431464565166e-53
230
1
0
CIRCLE
5
182
100
AcDbEntity
8
0
100
AcDbCircle
10
374.5570452587998
20
611.25973035869504
30
0
40
2.1000000000000085
210
4.9408489227031052e-32
220
-9.8607613152626476e-32
230
1
0
CIRCLE
5
183
100
AcDbEntity
8
0
100
AcDbCircle
10
324.53049505140882
20
641.21543556400297
30
0
40
2.1000000000000085
210
4.9408489227031052e-32
220
-9.8607613152626476e-32
230
1
0
CIRCLE
5
184
100
AcDbEntity
8
0
100
AcDbCircle
10
324.55706486867081
20
611.21544732992515
30
-3.5527136788005009e-14
40
2.1000000000000085
210
4.9408489227031052e-32
220
-9.8607613152626476e-32
230
1
0
CIRCLE
5
185
100
AcDbEntity
8
0
100
AcDbCircle
10
374.53047544153782
20
641.25971859277217
30
0
40
2.1000000000000085
210
4.9408489227031052e-32
220
-9.8607613152626476e-32
230
1
0
ENDSEC
0
SECTION
2
OBJECTS
0
DICTIONARY
5
C
100
AcDbDictionary
3
ACAD_GROUP
350
D
3
ACAD_MLINESTYLE
350
17
0
DICTIONARY
5
D
100
AcDbDictionary
0
DICTIONARY
5
1A
330
C
100
AcDbDictionary
0
DICTIONARY
5
17
100
AcDbDictionary
0
ENDSEC
0
EOF
