0
SECTION
2
HEADER
9
$INSUNITS
70
4
9
$ACADVER
1
AC1014
9
$HANDSEED
5
FFFF
0
ENDSEC
0
SECTION
2
TABLES
0
TABLE
2
VPORT
5
8
100
AcDbSymbolTable
0
ENDTAB
0
TABLE
2
LTYPE
5
5
100
AcDbSymbolTable
0
LTYPE
5
14
100
AcDbSymbolTableRecord
100
AcDbLinetypeTableRecord
2
BYBLOCK
70
0
0
LTYPE
5
15
100
AcDbSymbolTableRecord
100
AcDbLinetypeTableRecord
2
BYLAYER
70
0
0
ENDTAB
0
TABLE
2
LAYER
5
2
100
AcDbSymbolTable
70
2
0
LAYER
5
50
100
AcDbSymbolTableRecord
100
AcDbLayerTableRecord
2
0
70
0
6
CONTINUOUS
0
ENDTAB
0
TABLE
2
STYLE
5
3
100
AcDbSymbolTable
70
1
0
STYLE
5
11
100
AcDbSymbolTableRecord
100
AcDbTextStyleTableRecord
2
STANDARD
70
0
0
ENDTAB
0
TABLE
2
VIEW
5
6
100
AcDbSymbolTable
70
0
0
ENDTAB
0
TABLE
2
UCS
5
7
100
AcDbSymbolTable
70
0
0
ENDTAB
0
TABLE
2
APPID
5
9
100
AcDbSymbolTable
70
2
0
APPID
5
12
100
AcDbSymbolTableRecord
100
AcDbRegAppTableRecord
2
ACAD
70
0
0
ENDTAB
0
TABLE
2
DIMSTYLE
5
A
100
AcDbSymbolTable
70
1
0
ENDTAB
0
TABLE
2
BLOCK_RECORD
5
1
100
AcDbSymbolTable
70
1
0
BLOCK_RECORD
5
1F
100
AcDbSymbolTableRecord
100
AcDbBlockTableRecord
2
*MODEL_SPACE
0
BLOCK_RECORD
5
1B
100
AcDbSymbolTableRecord
100
AcDbBlockTableRecord
2
*PAPER_SPACE
0
ENDTAB
0
ENDSEC
0
SECTION
2
BLOCKS
0
BLOCK
5
20
100
AcDbEntity
100
AcDbBlockBegin
2
*MODEL_SPACE
0
ENDBLK
5
21
100
AcDbEntity
100
AcDbBlockEnd
0
BLOCK
5
1C
100
AcDbEntity
100
AcDbBlockBegin
2
*PAPER_SPACE
0
ENDBLK
5
1D
100
AcDbEntity
100
AcDbBlockEnd
0
ENDSEC
0
SECTION
2
ENTITIES
0
ARC
5
100
100
AcDbEntity
8
0
100
AcDbCircle
10
-185.26521372471012
20
-410.8522667462484
30
-3.2655705695106008e-07
40
1.999999999999996
210
0
220
0
230
1
100
AcDbArc
50
-45.000000000000561
51
135.00000000000117
0
LINE
5
101
100
AcDbEntity
8
0
100
AcDbLine
10
-183.85100016233704
20
-412.26648030862151
30
-3.2655705695106008e-07
11
-183.85100016233713
21
-429.58805318387539
31
-3.2655705695106008e-07
0
LINE
5
102
100
AcDbEntity
8
0
100
AcDbLine
10
-183.85100016233713
20
-429.58805318387539
30
-3.2655705695106008e-07
11
-150.00099253293914
21
-429.58805318387539
31
-3.2655705695106008e-07
0
ARC
5
103
100
AcDbEntity
8
0
100
AcDbCircle
10
-150.00099253293914
20
-424.58805318387539
30
-3.2655705695106008e-07
40
5
210
0
220
0
230
1
100
AcDbArc
50
-90
51
0
0
LINE
5
104
100
AcDbEntity
8
0
100
AcDbLine
10
-145.00099253293914
20
-424.58805318387539
30
-3.2655705695106008e-07
11
-145.00099253293914
21
-274.58805318387545
31
-3.2655705695106008e-07
0
ARC
5
105
100
AcDbEntity
8
0
100
AcDbCircle
10
-150.00100206967915
20
-274.58805318387545
30
-3.2655705695106008e-07
40
5.0000095367400199
210
0
220
0
230
1
100
AcDbArc
50
0
51
90
0
LINE
5
106
100
AcDbEntity
8
0
100
AcDbLine
10
-150.00100206967915
20
-269.58805318387545
30
-3.2655705695106008e-07
11
-183.85100016233713
21
-269.58805318387545
31
-3.2655705695106008e-07
0
LINE
5
107
100
AcDbEntity
8
0
100
AcDbLine
10
-183.85100016233713
20
-269.58805318387545
30
-3.2655705695106008e-07
11
-183.85100016233713
21
-286.90962605912944
31
-3.2655705695106008e-07
0
ARC
5
108
100
AcDbEntity
8
0
100
AcDbCircle
10
-185.26521372471012
20
-288.32383962150243
30
-3.2655705695106008e-07
40
1.999999999999996
210
0
220
0
230
1
100
AcDbArc
50
-135
51
45
0
LINE
5
109
100
AcDbEntity
8
0
100
AcDbLine
10
-186.67942728708323
20
-289.73805318387554
30
-3.2655705695106008e-07
11
-191.32257303759116
21
-289.73805318387542
31
-3.2655705695106008e-07
0
ARC
5
110
100
AcDbEntity
8
0
100
AcDbCircle
10
-192.73678659996415
20
-288.32383962150243
30
-3.2655705695106008e-07
40
1.999999999999996
210
0
220
0
230
1
100
AcDbArc
50
134.99999999999943
51
315
0
LINE
5
111
100
AcDbEntity
8
0
100
AcDbLine
10
-194.15100016233723
20
-286.90962605912932
30
-3.2655705695106008e-07
11
-194.15100016233714
21
-269.58805318387545
31
-3.2655705695106008e-07
0
LINE
5
112
100
AcDbEntity
8
0
100
AcDbLine
10
-194.15100016233714
20
-269.58805318387545
30
-3.2655705695106008e-07
11
-200.00100016233714
21
-269.58805318387545
31
-3.2655705695106008e-07
0
ARC
5
113
100
AcDbEntity
8
0
100
AcDbCircle
10
-200.00100016233714
20
-274.58805318387545
30
-3.2655705695106008e-07
40
5
210
0
220
-0
230
1
100
AcDbArc
50
90
51
180
0
LINE
5
114
100
AcDbEntity
8
0
100
AcDbLine
10
-205.00100016233714
20
-274.58805318387545
30
-3.2655705695106008e-07
11
-205.00100016233714
21
-424.58805318387539
31
-3.2655705695106008e-07
0
ARC
5
115
100
AcDbEntity
8
0
100
AcDbCircle
10
-200.00100016233714
20
-424.58805318387539
30
-3.2655705695106008e-07
40
5
210
0
220
0
230
1
100
AcDbArc
50
180
51
270
0
LINE
5
116
100
AcDbEntity
8
0
100
AcDbLine
10
-200.00100016233714
20
-429.58805318387539
30
-3.2655705695106008e-07
11
-194.15100016233714
21
-429.58805318387539
31
-3.2655705695106008e-07
0
LINE
5
117
100
AcDbEntity
8
0
100
AcDbLine
10
-194.15100016233714
20
-429.58805318387539
30
-3.2655705695106008e-07
11
-194.15100016233714
21
-412.26648030862145
31
-3.2655705695106008e-07
0
ARC
5
118
100
AcDbEntity
8
0
100
AcDbCircle
10
-192.73678659996415
20
-410.8522667462484
30
-3.2655705695106008e-07
40
1.999999999999996
210
0
220
-0
230
1
100
AcDbArc
50
44.999999999998849
51
225.00000000000117
0
LINE
5
119
100
AcDbEntity
8
0
100
AcDbLine
10
-191.32257303759104
20
-409.43805318387535
30
-3.2655705695106008e-07
11
-186.67942728708323
21
-409.43805318387535
31
-3.2655705695106008e-07
0
LWPOLYLINE
5
120
100
AcDbEntity
8
0
100
AcDbPolyline
90
8
70
1
43
0.0
10
-183.85100016233704
20
-356.90906787440326
42
-0.99999999999999989
10
-186.67942728708323
20
-359.73749499914948
10
-191.32257303759104
20
-359.73749499914948
42
-0.99999999999999989
10
-194.15100016233723
20
-356.90906787440326
10
-194.15100016233723
20
-342.26592212389551
42
-0.99999999999999989
10
-191.32257303759104
20
-339.43749499914929
10
-186.67942728708323
20
-339.43749499914929
42
-0.99999999999999989
10
-183.85100016233704
20
-342.26592212389551
0
CIRCLE
5
121
100
AcDbEntity
8
0
100
AcDbCircle
10
172.25100309329213
20
-394.33805374523945
30
3.2655705695104795e-07
40
3.4000000000000004
210
1.0410563220850448e-22
220
-1.4842066543503868e-23
230
-1
0
CIRCLE
5
122
100
AcDbEntity
8
0
100
AcDbCircle
10
172.25100309329116
20
-304.83805374523843
30
3.2655705695104663e-07
40
3.4000000000000004
210
1.0410563220850448e-22
220
-1.4842066543503868e-23
230
-1
0
CIRCLE
5
123
100
AcDbEntity
8
0
100
AcDbCircle
10
167.00100309329014
20
-416.08805374524138
30
3.2655705430576146e-07
40
2.6000000000000201
210
1.6380346650499384e-17
220
-2.168669042753709e-19
230
-1
0
CIRCLE
5
124
100
AcDbEntity
8
0
100
AcDbCircle
10
167.00100309328914
20
-283.08805374523945
30
3.2655705427691819e-07
40
2.6000000000000201
210
1.6380346650499384e-17
220
-2.168669042753709e-19
230
-1
0
CIRCLE
5
125
100
AcDbEntity
8
0
100
AcDbCircle
10
177.50100309329315
20
-326.58805374523638
30
3.2655705695104642e-07
40
2.1000000000000099
210
1.0410563220850448e-22
220
-1.4842066543503868e-23
230
-1
0
CIRCLE
5
126
100
AcDbEntity
8
0
100
AcDbCircle
10
162.50100309329315
20
-326.58805374523638
30
3.2655705695104801e-07
40
2.1000000000000099
210
1.0410563220850448e-22
220
-1.4842066543503868e-23
230
-1
0
CIRCLE
5
127
100
AcDbEntity
8
0
100
AcDbCircle
10
162.50100309329315
20
-372.58805374523638
30
3.2655705695104869e-07
40
2.1000000000000099
210
1.0410563220850448e-22
220
-1.4842066543503868e-23
230
-1
0
CIRCLE
5
128
100
AcDbEntity
8
0
100
AcDbCircle
10
177.50100309329315
20
-372.58805374523638
30
3.2655705695104711e-07
40
2.1000000000000099
210
1.0410563220850448e-22
220
-1.4842066543503868e-23
230
-1
0
CIRCLE
5
129
100
AcDbEntity
8
0
100
AcDbCircle
10
162.00100309329216
20
-349.58805374523644
30
3.2655705695104843e-07
40
11.25
210
1.0410563220850448e-22
220
-1.4842066543503868e-23
230
-1
0
ARC
5
130
100
AcDbEntity
8
0
100
AcDbCircle
10
-185.26521372471012
20
-410.8522667462484
30
0
40
1.999999999999996
210
-0
220
0
230
1
100
AcDbArc
50
-45.000000000000561
51
135.00000000000117
0
LINE
5
131
100
AcDbEntity
8
0
100
AcDbLine
10
-183.85100016233704
20
-412.26648030862151
30
0
11
-183.85100016233713
21
-429.58805318387539
31
0
0
LINE
5
132
100
AcDbEntity
8
0
100
AcDbLine
10
-183.85100016233713
20
-429.58805318387539
30
0
11
-150.00099253293914
21
-429.58805318387539
31
0
0
ARC
5
133
100
AcDbEntity
8
0
100
AcDbCircle
10
-150.00099253293914
20
-424.58805318387539
30
0
40
5
210
-0
220
0
230
1
100
AcDbArc
50
-90
51
0
0
LINE
5
134
100
AcDbEntity
8
0
100
AcDbLine
10
-145.00099253293914
20
-424.58805318387539
30
0
11
-145.00099253293914
21
-274.58805318387545
31
0
0
ARC
5
135
100
AcDbEntity
8
0
100
AcDbCircle
10
-150.00100206967915
20
-274.58805318387545
30
0
40
5.0000095367400199
210
0
220
-7.4056144101804038e-37
230
1
100
AcDbArc
50
0
51
90
0
LINE
5
136
100
AcDbEntity
8
0
100
AcDbLine
10
-150.00100206967915
20
-269.58805318387545
30
3.7028072050902016e-36
11
-183.85100016233713
21
-269.58805318387545
31
0
0
LINE
5
137
100
AcDbEntity
8
0
100
AcDbLine
10
-183.85100016233713
20
-269.58805318387545
30
0
11
-183.85100016233713
21
-286.90962605912944
31
0
0
ARC
5
138
100
AcDbEntity
8
0
100
AcDbCircle
10
-185.26521372471012
20
-288.32383962150243
30
0
40
1.999999999999996
210
8.3120002671291948e-39
220
8.3120002671291974e-39
230
1
100
AcDbArc
50
-135
51
45
0
LINE
5
139
100
AcDbEntity
8
0
100
AcDbLine
10
-186.67942728708323
20
-289.73805318387554
30
2.3509887016445748e-38
11
-191.32257303759116
21
-289.73805318387542
31
0
0
ARC
5
140
100
AcDbEntity
8
0
100
AcDbCircle
10
-192.73678659996415
20
-288.32383962150243
30
0
40
1.999999999999996
210
-8.3120002671291948e-39
220
8.3120002671291974e-39
230
1
100
AcDbArc
50
134.99999999999943
51
315
0
LINE
5
141
100
AcDbEntity
8
0
100
AcDbLine
10
-194.15100016233723
20
-286.90962605912932
30
-2.3509887016445748e-38
11
-194.15100016233714
21
-269.58805318387545
31
0
0
LINE
5
142
100
AcDbEntity
8
0
100
AcDbLine
10
-194.15100016233714
20
-269.58805318387545
30
0
11
-200.00100016233714
21
-269.58805318387545
31
0
0
ARC
5
143
100
AcDbEntity
8
0
100
AcDbCircle
10
-200.00100016233711
20
-274.58805318387545
30
0
40
5.0000000000000355
210
0
220
0
230
1
100
AcDbArc
50
90.000000000000327
51
180
0
LINE
5
144
100
AcDbEntity
8
0
100
AcDbLine
10
-205.00100016233714
20
-274.58805318387545
30
0
11
-205.00100016233714
21
-424.58805318387545
31
0
0
ARC
5
145
100
AcDbEntity
8
0
100
AcDbCircle
10
-200.00100016233716
20
-424.58805318387545
30
0
40
4.9999999999999645
210
0
220
0
230
1
100
AcDbArc
50
180
51
270.00000000000034
0
LINE
5
146
100
AcDbEntity
8
0
100
AcDbLine
10
-200.00100016233714
20
-429.58805318387545
30
0
11
-194.15100016233714
21
-429.58805318387539
31
0
0
LINE
5
147
100
AcDbEntity
8
0
100
AcDbLine
10
-194.15100016233714
20
-429.58805318387539
30
0
11
-194.15100016233714
21
-412.26648030862145
31
0
0
ARC
5
148
100
AcDbEntity
8
0
100
AcDbCircle
10
-192.73678659996415
20
-410.8522667462484
30
0
40
1.999999999999996
210
0
220
-0
230
1
100
AcDbArc
50
44.999999999998849
51
225.00000000000117
0
LINE
5
149
100
AcDbEntity
8
0
100
AcDbLine
10
-191.32257303759104
20
-409.43805318387535
30
0
11
-186.67942728708323
21
-409.43805318387535
31
0
0
CIRCLE
5
150
100
AcDbEntity
8
0
100
AcDbCircle
10
-172.25100309329213
20
-394.33805374523945
30
0
40
3.4000000000000004
210
-0
220
0
230
1
0
CIRCLE
5
151
100
AcDbEntity
8
0
100
AcDbCircle
10
-172.25100309329116
20
-304.83805374523843
30
0
40
3.4000000000000004
210
-0
220
0
230
1
0
CIRCLE
5
152
100
AcDbEntity
8
0
100
AcDbCircle
10
-167.00100309329014
20
-416.08805374524138
30
0
40
2.6000000000000201
210
-2.3783777200187343e-34
220
1.9660143017502759e-36
230
1
0
CIRCLE
5
153
100
AcDbEntity
8
0
100
AcDbCircle
10
-167.00100309328914
20
-283.08805374523945
30
0
40
2.6000000000000201
210
-2.3783777200187343e-34
220
1.9660143017502759e-36
230
1
0
CIRCLE
5
154
100
AcDbEntity
8
0
100
AcDbCircle
10
-177.50100309329315
20
-326.58805374523638
30
0
40
2.1000000000000099
210
-0
220
0
230
1
0
CIRCLE
5
155
100
AcDbEntity
8
0
100
AcDbCircle
10
-162.50100309329315
20
-326.58805374523638
30
0
40
2.1000000000000099
210
-0
220
0
230
1
0
CIRCLE
5
156
100
AcDbEntity
8
0
100
AcDbCircle
10
-162.50100309329315
20
-372.58805374523638
30
0
40
2.1000000000000099
210
-0
220
0
230
1
0
CIRCLE
5
157
100
AcDbEntity
8
0
100
AcDbCircle
10
-177.50100309329315
20
-372.58805374523638
30
0
40
2.1000000000000099
210
-0
220
0
230
1
0
CIRCLE
5
158
100
AcDbEntity
8
0
100
AcDbCircle
10
-162.00100309329216
20
-349.58805374523644
30
0
40
11.25
210
0
220
-0
230
1
0
LWPOLYLINE
5
159
100
AcDbEntity
8
0
100
AcDbPolyline
90
8
70
1
43
0.0
10
-183.85100016233704
20
-356.90906787440326
42
-0.99999999999999989
10
-186.67942728708323
20
-359.73749499914948
10
-191.32257303759104
20
-359.73749499914948
42
-0.99999999999999989
10
-194.15100016233723
20
-356.90906787440326
10
-194.15100016233723
20
-342.26592212389551
42
-0.99999999999999989
10
-191.32257303759104
20
-339.43749499914929
10
-186.67942728708323
20
-339.43749499914929
42
-0.99999999999999989
10
-183.85100016233704
20
-342.26592212389551
0
ENDSEC
0
SECTION
2
OBJECTS
0
DICTIONARY
5
C
100
AcDbDictionary
3
ACAD_GROUP
350
D
3
ACAD_MLINESTYLE
350
17
0
DICTIONARY
5
D
100
AcDbDictionary
0
DICTIONARY
5
1A
330
C
100
AcDbDictionary
0
DICTIONARY
5
17
100
AcDbDictionary
0
ENDSEC
0
EOF
