0
SECTION
2
HEADER
9
$INSUNITS
70
4
9
$ACADVER
1
AC1014
9
$HANDSEED
5
FFFF
0
ENDSEC
0
SECTION
2
TABLES
0
TABLE
2
VPORT
5
8
100
AcDbSymbolTable
0
ENDTAB
0
TABLE
2
LTYPE
5
5
100
AcDbSymbolTable
0
LTYPE
5
14
100
AcDbSymbolTableRecord
100
AcDbLinetypeTableRecord
2
BYBLOCK
70
0
0
LTYPE
5
15
100
AcDbSymbolTableRecord
100
AcDbLinetypeTableRecord
2
BYLAYER
70
0
0
ENDTAB
0
TABLE
2
LAYER
5
2
100
AcDbSymbolTable
70
2
0
LAYER
5
50
100
AcDbSymbolTableRecord
100
AcDbLayerTableRecord
2
0
70
0
6
CONTINUOUS
0
ENDTAB
0
TABLE
2
STYLE
5
3
100
AcDbSymbolTable
70
1
0
STYLE
5
11
100
AcDbSymbolTableRecord
100
AcDbTextStyleTableRecord
2
STANDARD
70
0
0
ENDTAB
0
TABLE
2
VIEW
5
6
100
AcDbSymbolTable
70
0
0
ENDTAB
0
TABLE
2
UCS
5
7
100
AcDbSymbolTable
70
0
0
ENDTAB
0
TABLE
2
APPID
5
9
100
AcDbSymbolTable
70
2
0
APPID
5
12
100
AcDbSymbolTableRecord
100
AcDbRegAppTableRecord
2
ACAD
70
0
0
ENDTAB
0
TABLE
2
DIMSTYLE
5
A
100
AcDbSymbolTable
70
1
0
ENDTAB
0
TABLE
2
BLOCK_RECORD
5
1
100
AcDbSymbolTable
70
1
0
BLOCK_RECORD
5
1F
100
AcDbSymbolTableRecord
100
AcDbBlockTableRecord
2
*MODEL_SPACE
0
BLOCK_RECORD
5
1B
100
AcDbSymbolTableRecord
100
AcDbBlockTableRecord
2
*PAPER_SPACE
0
ENDTAB
0
ENDSEC
0
SECTION
2
BLOCKS
0
BLOCK
5
20
100
AcDbEntity
100
AcDbBlockBegin
2
*MODEL_SPACE
0
ENDBLK
5
21
100
AcDbEntity
100
AcDbBlockEnd
0
BLOCK
5
1C
100
AcDbEntity
100
AcDbBlockBegin
2
*PAPER_SPACE
0
ENDBLK
5
1D
100
AcDbEntity
100
AcDbBlockEnd
0
ENDSEC
0
SECTION
2
ENTITIES
0
ARC
5
100
100
AcDbEntity
8
0
100
AcDbCircle
10
322.43170856152238
20
837.65175629052828
30
-3.5631303028083039e-05
40
2.0000000000000466
210
0
220
0
230
1
100
AcDbArc
50
135.0000000000023
51
315
0
LINE
5
101
100
AcDbEntity
8
0
100
AcDbLine
10
321.01749499914916
20
839.06596985290139
30
-3.5631303028083039e-05
11
321.01749499914939
21
846.23754272815529
31
-3.5631303028083039e-05
0
LINE
5
102
100
AcDbEntity
8
0
100
AcDbLine
10
321.01749499914939
20
846.23754272815529
30
-3.5631303028083039e-05
11
292.41648030862137
21
846.23754272815529
31
-3.5631302992555902e-05
0
ARC
5
103
100
AcDbEntity
8
0
100
AcDbCircle
10
291.00226674624838
20
847.65175629052828
30
-3.5631302992555902e-05
40
1.999999999999996
210
0
220
0
230
1
100
AcDbArc
50
135.00000000000117
51
315
0
LINE
5
104
100
AcDbEntity
8
0
100
AcDbLine
10
289.58805318387522
20
849.06596985290139
30
-3.5631302992555902e-05
11
289.58805318387539
21
856.23754272815529
31
-3.5631302957028765e-05
0
LINE
5
105
100
AcDbEntity
8
0
100
AcDbLine
10
289.58805318387539
20
856.23754272815529
30
-3.5631302957028765e-05
11
269.58805318387539
21
856.23754272815529
31
-3.5631302957028765e-05
0
LINE
5
106
100
AcDbEntity
8
0
100
AcDbLine
10
269.58805318387539
20
856.23754272815529
30
-3.5631302957028765e-05
11
269.58805318387539
21
566.2376025712191
31
-3.5631303099137313e-05
0
LINE
5
107
100
AcDbEntity
8
0
100
AcDbLine
10
269.58805318387539
20
566.2376025712191
30
-3.5631303099137313e-05
11
289.58805318387539
21
566.2376025712191
31
-3.5631303099137313e-05
0
LINE
5
108
100
AcDbEntity
8
0
100
AcDbLine
10
289.58805318387539
20
566.2376025712191
30
-3.5631303099137313e-05
11
289.58805318387539
21
573.40917544647311
31
-3.5631303099137313e-05
0
ARC
5
109
100
AcDbEntity
8
0
100
AcDbCircle
10
291.00226674624838
20
574.82338900884611
30
-3.5631303099137313e-05
40
1.999999999999996
210
0
220
-0
230
1
100
AcDbArc
50
45
51
225
0
LINE
5
110
100
AcDbEntity
8
0
100
AcDbLine
10
292.41648030862149
20
576.23760257121921
30
-3.5631303099137313e-05
11
336.75962605912946
21
576.2376025712191
31
-3.5631303134664449e-05
0
ARC
5
111
100
AcDbEntity
8
0
100
AcDbCircle
10
338.1738396215024
20
574.82338900884611
30
-3.5631303134664449e-05
40
1.999999999999996
210
0
220
0
230
1
100
AcDbArc
50
-45.000000000001165
51
134.99999999999886
0
LINE
5
112
100
AcDbEntity
8
0
100
AcDbLine
10
339.58805318387545
20
573.409175446473
30
-3.5631303134664449e-05
11
339.58805318387539
21
566.2376025712191
31
-3.5631303134664449e-05
0
LINE
5
113
100
AcDbEntity
8
0
100
AcDbLine
10
339.58805318387539
20
566.2376025712191
30
-3.5631303134664449e-05
11
359.58805318387539
21
566.2376025712191
31
-3.5631303134664449e-05
0
LINE
5
114
100
AcDbEntity
8
0
100
AcDbLine
10
359.58805318387539
20
566.2376025712191
30
-3.5631303134664449e-05
11
359.58805318387539
21
573.40917544647311
31
-3.5631303134664449e-05
0
ARC
5
115
100
AcDbEntity
8
0
100
AcDbCircle
10
361.00226674624844
20
574.82338900884611
30
-3.5631303134664449e-05
40
1.999999999999996
210
0
220
-0
230
1
100
AcDbArc
50
45
51
224.99999999999883
0
LINE
5
116
100
AcDbEntity
8
0
100
AcDbLine
10
362.41648030862154
20
576.23760257121921
30
-3.5631303134664449e-05
11
406.75962605912946
21
576.2376025712191
31
-3.5631303134664449e-05
0
ARC
5
117
100
AcDbEntity
8
0
100
AcDbCircle
10
408.17383962150245
20
574.82338900884611
30
-3.5631303134664449e-05
40
2.0000000000000466
210
0
220
0
230
1
100
AcDbArc
50
-45
51
135
0
LINE
5
118
100
AcDbEntity
8
0
100
AcDbLine
10
409.58805318387556
20
573.409175446473
30
-3.5631303134664449e-05
11
409.58805318387539
21
566.2376025712191
31
-3.5631303134664449e-05
0
LINE
5
119
100
AcDbEntity
8
0
100
AcDbLine
10
409.58805318387539
20
566.2376025712191
30
-3.5631303134664449e-05
11
429.58805318387539
21
566.2376025712191
31
-3.5631303134664449e-05
0
LINE
5
120
100
AcDbEntity
8
0
100
AcDbLine
10
429.58805318387539
20
566.2376025712191
30
-3.5631303134664449e-05
11
429.58805318387539
21
856.23754272815529
31
-3.5631302992555902e-05
0
LINE
5
121
100
AcDbEntity
8
0
100
AcDbLine
10
429.58805318387539
20
856.23754272815529
30
-3.5631302992555902e-05
11
409.58805318387539
21
856.23754272815529
31
-3.5631302992555902e-05
0
LINE
5
122
100
AcDbEntity
8
0
100
AcDbLine
10
409.58805318387539
20
856.23754272815529
30
-3.5631302992555902e-05
11
409.58805318387539
21
849.06596985290116
31
-3.5631303028083039e-05
0
ARC
5
123
100
AcDbEntity
8
0
100
AcDbCircle
10
408.17383962150245
20
847.65175629052828
30
-3.5631303028083039e-05
40
2.0000000000000466
210
0
220
0
230
1
100
AcDbArc
50
-135
51
44.999999999998849
0
LINE
5
124
100
AcDbEntity
8
0
100
AcDbLine
10
406.75962605912935
20
846.23754272815518
30
-3.5631303028083039e-05
11
378.15749499914938
21
846.23754272815529
31
-3.5631303028083039e-05
0
LINE
5
125
100
AcDbEntity
8
0
100
AcDbLine
10
378.15749499914938
20
846.23754272815529
30
-3.5631303028083039e-05
11
378.15749499914938
21
839.06596985290116
31
-3.5631303028083039e-05
0
ARC
5
126
100
AcDbEntity
8
0
100
AcDbCircle
10
376.74328143677644
20
837.65175629052828
30
-3.5631303028083039e-05
40
2.0000000000000466
210
0
220
0
230
1
100
AcDbArc
50
-135
51
44.999999999998849
0
LINE
5
127
100
AcDbEntity
8
0
100
AcDbLine
10
375.32906787440334
20
836.23754272815518
30
-3.5631303028083039e-05
11
370.98592212389542
21
836.23754272815529
31
-3.5631303028083039e-05
0
ARC
5
128
100
AcDbEntity
8
0
100
AcDbCircle
10
369.57170856152237
20
837.65175629052828
30
-3.5631303028083039e-05
40
2.0000000000000466
210
0
220
0
230
1
100
AcDbArc
50
135.0000000000023
51
315.00000000000119
0
LINE
5
129
100
AcDbEntity
8
0
100
AcDbLine
10
368.15749499914915
20
839.06596985290139
30
-3.5631303028083039e-05
11
368.15749499914938
21
846.23754272815529
31
-3.5631303028083039e-05
0
LINE
5
130
100
AcDbEntity
8
0
100
AcDbLine
10
368.15749499914938
20
846.23754272815529
30
-3.5631303028083039e-05
11
362.41592212389543
21
846.23754272815529
31
-3.5631303028083039e-05
0
ARC
5
131
100
AcDbEntity
8
0
100
AcDbCircle
10
361.00170856152238
20
847.65175629052828
30
-3.5631303028083039e-05
40
2.0000000000000466
210
0
220
0
230
1
100
AcDbArc
50
135.0000000000023
51
315.00000000000119
0
LINE
5
132
100
AcDbEntity
8
0
100
AcDbLine
10
359.58749499914916
20
849.06596985290139
30
-3.5631303028083039e-05
11
359.58749499914938
21
855.7375427281554
31
-3.5631302992555902e-05
0
LINE
5
133
100
AcDbEntity
8
0
100
AcDbLine
10
359.58749499914938
20
855.7375427281554
30
-3.5631302992555902e-05
11
339.58749499914938
21
855.7375427281554
31
-3.5631302992555902e-05
0
LINE
5
134
100
AcDbEntity
8
0
100
AcDbLine
10
339.58749499914938
20
855.7375427281554
30
-3.5631302992555902e-05
11
339.58749499914938
21
849.06596985290116
31
-3.5631303028083039e-05
0
ARC
5
135
100
AcDbEntity
8
0
100
AcDbCircle
10
338.17328143677639
20
847.65175629052828
30
-3.5631303028083039e-05
40
2.0000000000000466
210
0
220
0
230
1
100
AcDbArc
50
-134.99999999999886
51
44.999999999997691
0
LINE
5
136
100
AcDbEntity
8
0
100
AcDbLine
10
336.75906787440334
20
846.23754272815518
30
-3.5631303028083039e-05
11
331.01749499914939
21
846.23754272815529
31
-3.5631303028083039e-05
0
LINE
5
137
100
AcDbEntity
8
0
100
AcDbLine
10
331.01749499914939
20
846.23754272815529
30
-3.5631303028083039e-05
11
331.01749499914939
21
839.06596985290116
31
-3.5631303028083039e-05
0
ARC
5
138
100
AcDbEntity
8
0
100
AcDbCircle
10
329.60328143677646
20
837.65175629052828
30
-3.5631303028083039e-05
40
1.999999999999996
210
0
220
0
230
1
100
AcDbArc
50
-135.00000000000463
51
44.999999999998849
0
LINE
5
139
100
AcDbEntity
8
0
100
AcDbLine
10
328.18906787440324
20
836.23754272815529
30
-3.5631303028083039e-05
11
323.84592212389549
21
836.23754272815518
31
-3.5631303028083039e-05
0
CIRCLE
5
140
100
AcDbEntity
8
0
100
AcDbCircle
10
389.58805306119939
20
774.01612648394439
30
-3.5631303063610176e-05
40
3.40000000000011
210
-5.630494710302203e-29
220
-1.0410563238106781e-22
230
1
0
CIRCLE
5
141
100
AcDbEntity
8
0
100
AcDbCircle
10
309.58805306119939
20
774.01612648394439
30
-3.5631303028083039e-05
40
3.4000000000000004
210
-5.630494710302203e-29
220
-1.0410563238106781e-22
230
1
0
CIRCLE
5
142
100
AcDbEntity
8
0
100
AcDbCircle
10
372.58805374523939
20
782.48760304328425
30
-3.5631303028083039e-05
40
2.4999999999999298
210
-5.630494710302203e-29
220
-1.0410563238106781e-22
230
1
0
CIRCLE
5
143
100
AcDbEntity
8
0
100
AcDbCircle
10
326.58805374523945
20
782.48760304330222
30
-3.5631303028083039e-05
40
2.5
210
-5.630494710302203e-29
220
-1.0410563238106781e-22
230
1
0
CIRCLE
5
144
100
AcDbEntity
8
0
100
AcDbCircle
10
372.58805374524445
20
795.48760304328425
30
-3.5631303028083039e-05
40
2.5
210
-5.630494710302203e-29
220
-1.0410563238106781e-22
230
1
0
CIRCLE
5
145
100
AcDbEntity
8
0
100
AcDbCircle
10
326.58805374524439
20
795.48760304330222
30
-3.5631303028083039e-05
40
2.5
210
-5.630494710302203e-29
220
-1.0410563238106781e-22
230
1
0
CIRCLE
5
146
100
AcDbEntity
8
0
100
AcDbCircle
10
337.58805467956336
20
642.73756887437128
30
-3.5631303099137313e-05
40
2.6000000000000503
210
-5.630494710302203e-29
220
-1.0410563238106781e-22
230
1
0
CIRCLE
5
147
100
AcDbEntity
8
0
100
AcDbCircle
10
361.58805467956336
20
642.73756887437128
30
-3.5631303099137313e-05
40
2.6000000000000503
210
-5.630494710302203e-29
220
-1.0410563238106781e-22
230
1
0
CIRCLE
5
148
100
AcDbEntity
8
0
100
AcDbCircle
10
337.58805467956336
20
682.73756887437128
30
-3.5631303099137313e-05
40
2.5999999999999801
210
-5.6354250909598343e-29
220
-1.0410563238106781e-22
230
1
0
CIRCLE
5
149
100
AcDbEntity
8
0
100
AcDbCircle
10
361.58805467956336
20
682.73756887437128
30
-3.5631303099137313e-05
40
2.5999999999999801
210
-5.6354250909598343e-29
220
-1.0410563238106781e-22
230
1
0
CIRCLE
5
150
100
AcDbEntity
8
0
100
AcDbCircle
10
283.08805318387545
20
698.90420939482226
30
-3.5631303063610176e-05
40
2.5999999999999801
210
-5.6354250909598343e-29
220
-1.0410563238106781e-22
230
1
0
CIRCLE
5
151
100
AcDbEntity
8
0
100
AcDbCircle
10
416.08805318387539
20
767.57087606148912
30
-3.5631303063610176e-05
40
2.5999999999999801
210
-5.6354250909598343e-29
220
-1.0410563238106781e-22
230
1
0
CIRCLE
5
152
100
AcDbEntity
8
0
100
AcDbCircle
10
416.08805318387539
20
698.90420939482226
30
-3.5631303099137313e-05
40
2.5999999999999801
210
-5.6354250909598343e-29
220
-1.0410563238106781e-22
230
1
0
CIRCLE
5
153
100
AcDbEntity
8
0
100
AcDbCircle
10
283.08805318387545
20
767.57087606148912
30
-3.5631303028083039e-05
40
2.5999999999999801
210
-5.6354250909598343e-29
220
-1.0410563238106781e-22
230
1
0
CIRCLE
5
154
100
AcDbEntity
8
0
100
AcDbCircle
10
283.08805318387545
20
630.23754272815518
30
-3.5631303063610176e-05
40
2.5999999999999801
210
-5.6354250909598343e-29
220
-1.0410563238106781e-22
230
1
0
CIRCLE
5
155
100
AcDbEntity
8
0
100
AcDbCircle
10
416.08805318387539
20
836.23754272815529
30
-3.5631303028083039e-05
40
2.5999999999999801
210
-5.6354250909598343e-29
220
-1.0410563238106781e-22
230
1
0
CIRCLE
5
156
100
AcDbEntity
8
0
100
AcDbCircle
10
416.08805318387539
20
630.23754272815518
30
-3.5631303099137313e-05
40
2.5999999999999801
210
-5.6354250909598343e-29
220
-1.0410563238106781e-22
230
1
0
CIRCLE
5
157
100
AcDbEntity
8
0
100
AcDbCircle
10
283.08805318387545
20
836.23754272815529
30
-3.5631302992555902e-05
40
2.5999999999999801
210
-5.6354250909598343e-29
220
-1.0410563238106781e-22
230
1
0
CIRCLE
5
158
100
AcDbEntity
8
0
100
AcDbCircle
10
281.58805318387635
20
580.23760257124013
30
-3.5631303099137313e-05
40
1.6000000000000003
210
-5.630494710302203e-29
220
-1.0410563238106781e-22
230
1
0
CIRCLE
5
159
100
AcDbEntity
8
0
100
AcDbCircle
10
301.58805318387437
20
652.23760257119716
30
-3.5631303063610176e-05
40
1.6000000000000003
210
-5.630494710302203e-29
220
-1.0410563238106781e-22
230
1
0
CIRCLE
5
160
100
AcDbEntity
8
0
100
AcDbCircle
10
301.58805318387635
20
725.23760257124025
30
-3.5631303028083039e-05
40
1.6000000000000003
210
-5.630494710302203e-29
220
-1.0410563238106781e-22
230
1
0
CIRCLE
5
161
100
AcDbEntity
8
0
100
AcDbCircle
10
397.58805318387635
20
725.23760257124025
30
-3.5631303063610176e-05
40
1.5999999999999701
210
-5.6354250909598343e-29
220
-1.0410563238106781e-22
230
1
0
CIRCLE
5
162
100
AcDbEntity
8
0
100
AcDbCircle
10
417.58805318387437
20
652.23760257119818
30
-3.5631303099137313e-05
40
1.5999999999999701
210
-5.6354250909598343e-29
220
-1.0410563238106781e-22
230
1
0
CIRCLE
5
163
100
AcDbEntity
8
0
100
AcDbCircle
10
397.58805318387635
20
580.23760257124115
30
-3.5631303134664449e-05
40
1.5999999999999701
210
-5.6354250909598343e-29
220
-1.0410563238106781e-22
230
1
0
CIRCLE
5
164
100
AcDbEntity
8
0
100
AcDbCircle
10
397.58805318387635
20
600.23760257124115
30
-3.5631303134664449e-05
40
1.5999999999999701
210
-5.6354250909598343e-29
220
-1.0410563238106781e-22
230
1
0
CIRCLE
5
165
100
AcDbEntity
8
0
100
AcDbCircle
10
417.58805318387437
20
672.23760257119818
30
-3.5631303099137313e-05
40
1.5999999999999701
210
-5.6354250909598343e-29
220
-1.0410563238106781e-22
230
1
0
CIRCLE
5
166
100
AcDbEntity
8
0
100
AcDbCircle
10
397.58805318387635
20
745.23760257124025
30
-3.5631303063610176e-05
40
1.5999999999999701
210
-5.6354250909598343e-29
220
-1.0410563238106781e-22
230
1
0
CIRCLE
5
167
100
AcDbEntity
8
0
100
AcDbCircle
10
281.58805318387635
20
725.23760257124025
30
-3.5631303028083039e-05
40
1.6000000000000003
210
-5.630494710302203e-29
220
-1.0410563238106781e-22
230
1
0
CIRCLE
5
168
100
AcDbEntity
8
0
100
AcDbCircle
10
281.58805318387437
20
652.23760257119716
30
-3.5631303063610176e-05
40
1.6000000000000003
210
-5.630494710302203e-29
220
-1.0410563238106781e-22
230
1
0
CIRCLE
5
169
100
AcDbEntity
8
0
100
AcDbCircle
10
301.58805318387635
20
580.23760257124013
30
-3.5631303099137313e-05
40
1.6000000000000003
210
-5.630494710302203e-29
220
-1.0410563238106781e-22
230
1
0
CIRCLE
5
170
100
AcDbEntity
8
0
100
AcDbCircle
10
281.58805318387635
20
600.23760257124013
30
-3.5631303099137313e-05
40
1.6000000000000003
210
-5.630494710302203e-29
220
-1.0410563238106781e-22
230
1
0
CIRCLE
5
171
100
AcDbEntity
8
0
100
AcDbCircle
10
301.58805318387437
20
672.23760257119716
30
-3.5631303063610176e-05
40
1.6000000000000003
210
-5.630494710302203e-29
220
-1.0410563238106781e-22
230
1
0
CIRCLE
5
172
100
AcDbEntity
8
0
100
AcDbCircle
10
301.58805318387635
20
745.23760257124025
30
-3.5631303028083039e-05
40
1.6000000000000003
210
-5.630494710302203e-29
220
-1.0410563238106781e-22
230
1
0
CIRCLE
5
173
100
AcDbEntity
8
0
100
AcDbCircle
10
417.58805318387635
20
725.23760257124025
30
-3.5631303063610176e-05
40
1.5999999999999701
210
-5.6354250909598343e-29
220
-1.0410563238106781e-22
230
1
0
CIRCLE
5
174
100
AcDbEntity
8
0
100
AcDbCircle
10
397.58805318387437
20
652.23760257119818
30
-3.5631303099137313e-05
40
1.5999999999999701
210
-5.6354250909598343e-29
220
-1.0410563238106781e-22
230
1
0
CIRCLE
5
175
100
AcDbEntity
8
0
100
AcDbCircle
10
417.58805318387635
20
580.23760257124115
30
-3.5631303134664449e-05
40
1.5999999999999701
210
-5.6354250909598343e-29
220
-1.0410563238106781e-22
230
1
0
CIRCLE
5
176
100
AcDbEntity
8
0
100
AcDbCircle
10
417.58805318387635
20
600.23760257124115
30
-3.5631303134664449e-05
40
1.5999999999999701
210
-5.6354250909598343e-29
220
-1.0410563238106781e-22
230
1
0
CIRCLE
5
177
100
AcDbEntity
8
0
100
AcDbCircle
10
397.58805318387437
20
672.23760257119818
30
-3.5631303099137313e-05
40
1.5999999999999701
210
-5.6354250909598343e-29
220
-1.0410563238106781e-22
230
1
0
CIRCLE
5
178
100
AcDbEntity
8
0
100
AcDbCircle
10
417.58805318387635
20
745.23760257124025
30
-3.5631303063610176e-05
40
1.5999999999999701
210
-5.6354250909598343e-29
220
-1.0410563238106781e-22
230
1
0
CIRCLE
5
179
100
AcDbEntity
8
0
100
AcDbCircle
10
281.58805318387635
20
745.23760257124025
30
-3.5631303028083039e-05
40
1.6000000000000003
210
-5.630494710302203e-29
220
-1.0410563238106781e-22
230
1
0
CIRCLE
5
180
100
AcDbEntity
8
0
100
AcDbCircle
10
281.58805318387437
20
672.23760257119716
30
-3.5631303063610176e-05
40
1.6000000000000003
210
-5.630494710302203e-29
220
-1.0410563238106781e-22
230
1
0
CIRCLE
5
181
100
AcDbEntity
8
0
100
AcDbCircle
10
301.58805318387635
20
600.23760257124013
30
-3.5631303099137313e-05
40
1.6000000000000003
210
-5.630494710302203e-29
220
-1.0410563238106781e-22
230
1
0
CIRCLE
5
182
100
AcDbEntity
8
0
100
AcDbCircle
10
372.58805374523638
20
586.23760304331017
30
-3.5631303134664449e-05
40
2.5
210
-5.630494710302203e-29
220
-1.0410563238106781e-22
230
1
0
CIRCLE
5
183
100
AcDbEntity
8
0
100
AcDbCircle
10
326.58805374523638
20
586.23760304331017
30
-3.5631303134664449e-05
40
2.5
210
-5.630494710302203e-29
220
-1.0410563238106781e-22
230
1
0
CIRCLE
5
184
100
AcDbEntity
8
0
100
AcDbCircle
10
374.55704525880037
20
611.25973035869515
30
-3.5631303134664449e-05
40
2.1000000000000099
210
-5.6354250909598343e-29
220
-1.0410563238106781e-22
230
1
0
CIRCLE
5
185
100
AcDbEntity
8
0
100
AcDbCircle
10
324.53049505140939
20
641.21543556400309
30
-3.5631303099137313e-05
40
2.1000000000000099
210
-5.6354250909598343e-29
220
-1.0410563238106781e-22
230
1
0
CIRCLE
5
186
100
AcDbEntity
8
0
100
AcDbCircle
10
324.55706486867138
20
611.21544732992515
30
-3.5631303134664449e-05
40
2.1000000000000099
210
-5.6354250909598343e-29
220
-1.0410563238106781e-22
230
1
0
CIRCLE
5
187
100
AcDbEntity
8
0
100
AcDbCircle
10
374.53047544153839
20
641.25971859277229
30
-3.5631303099137313e-05
40
2.1000000000000099
210
-5.6354250909598343e-29
220
-1.0410563238106781e-22
230
1
0
ARC
5
188
100
AcDbEntity
8
0
100
AcDbCircle
10
322.43170856152238
20
837.65175629052851
30
-3.5527136788005009e-14
40
1.9999999999999458
210
0
220
0
230
1
100
AcDbArc
50
135.00000000000693
51
315.00000000000807
0
LINE
5
189
100
AcDbEntity
8
0
100
AcDbLine
10
321.01749499914916
20
839.06596985290139
30
-3.5527136788005009e-14
11
321.01749499914939
21
846.23754272815529
31
-3.5527136788005009e-14
0
LINE
5
190
100
AcDbEntity
8
0
100
AcDbLine
10
321.01749499914939
20
846.23754272815529
30
-3.5527136788005009e-14
11
292.41648030862137
21
846.23754272815529
31
-3.5527136788005009e-14
0
ARC
5
191
100
AcDbEntity
8
0
100
AcDbCircle
10
291.00226674624832
20
847.65175629052828
30
-3.7221990458627953e-45
40
1.9999999999999709
210
1.5545654838603439e-45
220
6.9726111936840152e-32
230
1
100
AcDbArc
50
135
51
315.00000000000119
0
LINE
5
192
100
AcDbEntity
8
0
100
AcDbLine
10
289.58805318387522
20
849.06596985290139
30
-9.8607613152620257e-32
11
289.58805318387539
21
856.23754272815529
31
0
0
LINE
5
193
100
AcDbEntity
8
0
100
AcDbLine
10
289.58805318387539
20
856.23754272815529
30
0
11
269.58805318387539
21
856.23754272815529
31
3.5527136788005009e-14
0
LINE
5
194
100
AcDbEntity
8
0
100
AcDbLine
10
269.58805318387539
20
856.23754272815529
30
3.5527136788005009e-14
11
269.58805318387539
21
566.23760257121921
31
3.5527136788005009e-14
0
LINE
5
195
100
AcDbEntity
8
0
100
AcDbLine
10
269.58805318387539
20
566.23760257121921
30
3.5527136788005009e-14
11
289.58805318387539
21
566.2376025712191
31
1.280231074661486e-45
0
LINE
5
196
100
AcDbEntity
8
0
100
AcDbLine
10
289.58805318387539
20
566.2376025712191
30
1.280231074661486e-45
11
289.58805318387539
21
573.40917544647311
31
3.5527136788005009e-14
0
ARC
5
197
100
AcDbEntity
8
0
100
AcDbCircle
10
291.00226674624838
20
574.82338900884611
30
3.5527136788005009e-14
40
1.999999999999996
210
0
220
-0
230
1
100
AcDbArc
50
45
51
225
0
LINE
5
198
100
AcDbEntity
8
0
100
AcDbLine
10
292.41648030862149
20
576.23760257121921
30
3.5527136788005009e-14
11
336.75962605912946
21
576.2376025712191
31
2.8384736569021916e-45
0
ARC
5
199
100
AcDbEntity
8
0
100
AcDbCircle
10
338.1738396215024
20
574.82338900884611
30
0
40
1.999999999999996
210
-0
220
0
230
1
100
AcDbArc
50
-45.000000000001165
51
134.99999999999886
0
LINE
5
200
100
AcDbEntity
8
0
100
AcDbLine
10
339.58805318387545
20
573.409175446473
30
0
11
339.58805318387539
21
566.2376025712191
31
0
0
LINE
5
201
100
AcDbEntity
8
0
100
AcDbLine
10
339.58805318387539
20
566.2376025712191
30
0
11
359.58805318387539
21
566.2376025712191
31
1.280231074661486e-45
0
LINE
5
202
100
AcDbEntity
8
0
100
AcDbLine
10
359.58805318387539
20
566.2376025712191
30
1.280231074661486e-45
11
359.58805318387539
21
573.40917544647311
31
0
0
ARC
5
203
100
AcDbEntity
8
0
100
AcDbCircle
10
361.00226674624844
20
574.82338900884611
30
0
40
1.999999999999996
210
0
220
-0
230
1
100
AcDbArc
50
45
51
224.99999999999883
0
LINE
5
204
100
AcDbEntity
8
0
100
AcDbLine
10
362.41648030862154
20
576.23760257121921
30
0
11
406.75962605912946
21
576.2376025712191
31
2.8384736569021916e-45
0
ARC
5
205
100
AcDbEntity
8
0
100
AcDbCircle
10
408.17383962150245
20
574.82338900884611
30
1.3684555315672042e-47
40
2.0000000000000466
210
-8.8128536232927949e-46
220
6.9726111936841246e-32
230
1
100
AcDbArc
50
-45
51
135
0
LINE
5
206
100
AcDbEntity
8
0
100
AcDbLine
10
409.58805318387556
20
573.409175446473
30
9.8607613152631446e-32
11
409.58805318387539
21
566.2376025712191
31
0
0
LINE
5
207
100
AcDbEntity
8
0
100
AcDbLine
10
409.58805318387539
20
566.2376025712191
30
0
11
429.58805318387539
21
566.2376025712191
31
3.5527136788005009e-14
0
LINE
5
208
100
AcDbEntity
8
0
100
AcDbLine
10
429.58805318387539
20
566.2376025712191
30
3.5527136788005009e-14
11
429.58805318387539
21
856.23754272815518
31
3.5527136788005009e-14
0
LINE
5
209
100
AcDbEntity
8
0
100
AcDbLine
10
429.58805318387539
20
856.23754272815518
30
3.5527136788005009e-14
11
409.58805318387539
21
856.23754272815529
31
3.5527136788005009e-14
0
LINE
5
210
100
AcDbEntity
8
0
100
AcDbLine
10
409.58805318387539
20
856.23754272815529
30
3.5527136788005009e-14
11
409.58805318387539
21
849.06596985290116
31
3.5527136788005009e-14
0
ARC
5
211
100
AcDbEntity
8
0
100
AcDbCircle
10
408.17383962150245
20
847.65175629052828
30
0
40
2.0000000000000466
210
0
220
0
230
1
100
AcDbArc
50
-135
51
44.999999999998849
0
LINE
5
212
100
AcDbEntity
8
0
100
AcDbLine
10
406.75962605912935
20
846.23754272815518
30
0
11
378.15749499914938
21
846.23754272815529
31
-1.8308668492263472e-45
0
LINE
5
213
100
AcDbEntity
8
0
100
AcDbLine
10
378.15749499914938
20
846.23754272815529
30
-1.8308668492263472e-45
11
378.15749499914938
21
839.06596985290116
31
0
0
ARC
5
214
100
AcDbEntity
8
0
100
AcDbCircle
10
376.74328143677644
20
837.65175629052828
30
0
40
2.0000000000000466
210
0
220
0
230
1
100
AcDbArc
50
-135
51
44.999999999998849
0
LINE
5
215
100
AcDbEntity
8
0
100
AcDbLine
10
375.32906787440334
20
836.23754272815518
30
0
11
370.98592212389542
21
836.23754272815529
31
-2.7801150757921522e-46
0
ARC
5
216
100
AcDbEntity
8
0
100
AcDbCircle
10
369.57170856152237
20
837.65175629052851
30
-6.2127881133151069e-45
40
1.9999999999999458
210
2.1895288505075267e-47
220
6.9726111936842998e-32
230
1
100
AcDbArc
50
135.00000000000693
51
314.99999999999653
0
LINE
5
217
100
AcDbEntity
8
0
100
AcDbLine
10
368.15749499914915
20
839.06596985290139
30
-9.8607613152619031e-32
11
368.15749499914938
21
846.23754272815529
31
0
0
LINE
5
218
100
AcDbEntity
8
0
100
AcDbLine
10
368.15749499914938
20
846.23754272815529
30
0
11
362.41592212389543
21
846.23754272815529
31
-3.5527136788005009e-14
0
ARC
5
219
100
AcDbEntity
8
0
100
AcDbCircle
10
361.00170856152238
20
847.65175629052851
30
-3.5527136788005009e-14
40
1.9999999999999458
210
0
220
0
230
1
100
AcDbArc
50
135.00000000000693
51
314.99999999999653
0
LINE
5
220
100
AcDbEntity
8
0
100
AcDbLine
10
359.58749499914916
20
849.06596985290139
30
-3.5527136788005009e-14
11
359.58749499914938
21
855.7375427281554
31
-3.5527136788005009e-14
0
LINE
5
221
100
AcDbEntity
8
0
100
AcDbLine
10
359.58749499914938
20
855.7375427281554
30
-3.5527136788005009e-14
11
339.58749499914938
21
855.7375427281554
31
-1.280231074661486e-45
0
LINE
5
222
100
AcDbEntity
8
0
100
AcDbLine
10
339.58749499914938
20
855.7375427281554
30
-1.280231074661486e-45
11
339.58749499914938
21
849.06596985290116
31
0
0
ARC
5
223
100
AcDbEntity
8
0
100
AcDbCircle
10
338.17328143677639
20
847.65175629052828
30
-3.5527136788005009e-14
40
2.0000000000000466
210
0
220
0
230
1
100
AcDbArc
50
-134.99999999999886
51
44.999999999997691
0
LINE
5
224
100
AcDbEntity
8
0
100
AcDbLine
10
336.75906787440334
20
846.23754272815518
30
-3.5527136788005009e-14
11
331.01749499914939
21
846.23754272815529
31
-3.5527136788005009e-14
0
LINE
5
225
100
AcDbEntity
8
0
100
AcDbLine
10
331.01749499914939
20
846.23754272815529
30
-3.5527136788005009e-14
11
331.01749499914939
21
839.06596985290116
31
-3.5527136788005009e-14
0
ARC
5
226
100
AcDbEntity
8
0
100
AcDbCircle
10
329.60328143677646
20
837.65175629052828
30
-3.5527136788005009e-14
40
1.999999999999996
210
0
220
0
230
1
100
AcDbArc
50
-135.00000000000463
51
44.999999999998849
0
LINE
5
227
100
AcDbEntity
8
0
100
AcDbLine
10
328.18906787440324
20
836.23754272815529
30
-3.5527136788005009e-14
11
323.84592212389566
21
836.23754272815563
31
-3.5527136788005009e-14
0
CIRCLE
5
228
100
AcDbEntity
8
0
100
AcDbCircle
10
389.58805306119939
20
774.01612648394439
30
0
40
3.40000000000011
210
3.4364416935373555e-33
220
-2.4590354790218414e-50
230
1
0
CIRCLE
5
229
100
AcDbEntity
8
0
100
AcDbCircle
10
309.58805306119939
20
774.01612648394439
30
0
40
3.4000000000000004
210
3.4364416935373548e-33
220
-2.45903547902184e-50
230
1
0
CIRCLE
5
230
100
AcDbEntity
8
0
100
AcDbCircle
10
372.58805374523939
20
782.48760304328425
30
0
40
2.4999999999999298
210
3.4364416935373555e-33
220
-2.4590354790218414e-50
230
1
0
CIRCLE
5
231
100
AcDbEntity
8
0
100
AcDbCircle
10
326.58805374523945
20
782.48760304330222
30
0
40
2.5
210
3.4364416935373555e-33
220
-2.4590354790218414e-50
230
1
0
CIRCLE
5
232
100
AcDbEntity
8
0
100
AcDbCircle
10
372.58805374524445
20
795.48760304328425
30
0
40
2.5
210
3.4364416935373555e-33
220
-2.4590354790218414e-50
230
1
0
CIRCLE
5
233
100
AcDbEntity
8
0
100
AcDbCircle
10
326.58805374524439
20
795.48760304330222
30
0
40
2.5
210
3.4364416935373555e-33
220
-2.4590354790218414e-50
230
1
0
CIRCLE
5
234
100
AcDbEntity
8
0
100
AcDbCircle
10
337.58805467956336
20
642.73756887437128
30
0
40
2.6000000000000503
210
3.4364416935372597e-33
220
-2.4590354790217037e-50
230
1
0
CIRCLE
5
235
100
AcDbEntity
8
0
100
AcDbCircle
10
361.58805467956336
20
642.73756887437128
30
0
40
2.6000000000000503
210
3.4364416935372597e-33
220
-2.4590354790217037e-50
230
1
0
CIRCLE
5
236
100
AcDbEntity
8
0
100
AcDbCircle
10
337.58805467956336
20
682.73756887437128
30
-3.5527136788005009e-14
40
2.5999999999999801
210
3.4364416935372597e-33
220
-2.4590354790217037e-50
230
1
0
CIRCLE
5
237
100
AcDbEntity
8
0
100
AcDbCircle
10
361.58805467956336
20
682.73756887437128
30
0
40
2.5999999999999801
210
3.4364416935372597e-33
220
-2.4590354790217037e-50
230
1
0
CIRCLE
5
238
100
AcDbEntity
8
0
100
AcDbCircle
10
283.08805318387545
20
698.90420939482226
30
0
40
2.5999999999999801
210
1.0414001159788736e-34
220
-2.2584521926399199e-53
230
1
0
CIRCLE
5
239
100
AcDbEntity
8
0
100
AcDbCircle
10
416.08805318387539
20
767.57087606148912
30
0
40
2.5999999999999801
210
1.0414001159788736e-34
220
-2.2584521926399199e-53
230
1
0
CIRCLE
5
240
100
AcDbEntity
8
0
100
AcDbCircle
10
416.08805318387539
20
698.90420939482226
30
0
40
2.5999999999999801
210
1.0414001159788736e-34
220
-2.2584521926399199e-53
230
1
0
CIRCLE
5
241
100
AcDbEntity
8
0
100
AcDbCircle
10
283.08805318387545
20
767.57087606148912
30
0
40
2.5999999999999801
210
1.0414001159788736e-34
220
-2.2584521926399199e-53
230
1
0
CIRCLE
5
242
100
AcDbEntity
8
0
100
AcDbCircle
10
283.08805318387545
20
630.23754272815518
30
3.5527136788005009e-14
40
2.5999999999999801
210
1.0414001159788736e-34
220
-2.2584521926399199e-53
230
1
0
CIRCLE
5
243
100
AcDbEntity
8
0
100
AcDbCircle
10
416.08805318387539
20
836.23754272815529
30
0
40
2.5999999999999801
210
1.0414001159788736e-34
220
-2.2584521926399199e-53
230
1
0
CIRCLE
5
244
100
AcDbEntity
8
0
100
AcDbCircle
10
416.08805318387539
20
630.23754272815518
30
3.5527136788005009e-14
40
2.5999999999999801
210
1.0414001159788736e-34
220
-2.2584521926399199e-53
230
1
0
CIRCLE
5
245
100
AcDbEntity
8
0
100
AcDbCircle
10
283.08805318387545
20
836.23754272815529
30
0
40
2.5999999999999801
210
1.0414001159788736e-34
220
-2.2584521926399199e-53
230
1
0
CIRCLE
5
246
100
AcDbEntity
8
0
100
AcDbCircle
10
281.58805318387635
20
580.23760257124013
30
0
40
1.6000000000000003
210
-4.9199666564718287e-32
220
1.066977937895318e-50
230
1
0
CIRCLE
5
247
100
AcDbEntity
8
0
100
AcDbCircle
10
301.58805318387437
20
652.23760257119716
30
3.5527136788005009e-14
40
1.6000000000000003
210
-4.9199666564718287e-32
220
1.066977937895318e-50
230
1
0
CIRCLE
5
248
100
AcDbEntity
8
0
100
AcDbCircle
10
301.58805318387635
20
725.23760257124025
30
3.5527136788005009e-14
40
1.6000000000000003
210
-4.9199666564718287e-32
220
1.066977937895318e-50
230
1
0
CIRCLE
5
249
100
AcDbEntity
8
0
100
AcDbCircle
10
397.58805318387635
20
725.23760257124025
30
0
40
1.5999999999999701
210
1.0414001159495121e-34
220
-2.2584521925125731e-53
230
1
0
CIRCLE
5
250
100
AcDbEntity
8
0
100
AcDbCircle
10
417.58805318387437
20
652.23760257119818
30
0
40
1.5999999999999701
210
1.0414001159495121e-34
220
-2.2584521925125731e-53
230
1
0
CIRCLE
5
251
100
AcDbEntity
8
0
100
AcDbCircle
10
397.58805318387635
20
580.23760257124115
30
0
40
1.5999999999999701
210
1.0414001159495121e-34
220
-2.2584521925125731e-53
230
1
0
CIRCLE
5
252
100
AcDbEntity
8
0
100
AcDbCircle
10
397.58805318387635
20
600.23760257124115
30
0
40
1.5999999999999701
210
1.0414001159495121e-34
220
-2.2584521925125731e-53
230
1
0
CIRCLE
5
253
100
AcDbEntity
8
0
100
AcDbCircle
10
417.58805318387437
20
672.23760257119818
30
0
40
1.5999999999999701
210
1.0414001159495121e-34
220
-2.2584521925125731e-53
230
1
0
CIRCLE
5
254
100
AcDbEntity
8
0
100
AcDbCircle
10
397.58805318387635
20
745.23760257124025
30
0
40
1.5999999999999701
210
1.0414001159495121e-34
220
-2.2584521925125731e-53
230
1
0
CIRCLE
5
255
100
AcDbEntity
8
0
100
AcDbCircle
10
281.58805318387635
20
725.23760257124025
30
0
40
1.6000000000000003
210
-4.9199666564718287e-32
220
1.066977937895318e-50
230
1
0
CIRCLE
5
256
100
AcDbEntity
8
0
100
AcDbCircle
10
281.58805318387437
20
652.23760257119716
30
0
40
1.6000000000000003
210
-4.9199666564718287e-32
220
1.066977937895318e-50
230
1
0
CIRCLE
5
257
100
AcDbEntity
8
0
100
AcDbCircle
10
301.58805318387635
20
580.23760257124013
30
3.5527136788005009e-14
40
1.6000000000000003
210
-4.9199666564718287e-32
220
1.066977937895318e-50
230
1
0
CIRCLE
5
258
100
AcDbEntity
8
0
100
AcDbCircle
10
281.58805318387635
20
600.23760257124013
30
0
40
1.6000000000000003
210
-4.9199666564718287e-32
220
1.066977937895318e-50
230
1
0
CIRCLE
5
259
100
AcDbEntity
8
0
100
AcDbCircle
10
301.58805318387437
20
672.23760257119716
30
0
40
1.6000000000000003
210
-4.9199666564718287e-32
220
1.066977937895318e-50
230
1
0
CIRCLE
5
260
100
AcDbEntity
8
0
100
AcDbCircle
10
301.58805318387635
20
745.23760257124025
30
0
40
1.6000000000000003
210
-4.9199666564718287e-32
220
1.066977937895318e-50
230
1
0
CIRCLE
5
261
100
AcDbEntity
8
0
100
AcDbCircle
10
417.58805318387635
20
725.23760257124025
30
0
40
1.5999999999999701
210
1.0414001159495121e-34
220
-2.2584521925125731e-53
230
1
0
CIRCLE
5
262
100
AcDbEntity
8
0
100
AcDbCircle
10
397.58805318387437
20
652.23760257119818
30
0
40
1.5999999999999701
210
1.0414001159495121e-34
220
-2.2584521925125731e-53
230
1
0
CIRCLE
5
263
100
AcDbEntity
8
0
100
AcDbCircle
10
417.58805318387635
20
580.23760257124115
30
0
40
1.5999999999999701
210
1.0414001159495121e-34
220
-2.2584521925125731e-53
230
1
0
CIRCLE
5
264
100
AcDbEntity
8
0
100
AcDbCircle
10
417.58805318387635
20
600.23760257124115
30
0
40
1.5999999999999701
210
1.0414001159495121e-34
220
-2.2584521925125731e-53
230
1
0
CIRCLE
5
265
100
AcDbEntity
8
0
100
AcDbCircle
10
397.58805318387437
20
672.23760257119818
30
0
40
1.5999999999999701
210
1.0414001159495121e-34
220
-2.2584521925125731e-53
230
1
0
CIRCLE
5
266
100
AcDbEntity
8
0
100
AcDbCircle
10
417.58805318387635
20
745.23760257124025
30
0
40
1.5999999999999701
210
1.0414001159495121e-34
220
-2.2584521925125731e-53
230
1
0
CIRCLE
5
267
100
AcDbEntity
8
0
100
AcDbCircle
10
281.58805318387635
20
745.23760257124025
30
0
40
1.6000000000000003
210
-4.9199666564718287e-32
220
1.066977937895318e-50
230
1
0
CIRCLE
5
268
100
AcDbEntity
8
0
100
AcDbCircle
10
281.58805318387437
20
672.23760257119716
30
0
40
1.6000000000000003
210
-4.9199666564718287e-32
220
1.066977937895318e-50
230
1
0
CIRCLE
5
269
100
AcDbEntity
8
0
100
AcDbCircle
10
301.58805318387635
20
600.23760257124013
30
0
40
1.6000000000000003
210
-4.9199666564718287e-32
220
1.066977937895318e-50
230
1
0
CIRCLE
5
270
100
AcDbEntity
8
0
100
AcDbCircle
10
372.58805374523638
20
586.23760304331017
30
0
40
2.5
210
1.0414001159220474e-34
220
-2.2584521923934533e-53
230
1
0
CIRCLE
5
271
100
AcDbEntity
8
0
100
AcDbCircle
10
326.58805374523638
20
586.23760304331017
30
0
40
2.5
210
1.0414001159220474e-34
220
-2.2584521923934533e-53
230
1
0
CIRCLE
5
272
100
AcDbEntity
8
0
100
AcDbCircle
10
374.55704525880037
20
611.25973035869515
30
0
40
2.1000000000000099
210
1.0414001159220474e-34
220
-2.2584521923934533e-53
230
1
0
CIRCLE
5
273
100
AcDbEntity
8
0
100
AcDbCircle
10
324.53049505140939
20
641.21543556400309
30
0
40
2.1000000000000099
210
1.0414001159220474e-34
220
-2.2584521923934533e-53
230
1
0
CIRCLE
5
274
100
AcDbEntity
8
0
100
AcDbCircle
10
324.55706486867138
20
611.21544732992515
30
-3.5527136788005009e-14
40
2.1000000000000099
210
1.0414001159220474e-34
220
-2.2584521923934533e-53
230
1
0
CIRCLE
5
275
100
AcDbEntity
8
0
100
AcDbCircle
10
374.53047544153839
20
641.25971859277229
30
0
40
2.1000000000000099
210
1.0414001159220474e-34
220
-2.2584521923934533e-53
230
1
0
ENDSEC
0
SECTION
2
OBJECTS
0
DICTIONARY
5
C
100
AcDbDictionary
3
ACAD_GROUP
350
D
3
ACAD_MLINESTYLE
350
17
0
DICTIONARY
5
D
100
AcDbDictionary
0
DICTIONARY
5
1A
330
C
100
AcDbDictionary
0
DICTIONARY
5
17
100
AcDbDictionary
0
ENDSEC
0
EOF
