0
SECTION
2
HEADER
9
$INSUNITS
70
4
9
$ACADVER
1
AC1014
9
$HANDSEED
5
FFFF
0
ENDSEC
0
SECTION
2
TABLES
0
TABLE
2
VPORT
5
8
100
AcDbSymbolTable
0
ENDTAB
0
TABLE
2
LTYPE
5
5
100
AcDbSymbolTable
0
LTYPE
5
14
100
AcDbSymbolTableRecord
100
AcDbLinetypeTableRecord
2
BYBLOCK
70
0
0
LTYPE
5
15
100
AcDbSymbolTableRecord
100
AcDbLinetypeTableRecord
2
BYLAYER
70
0
0
ENDTAB
0
TABLE
2
LAYER
5
2
100
AcDbSymbolTable
70
2
0
LAYER
5
50
100
AcDbSymbolTableRecord
100
AcDbLayerTableRecord
2
0
70
0
6
CONTINUOUS
0
ENDTAB
0
TABLE
2
STYLE
5
3
100
AcDbSymbolTable
70
1
0
STYLE
5
11
100
AcDbSymbolTableRecord
100
AcDbTextStyleTableRecord
2
STANDARD
70
0
0
ENDTAB
0
TABLE
2
VIEW
5
6
100
AcDbSymbolTable
70
0
0
ENDTAB
0
TABLE
2
UCS
5
7
100
AcDbSymbolTable
70
0
0
ENDTAB
0
TABLE
2
APPID
5
9
100
AcDbSymbolTable
70
2
0
APPID
5
12
100
AcDbSymbolTableRecord
100
AcDbRegAppTableRecord
2
ACAD
70
0
0
ENDTAB
0
TABLE
2
DIMSTYLE
5
A
100
AcDbSymbolTable
70
1
0
ENDTAB
0
TABLE
2
BLOCK_RECORD
5
1
100
AcDbSymbolTable
70
1
0
BLOCK_RECORD
5
1F
100
AcDbSymbolTableRecord
100
AcDbBlockTableRecord
2
*MODEL_SPACE
0
BLOCK_RECORD
5
1B
100
AcDbSymbolTableRecord
100
AcDbBlockTableRecord
2
*PAPER_SPACE
0
ENDTAB
0
ENDSEC
0
SECTION
2
BLOCKS
0
BLOCK
5
20
100
AcDbEntity
100
AcDbBlockBegin
2
*MODEL_SPACE
0
ENDBLK
5
21
100
AcDbEntity
100
AcDbBlockEnd
0
BLOCK
5
1C
100
AcDbEntity
100
AcDbBlockBegin
2
*PAPER_SPACE
0
ENDBLK
5
1D
100
AcDbEntity
100
AcDbBlockEnd
0
ENDSEC
0
SECTION
2
ENTITIES
0
ARC
5
100
100
AcDbEntity
8
0
100
AcDbCircle
10
271.49999932038918
20
602.26282677311235
30
-3.3463273076961286e-05
40
5
210
0
220
0
230
1
100
AcDbArc
50
-90
51
0
0
LINE
5
101
100
AcDbEntity
8
0
100
AcDbLine
10
276.49999932038918
20
602.26282677311235
30
-3.3463273076961286e-05
11
276.49999932038918
21
612.2628037379194
31
-3.3463273076961286e-05
0
ARC
5
102
100
AcDbEntity
8
0
100
AcDbCircle
10
281.49999932038918
20
612.2628037379194
30
-3.3463273076961286e-05
40
5
210
0
220
-0
230
1
100
AcDbArc
50
90
51
180
0
LINE
5
103
100
AcDbEntity
8
0
100
AcDbLine
10
281.49999932038918
20
617.2628037379194
30
-3.3463273076961286e-05
11
306.99999932039117
21
617.2628037379194
31
-3.3463273076961286e-05
0
ARC
5
104
100
AcDbEntity
8
0
100
AcDbCircle
10
306.99999932039117
20
619.7628037379194
30
-3.3463273076961286e-05
40
2.5
210
0
220
0
230
1
100
AcDbArc
50
-90
51
0
0
LINE
5
105
100
AcDbEntity
8
0
100
AcDbLine
10
309.49999932039117
20
619.7628037379194
30
-3.3463273076961286e-05
11
309.49999932039117
21
734.76280373793134
31
-3.3463273041434149e-05
0
ARC
5
106
100
AcDbEntity
8
0
100
AcDbCircle
10
306.99999932039117
20
734.76280373793134
30
-3.3463273041434149e-05
40
2.5
210
0
220
0
230
1
100
AcDbArc
50
0
51
90
0
LINE
5
107
100
AcDbEntity
8
0
100
AcDbLine
10
306.99999932039117
20
737.26280373793134
30
-3.3463273041434149e-05
11
151.99999932039114
21
737.26280373793134
31
-3.3463273041434149e-05
0
ARC
5
108
100
AcDbEntity
8
0
100
AcDbCircle
10
151.99999932039114
20
734.76280373793134
30
-3.3463273041434149e-05
40
2.5
210
0
220
-0
230
1
100
AcDbArc
50
90
51
180
0
LINE
5
109
100
AcDbEntity
8
0
100
AcDbLine
10
149.49999932039114
20
734.76280373793134
30
-3.3463273041434149e-05
11
149.49999932039114
21
619.7628037379194
31
-3.3463273076961286e-05
0
ARC
5
110
100
AcDbEntity
8
0
100
AcDbCircle
10
151.99999932039114
20
619.7628037379194
30
-3.3463273076961286e-05
40
2.5
210
0
220
0
230
1
100
AcDbArc
50
180
51
270
0
LINE
5
111
100
AcDbEntity
8
0
100
AcDbLine
10
151.99999932039114
20
617.2628037379194
30
-3.3463273076961286e-05
11
177.49999932038915
21
617.2628037379194
31
-3.3463273076961286e-05
0
ARC
5
112
100
AcDbEntity
8
0
100
AcDbCircle
10
177.49999932038915
20
612.2628037379194
30
-3.3463273076961286e-05
40
5
210
0
220
0
230
1
100
AcDbArc
50
0
51
90
0
LINE
5
113
100
AcDbEntity
8
0
100
AcDbLine
10
182.49999932038915
20
612.2628037379194
30
-3.3463273076961286e-05
11
182.49999932038915
21
602.26282677311235
31
-3.3463273076961286e-05
0
ARC
5
114
100
AcDbEntity
8
0
100
AcDbCircle
10
187.49999932038915
20
602.26282677311235
30
-3.3463273076961286e-05
40
5
210
0
220
0
230
1
100
AcDbArc
50
180
51
270
0
LINE
5
115
100
AcDbEntity
8
0
100
AcDbLine
10
187.49999932038915
20
597.26282677311235
30
-3.3463273076961286e-05
11
271.49999932038918
21
597.26282677311235
31
-3.3463273076961286e-05
0
CIRCLE
5
116
100
AcDbEntity
8
0
100
AcDbCircle
10
162.99999932039114
20
677.26280373792531
30
-3.3463273041434149e-05
40
3.3999999999999604
210
-1.6721879038387012e-27
220
-1.0410567029569506e-22
230
1
0
CIRCLE
5
117
100
AcDbEntity
8
0
100
AcDbCircle
10
295.99999932039117
20
677.26280373792531
30
-3.3463273041434149e-05
40
3.4000000000000004
210
-1.6721879038387012e-27
220
-1.0410567029569506e-22
230
1
0
CIRCLE
5
118
100
AcDbEntity
8
0
100
AcDbCircle
10
194.49999932038918
20
654.70382677311238
30
-3.3463273076961286e-05
40
2.4999999999999298
210
-1.6721879038387012e-27
220
-1.0410567029569506e-22
230
1
0
CIRCLE
5
119
100
AcDbEntity
8
0
100
AcDbCircle
10
264.49999932038918
20
634.70382677311238
30
-3.3463273076961286e-05
40
2.49999999999996
210
-1.6721879038387012e-27
220
-1.0410567029569506e-22
230
1
0
CIRCLE
5
120
100
AcDbEntity
8
0
100
AcDbCircle
10
194.49999932038918
20
634.70382677311238
30
-3.3463273076961286e-05
40
2.5
210
-1.6721879038387012e-27
220
-1.0410567029569506e-22
230
1
0
CIRCLE
5
121
100
AcDbEntity
8
0
100
AcDbCircle
10
264.49999932038918
20
654.70382677311238
30
-3.3463273076961286e-05
40
2.5
210
-1.6721879038387012e-27
220
-1.0410567029569506e-22
230
1
0
CIRCLE
5
122
100
AcDbEntity
8
0
100
AcDbCircle
10
-285.99999932039117
20
649.2628037379194
30
3.3463273041905445e-05
40
1.6000000000000003
210
-1.225731001286708e-16
220
1.0410567029569506e-22
230
-1
0
CIRCLE
5
123
100
AcDbEntity
8
0
100
AcDbCircle
10
-305.99999932039117
20
705.26280373793134
30
3.3463273003926853e-05
40
1.6000000000000003
210
-1.225731001286708e-16
220
1.0410567029569506e-22
230
-1
0
CIRCLE
5
124
100
AcDbEntity
8
0
100
AcDbCircle
10
-305.99999932039117
20
649.2628037379194
30
3.3463273039453983e-05
40
1.6000000000000003
210
-1.225731001286708e-16
220
1.0410567029569506e-22
230
-1
0
CIRCLE
5
125
100
AcDbEntity
8
0
100
AcDbCircle
10
-285.99999932039117
20
629.2628037379194
30
3.3463273041905445e-05
40
1.6000000000000003
210
-1.225731001286708e-16
220
1.0410567029569506e-22
230
-1
0
CIRCLE
5
126
100
AcDbEntity
8
0
100
AcDbCircle
10
-285.99999932039117
20
705.26280373793134
30
3.3463273006378315e-05
40
1.6000000000000003
210
-1.225731001286708e-16
220
1.0410567029569506e-22
230
-1
0
CIRCLE
5
127
100
AcDbEntity
8
0
100
AcDbCircle
10
-305.99999932039117
20
725.26280373793134
30
3.346327300392686e-05
40
1.6000000000000003
210
-1.225731001286708e-16
220
1.0410567029569506e-22
230
-1
0
CIRCLE
5
128
100
AcDbEntity
8
0
100
AcDbCircle
10
-285.99999932039117
20
725.26280373793134
30
3.3463273006378315e-05
40
1.6000000000000003
210
-1.225731001286708e-16
220
1.0410567029569506e-22
230
-1
0
CIRCLE
5
129
100
AcDbEntity
8
0
100
AcDbCircle
10
-305.99999932039117
20
629.2628037379194
30
3.3463273039453983e-05
40
1.6000000000000003
210
-1.225731001286708e-16
220
1.0410567029569506e-22
230
-1
0
CIRCLE
5
130
100
AcDbEntity
8
0
100
AcDbCircle
10
-152.99999932039114
20
629.2628037379194
30
3.3463273058207665e-05
40
1.6000000000000003
210
-1.225731001286708e-16
220
1.0410567029569506e-22
230
-1
0
CIRCLE
5
131
100
AcDbEntity
8
0
100
AcDbCircle
10
-172.99999932039114
20
629.2628037379194
30
3.3463273055756203e-05
40
1.6000000000000003
210
-1.225731001286708e-16
220
1.0410567029569506e-22
230
-1
0
CIRCLE
5
132
100
AcDbEntity
8
0
100
AcDbCircle
10
-152.99999932039114
20
725.26280373793134
30
3.3463273022680542e-05
40
1.6000000000000003
210
-1.225731001286708e-16
220
1.0410567029569506e-22
230
-1
0
CIRCLE
5
133
100
AcDbEntity
8
0
100
AcDbCircle
10
-172.99999932039114
20
725.26280373793134
30
3.3463273020229079e-05
40
1.6000000000000003
210
-1.225731001286708e-16
220
1.0410567029569506e-22
230
-1
0
CIRCLE
5
134
100
AcDbEntity
8
0
100
AcDbCircle
10
-152.99999932039114
20
705.26280373793134
30
3.3463273022680542e-05
40
1.6000000000000003
210
-1.225731001286708e-16
220
1.0410567029569506e-22
230
-1
0
CIRCLE
5
135
100
AcDbEntity
8
0
100
AcDbCircle
10
-172.99999932039114
20
705.26280373793134
30
3.3463273020229079e-05
40
1.6000000000000003
210
-1.225731001286708e-16
220
1.0410567029569506e-22
230
-1
0
CIRCLE
5
136
100
AcDbEntity
8
0
100
AcDbCircle
10
-152.99999932039114
20
649.2628037379194
30
3.3463273058207665e-05
40
1.6000000000000003
210
-1.225731001286708e-16
220
1.0410567029569506e-22
230
-1
0
CIRCLE
5
137
100
AcDbEntity
8
0
100
AcDbCircle
10
-172.99999932039114
20
649.2628037379194
30
3.3463273055756203e-05
40
1.6000000000000003
210
-1.225731001286708e-16
220
1.0410567029569506e-22
230
-1
0
CIRCLE
5
138
100
AcDbEntity
8
0
100
AcDbCircle
10
188.49999932038915
20
720.70382677311227
30
-3.3463273041434149e-05
40
2.5
210
-1.6721879038387012e-27
220
-1.0410567029569506e-22
230
1
0
CIRCLE
5
139
100
AcDbEntity
8
0
100
AcDbCircle
10
270.49999932038918
20
720.70382677311227
30
-3.3463273041434149e-05
40
2.5
210
-1.6721879038387012e-27
220
-1.0410567029569506e-22
230
1
0
CIRCLE
5
140
100
AcDbEntity
8
0
100
AcDbCircle
10
188.49999932038915
20
682.70382677311227
30
-3.3463273041434149e-05
40
2.5
210
-1.6721879038387012e-27
220
-1.0410567029569506e-22
230
1
0
CIRCLE
5
141
100
AcDbEntity
8
0
100
AcDbCircle
10
270.49999932038918
20
682.70382677311227
30
-3.3463273041434149e-05
40
2.5
210
-1.6721879038387012e-27
220
-1.0410567029569506e-22
230
1
0
CIRCLE
5
142
100
AcDbEntity
8
0
100
AcDbCircle
10
188.49999932038915
20
644.70382677311238
30
-3.3463273076961286e-05
40
2.5
210
-1.6721879038387012e-27
220
-1.0410567029569506e-22
230
1
0
CIRCLE
5
143
100
AcDbEntity
8
0
100
AcDbCircle
10
270.49999932038918
20
644.70382677311238
30
-3.3463273076961286e-05
40
2.5
210
-1.6721879038387012e-27
220
-1.0410567029569506e-22
230
1
0
CIRCLE
5
144
100
AcDbEntity
8
0
100
AcDbCircle
10
188.49999932038915
20
606.70382677311238
30
-3.3463273076961286e-05
40
2.5
210
-1.6721879038387012e-27
220
-1.0410567029569506e-22
230
1
0
CIRCLE
5
145
100
AcDbEntity
8
0
100
AcDbCircle
10
270.49999932038918
20
606.70382677311238
30
-3.3463273076961286e-05
40
2.5
210
-1.6721879038387012e-27
220
-1.0410567029569506e-22
230
1
0
CIRCLE
5
146
100
AcDbEntity
8
0
100
AcDbCircle
10
211.99999988175219
20
689.26280611133438
30
0
40
2.6000000000000201
210
5.1702941660347783e-35
220
-1.1212656899035996e-53
230
1
0
CIRCLE
5
147
100
AcDbEntity
8
0
100
AcDbCircle
10
246.99999988175219
20
689.26280611133438
30
0
40
2.6000000000000201
210
5.1702941660347783e-35
220
-1.1212656899035996e-53
230
1
0
CIRCLE
5
148
100
AcDbEntity
8
0
100
AcDbCircle
10
246.99999988175219
20
665.26280611133427
30
-3.5527136788005009e-14
40
2.6000000000000201
210
5.1702941660347783e-35
220
-1.1212656899035996e-53
230
1
0
CIRCLE
5
149
100
AcDbEntity
8
0
100
AcDbCircle
10
211.99999988175219
20
665.26280611133427
30
-3.5527136788005009e-14
40
2.6000000000000201
210
5.1702941660347783e-35
220
-1.1212656899035996e-53
230
1
0
ENDSEC
0
SECTION
2
OBJECTS
0
DICTIONARY
5
C
100
AcDbDictionary
3
ACAD_GROUP
350
D
3
ACAD_MLINESTYLE
350
17
0
DICTIONARY
5
D
100
AcDbDictionary
0
DICTIONARY
5
1A
330
C
100
AcDbDictionary
0
DICTIONARY
5
17
100
AcDbDictionary
0
ENDSEC
0
EOF
