0
SECTION
2
HEADER
9
$INSUNITS
70
4
9
$ACADVER
1
AC1014
9
$HANDSEED
5
FFFF
0
ENDSEC
0
SECTION
2
TABLES
0
TABLE
2
VPORT
5
8
100
AcDbSymbolTable
0
ENDTAB
0
TABLE
2
LTYPE
5
5
100
AcDbSymbolTable
0
LTYPE
5
14
100
AcDbSymbolTableRecord
100
AcDbLinetypeTableRecord
2
BYBLOCK
70
0
0
LTYPE
5
15
100
AcDbSymbolTableRecord
100
AcDbLinetypeTableRecord
2
BYLAYER
70
0
0
ENDTAB
0
TABLE
2
LAYER
5
2
100
AcDbSymbolTable
70
2
0
LAYER
5
50
100
AcDbSymbolTableRecord
100
AcDbLayerTableRecord
2
0
70
0
6
CONTINUOUS
0
ENDTAB
0
TABLE
2
STYLE
5
3
100
AcDbSymbolTable
70
1
0
STYLE
5
11
100
AcDbSymbolTableRecord
100
AcDbTextStyleTableRecord
2
STANDARD
70
0
0
ENDTAB
0
TABLE
2
VIEW
5
6
100
AcDbSymbolTable
70
0
0
ENDTAB
0
TABLE
2
UCS
5
7
100
AcDbSymbolTable
70
0
0
ENDTAB
0
TABLE
2
APPID
5
9
100
AcDbSymbolTable
70
2
0
APPID
5
12
100
AcDbSymbolTableRecord
100
AcDbRegAppTableRecord
2
ACAD
70
0
0
ENDTAB
0
TABLE
2
DIMSTYLE
5
A
100
AcDbSymbolTable
70
1
0
ENDTAB
0
TABLE
2
BLOCK_RECORD
5
1
100
AcDbSymbolTable
70
1
0
BLOCK_RECORD
5
1F
100
AcDbSymbolTableRecord
100
AcDbBlockTableRecord
2
*MODEL_SPACE
0
BLOCK_RECORD
5
1B
100
AcDbSymbolTableRecord
100
AcDbBlockTableRecord
2
*PAPER_SPACE
0
ENDTAB
0
ENDSEC
0
SECTION
2
BLOCKS
0
BLOCK
5
20
100
AcDbEntity
100
AcDbBlockBegin
2
*MODEL_SPACE
0
ENDBLK
5
21
100
AcDbEntity
100
AcDbBlockEnd
0
BLOCK
5
1C
100
AcDbEntity
100
AcDbBlockBegin
2
*PAPER_SPACE
0
ENDBLK
5
1D
100
AcDbEntity
100
AcDbBlockEnd
0
ENDSEC
0
SECTION
2
ENTITIES
0
ARC
5
100
100
AcDbEntity
8
0
100
AcDbCircle
10
-157.1120539553288
20
668.4186424495856
30
-2.5658408731032978e-09
40
1.999999999999996
210
2.5121479338956858e-14
220
2.5121479338924041e-14
230
1
100
AcDbArc
50
-135.00000000003686
51
45.000000000000568
0
LINE
5
101
100
AcDbEntity
8
0
100
AcDbLine
10
-158.52626751770282
20
667.00442888721341
30
-2.5657698188297218e-09
11
-184.89782405812878
21
667.00442888721341
31
-2.5655566560089937e-09
0
ARC
5
102
100
AcDbEntity
8
0
100
AcDbCircle
10
-184.89782405812878
20
662.00442888721341
30
-2.5655566560089937e-09
40
5
210
0
220
-0
230
1
100
AcDbArc
50
90
51
180
0
LINE
5
103
100
AcDbEntity
8
0
100
AcDbLine
10
-189.89782405812878
20
662.00442888721341
30
-2.5655566560089937e-09
11
-189.89782405812878
21
646.70446257398555
31
-2.5654145474618417e-09
0
ARC
5
104
100
AcDbEntity
8
0
100
AcDbCircle
10
-184.89782405812878
20
646.70446257398555
30
-2.5653434931882657e-09
40
5
210
-1.4210854715202004e-14
220
0
230
1
100
AcDbArc
50
180
51
270
0
LINE
5
105
100
AcDbEntity
8
0
100
AcDbLine
10
-184.89782405812878
20
641.70446257398555
30
-2.5653434931882657e-09
11
-134.89782406594179
21
641.70446257398555
31
-2.5655566560089937e-09
0
ARC
5
106
100
AcDbEntity
8
0
100
AcDbCircle
10
-134.89782406594179
20
646.70446257398555
30
-2.5656277102825698e-09
40
5
210
0
220
1.4210854715202004e-14
230
1
100
AcDbArc
50
-90
51
0
0
LINE
5
107
100
AcDbEntity
8
0
100
AcDbLine
10
-129.89782406594179
20
646.70446257398555
30
-2.5656277102825698e-09
11
-129.89782406594179
21
721.70446259532355
31
-2.5653434931882657e-09
0
ARC
5
108
100
AcDbEntity
8
0
100
AcDbCircle
10
-134.89782406594179
20
721.70446259532355
30
-2.5654856017354177e-09
40
5
210
-2.8421709430404007e-14
220
0
230
1
100
AcDbArc
50
0
51
90
0
LINE
5
109
100
AcDbEntity
8
0
100
AcDbLine
10
-134.89782406594179
20
726.70446259532355
30
-2.5654856017354177e-09
11
-184.89782405812878
21
726.70446259532355
31
-2.5652013846411137e-09
0
ARC
5
110
100
AcDbEntity
8
0
100
AcDbCircle
10
-184.89782405812878
20
721.70446259532355
30
-2.5651303303675377e-09
40
5
210
0
220
1.4210854715202004e-14
230
1
100
AcDbArc
50
90
51
180
0
LINE
5
111
100
AcDbEntity
8
0
100
AcDbLine
10
-189.89782405812878
20
721.70446259532355
30
-2.5651303303675377e-09
11
-189.89782405812878
21
706.4044288872135
31
-2.5651303303675377e-09
0
ARC
5
112
100
AcDbEntity
8
0
100
AcDbCircle
10
-184.89782405812878
20
706.4044288872135
30
-2.5660540359240258e-09
40
5
210
1.8474111129762605e-13
220
0
230
1
100
AcDbArc
50
180
51
270
0
LINE
5
113
100
AcDbEntity
8
0
100
AcDbLine
10
-184.89782405812878
20
701.4044288872135
30
-2.5660540359240258e-09
11
-158.52626751770077
21
701.4044288872135
31
-2.5666224701126339e-09
0
ARC
5
114
100
AcDbEntity
8
0
100
AcDbCircle
10
-157.1120539553288
20
699.99021532483948
30
-2.5652013846411137e-09
40
2.0000000000000338
210
0
220
0
230
1
100
AcDbArc
50
-45.000000000000561
51
134.99999999995856
0
LINE
5
115
100
AcDbEntity
8
0
100
AcDbLine
10
-155.69784039295573
20
698.57600176246638
30
-2.5652013846411137e-09
11
-155.69784039295573
21
669.83285601195871
31
-2.5658408731032978e-09
0
CIRCLE
5
116
100
AcDbEntity
8
0
100
AcDbCircle
10
-172.89784039522178
20
707.2044288872105
30
-2.5659829816504498e-09
40
2.6000000000000201
210
-1.8484620551059998e-38
220
-7.8266771602630269e-24
230
1
0
CIRCLE
5
117
100
AcDbEntity
8
0
100
AcDbCircle
10
-154.89784039522078
20
661.20442888721061
30
-2.5655566560089937e-09
40
2.6000000000000001
210
-1.8484620551059998e-38
220
-7.8266771602630269e-24
230
1
0
CIRCLE
5
118
100
AcDbEntity
8
0
100
AcDbCircle
10
-154.89784039522178
20
707.2044288872105
30
-2.5660540359240258e-09
40
2.6000000000000001
210
-1.8484620551059998e-38
220
-7.8266771602630269e-24
230
1
0
CIRCLE
5
119
100
AcDbEntity
8
0
100
AcDbCircle
10
-172.89784039522078
20
661.20442888721061
30
-2.5654856017354177e-09
40
2.6000000000000201
210
-1.8484620551059998e-38
220
-7.8266771602630269e-24
230
1
0
CIRCLE
5
120
100
AcDbEntity
8
0
100
AcDbCircle
10
-182.39782405812878
20
719.20446259532355
30
-2.5660540359240258e-09
40
3.0999999999999899
210
-1.8484620623236067e-38
220
-5.2939578136055496e-23
230
1
0
CIRCLE
5
121
100
AcDbEntity
8
0
100
AcDbCircle
10
-137.39782406594179
20
719.20446259532355
30
-2.5655566560089937e-09
40
3.1000000000000005
210
3.2311742677667796e-27
220
-5.2939578136055496e-23
230
1
0
CIRCLE
5
122
100
AcDbEntity
8
0
100
AcDbCircle
10
-137.39782406594179
20
649.20446257398555
30
-2.5657698188297218e-09
40
3.1000000000000005
210
3.2311742677667796e-27
220
-5.2939578136055496e-23
230
1
0
CIRCLE
5
123
100
AcDbEntity
8
0
100
AcDbCircle
10
-182.39782405812878
20
649.20446257398555
30
-2.5662671987447538e-09
40
3.0999999999999899
210
-1.8484620623236067e-38
220
-5.2939578136055496e-23
230
1
0
ARC
5
124
100
AcDbEntity
8
0
100
AcDbCircle
10
-157.11205395532875
20
668.4186424495856
30
2.3227923344648168e-40
40
2.0000000000000084
210
-4.2817410818176162e-27
220
8.9918793953735922e-28
230
1
100
AcDbArc
50
-135.00000000003743
51
44.999999999963151
0
LINE
5
125
100
AcDbEntity
8
0
100
AcDbLine
10
-158.52626751770279
20
667.00442888721341
30
-4.7836525292650886e-27
11
-184.89782405812878
21
667.00442888721341
31
7.1054273576010019e-14
0
ARC
5
126
100
AcDbEntity
8
0
100
AcDbCircle
10
-184.89782405812883
20
662.00442888721341
30
-8.3312247525205754e-69
40
5
210
-1.0097419586828951e-28
220
-1.4210854715202004e-14
230
1
100
AcDbArc
50
89.999999999999346
51
180
0
LINE
5
127
100
AcDbEntity
8
0
100
AcDbLine
10
-189.89782405812883
20
662.00442888721341
30
-2.1102517462948064e-54
11
-189.89782405812878
21
646.70446257398555
31
0
0
ARC
5
128
100
AcDbEntity
8
0
100
AcDbCircle
10
-184.89782405812883
20
646.70446257398555
30
7.1054273576010019e-14
40
4.9999999999999645
210
-1.4210854715202105e-14
220
0
230
1
100
AcDbArc
50
180
51
270.00000000000068
0
LINE
5
129
100
AcDbEntity
8
0
100
AcDbLine
10
-184.89782405812878
20
641.70446257398555
30
7.1054273576010019e-14
11
-134.89782406594179
21
641.70446257398555
31
7.1054273576010019e-14
0
ARC
5
130
100
AcDbEntity
8
0
100
AcDbCircle
10
-134.89782406594176
20
646.70446257398555
30
8.3312247525205754e-69
40
5
210
1.0097419586828951e-28
220
1.4210854715202004e-14
230
1
100
AcDbArc
50
-90.000000000000313
51
0
0
LINE
5
131
100
AcDbEntity
8
0
100
AcDbLine
10
-129.89782406594176
20
646.70446257398555
30
2.1102517462948064e-54
11
-129.89782406594179
21
721.70446259532355
31
0
0
ARC
5
132
100
AcDbEntity
8
0
100
AcDbCircle
10
-134.89782406594176
20
721.70446259532355
30
6.1174729387486167e-53
40
4.9999999999999645
210
1.2234945877497322e-53
220
-1.1421271945310331e-53
230
1
100
AcDbArc
50
0
51
90.000000000000327
0
LINE
5
133
100
AcDbEntity
8
0
100
AcDbLine
10
-134.89782406594179
20
726.70446259532355
30
-4.1555851187653521e-56
11
-184.89782405812878
21
726.70446259532355
31
-4.4180900837918808e-41
0
ARC
5
134
100
AcDbEntity
8
0
100
AcDbCircle
10
-184.89782405812883
20
721.70446259532355
30
7.1054273576010019e-14
40
5
210
1.0097419586828951e-28
220
1.4210854715202004e-14
230
1
100
AcDbArc
50
89.999999999999346
51
180
0
LINE
5
135
100
AcDbEntity
8
0
100
AcDbLine
10
-189.89782405812883
20
721.70446259532355
30
7.1054273576010019e-14
11
-189.89782405812878
21
706.4044288872135
31
7.1054273576010019e-14
0
ARC
5
136
100
AcDbEntity
8
0
100
AcDbCircle
10
-184.89782405812883
20
706.4044288872135
30
-6.1174729387486167e-53
40
4.9999999999999645
210
1.4210854715202105e-14
220
-1.1421271945310331e-53
230
1
100
AcDbArc
50
180
51
270.00000000000068
0
LINE
5
137
100
AcDbEntity
8
0
100
AcDbLine
10
-184.89782405812878
20
701.4044288872135
30
4.1555851187653521e-56
11
-158.52626751770077
21
701.4044288872135
31
7.1054273576010019e-14
0
ARC
5
138
100
AcDbEntity
8
0
100
AcDbCircle
10
-157.1120539553288
20
699.99021532483948
30
-8.4974738876656907e-41
40
2.0000000000000213
210
6.470583187745129e-28
220
8.9918793953704408e-28
230
1
100
AcDbArc
50
-45.000000000000561
51
134.99999999995856
0
LINE
5
139
100
AcDbEntity
8
0
100
AcDbLine
10
-155.69784039295573
20
698.57600176246638
30
3.5656512915835802e-28
11
-155.69784039295473
21
669.8328560119578
31
4.7836525292655542e-27
0
CIRCLE
5
140
100
AcDbEntity
8
0
100
AcDbCircle
10
-172.89784039522178
20
707.2044288872105
30
0
40
2.6000000000000201
210
-4.6388194450819137e-43
220
7.4218273696708965e-67
230
1
0
CIRCLE
5
141
100
AcDbEntity
8
0
100
AcDbCircle
10
-154.89784039522078
20
661.20442888721061
30
0
40
2.6000000000000001
210
-4.6388194450819129e-43
220
7.4218273696708965e-67
230
1
0
CIRCLE
5
142
100
AcDbEntity
8
0
100
AcDbCircle
10
-154.89784039522178
20
707.2044288872105
30
0
40
2.6000000000000001
210
-4.6388194450819129e-43
220
7.4218273696708965e-67
230
1
0
CIRCLE
5
143
100
AcDbEntity
8
0
100
AcDbCircle
10
-172.89784039522078
20
661.20442888721061
30
-7.1054273576010019e-14
40
2.6000000000000201
210
-4.6388194450819137e-43
220
7.4218273696708965e-67
230
1
0
CIRCLE
5
144
100
AcDbEntity
8
0
100
AcDbCircle
10
-182.39782405812878
20
719.20446259532355
30
0
40
3.0999999999999899
210
-4.7879860149684762e-43
220
7.6604909391016556e-67
230
1
0
CIRCLE
5
145
100
AcDbEntity
8
0
100
AcDbCircle
10
-137.39782406594179
20
719.20446259532355
30
0
40
3.1000000000000005
210
3.231174267785264e-27
220
1.5777218104420236e-30
230
1
0
CIRCLE
5
146
100
AcDbEntity
8
0
100
AcDbCircle
10
-137.39782406594179
20
649.20446257398555
30
-7.1054273576010019e-14
40
3.1000000000000005
210
3.231174267785264e-27
220
1.5777218104420236e-30
230
1
0
CIRCLE
5
147
100
AcDbEntity
8
0
100
AcDbCircle
10
-182.39782405812878
20
649.20446257398555
30
0
40
3.0999999999999899
210
-4.7879860149684762e-43
220
7.6604909391016556e-67
230
1
0
ENDSEC
0
SECTION
2
OBJECTS
0
DICTIONARY
5
C
100
AcDbDictionary
3
ACAD_GROUP
350
D
3
ACAD_MLINESTYLE
350
17
0
DICTIONARY
5
D
100
AcDbDictionary
0
DICTIONARY
5
1A
330
C
100
AcDbDictionary
0
DICTIONARY
5
17
100
AcDbDictionary
0
ENDSEC
0
EOF
