0
SECTION
2
HEADER
9
$INSUNITS
70
4
9
$ACADVER
1
AC1014
9
$HANDSEED
5
FFFF
0
ENDSEC
0
SECTION
2
TABLES
0
TABLE
2
VPORT
5
8
100
AcDbSymbolTable
0
ENDTAB
0
TABLE
2
LTYPE
5
5
100
AcDbSymbolTable
0
LTYPE
5
14
100
AcDbSymbolTableRecord
100
AcDbLinetypeTableRecord
2
BYBLOCK
70
0
0
LTYPE
5
15
100
AcDbSymbolTableRecord
100
AcDbLinetypeTableRecord
2
BYLAYER
70
0
0
ENDTAB
0
TABLE
2
LAYER
5
2
100
AcDbSymbolTable
70
2
0
LAYER
5
50
100
AcDbSymbolTableRecord
100
AcDbLayerTableRecord
2
0
70
0
6
CONTINUOUS
0
ENDTAB
0
TABLE
2
STYLE
5
3
100
AcDbSymbolTable
70
1
0
STYLE
5
11
100
AcDbSymbolTableRecord
100
AcDbTextStyleTableRecord
2
STANDARD
70
0
0
ENDTAB
0
TABLE
2
VIEW
5
6
100
AcDbSymbolTable
70
0
0
ENDTAB
0
TABLE
2
UCS
5
7
100
AcDbSymbolTable
70
0
0
ENDTAB
0
TABLE
2
APPID
5
9
100
AcDbSymbolTable
70
2
0
APPID
5
12
100
AcDbSymbolTableRecord
100
AcDbRegAppTableRecord
2
ACAD
70
0
0
ENDTAB
0
TABLE
2
DIMSTYLE
5
A
100
AcDbSymbolTable
70
1
0
ENDTAB
0
TABLE
2
BLOCK_RECORD
5
1
100
AcDbSymbolTable
70
1
0
BLOCK_RECORD
5
1F
100
AcDbSymbolTableRecord
100
AcDbBlockTableRecord
2
*MODEL_SPACE
0
BLOCK_RECORD
5
1B
100
AcDbSymbolTableRecord
100
AcDbBlockTableRecord
2
*PAPER_SPACE
0
ENDTAB
0
ENDSEC
0
SECTION
2
BLOCKS
0
BLOCK
5
20
100
AcDbEntity
100
AcDbBlockBegin
2
*MODEL_SPACE
0
ENDBLK
5
21
100
AcDbEntity
100
AcDbBlockEnd
0
BLOCK
5
1C
100
AcDbEntity
100
AcDbBlockBegin
2
*PAPER_SPACE
0
ENDBLK
5
1D
100
AcDbEntity
100
AcDbBlockEnd
0
ENDSEC
0
SECTION
2
ENTITIES
0
LWPOLYLINE
5
100
100
AcDbEntity
8
0
100
AcDbPolyline
90
20
70
1
43
0.0
10
-332.57782289468526
20
495.64545364393751
42
-0.41421356237309503
10
-335.07782289468526
20
498.14545364393751
10
-335.07782289468526
20
524.39545364436947
42
0.41421356237332813
10
-337.57782289468719
20
526.89545364436947
42
-0.41421356237309503
10
-340.07782289468719
20
529.39545364436947
10
-340.07782289468719
20
568.53220068981045
42
-0.15733195601709346
10
-339.13494558044925
20
571.4544866978315
10
-196.39436982363222
20
769.6267485819194
42
-0.24116511006854469
10
-192.33724713787024
20
771.70446257389835
10
-129.89782289468621
20
771.70446257389835
42
-0.41421356237309503
10
-124.89782289468621
20
766.70446257389835
10
-124.89782289468621
20
552.96545364393853
42
-0.41421356237309503
10
-127.39782289468621
20
550.46545364393853
42
0.41421356237309503
10
-129.89782289468621
20
547.96545364393853
10
-129.89782289468621
20
540.64545365623849
42
-0.41421356237309503
10
-132.39782289468621
20
538.14545365623849
10
-207.48780573802821
20
538.14545365623849
42
0.41421356237315748
10
-212.48780573802821
20
533.14545365623746
10
-212.4878057380262
20
496.64545364393751
42
-0.41421356237309503
10
-213.48780573802622
20
495.64545364393751
0
CIRCLE
5
101
100
AcDbEntity
8
0
100
AcDbCircle
10
-303.07782289468724
20
590.39685063897753
30
-2.5659119273768738e-09
40
3.4000000000000004
210
-5.0585705543896442e-29
220
-7.8266767658325742e-24
230
1
0
CIRCLE
5
102
100
AcDbEntity
8
0
100
AcDbCircle
10
-232.48786435694518
20
590.39685063897753
30
-2.5659119273768738e-09
40
3.4000000000000301
210
-5.0635009350472755e-29
220
-7.8266767658325742e-24
230
1
0
CIRCLE
5
103
100
AcDbEntity
8
0
100
AcDbCircle
10
-161.89786435694521
20
590.39685063897753
30
-2.5659119273768738e-09
40
3.4000000000000301
210
-5.0635009350472755e-29
220
-7.8266767658325742e-24
230
1
0
CIRCLE
5
104
100
AcDbEntity
8
0
100
AcDbCircle
10
-303.07782289468724
20
541.64545365623746
30
-2.5660540359240258e-09
40
1.6000000000000003
210
-5.0585705543896442e-29
220
-7.8266767658325742e-24
230
1
0
CIRCLE
5
105
100
AcDbEntity
8
0
100
AcDbCircle
10
-141.89782289468721
20
541.64545365623746
30
-2.5660540359240258e-09
40
1.6000000000000003
210
-5.0585705543896442e-29
220
-7.8266767658325742e-24
230
1
0
CIRCLE
5
106
100
AcDbEntity
8
0
100
AcDbCircle
10
-220.48780573802622
20
501.64545364393643
30
-2.5660540359240258e-09
40
2.6000000000000201
210
-5.0585705543896442e-29
220
-7.8266767658325742e-24
230
1
0
CIRCLE
5
107
100
AcDbEntity
8
0
100
AcDbCircle
10
-220.48780573802924
20
541.64545364393643
30
-2.5660540359240258e-09
40
2.6000000000000201
210
-5.0585705543896442e-29
220
-7.8266767658325742e-24
230
1
0
CIRCLE
5
108
100
AcDbEntity
8
0
100
AcDbCircle
10
-161.89782289468721
20
541.64545365623746
30
-2.5660540359240258e-09
40
1.6000000000000003
210
-5.0585705543896442e-29
220
-7.8266767658325742e-24
230
1
0
CIRCLE
5
109
100
AcDbEntity
8
0
100
AcDbCircle
10
-323.07782289468719
20
561.64545365623746
30
-2.5659119273768738e-09
40
1.6000000000000403
210
-5.0585705543896442e-29
220
-7.8266767658325742e-24
230
1
0
CIRCLE
5
110
100
AcDbEntity
8
0
100
AcDbCircle
10
-303.07782289468724
20
561.64545365623746
30
-2.5660540359240258e-09
40
1.6000000000000003
210
-5.0585705543896442e-29
220
-7.8266767658325742e-24
230
1
0
CIRCLE
5
111
100
AcDbEntity
8
0
100
AcDbCircle
10
-141.89782289468721
20
561.64545365623746
30
-2.5660540359240258e-09
40
1.5999999999999803
210
-5.0585705543896442e-29
220
-7.8266767658325742e-24
230
1
0
CIRCLE
5
112
100
AcDbEntity
8
0
100
AcDbCircle
10
-244.48780573802622
20
501.64545364393547
30
-2.5660540359240258e-09
40
2.6000000000000201
210
-5.0585705543896442e-29
220
-7.8266767658325742e-24
230
1
0
CIRCLE
5
113
100
AcDbEntity
8
0
100
AcDbCircle
10
-244.48780573802921
20
541.64545364393553
30
-2.5660540359240258e-09
40
2.6000000000000201
210
-5.0585705543896442e-29
220
-7.8266767658325742e-24
230
1
0
CIRCLE
5
114
100
AcDbEntity
8
0
100
AcDbCircle
10
-161.89782289468721
20
561.64545365623746
30
-2.5660540359240258e-09
40
1.6000000000000003
210
-5.0585705543896442e-29
220
-7.8266767658325742e-24
230
1
0
CIRCLE
5
115
100
AcDbEntity
8
0
100
AcDbCircle
10
-323.07782289468719
20
541.64545365623746
30
-2.5659119273768738e-09
40
1.6000000000000403
210
-5.0585705543896442e-29
220
-7.8266767658325742e-24
230
1
0
CIRCLE
5
116
100
AcDbEntity
8
0
100
AcDbCircle
10
179.89782290213122
20
611.70446258407151
30
2.5659119273816615e-09
40
2.6000000000000201
210
5.0585705543896442e-29
220
7.8266767658325742e-24
230
-1
0
CIRCLE
5
117
100
AcDbEntity
8
0
100
AcDbCircle
10
159.89782290213122
20
631.70446258407151
30
2.5659119273818178e-09
40
2.6000000000000001
210
5.0585705543896442e-29
220
7.8266767658325742e-24
230
-1
0
CIRCLE
5
118
100
AcDbEntity
8
0
100
AcDbCircle
10
139.89782290213122
20
736.70446258407037
30
2.5656277102883356e-09
40
2.6000000000000001
210
5.0585705543896442e-29
220
7.8266767658325742e-24
230
-1
0
CIRCLE
5
119
100
AcDbEntity
8
0
100
AcDbCircle
10
179.89782290213122
20
756.70446258407037
30
2.5656277102884924e-09
40
2.6000000000000201
210
5.0585705543896442e-29
220
7.8266767658325742e-24
230
-1
0
CIRCLE
5
120
100
AcDbEntity
8
0
100
AcDbCircle
10
159.89782290213122
20
736.70446258407037
30
2.5656277102883356e-09
40
2.6000000000000201
210
5.0585705543896442e-29
220
7.8266767658325742e-24
230
-1
0
CIRCLE
5
121
100
AcDbEntity
8
0
100
AcDbCircle
10
139.89782290213122
20
631.70446258407151
30
2.5659119273818178e-09
40
2.6000000000000001
210
5.0585705543896442e-29
220
7.8266767658325742e-24
230
-1
0
CIRCLE
5
122
100
AcDbEntity
8
0
100
AcDbCircle
10
196.46783922207823
20
660.63442888720442
30
2.5657698188348921e-09
40
2.6000000000000001
210
5.0585705543896442e-29
220
7.8266767658325742e-24
230
-1
0
CIRCLE
5
123
100
AcDbEntity
8
0
100
AcDbCircle
10
172.8978392220782
20
684.20442888720447
30
2.5657698188350769e-09
40
19.25
210
5.0635009350472755e-29
220
7.8266767658325742e-24
230
-1
0
CIRCLE
5
124
100
AcDbEntity
8
0
100
AcDbCircle
10
149.32783922207821
20
660.63442888720442
30
2.5657698188348921e-09
40
2.6000000000000001
210
5.0585705543896442e-29
220
7.8266767658325742e-24
230
-1
0
CIRCLE
5
125
100
AcDbEntity
8
0
100
AcDbCircle
10
196.46783922207823
20
707.77442888720441
30
2.5656277102881094e-09
40
2.6000000000000001
210
5.0585705543896442e-29
220
7.8266767658325742e-24
230
-1
0
CIRCLE
5
126
100
AcDbEntity
8
0
100
AcDbCircle
10
149.32783922207821
20
707.77442888720441
30
2.5656277102881094e-09
40
2.6000000000000001
210
5.0585705543896442e-29
220
7.8266767658325742e-24
230
-1
0
CIRCLE
5
127
100
AcDbEntity
8
0
100
AcDbCircle
10
137.39782289368023
20
649.20446257397748
30
2.5657698188348027e-09
40
3.1000000000000005
210
5.0585705543896442e-29
220
7.8266767658325742e-24
230
-1
0
CIRCLE
5
128
100
AcDbEntity
8
0
100
AcDbCircle
10
182.39782288586721
20
719.20446259531548
30
2.5656277102881987e-09
40
3.0999999999999899
210
5.0585705543896442e-29
220
7.8266767658325742e-24
230
-1
0
CIRCLE
5
129
100
AcDbEntity
8
0
100
AcDbCircle
10
182.39782288586721
20
649.20446257397748
30
2.5657698188348027e-09
40
3.0999999999999899
210
5.0585705543896442e-29
220
7.8266767658325742e-24
230
-1
0
CIRCLE
5
130
100
AcDbEntity
8
0
100
AcDbCircle
10
137.39782289368023
20
719.20446259531548
30
2.5656277102881987e-09
40
3.1000000000000005
210
5.0585705543896442e-29
220
7.8266767658325742e-24
230
-1
0
CIRCLE
5
131
100
AcDbEntity
8
0
100
AcDbCircle
10
159.89782290213122
20
611.70446258407151
30
2.5659119273816615e-09
40
2.6000000000000201
210
5.0585705543896442e-29
220
7.8266767658325742e-24
230
-1
0
CIRCLE
5
132
100
AcDbEntity
8
0
100
AcDbCircle
10
179.89782290213122
20
631.70446258407151
30
2.5659119273818178e-09
40
2.6000000000000201
210
5.0585705543896442e-29
220
7.8266767658325742e-24
230
-1
0
CIRCLE
5
133
100
AcDbEntity
8
0
100
AcDbCircle
10
139.89782290213122
20
756.70446258407037
30
2.5656277102884924e-09
40
2.6000000000000001
210
5.0585705543896442e-29
220
7.8266767658325742e-24
230
-1
0
CIRCLE
5
134
100
AcDbEntity
8
0
100
AcDbCircle
10
159.89782290213122
20
756.70446258407037
30
2.5656277102884924e-09
40
2.6000000000000001
210
5.0585705543896442e-29
220
7.8266767658325742e-24
230
-1
0
CIRCLE
5
135
100
AcDbEntity
8
0
100
AcDbCircle
10
179.89782290213122
20
736.70446258407037
30
2.5656277102883356e-09
40
2.6000000000000201
210
5.0585705543896442e-29
220
7.8266767658325742e-24
230
-1
0
CIRCLE
5
136
100
AcDbEntity
8
0
100
AcDbCircle
10
139.89782290213122
20
611.70446258407151
30
2.5659119273816615e-09
40
2.6000000000000001
210
5.0585705543896442e-29
220
7.8266767658325742e-24
230
-1
0
ENDSEC
0
SECTION
2
OBJECTS
0
DICTIONARY
5
C
100
AcDbDictionary
3
ACAD_GROUP
350
D
3
ACAD_MLINESTYLE
350
17
0
DICTIONARY
5
D
100
AcDbDictionary
0
DICTIONARY
5
1A
330
C
100
AcDbDictionary
0
DICTIONARY
5
17
100
AcDbDictionary
0
ENDSEC
0
EOF
