0
SECTION
2
HEADER
9
$INSUNITS
70
4
9
$ACADVER
1
AC1014
9
$HANDSEED
5
FFFF
0
ENDSEC
0
SECTION
2
TABLES
0
TABLE
2
VPORT
5
8
100
AcDbSymbolTable
0
ENDTAB
0
TABLE
2
LTYPE
5
5
100
AcDbSymbolTable
0
LTYPE
5
14
100
AcDbSymbolTableRecord
100
AcDbLinetypeTableRecord
2
BYBLOCK
70
0
0
LTYPE
5
15
100
AcDbSymbolTableRecord
100
AcDbLinetypeTableRecord
2
BYLAYER
70
0
0
ENDTAB
0
TABLE
2
LAYER
5
2
100
AcDbSymbolTable
70
2
0
LAYER
5
50
100
AcDbSymbolTableRecord
100
AcDbLayerTableRecord
2
0
70
0
6
CONTINUOUS
0
ENDTAB
0
TABLE
2
STYLE
5
3
100
AcDbSymbolTable
70
1
0
STYLE
5
11
100
AcDbSymbolTableRecord
100
AcDbTextStyleTableRecord
2
STANDARD
70
0
0
ENDTAB
0
TABLE
2
VIEW
5
6
100
AcDbSymbolTable
70
0
0
ENDTAB
0
TABLE
2
UCS
5
7
100
AcDbSymbolTable
70
0
0
ENDTAB
0
TABLE
2
APPID
5
9
100
AcDbSymbolTable
70
2
0
APPID
5
12
100
AcDbSymbolTableRecord
100
AcDbRegAppTableRecord
2
ACAD
70
0
0
ENDTAB
0
TABLE
2
DIMSTYLE
5
A
100
AcDbSymbolTable
70
1
0
ENDTAB
0
TABLE
2
BLOCK_RECORD
5
1
100
AcDbSymbolTable
70
1
0
BLOCK_RECORD
5
1F
100
AcDbSymbolTableRecord
100
AcDbBlockTableRecord
2
*MODEL_SPACE
0
BLOCK_RECORD
5
1B
100
AcDbSymbolTableRecord
100
AcDbBlockTableRecord
2
*PAPER_SPACE
0
ENDTAB
0
ENDSEC
0
SECTION
2
BLOCKS
0
BLOCK
5
20
100
AcDbEntity
100
AcDbBlockBegin
2
*MODEL_SPACE
0
ENDBLK
5
21
100
AcDbEntity
100
AcDbBlockEnd
0
BLOCK
5
1C
100
AcDbEntity
100
AcDbBlockBegin
2
*PAPER_SPACE
0
ENDBLK
5
1D
100
AcDbEntity
100
AcDbBlockEnd
0
ENDSEC
0
SECTION
2
ENTITIES
0
LWPOLYLINE
5
100
100
AcDbEntity
8
0
100
AcDbPolyline
90
20
70
1
43
0.0
10
335.0778240821316
20
498.14545364393751
42
-0.41421356237309503
10
332.5778240821316
20
495.64545364393751
10
213.48780692547257
20
495.64545364393751
42
-0.41421356237340717
10
212.4878069254726
20
496.64545364393859
10
212.48780692547459
20
533.14545365623849
42
0.41421356237309503
10
207.48780692547459
20
538.14545365623849
10
132.39782408213259
20
538.14545365623849
42
-0.41421356237309503
10
129.89782408213259
20
540.64545365623849
10
129.89782408213259
20
547.96545364393751
42
0.41421356237309503
10
127.39782408213259
20
550.46545364393751
42
-0.41421356237309503
10
124.89782408213259
20
552.96545364393751
10
124.89782408213259
20
766.70446257389858
42
-0.41421356237309503
10
129.89782408213259
20
771.70446257389858
10
192.33724832531661
20
771.70446257389858
42
-0.24116511006854469
10
196.39437101107859
20
769.62674858191963
10
339.13494676789554
20
571.45448669783252
42
-0.15733195601709346
10
340.07782408213359
20
568.53220068981148
10
340.07782408213359
20
529.39545364437049
42
-0.41421356237309503
10
337.57782408213359
20
526.89545364437049
42
0.41421356237332813
10
335.0778240821316
20
524.39545364437049
0
CIRCLE
5
101
100
AcDbEntity
8
0
100
AcDbCircle
10
303.07782408213359
20
541.64545365623849
30
2.5657520552613278e-09
40
1.6000000000000003
210
-4.8547541979381187e-29
220
7.8266768644401874e-24
230
1
0
CIRCLE
5
102
100
AcDbEntity
8
0
100
AcDbCircle
10
141.89782408213358
20
541.64545365623849
30
2.5657520552613278e-09
40
1.6000000000000003
210
-4.8547541979381187e-29
220
7.8266768644401874e-24
230
1
0
CIRCLE
5
103
100
AcDbEntity
8
0
100
AcDbCircle
10
220.48780692547263
20
501.64545364393751
30
2.5657520552613278e-09
40
2.6000000000000201
210
-4.8547541979381187e-29
220
7.8266768644401874e-24
230
1
0
CIRCLE
5
104
100
AcDbEntity
8
0
100
AcDbCircle
10
220.48780692547558
20
541.64545364393746
30
2.5657520552613278e-09
40
2.6000000000000201
210
-4.8547541979381187e-29
220
7.8266768644401874e-24
230
1
0
CIRCLE
5
105
100
AcDbEntity
8
0
100
AcDbCircle
10
161.89782408213358
20
541.64545365623849
30
2.5657520552613278e-09
40
1.6000000000000003
210
-4.8547541979381187e-29
220
7.8266768644401874e-24
230
1
0
CIRCLE
5
106
100
AcDbEntity
8
0
100
AcDbCircle
10
323.07782408213359
20
561.64545365623849
30
2.5657520552613278e-09
40
1.6000000000000403
210
-4.8547541979381187e-29
220
7.8266768644401874e-24
230
1
0
CIRCLE
5
107
100
AcDbEntity
8
0
100
AcDbCircle
10
303.07782408213359
20
561.64545365623849
30
2.5657520552613278e-09
40
1.6000000000000003
210
-4.8547541979381187e-29
220
7.8266768644401874e-24
230
1
0
CIRCLE
5
108
100
AcDbEntity
8
0
100
AcDbCircle
10
141.89782408213358
20
561.64545365623849
30
2.5657520552613278e-09
40
1.5999999999999803
210
-4.8547541979381187e-29
220
7.8266768644401874e-24
230
1
0
CIRCLE
5
109
100
AcDbEntity
8
0
100
AcDbCircle
10
244.4878069254726
20
501.64545364393655
30
2.5657520552613278e-09
40
2.6000000000000201
210
-4.8547541979381187e-29
220
7.8266768644401874e-24
230
1
0
CIRCLE
5
110
100
AcDbEntity
8
0
100
AcDbCircle
10
244.48780692547558
20
541.64545364393666
30
2.5657520552613278e-09
40
2.6000000000000201
210
-4.8547541979381187e-29
220
7.8266768644401874e-24
230
1
0
CIRCLE
5
111
100
AcDbEntity
8
0
100
AcDbCircle
10
161.89782408213358
20
561.64545365623849
30
2.5657520552613278e-09
40
1.6000000000000003
210
-4.8547541979381187e-29
220
7.8266768644401874e-24
230
1
0
CIRCLE
5
112
100
AcDbEntity
8
0
100
AcDbCircle
10
323.07782408213359
20
541.64545365623849
30
2.5657520552613278e-09
40
1.6000000000000403
210
-4.8547541979381187e-29
220
7.8266768644401874e-24
230
1
0
CIRCLE
5
113
100
AcDbEntity
8
0
100
AcDbCircle
10
172.8978404099536
20
684.20442888720356
30
2.5657520552613278e-09
40
13
210
4.8522704564500019e-30
220
5.2939558543481287e-23
230
1
0
CIRCLE
5
114
100
AcDbEntity
8
0
100
AcDbCircle
10
-179.89782408957757
20
611.70446258407253
30
-2.5657520552661155e-09
40
2.6000000000000201
210
4.8547541979381187e-29
220
-7.8266768644401874e-24
230
-1
0
CIRCLE
5
115
100
AcDbEntity
8
0
100
AcDbCircle
10
-179.89782408957757
20
756.7044625840706
30
-2.5657520552672504e-09
40
2.6000000000000201
210
4.8547541979381187e-29
220
-7.8266768644401874e-24
230
-1
0
CIRCLE
5
116
100
AcDbEntity
8
0
100
AcDbCircle
10
-139.89782408957757
20
756.7044625840706
30
-2.5657520552672504e-09
40
2.6000000000000001
210
4.8547541979381187e-29
220
-7.8266768644401874e-24
230
-1
0
CIRCLE
5
117
100
AcDbEntity
8
0
100
AcDbCircle
10
-159.89782408957757
20
756.7044625840706
30
-2.5657520552672504e-09
40
2.6000000000000001
210
4.8547541979381187e-29
220
-7.8266768644401874e-24
230
-1
0
CIRCLE
5
118
100
AcDbEntity
8
0
100
AcDbCircle
10
-139.89782408957757
20
631.70446258407253
30
-2.5657520552662718e-09
40
2.6000000000000001
210
4.8547541979381187e-29
220
-7.8266768644401874e-24
230
-1
0
CIRCLE
5
119
100
AcDbEntity
8
0
100
AcDbCircle
10
-159.89782408957757
20
611.70446258407253
30
-2.5657520552661155e-09
40
2.6000000000000201
210
4.8547541979381187e-29
220
-7.8266768644401874e-24
230
-1
0
CIRCLE
5
120
100
AcDbEntity
8
0
100
AcDbCircle
10
-154.89784040995158
20
707.20442888720163
30
-2.5657520552668624e-09
40
2.6000000000000001
210
4.8547541979381187e-29
220
-7.8266768644401874e-24
230
-1
0
CIRCLE
5
121
100
AcDbEntity
8
0
100
AcDbCircle
10
-172.89784040995158
20
707.20442888720254
30
-2.5657520552668624e-09
40
2.6000000000000201
210
4.8547541979381187e-29
220
-7.8266768644401874e-24
230
-1
0
CIRCLE
5
122
100
AcDbEntity
8
0
100
AcDbCircle
10
-154.8978404099546
20
661.20442888720152
30
-2.5657520552665026e-09
40
2.6000000000000001
210
4.8547541979381187e-29
220
-7.8266768644401874e-24
230
-1
0
CIRCLE
5
123
100
AcDbEntity
8
0
100
AcDbCircle
10
-172.8978404099546
20
661.20442888720265
30
-2.5657520552665026e-09
40
2.6000000000000201
210
4.8547541979381187e-29
220
-7.8266768644401874e-24
230
-1
0
CIRCLE
5
124
100
AcDbEntity
8
0
100
AcDbCircle
10
-179.89782408957757
20
631.70446258407253
30
-2.5657520552662718e-09
40
2.6000000000000201
210
4.8547541979381187e-29
220
-7.8266768644401874e-24
230
-1
0
CIRCLE
5
125
100
AcDbEntity
8
0
100
AcDbCircle
10
-179.89782408957757
20
736.7044625840706
30
-2.5657520552670936e-09
40
2.6000000000000201
210
4.8547541979381187e-29
220
-7.8266768644401874e-24
230
-1
0
CIRCLE
5
126
100
AcDbEntity
8
0
100
AcDbCircle
10
-139.89782408957757
20
736.7044625840706
30
-2.5657520552670936e-09
40
2.6000000000000001
210
4.8547541979381187e-29
220
-7.8266768644401874e-24
230
-1
0
CIRCLE
5
127
100
AcDbEntity
8
0
100
AcDbCircle
10
-159.89782408957757
20
736.7044625840706
30
-2.5657520552670936e-09
40
2.6000000000000201
210
4.8547541979381187e-29
220
-7.8266768644401874e-24
230
-1
0
CIRCLE
5
128
100
AcDbEntity
8
0
100
AcDbCircle
10
-159.89782408957757
20
631.70446258407253
30
-2.5657520552662718e-09
40
2.6000000000000001
210
4.8547541979381187e-29
220
-7.8266768644401874e-24
230
-1
0
CIRCLE
5
129
100
AcDbEntity
8
0
100
AcDbCircle
10
-139.89782408957757
20
611.70446258407253
30
-2.5657520552661155e-09
40
2.6000000000000001
210
4.8547541979381187e-29
220
-7.8266768644401874e-24
230
-1
0
LWPOLYLINE
5
130
100
AcDbEntity
8
0
100
AcDbPolyline
90
20
70
1
43
0.0
10
335.0778240821316
20
498.14545364393751
42
-0.41421356237311169
10
332.5778240821316
20
495.64545364393751
10
213.48780692547257
20
495.64545364393751
42
-0.41421356237339679
10
212.4878069254726
20
496.64545364393859
10
212.48780692547459
20
533.14545365623849
42
0.41421356237309503
10
207.48780692547459
20
538.14545365623849
10
132.39782408213259
20
538.1454536562386
42
-0.4142135623730992
10
129.89782408213259
20
540.64545365623849
10
129.89782408213259
20
547.96545364393751
42
0.41421356237309503
10
127.39782408213259
20
550.46545364393751
42
-0.4142135623730992
10
124.89782408213259
20
552.96545364393751
10
124.89782408213256
20
766.70446257389858
42
-0.41421356237309709
10
129.89782408213259
20
771.70446257389858
10
192.33724832531661
20
771.70446257389835
42
-0.24116511006853858
10
196.39437101107859
20
769.62674858191963
10
339.13494676789554
20
571.45448669783252
42
-0.15733195601709779
10
340.07782408213359
20
568.53220068981148
10
340.07782408213359
20
529.39545364437049
42
-0.41421356237311169
10
337.57782408213359
20
526.89545364437049
42
0.41421356237332813
10
335.0778240821316
20
524.39545364437049
0
CIRCLE
5
131
100
AcDbEntity
8
0
100
AcDbCircle
10
303.07782408213359
20
541.64545365623849
30
0
40
1.6000000000000003
210
-1.2521888304793799e-47
220
-1.4693679385278594e-39
230
1
0
CIRCLE
5
132
100
AcDbEntity
8
0
100
AcDbCircle
10
141.89782408213358
20
541.64545365623849
30
0
40
1.6000000000000003
210
-1.2521888304793799e-47
220
-1.4693679385278594e-39
230
1
0
CIRCLE
5
133
100
AcDbEntity
8
0
100
AcDbCircle
10
220.48780692547263
20
501.64545364393751
30
0
40
2.6000000000000201
210
-1.2521888304793802e-47
220
-2.7010233526038742e-78
230
1
0
CIRCLE
5
134
100
AcDbEntity
8
0
100
AcDbCircle
10
220.48780692547558
20
541.64545364393746
30
0
40
2.6000000000000201
210
-1.2521888304793802e-47
220
-2.7010233526038742e-78
230
1
0
CIRCLE
5
135
100
AcDbEntity
8
0
100
AcDbCircle
10
161.89782408213358
20
541.64545365623849
30
0
40
1.6000000000000003
210
-1.2521888304793799e-47
220
-1.4693679385278594e-39
230
1
0
CIRCLE
5
136
100
AcDbEntity
8
0
100
AcDbCircle
10
323.07782408213359
20
561.64545365623849
30
0
40
1.6000000000000403
210
5.5926719689944744e-45
220
1.2063625918554145e-75
230
1
0
CIRCLE
5
137
100
AcDbEntity
8
0
100
AcDbCircle
10
303.07782408213359
20
561.64545365623849
30
0
40
1.6000000000000003
210
-1.2521888304793799e-47
220
-1.4693679385278594e-39
230
1
0
CIRCLE
5
138
100
AcDbEntity
8
0
100
AcDbCircle
10
141.89782408213358
20
561.64545365623849
30
0
40
1.5999999999999803
210
-1.2521888304793797e-47
220
-1.4693679385278594e-39
230
1
0
CIRCLE
5
139
100
AcDbEntity
8
0
100
AcDbCircle
10
244.4878069254726
20
501.64545364393655
30
0
40
2.6000000000000201
210
-1.2521888304793802e-47
220
-2.7010233526038742e-78
230
1
0
CIRCLE
5
140
100
AcDbEntity
8
0
100
AcDbCircle
10
244.48780692547558
20
541.64545364393666
30
0
40
2.6000000000000201
210
-1.2521888304793802e-47
220
-2.7010233526038742e-78
230
1
0
CIRCLE
5
141
100
AcDbEntity
8
0
100
AcDbCircle
10
161.89782408213358
20
561.64545365623849
30
0
40
1.6000000000000003
210
-1.2521888304793799e-47
220
-1.4693679385278594e-39
230
1
0
CIRCLE
5
142
100
AcDbEntity
8
0
100
AcDbCircle
10
323.07782408213359
20
541.64545365623849
30
0
40
1.6000000000000403
210
5.5926719689944744e-45
220
1.2063625918554145e-75
230
1
0
CIRCLE
5
143
100
AcDbEntity
8
0
100
AcDbCircle
10
172.8978404099536
20
684.20442888720356
30
0
40
13
210
-1.2521888063615689e-47
220
2.9387358770557188e-39
230
1
0
CIRCLE
5
144
100
AcDbEntity
8
0
100
AcDbCircle
10
179.89782408957757
20
611.70446258407253
30
0
40
2.6000000000000201
210
-1.2521887870673234e-47
220
-3.3955720634024807e-78
230
1
0
CIRCLE
5
145
100
AcDbEntity
8
0
100
AcDbCircle
10
179.89782408957757
20
756.7044625840706
30
0
40
2.6000000000000201
210
-1.2521887870673234e-47
220
-3.3955720634024807e-78
230
1
0
CIRCLE
5
146
100
AcDbEntity
8
0
100
AcDbCircle
10
139.89782408957757
20
756.7044625840706
30
0
40
2.6000000000000001
210
-1.2521887870673232e-47
220
-3.3955720657023876e-78
230
1
0
CIRCLE
5
147
100
AcDbEntity
8
0
100
AcDbCircle
10
159.89782408957757
20
756.7044625840706
30
0
40
2.6000000000000001
210
-1.2521887870673232e-47
220
-3.3955720657023876e-78
230
1
0
CIRCLE
5
148
100
AcDbEntity
8
0
100
AcDbCircle
10
139.89782408957757
20
631.70446258407253
30
0
40
2.6000000000000001
210
-1.2521887870673232e-47
220
-3.3955720657023876e-78
230
1
0
CIRCLE
5
149
100
AcDbEntity
8
0
100
AcDbCircle
10
159.89782408957757
20
611.70446258407253
30
0
40
2.6000000000000201
210
-1.2521887870673234e-47
220
-3.3955720634024807e-78
230
1
0
CIRCLE
5
150
100
AcDbEntity
8
0
100
AcDbCircle
10
154.89784040995158
20
707.20442888720163
30
0
40
2.6000000000000001
210
-1.252188758125955e-47
220
-3.8586044652819677e-78
230
1
0
CIRCLE
5
151
100
AcDbEntity
8
0
100
AcDbCircle
10
172.89784040995158
20
707.20442888720254
30
0
40
2.6000000000000201
210
-1.2521887581259553e-47
220
-3.8586044629820608e-78
230
1
0
CIRCLE
5
152
100
AcDbEntity
8
0
100
AcDbCircle
10
154.8978404099546
20
661.20442888720152
30
0
40
2.6000000000000001
210
-1.252188758125955e-47
220
-3.8586044652819677e-78
230
1
0
CIRCLE
5
153
100
AcDbEntity
8
0
100
AcDbCircle
10
172.8978404099546
20
661.20442888720265
30
0
40
2.6000000000000201
210
-1.2521887581259553e-47
220
-3.8586044629820608e-78
230
1
0
CIRCLE
5
154
100
AcDbEntity
8
0
100
AcDbCircle
10
179.89782408957757
20
631.70446258407253
30
0
40
2.6000000000000201
210
-1.2521887870673234e-47
220
-3.3955720634024807e-78
230
1
0
CIRCLE
5
155
100
AcDbEntity
8
0
100
AcDbCircle
10
179.89782408957757
20
736.7044625840706
30
0
40
2.6000000000000201
210
-1.2521887870673234e-47
220
-3.3955720634024807e-78
230
1
0
CIRCLE
5
156
100
AcDbEntity
8
0
100
AcDbCircle
10
139.89782408957757
20
736.7044625840706
30
0
40
2.6000000000000001
210
-1.2521887870673232e-47
220
-3.3955720657023876e-78
230
1
0
CIRCLE
5
157
100
AcDbEntity
8
0
100
AcDbCircle
10
159.89782408957757
20
736.7044625840706
30
0
40
2.6000000000000201
210
-1.2521887870673234e-47
220
-3.3955720634024807e-78
230
1
0
CIRCLE
5
158
100
AcDbEntity
8
0
100
AcDbCircle
10
159.89782408957757
20
631.70446258407253
30
0
40
2.6000000000000001
210
-1.2521887870673232e-47
220
-3.3955720657023876e-78
230
1
0
CIRCLE
5
159
100
AcDbEntity
8
0
100
AcDbCircle
10
139.89782408957757
20
611.70446258407253
30
0
40
2.6000000000000001
210
-1.2521887870673232e-47
220
-3.3955720657023876e-78
230
1
0
ENDSEC
0
SECTION
2
OBJECTS
0
DICTIONARY
5
C
100
AcDbDictionary
3
ACAD_GROUP
350
D
3
ACAD_MLINESTYLE
350
17
0
DICTIONARY
5
D
100
AcDbDictionary
0
DICTIONARY
5
1A
330
C
100
AcDbDictionary
0
DICTIONARY
5
17
100
AcDbDictionary
0
ENDSEC
0
EOF
