0
SECTION
2
HEADER
9
$INSUNITS
70
4
9
$ACADVER
1
AC1014
9
$HANDSEED
5
FFFF
0
ENDSEC
0
SECTION
2
TABLES
0
TABLE
2
VPORT
5
8
100
AcDbSymbolTable
0
ENDTAB
0
TABLE
2
LTYPE
5
5
100
AcDbSymbolTable
0
LTYPE
5
14
100
AcDbSymbolTableRecord
100
AcDbLinetypeTableRecord
2
BYBLOCK
70
0
0
LTYPE
5
15
100
AcDbSymbolTableRecord
100
AcDbLinetypeTableRecord
2
BYLAYER
70
0
0
ENDTAB
0
TABLE
2
LAYER
5
2
100
AcDbSymbolTable
70
2
0
LAYER
5
50
100
AcDbSymbolTableRecord
100
AcDbLayerTableRecord
2
0
70
0
6
CONTINUOUS
0
ENDTAB
0
TABLE
2
STYLE
5
3
100
AcDbSymbolTable
70
1
0
STYLE
5
11
100
AcDbSymbolTableRecord
100
AcDbTextStyleTableRecord
2
STANDARD
70
0
0
ENDTAB
0
TABLE
2
VIEW
5
6
100
AcDbSymbolTable
70
0
0
ENDTAB
0
TABLE
2
UCS
5
7
100
AcDbSymbolTable
70
0
0
ENDTAB
0
TABLE
2
APPID
5
9
100
AcDbSymbolTable
70
2
0
APPID
5
12
100
AcDbSymbolTableRecord
100
AcDbRegAppTableRecord
2
ACAD
70
0
0
ENDTAB
0
TABLE
2
DIMSTYLE
5
A
100
AcDbSymbolTable
70
1
0
ENDTAB
0
TABLE
2
BLOCK_RECORD
5
1
100
AcDbSymbolTable
70
1
0
BLOCK_RECORD
5
1F
100
AcDbSymbolTableRecord
100
AcDbBlockTableRecord
2
*MODEL_SPACE
0
BLOCK_RECORD
5
1B
100
AcDbSymbolTableRecord
100
AcDbBlockTableRecord
2
*PAPER_SPACE
0
ENDTAB
0
ENDSEC
0
SECTION
2
BLOCKS
0
BLOCK
5
20
100
AcDbEntity
100
AcDbBlockBegin
2
*MODEL_SPACE
0
ENDBLK
5
21
100
AcDbEntity
100
AcDbBlockEnd
0
BLOCK
5
1C
100
AcDbEntity
100
AcDbBlockBegin
2
*PAPER_SPACE
0
ENDBLK
5
1D
100
AcDbEntity
100
AcDbBlockEnd
0
ENDSEC
0
SECTION
2
ENTITIES
0
LWPOLYLINE
5
100
100
AcDbEntity
8
0
100
AcDbPolyline
90
4
70
1
43
0.0
10
-633.36380924171795
20
764.20446262649807
10
32.63619075771841
20
764.20446262649807
10
32.636190757718353
20
604.20446263674899
10
-633.36380924171795
20
604.20446263674899
0
CIRCLE
5
101
100
AcDbEntity
8
0
100
AcDbCircle
10
-25.136190758281703
20
631.70446263674899
30
3.5527136788005009e-14
40
2.6000000000000001
210
-3.5925274172241014e-33
220
3.7351094225088175e-34
230
-1
0
CIRCLE
5
102
100
AcDbEntity
8
0
100
AcDbCircle
10
137.613809241718
20
736.70446262649807
30
3.5527136788005009e-14
40
2.6000000000000001
210
-3.5925274172241014e-33
220
3.7351094225088175e-34
230
-1
0
CIRCLE
5
103
100
AcDbEntity
8
0
100
AcDbCircle
10
300.363809241718
20
631.70446263674899
30
3.5527136788005009e-14
40
2.6000000000000201
210
-3.5925274172353118e-33
220
3.7351094225088175e-34
230
-1
0
CIRCLE
5
104
100
AcDbEntity
8
0
100
AcDbCircle
10
463.113809241718
20
736.70446262649807
30
3.5527136788005009e-14
40
2.5999999999999801
210
-3.5925274172353118e-33
220
3.7351094225088175e-34
230
-1
0
CIRCLE
5
105
100
AcDbEntity
8
0
100
AcDbCircle
10
625.86380924171795
20
631.70446263674899
30
3.5527136788005009e-14
40
2.5999999999999801
210
-3.5925274172353118e-33
220
3.7351094225088175e-34
230
-1
0
CIRCLE
5
106
100
AcDbEntity
8
0
100
AcDbCircle
10
625.86380924171795
20
736.70446262649807
30
3.5527136788005009e-14
40
2.5999999999999801
210
-3.5925274172353118e-33
220
3.7351094225088175e-34
230
-1
0
CIRCLE
5
107
100
AcDbEntity
8
0
100
AcDbCircle
10
463.113809241718
20
631.70446263674899
30
3.5527136788005009e-14
40
2.5999999999999801
210
-3.5925274172353118e-33
220
3.7351094225088175e-34
230
-1
0
CIRCLE
5
108
100
AcDbEntity
8
0
100
AcDbCircle
10
300.363809241718
20
736.70446262649807
30
3.5527136788005009e-14
40
2.6000000000000201
210
-3.5925274172353118e-33
220
3.7351094225088175e-34
230
-1
0
CIRCLE
5
109
100
AcDbEntity
8
0
100
AcDbCircle
10
137.613809241718
20
631.70446263674899
30
3.5527136788005009e-14
40
2.6000000000000001
210
-3.5925274172241014e-33
220
3.7351094225088175e-34
230
-1
0
CIRCLE
5
110
100
AcDbEntity
8
0
100
AcDbCircle
10
-25.136190758281703
20
736.70446262649807
30
3.5527136788005009e-14
40
2.6000000000000001
210
-3.5925274172241014e-33
220
3.7351094225088175e-34
230
-1
0
CIRCLE
5
111
100
AcDbEntity
8
0
100
AcDbCircle
10
-25.136190758281703
20
611.70446263674899
30
3.5527136788005009e-14
40
2.6000000000000001
210
-3.5925274172241014e-33
220
3.7351094225088175e-34
230
-1
0
CIRCLE
5
112
100
AcDbEntity
8
0
100
AcDbCircle
10
137.613809241718
20
756.70446262649807
30
3.5527136788005009e-14
40
2.6000000000000001
210
-3.5925274172241014e-33
220
3.7351094225088175e-34
230
-1
0
CIRCLE
5
113
100
AcDbEntity
8
0
100
AcDbCircle
10
300.363809241718
20
611.70446263674899
30
3.5527136788005009e-14
40
2.6000000000000201
210
-3.5925274172353118e-33
220
3.7351094225088175e-34
230
-1
0
CIRCLE
5
114
100
AcDbEntity
8
0
100
AcDbCircle
10
463.113809241718
20
756.70446262649807
30
3.5527136788005009e-14
40
2.5999999999999801
210
-3.5925274172353118e-33
220
3.7351094225088175e-34
230
-1
0
CIRCLE
5
115
100
AcDbEntity
8
0
100
AcDbCircle
10
625.86380924171795
20
611.70446263674899
30
3.5527136788005009e-14
40
2.5999999999999801
210
-3.5925274172353118e-33
220
3.7351094225088175e-34
230
-1
0
CIRCLE
5
116
100
AcDbEntity
8
0
100
AcDbCircle
10
625.86380924171795
20
756.70446262649807
30
3.5527136788005009e-14
40
2.5999999999999801
210
-3.5925274172353118e-33
220
3.7351094225088175e-34
230
-1
0
CIRCLE
5
117
100
AcDbEntity
8
0
100
AcDbCircle
10
463.113809241718
20
611.70446263674899
30
3.5527136788005009e-14
40
2.5999999999999801
210
-3.5925274172353118e-33
220
3.7351094225088175e-34
230
-1
0
CIRCLE
5
118
100
AcDbEntity
8
0
100
AcDbCircle
10
300.363809241718
20
756.70446262649807
30
3.5527136788005009e-14
40
2.6000000000000201
210
-3.5925274172353118e-33
220
3.7351094225088175e-34
230
-1
0
CIRCLE
5
119
100
AcDbEntity
8
0
100
AcDbCircle
10
137.613809241718
20
611.70446263674899
30
3.5527136788005009e-14
40
2.6000000000000001
210
-3.5925274172241014e-33
220
3.7351094225088175e-34
230
-1
0
CIRCLE
5
120
100
AcDbEntity
8
0
100
AcDbCircle
10
-25.136190758281703
20
756.70446262649807
30
3.5527136788005009e-14
40
2.6000000000000001
210
-3.5925274172241014e-33
220
3.7351094225088175e-34
230
-1
0
LWPOLYLINE
5
121
100
AcDbEntity
8
0
100
AcDbPolyline
90
4
70
1
43
0.0
10
-633.36380924171795
20
764.20446262649807
10
32.63619075771841
20
764.20446262649807
10
32.636190757718353
20
604.20446263674899
10
-633.36380924171795
20
604.20446263674899
0
CIRCLE
5
122
100
AcDbEntity
8
0
100
AcDbCircle
10
25.136190758281703
20
631.70446263674899
30
0
40
2.6000000000000001
210
-1.1282563447430556e-44
220
-5.0898894504769953e-67
230
1
0
CIRCLE
5
123
100
AcDbEntity
8
0
100
AcDbCircle
10
-137.613809241718
20
736.70446262649807
30
0
40
2.6000000000000001
210
-1.1282563447430556e-44
220
-5.0898894504769953e-67
230
1
0
CIRCLE
5
124
100
AcDbEntity
8
0
100
AcDbCircle
10
-300.363809241718
20
631.70446263674899
30
0
40
2.6000000000000201
210
-7.2175732832019133e-47
220
1.8367099231598242e-40
230
1
0
CIRCLE
5
125
100
AcDbEntity
8
0
100
AcDbCircle
10
-463.113809241718
20
736.70446262649807
30
0
40
2.5999999999999801
210
-7.2175732832019123e-47
220
-3.2560552646907807e-69
230
1
0
CIRCLE
5
126
100
AcDbEntity
8
0
100
AcDbCircle
10
-625.86380924171795
20
631.70446263674899
30
0
40
2.5999999999999801
210
-7.2175732832019123e-47
220
-3.2560552646907807e-69
230
1
0
CIRCLE
5
127
100
AcDbEntity
8
0
100
AcDbCircle
10
-625.86380924171795
20
736.70446262649807
30
0
40
2.5999999999999801
210
-7.2175732832019123e-47
220
-3.2560552646907807e-69
230
1
0
CIRCLE
5
128
100
AcDbEntity
8
0
100
AcDbCircle
10
-463.113809241718
20
631.70446263674899
30
0
40
2.5999999999999801
210
-7.2175732832019123e-47
220
-3.2560552646907807e-69
230
1
0
CIRCLE
5
129
100
AcDbEntity
8
0
100
AcDbCircle
10
-300.363809241718
20
736.70446262649807
30
0
40
2.6000000000000201
210
-7.2175732832019133e-47
220
1.8367099231598242e-40
230
1
0
CIRCLE
5
130
100
AcDbEntity
8
0
100
AcDbCircle
10
-137.613809241718
20
631.70446263674899
30
0
40
2.6000000000000001
210
-1.1282563447430556e-44
220
-5.0898894504769953e-67
230
1
0
CIRCLE
5
131
100
AcDbEntity
8
0
100
AcDbCircle
10
25.136190758281703
20
736.70446262649807
30
0
40
2.6000000000000001
210
-1.1282563447430556e-44
220
-5.0898894504769953e-67
230
1
0
CIRCLE
5
132
100
AcDbEntity
8
0
100
AcDbCircle
10
25.136190758281703
20
611.70446263674899
30
0
40
2.6000000000000001
210
-1.1282563447430556e-44
220
-5.0898894504769953e-67
230
1
0
CIRCLE
5
133
100
AcDbEntity
8
0
100
AcDbCircle
10
-137.613809241718
20
756.70446262649807
30
0
40
2.6000000000000001
210
-1.1282563447430556e-44
220
-5.0898894504769953e-67
230
1
0
CIRCLE
5
134
100
AcDbEntity
8
0
100
AcDbCircle
10
-300.363809241718
20
611.70446263674899
30
0
40
2.6000000000000201
210
-7.2175732832019133e-47
220
1.8367099231598242e-40
230
1
0
CIRCLE
5
135
100
AcDbEntity
8
0
100
AcDbCircle
10
-463.113809241718
20
756.70446262649807
30
0
40
2.5999999999999801
210
-7.2175732832019123e-47
220
-3.2560552646907807e-69
230
1
0
CIRCLE
5
136
100
AcDbEntity
8
0
100
AcDbCircle
10
-625.86380924171795
20
611.70446263674899
30
0
40
2.5999999999999801
210
-7.2175732832019123e-47
220
-3.2560552646907807e-69
230
1
0
CIRCLE
5
137
100
AcDbEntity
8
0
100
AcDbCircle
10
-625.86380924171795
20
756.70446262649807
30
0
40
2.5999999999999801
210
-7.2175732832019123e-47
220
-3.2560552646907807e-69
230
1
0
CIRCLE
5
138
100
AcDbEntity
8
0
100
AcDbCircle
10
-463.113809241718
20
611.70446263674899
30
0
40
2.5999999999999801
210
-7.2175732832019123e-47
220
-3.2560552646907807e-69
230
1
0
CIRCLE
5
139
100
AcDbEntity
8
0
100
AcDbCircle
10
-300.363809241718
20
756.70446262649807
30
0
40
2.6000000000000201
210
-7.2175732832019133e-47
220
1.8367099231598242e-40
230
1
0
CIRCLE
5
140
100
AcDbEntity
8
0
100
AcDbCircle
10
-137.613809241718
20
611.70446263674899
30
0
40
2.6000000000000001
210
-1.1282563447430556e-44
220
-5.0898894504769953e-67
230
1
0
CIRCLE
5
141
100
AcDbEntity
8
0
100
AcDbCircle
10
25.136190758281703
20
756.70446262649807
30
0
40
2.6000000000000001
210
-1.1282563447430556e-44
220
-5.0898894504769953e-67
230
1
0
ENDSEC
0
SECTION
2
OBJECTS
0
DICTIONARY
5
C
100
AcDbDictionary
3
ACAD_GROUP
350
D
3
ACAD_MLINESTYLE
350
17
0
DICTIONARY
5
D
100
AcDbDictionary
0
DICTIONARY
5
1A
330
C
100
AcDbDictionary
0
DICTIONARY
5
17
100
AcDbDictionary
0
ENDSEC
0
EOF
