0
SECTION
2
HEADER
9
$INSUNITS
70
4
9
$ACADVER
1
AC1014
9
$HANDSEED
5
FFFF
0
ENDSEC
0
SECTION
2
TABLES
0
TABLE
2
VPORT
5
8
100
AcDbSymbolTable
0
ENDTAB
0
TABLE
2
LTYPE
5
5
100
AcDbSymbolTable
0
LTYPE
5
14
100
AcDbSymbolTableRecord
100
AcDbLinetypeTableRecord
2
BYBLOCK
70
0
0
LTYPE
5
15
100
AcDbSymbolTableRecord
100
AcDbLinetypeTableRecord
2
BYLAYER
70
0
0
ENDTAB
0
TABLE
2
LAYER
5
2
100
AcDbSymbolTable
70
2
0
LAYER
5
50
100
AcDbSymbolTableRecord
100
AcDbLayerTableRecord
2
0
70
0
6
CONTINUOUS
0
ENDTAB
0
TABLE
2
STYLE
5
3
100
AcDbSymbolTable
70
1
0
STYLE
5
11
100
AcDbSymbolTableRecord
100
AcDbTextStyleTableRecord
2
STANDARD
70
0
0
ENDTAB
0
TABLE
2
VIEW
5
6
100
AcDbSymbolTable
70
0
0
ENDTAB
0
TABLE
2
UCS
5
7
100
AcDbSymbolTable
70
0
0
ENDTAB
0
TABLE
2
APPID
5
9
100
AcDbSymbolTable
70
2
0
APPID
5
12
100
AcDbSymbolTableRecord
100
AcDbRegAppTableRecord
2
ACAD
70
0
0
ENDTAB
0
TABLE
2
DIMSTYLE
5
A
100
AcDbSymbolTable
70
1
0
ENDTAB
0
TABLE
2
BLOCK_RECORD
5
1
100
AcDbSymbolTable
70
1
0
BLOCK_RECORD
5
1F
100
AcDbSymbolTableRecord
100
AcDbBlockTableRecord
2
*MODEL_SPACE
0
BLOCK_RECORD
5
1B
100
AcDbSymbolTableRecord
100
AcDbBlockTableRecord
2
*PAPER_SPACE
0
ENDTAB
0
ENDSEC
0
SECTION
2
BLOCKS
0
BLOCK
5
20
100
AcDbEntity
100
AcDbBlockBegin
2
*MODEL_SPACE
0
ENDBLK
5
21
100
AcDbEntity
100
AcDbBlockEnd
0
BLOCK
5
1C
100
AcDbEntity
100
AcDbBlockBegin
2
*PAPER_SPACE
0
ENDBLK
5
1D
100
AcDbEntity
100
AcDbBlockEnd
0
ENDSEC
0
SECTION
2
ENTITIES
0
LWPOLYLINE
5
100
100
AcDbEntity
8
0
100
AcDbPolyline
90
16
70
1
43
0.0
10
276.49999977866901
20
605.70382885866343
42
-0.41421356237309503
10
271.49999977866901
20
600.70382885866343
10
187.49999977866901
20
600.70382885866343
42
-0.41421356237309503
10
182.49999977866901
20
605.70382885866343
10
182.49999977866901
20
612.26280582347033
42
0.41421356237310336
10
177.49999977866901
20
617.26280582347033
10
151.999999778671
20
617.26280582347033
42
-0.41421356237308671
10
149.499999778671
20
619.76280582347033
10
149.499999778671
20
734.76280582348227
42
-0.41421356237309503
10
151.999999778671
20
737.26280582348227
10
306.999999778671
20
737.26280582348227
42
-0.41421356237307838
10
309.499999778671
20
734.76280582348238
10
309.499999778671
20
619.76280582347033
42
-0.41421356237309503
10
306.999999778671
20
617.26280582347033
10
281.49999977866901
20
617.26280582347033
42
0.41421356237310125
10
276.49999977866901
20
612.26280582347033
0
CIRCLE
5
101
100
AcDbEntity
8
0
100
AcDbCircle
10
270.49999977866901
20
606.70382885866343
30
0
40
2.5
210
5.170294166037852e-35
220
-1.1211615289836135e-53
230
1
0
CIRCLE
5
102
100
AcDbEntity
8
0
100
AcDbCircle
10
188.49999977866901
20
606.70382885866343
30
0
40
2.5
210
5.170294166037852e-35
220
-1.1211615289836135e-53
230
1
0
CIRCLE
5
103
100
AcDbEntity
8
0
100
AcDbCircle
10
270.49999977866901
20
644.70382885866331
30
0
40
2.5
210
5.170294166037852e-35
220
-1.1211615289836135e-53
230
1
0
CIRCLE
5
104
100
AcDbEntity
8
0
100
AcDbCircle
10
188.49999977866901
20
644.70382885866331
30
-3.5527136788005009e-14
40
2.5
210
5.170294166037852e-35
220
-1.1211615289836135e-53
230
1
0
CIRCLE
5
105
100
AcDbEntity
8
0
100
AcDbCircle
10
270.49999977866901
20
682.7038288586632
30
0
40
2.5
210
5.170294166037852e-35
220
-1.1211615289836135e-53
230
1
0
CIRCLE
5
106
100
AcDbEntity
8
0
100
AcDbCircle
10
188.49999977866901
20
682.7038288586632
30
0
40
2.5
210
5.170294166037852e-35
220
-1.1211615289836135e-53
230
1
0
CIRCLE
5
107
100
AcDbEntity
8
0
100
AcDbCircle
10
270.49999977866901
20
720.7038288586632
30
0
40
2.5
210
5.170294166037852e-35
220
-1.1211615289836135e-53
230
1
0
CIRCLE
5
108
100
AcDbEntity
8
0
100
AcDbCircle
10
188.49999977866901
20
720.7038288586632
30
0
40
2.5
210
5.170294166037852e-35
220
-1.1211615289836135e-53
230
1
0
CIRCLE
5
109
100
AcDbEntity
8
0
100
AcDbCircle
10
172.999999778671
20
649.26280582347033
30
-3.5527136788005009e-14
40
1.6000000000000003
210
5.1702941660378531e-35
220
4.9303806576313238e-32
230
1
0
CIRCLE
5
110
100
AcDbEntity
8
0
100
AcDbCircle
10
152.999999778671
20
649.26280582347033
30
-3.5527136788005009e-14
40
1.6000000000000003
210
5.1702941660378531e-35
220
4.9303806576313238e-32
230
1
0
CIRCLE
5
111
100
AcDbEntity
8
0
100
AcDbCircle
10
172.999999778671
20
705.26280582348227
30
0
40
1.6000000000000003
210
5.1702941660378531e-35
220
4.9303806576313238e-32
230
1
0
CIRCLE
5
112
100
AcDbEntity
8
0
100
AcDbCircle
10
152.999999778671
20
705.26280582348227
30
0
40
1.6000000000000003
210
5.1702941660378531e-35
220
4.9303806576313238e-32
230
1
0
CIRCLE
5
113
100
AcDbEntity
8
0
100
AcDbCircle
10
172.999999778671
20
725.26280582348227
30
0
40
1.6000000000000003
210
5.1702941660378531e-35
220
4.9303806576313238e-32
230
1
0
CIRCLE
5
114
100
AcDbEntity
8
0
100
AcDbCircle
10
152.999999778671
20
725.26280582348227
30
0
40
1.6000000000000003
210
5.1702941660378531e-35
220
4.9303806576313238e-32
230
1
0
CIRCLE
5
115
100
AcDbEntity
8
0
100
AcDbCircle
10
172.999999778671
20
629.26280582347044
30
-3.5527136788005009e-14
40
1.6000000000000003
210
5.1702941660378531e-35
220
4.9303806576313238e-32
230
1
0
CIRCLE
5
116
100
AcDbEntity
8
0
100
AcDbCircle
10
152.999999778671
20
629.26280582347044
30
-3.5527136788005009e-14
40
1.6000000000000003
210
5.1702941660378531e-35
220
4.9303806576313238e-32
230
1
0
CIRCLE
5
117
100
AcDbEntity
8
0
100
AcDbCircle
10
305.999999778671
20
629.26280582347044
30
0
40
1.6000000000000003
210
5.1702941660378531e-35
220
4.9303806576313238e-32
230
1
0
CIRCLE
5
118
100
AcDbEntity
8
0
100
AcDbCircle
10
285.999999778671
20
725.26280582348227
30
0
40
1.6000000000000003
210
5.1702941660378531e-35
220
4.9303806576313238e-32
230
1
0
CIRCLE
5
119
100
AcDbEntity
8
0
100
AcDbCircle
10
305.999999778671
20
725.26280582348227
30
0
40
1.6000000000000003
210
5.1702941660378531e-35
220
4.9303806576313238e-32
230
1
0
CIRCLE
5
120
100
AcDbEntity
8
0
100
AcDbCircle
10
285.999999778671
20
705.26280582348227
30
0
40
1.6000000000000003
210
5.1702941660378531e-35
220
4.9303806576313238e-32
230
1
0
CIRCLE
5
121
100
AcDbEntity
8
0
100
AcDbCircle
10
285.999999778671
20
629.26280582347044
30
0
40
1.6000000000000003
210
5.1702941660378531e-35
220
4.9303806576313238e-32
230
1
0
CIRCLE
5
122
100
AcDbEntity
8
0
100
AcDbCircle
10
305.999999778671
20
649.26280582347033
30
0
40
1.6000000000000003
210
5.1702941660378531e-35
220
4.9303806576313238e-32
230
1
0
CIRCLE
5
123
100
AcDbEntity
8
0
100
AcDbCircle
10
305.999999778671
20
705.26280582348227
30
0
40
1.6000000000000003
210
5.1702941660378531e-35
220
4.9303806576313238e-32
230
1
0
CIRCLE
5
124
100
AcDbEntity
8
0
100
AcDbCircle
10
285.999999778671
20
649.26280582347033
30
0
40
1.6000000000000003
210
5.1702941660378531e-35
220
4.9303806576313238e-32
230
1
0
CIRCLE
5
125
100
AcDbEntity
8
0
100
AcDbCircle
10
264.49999977866901
20
654.70382885866331
30
0
40
2.5
210
1.706108360076614e-33
220
-1.220846896621069e-50
230
1
0
CIRCLE
5
126
100
AcDbEntity
8
0
100
AcDbCircle
10
194.49999977866901
20
634.70382885866331
30
-3.5527136788005009e-14
40
2.5
210
1.706108360076614e-33
220
-1.220846896621069e-50
230
1
0
CIRCLE
5
127
100
AcDbEntity
8
0
100
AcDbCircle
10
264.49999977866901
20
634.70382885866331
30
0
40
2.49999999999996
210
1.7061083600766136e-33
220
-1.2208468966210685e-50
230
1
0
CIRCLE
5
128
100
AcDbEntity
8
0
100
AcDbCircle
10
194.49999977866901
20
654.70382885866331
30
-3.5527136788005009e-14
40
2.4999999999999298
210
1.7061083600766136e-33
220
-1.2208468966210685e-50
230
1
0
CIRCLE
5
129
100
AcDbEntity
8
0
100
AcDbCircle
10
295.999999778671
20
677.26280582347624
30
0
40
3.4000000000000004
210
1.7061052045484362e-33
220
-1.220842380595313e-50
230
1
0
CIRCLE
5
130
100
AcDbEntity
8
0
100
AcDbCircle
10
162.999999778671
20
677.26280582347624
30
0
40
3.3999999999999604
210
1.7061052045484362e-33
220
-1.220842380595313e-50
230
1
0
CIRCLE
5
131
100
AcDbEntity
8
0
100
AcDbCircle
10
247.00000034003205
20
665.2628081968852
30
-3.5527136788005009e-14
40
2.6000000000000201
210
5.1702941660378114e-35
220
-1.1211615289835962e-53
230
1
0
CIRCLE
5
132
100
AcDbEntity
8
0
100
AcDbCircle
10
212.00000034003205
20
689.26280819688532
30
0
40
2.6000000000000201
210
5.1702941660378114e-35
220
-1.1211615289835962e-53
230
1
0
CIRCLE
5
133
100
AcDbEntity
8
0
100
AcDbCircle
10
212.00000034003205
20
665.2628081968852
30
-3.5527136788005009e-14
40
2.6000000000000201
210
5.1702941660378114e-35
220
-1.1211615289835962e-53
230
1
0
CIRCLE
5
134
100
AcDbEntity
8
0
100
AcDbCircle
10
247.00000034003205
20
689.26280819688532
30
0
40
2.6000000000000201
210
5.1702941660378114e-35
220
-1.1211615289835962e-53
230
1
0
ENDSEC
0
SECTION
2
OBJECTS
0
DICTIONARY
5
C
100
AcDbDictionary
3
ACAD_GROUP
350
D
3
ACAD_MLINESTYLE
350
17
0
DICTIONARY
5
D
100
AcDbDictionary
0
DICTIONARY
5
1A
330
C
100
AcDbDictionary
0
DICTIONARY
5
17
100
AcDbDictionary
0
ENDSEC
0
EOF
