0
SECTION
2
HEADER
9
$INSUNITS
70
4
9
$ACADVER
1
AC1014
9
$HANDSEED
5
FFFF
0
ENDSEC
0
SECTION
2
TABLES
0
TABLE
2
VPORT
5
8
100
AcDbSymbolTable
0
ENDTAB
0
TABLE
2
LTYPE
5
5
100
AcDbSymbolTable
0
LTYPE
5
14
100
AcDbSymbolTableRecord
100
AcDbLinetypeTableRecord
2
BYBLOCK
70
0
0
LTYPE
5
15
100
AcDbSymbolTableRecord
100
AcDbLinetypeTableRecord
2
BYLAYER
70
0
0
ENDTAB
0
TABLE
2
LAYER
5
2
100
AcDbSymbolTable
70
2
0
LAYER
5
50
100
AcDbSymbolTableRecord
100
AcDbLayerTableRecord
2
0
70
0
6
CONTINUOUS
0
ENDTAB
0
TABLE
2
STYLE
5
3
100
AcDbSymbolTable
70
1
0
STYLE
5
11
100
AcDbSymbolTableRecord
100
AcDbTextStyleTableRecord
2
STANDARD
70
0
0
ENDTAB
0
TABLE
2
VIEW
5
6
100
AcDbSymbolTable
70
0
0
ENDTAB
0
TABLE
2
UCS
5
7
100
AcDbSymbolTable
70
0
0
ENDTAB
0
TABLE
2
APPID
5
9
100
AcDbSymbolTable
70
2
0
APPID
5
12
100
AcDbSymbolTableRecord
100
AcDbRegAppTableRecord
2
ACAD
70
0
0
ENDTAB
0
TABLE
2
DIMSTYLE
5
A
100
AcDbSymbolTable
70
1
0
ENDTAB
0
TABLE
2
BLOCK_RECORD
5
1
100
AcDbSymbolTable
70
1
0
BLOCK_RECORD
5
1F
100
AcDbSymbolTableRecord
100
AcDbBlockTableRecord
2
*MODEL_SPACE
0
BLOCK_RECORD
5
1B
100
AcDbSymbolTableRecord
100
AcDbBlockTableRecord
2
*PAPER_SPACE
0
ENDTAB
0
ENDSEC
0
SECTION
2
BLOCKS
0
BLOCK
5
20
100
AcDbEntity
100
AcDbBlockBegin
2
*MODEL_SPACE
0
ENDBLK
5
21
100
AcDbEntity
100
AcDbBlockEnd
0
BLOCK
5
1C
100
AcDbEntity
100
AcDbBlockBegin
2
*PAPER_SPACE
0
ENDBLK
5
1D
100
AcDbEntity
100
AcDbBlockEnd
0
ENDSEC
0
SECTION
2
ENTITIES
0
CIRCLE
5
100
100
AcDbEntity
8
0
100
AcDbCircle
10
170.65096281948993
20
-416.08805420352638
30
0
40
2.6000000000000156
210
0
220
-0
230
1
0
CIRCLE
5
101
100
AcDbEntity
8
0
100
AcDbCircle
10
165.65096281949195
20
-349.58805420352144
30
0
40
11.25
210
3.7132788200995216e-71
220
-4.9303806576313238e-32
230
1
0
CIRCLE
5
102
100
AcDbEntity
8
0
100
AcDbCircle
10
170.65096281948894
20
-283.08805420352439
30
0
40
2.6000000000000156
210
0
220
-0
230
1
0
ARC
5
103
100
AcDbEntity
8
0
100
AcDbCircle
10
192.91352302146052
20
-288.5006167750841
30
1.0947644252537633e-46
40
1.7500000000000342
210
2.5275715577105087e-31
220
2.5275715577104347e-31
230
1
100
AcDbArc
50
-135.00000000000793
51
45.000000853765357
0
LINE
5
104
100
AcDbEntity
8
0
100
AcDbLine
10
191.67608615438385
20
-289.73805364216042
30
6.2554204593697421e-31
11
189.97583362269006
21
-289.73805364216042
31
0
0
ARC
5
105
100
AcDbEntity
8
0
100
AcDbCircle
10
188.73839675561342
20
-288.50061677508415
30
-7.3349216492002144e-45
40
1.7500000000000342
210
4.0964090762899843e-31
220
-3.573463236762454e-31
230
1
100
AcDbArc
50
135.00000000000199
51
315.00000000000858
0
LINE
5
106
100
AcDbEntity
8
0
100
AcDbLine
10
187.5009598885369
20
-287.26317990800771
30
9.4909827659402072e-31
11
187.5009598885369
21
-270.58805364216045
31
0
0
ARC
5
107
100
AcDbEntity
8
0
100
AcDbCircle
10
186.50095988853681
20
-270.5880536421605
30
0
40
1.0000000000000853
210
0
220
-0
230
1
100
AcDbArc
50
0
51
89.999999999995111
0
LINE
5
108
100
AcDbEntity
8
0
100
AcDbLine
10
186.5009598885369
20
-269.58805364216045
30
0
11
154.00095225913896
21
-269.58805364216039
31
0
0
ARC
5
109
100
AcDbEntity
8
0
100
AcDbCircle
10
154.00095225913896
20
-274.58805364216039
30
0
40
5
210
0
220
0
230
1
100
AcDbArc
50
90
51
180
0
LINE
5
110
100
AcDbEntity
8
0
100
AcDbLine
10
149.00095225913896
20
-274.58805364216039
30
0
11
149.00095225913896
21
-424.58805364216039
31
0
0
ARC
5
111
100
AcDbEntity
8
0
100
AcDbCircle
10
154.0009522591389
20
-424.5880536421605
30
0
40
4.9999999999999645
210
0
220
0
230
1
100
AcDbArc
50
180
51
270.00000000000068
0
LINE
5
112
100
AcDbEntity
8
0
100
AcDbLine
10
154.00095225913896
20
-429.5880536421605
30
0
11
186.5009598885369
21
-429.58805364216039
31
0
0
ARC
5
113
100
AcDbEntity
8
0
100
AcDbCircle
10
186.50095988853684
20
-428.58805364216039
30
1.638725499051727e-45
40
1.0000000000000142
210
2.4651903288156947e-32
220
-7.6291395884869377e-46
230
1
100
AcDbArc
50
-89.999999999996746
51
0
0
LINE
5
114
100
AcDbEntity
8
0
100
AcDbLine
10
187.50095988853687
20
-428.58805364216039
30
-2.4651903288155658e-32
11
187.5009598885369
21
-411.91292737631323
31
0
0
ARC
5
115
100
AcDbEntity
8
0
100
AcDbCircle
10
188.73839675561351
20
-410.67549050923685
30
1.4888796183451181e-44
40
1.7500000000000091
210
4.1835667162109166e-31
220
4.1835667162101958e-31
230
1
100
AcDbArc
50
45
51
224.99999999999474
0
LINE
5
116
100
AcDbEntity
8
0
100
AcDbLine
10
189.97583362268995
20
-409.43805364216041
30
-1.035379938102578e-30
11
191.67608615438422
21
-409.43805364216041
31
0
0
ARC
5
117
100
AcDbEntity
8
0
100
AcDbCircle
10
192.91352302146055
20
-410.67549050923697
30
-5.4738221262688167e-47
40
1.7500000000000342
210
3.486305596841731e-31
220
-3.4863055968423301e-31
230
1
100
AcDbArc
50
-45.000000000003304
51
134.99999999999477
0
LINE
5
118
100
AcDbEntity
8
0
100
AcDbLine
10
194.15095988853696
20
-411.91292737631352
30
-8.6281661508548166e-31
11
194.15095988853696
21
-428.58805364216039
31
0
0
ARC
5
119
100
AcDbEntity
8
0
100
AcDbCircle
10
195.15095988853702
20
-428.58805364216039
30
0
40
1.0000000000000497
210
0
220
0
230
1
100
AcDbArc
50
180
51
269.99999999999835
0
LINE
5
120
100
AcDbEntity
8
0
100
AcDbLine
10
195.15095988853699
20
-429.5880536421605
30
0
11
200.00095988853695
21
-429.58805364216039
31
0
0
ARC
5
121
100
AcDbEntity
8
0
100
AcDbCircle
10
200.00095988853701
20
-424.5880536421605
30
0
40
4.9999999999999289
210
0
220
0
230
1
100
AcDbArc
50
-90.000000000000654
51
0
0
LINE
5
122
100
AcDbEntity
8
0
100
AcDbLine
10
205.00095988853695
20
-424.58805364216039
30
0
11
205.00095988853695
21
-274.58805364216039
31
0
0
ARC
5
123
100
AcDbEntity
8
0
100
AcDbCircle
10
200.00095988853695
20
-274.58805364216039
30
0
40
5
210
0
220
0
230
1
100
AcDbArc
50
0
51
90
0
LINE
5
124
100
AcDbEntity
8
0
100
AcDbLine
10
200.00095988853695
20
-269.58805364216039
30
0
11
195.15095988853699
21
-269.58805364216039
31
0
0
ARC
5
125
100
AcDbEntity
8
0
100
AcDbCircle
10
195.15095988853702
20
-270.58805364216045
30
4.5227455318296098e-45
40
1.0000000000000497
210
-4.9303806576313906e-32
220
2.7711224514234273e-45
230
1
100
AcDbArc
50
90.000000000001634
51
180
0
LINE
5
126
100
AcDbEntity
8
0
100
AcDbLine
10
194.15095988853696
20
-270.58805364216039
30
-4.9303806576311826e-32
11
194.15095987009792
21
-287.26317988956856
31
-6.2554204593697385e-31
0
ARC
5
127
100
AcDbEntity
8
0
100
AcDbCircle
10
192.91352302146055
20
-340.67493232451091
30
-5.4738221262688167e-47
40
1.7500000000000342
210
3.486305596841731e-31
220
-3.4863055968423301e-31
230
1
100
AcDbArc
50
-45.000000000003304
51
134.99999999999673
0
LINE
5
128
100
AcDbEntity
8
0
100
AcDbLine
10
194.15095988853696
20
-341.91236919158746
30
-8.6281661508548166e-31
11
194.15095988853696
21
-357.26262172328154
31
0
0
ARC
5
129
100
AcDbEntity
8
0
100
AcDbCircle
10
192.91352302146055
20
-358.50005859035804
30
-1.2452945337261558e-45
40
1.7500000000000342
210
-3.4863055968416786e-32
220
-3.4863055968422824e-32
230
1
100
AcDbArc
50
-135.00000000000659
51
45.000000000001982
0
LINE
5
130
100
AcDbEntity
8
0
100
AcDbLine
10
191.67608615438394
20
-359.73749545743436
30
-8.6281661508548177e-32
11
189.97583362269037
21
-359.73749545743436
31
0
0
ARC
5
131
100
AcDbEntity
8
0
100
AcDbCircle
10
188.73839675561368
20
-358.50005859035821
30
4.0068377964287738e-44
40
1.7500000000000342
210
-5.4037736751064642e-31
220
5.7524042347884383e-31
230
1
100
AcDbArc
50
135.00000000001319
51
315.00000000001251
0
LINE
5
132
100
AcDbEntity
8
0
100
AcDbLine
10
187.5009598885369
20
-357.262621723282
30
-1.3805065841367708e-30
11
187.5009598885369
21
-341.91236919158717
31
0
0
ARC
5
133
100
AcDbEntity
8
0
100
AcDbCircle
10
188.73839675561351
20
-340.67493232451085
30
1.4888796183451181e-44
40
1.7500000000000091
210
4.1835667162109166e-31
220
4.1835667162101958e-31
230
1
100
AcDbArc
50
45.000000000001322
51
224.99999999999341
0
LINE
5
134
100
AcDbEntity
8
0
100
AcDbLine
10
189.97583362268995
20
-339.43749545743435
30
-1.035379938102578e-30
11
191.67608615438414
21
-339.43749545743435
31
8.6281661508548166e-31
0
CIRCLE
5
135
100
AcDbEntity
8
0
100
AcDbCircle
10
172.25096281949095
20
-304.83805420352337
30
0
40
3.4000000000000004
210
0
220
-0
230
1
0
CIRCLE
5
136
100
AcDbEntity
8
0
100
AcDbCircle
10
172.25096281949195
20
-394.33805420352439
30
0
40
3.4000000000000004
210
0
220
-0
230
1
0
ENDSEC
0
SECTION
2
OBJECTS
0
DICTIONARY
5
C
100
AcDbDictionary
3
ACAD_GROUP
350
D
3
ACAD_MLINESTYLE
350
17
0
DICTIONARY
5
D
100
AcDbDictionary
0
DICTIONARY
5
1A
330
C
100
AcDbDictionary
0
DICTIONARY
5
17
100
AcDbDictionary
0
ENDSEC
0
EOF
