0
SECTION
2
HEADER
9
$INSUNITS
70
4
9
$ACADVER
1
AC1014
9
$HANDSEED
5
FFFF
0
ENDSEC
0
SECTION
2
TABLES
0
TABLE
2
VPORT
5
8
100
AcDbSymbolTable
0
ENDTAB
0
TABLE
2
LTYPE
5
5
100
AcDbSymbolTable
0
LTYPE
5
14
100
AcDbSymbolTableRecord
100
AcDbLinetypeTableRecord
2
BYBLOCK
70
0
0
LTYPE
5
15
100
AcDbSymbolTableRecord
100
AcDbLinetypeTableRecord
2
BYLAYER
70
0
0
ENDTAB
0
TABLE
2
LAYER
5
2
100
AcDbSymbolTable
70
2
0
LAYER
5
50
100
AcDbSymbolTableRecord
100
AcDbLayerTableRecord
2
0
70
0
6
CONTINUOUS
0
ENDTAB
0
TABLE
2
STYLE
5
3
100
AcDbSymbolTable
70
1
0
STYLE
5
11
100
AcDbSymbolTableRecord
100
AcDbTextStyleTableRecord
2
STANDARD
70
0
0
ENDTAB
0
TABLE
2
VIEW
5
6
100
AcDbSymbolTable
70
0
0
ENDTAB
0
TABLE
2
UCS
5
7
100
AcDbSymbolTable
70
0
0
ENDTAB
0
TABLE
2
APPID
5
9
100
AcDbSymbolTable
70
2
0
APPID
5
12
100
AcDbSymbolTableRecord
100
AcDbRegAppTableRecord
2
ACAD
70
0
0
ENDTAB
0
TABLE
2
DIMSTYLE
5
A
100
AcDbSymbolTable
70
1
0
ENDTAB
0
TABLE
2
BLOCK_RECORD
5
1
100
AcDbSymbolTable
70
1
0
BLOCK_RECORD
5
1F
100
AcDbSymbolTableRecord
100
AcDbBlockTableRecord
2
*MODEL_SPACE
0
BLOCK_RECORD
5
1B
100
AcDbSymbolTableRecord
100
AcDbBlockTableRecord
2
*PAPER_SPACE
0
ENDTAB
0
ENDSEC
0
SECTION
2
BLOCKS
0
BLOCK
5
20
100
AcDbEntity
100
AcDbBlockBegin
2
*MODEL_SPACE
0
ENDBLK
5
21
100
AcDbEntity
100
AcDbBlockEnd
0
BLOCK
5
1C
100
AcDbEntity
100
AcDbBlockBegin
2
*PAPER_SPACE
0
ENDBLK
5
1D
100
AcDbEntity
100
AcDbBlockEnd
0
ENDSEC
0
SECTION
2
ENTITIES
0
LWPOLYLINE
5
100
100
AcDbEntity
8
0
100
AcDbPolyline
90
40
70
1
43
0.0
10
289.58805364215999
20
573.76272818417522
42
-0.99999999999999989
10
292.0629273763131
20
576.23760191832787
10
337.11317990800751
20
576.2376019183281
42
-0.99999999999999989
10
339.58805364216016
20
573.76272818417499
10
339.58805364216016
20
570.23760191832787
10
359.58805364216016
20
570.23760191832787
10
359.58805364215999
20
573.76272818417533
42
-0.99999999999999989
10
362.06292737631321
20
576.23760191832787
10
407.11317990800762
20
576.23760191832821
42
-0.99999999999999989
10
409.58805364216016
20
573.76272818417488
10
409.58805364216016
20
570.23760191832787
10
429.58805364216016
20
570.23760191832787
10
429.58805364216016
20
852.23754207526395
10
409.58805364216016
20
852.23754207526417
10
409.58805364216056
20
848.71241580941671
42
-0.99999999999999989
10
407.11317990800728
20
846.23754207526417
10
378.15749545743415
20
846.23754207526417
10
378.15749545743449
20
838.71241580941671
42
-0.99999999999999989
10
375.68262172328127
20
836.23754207526417
10
370.63236919158697
20
836.23754207526395
42
-0.99999999999999989
10
368.15749545743415
20
838.71241580941705
10
368.15749545743415
20
846.23754207526417
10
362.06236919158698
20
846.23754207526395
42
-0.99999999999999989
10
359.58749545743416
20
848.71241580941705
10
359.58749545743416
20
852.23754207526429
10
339.58749545743416
20
852.23754207526429
10
339.58749545743444
20
848.71241580941671
42
-0.99999999999999989
10
337.11262172328122
20
846.23754207526417
10
331.01749545743417
20
846.23754207526417
10
331.01749545743445
20
838.71241580941671
42
-0.99999999999999989
10
328.54262172328117
20
836.23754207526417
10
323.49236919158699
20
836.23754207526395
42
-0.99999999999999989
10
321.01749545743417
20
838.71241580941705
10
321.01749545743417
20
846.23754207526417
10
292.06292737631287
20
846.23754207526395
42
-0.99999999999999989
10
289.58805364216016
20
848.71241580941705
10
289.58805364216022
20
852.23754207526417
10
269.58805364216022
20
852.23754207526417
10
269.58805364216022
20
570.23760191832798
10
289.58805364216022
20
570.23760191832787
0
CIRCLE
5
101
100
AcDbEntity
8
0
100
AcDbCircle
10
374.53047589982316
20
641.25971793988117
30
0
40
2.1000000000000099
210
-4.9199666564721029e-32
220
1.0669439349323745e-50
230
1
0
CIRCLE
5
102
100
AcDbEntity
8
0
100
AcDbCircle
10
324.55706532695615
20
611.21544667703392
30
-3.5527136788005009e-14
40
2.1000000000000099
210
-4.9199666564721029e-32
220
1.0669439349323745e-50
230
1
0
CIRCLE
5
103
100
AcDbEntity
8
0
100
AcDbCircle
10
324.53049550969416
20
641.21543491111197
30
0
40
2.1000000000000099
210
-4.9199666564721029e-32
220
1.0669439349323745e-50
230
1
0
CIRCLE
5
104
100
AcDbEntity
8
0
100
AcDbCircle
10
374.55704571708515
20
611.25972970580392
30
0
40
2.1000000000000099
210
-4.9199666564721029e-32
220
1.0669439349323745e-50
230
1
0
CIRCLE
5
105
100
AcDbEntity
8
0
100
AcDbCircle
10
326.58805420352115
20
586.23760239041894
30
0
40
2.5
210
1.0414001159221038e-34
220
-2.2583802190189913e-53
230
1
0
CIRCLE
5
106
100
AcDbEntity
8
0
100
AcDbCircle
10
372.58805420352121
20
586.23760239041894
30
0
40
2.5
210
1.0414001159221038e-34
220
-2.2583802190189913e-53
230
1
0
CIRCLE
5
107
100
AcDbEntity
8
0
100
AcDbCircle
10
301.58805364216119
20
600.2376019183489
30
0
40
1.6000000000000003
210
1.0414001159495685e-34
220
9.8607613152626476e-32
230
1
0
CIRCLE
5
108
100
AcDbEntity
8
0
100
AcDbCircle
10
281.5880536421592
20
672.23760191830604
30
0
40
1.6000000000000003
210
1.0414001159495685e-34
220
9.8607613152626476e-32
230
1
0
CIRCLE
5
109
100
AcDbEntity
8
0
100
AcDbCircle
10
281.58805364216119
20
745.23760191834913
30
0
40
1.6000000000000003
210
1.0414001159495685e-34
220
9.8607613152626476e-32
230
1
0
CIRCLE
5
110
100
AcDbEntity
8
0
100
AcDbCircle
10
417.58805364216119
20
745.23760191834913
30
0
40
1.5999999999999701
210
-4.9199666564718281e-32
220
1.0669439349604522e-50
230
1
0
CIRCLE
5
111
100
AcDbEntity
8
0
100
AcDbCircle
10
397.58805364215914
20
672.23760191830706
30
0
40
1.5999999999999701
210
-4.9199666564718281e-32
220
1.0669439349604522e-50
230
1
0
CIRCLE
5
112
100
AcDbEntity
8
0
100
AcDbCircle
10
417.58805364216119
20
600.23760191834992
30
0
40
1.5999999999999701
210
-4.9199666564718281e-32
220
1.0669439349604522e-50
230
1
0
CIRCLE
5
113
100
AcDbEntity
8
0
100
AcDbCircle
10
417.58805364216119
20
580.23760191834992
30
0
40
1.5999999999999701
210
-4.9199666564718281e-32
220
1.0669439349604522e-50
230
1
0
CIRCLE
5
114
100
AcDbEntity
8
0
100
AcDbCircle
10
397.58805364215914
20
652.23760191830706
30
0
40
1.5999999999999701
210
-4.9199666564718281e-32
220
1.0669439349604522e-50
230
1
0
CIRCLE
5
115
100
AcDbEntity
8
0
100
AcDbCircle
10
417.58805364216119
20
725.23760191834913
30
0
40
1.5999999999999701
210
-4.9199666564718281e-32
220
1.0669439349604522e-50
230
1
0
CIRCLE
5
116
100
AcDbEntity
8
0
100
AcDbCircle
10
301.58805364216119
20
745.23760191834913
30
0
40
1.6000000000000003
210
1.0414001159495685e-34
220
9.8607613152626476e-32
230
1
0
CIRCLE
5
117
100
AcDbEntity
8
0
100
AcDbCircle
10
301.5880536421592
20
672.23760191830604
30
0
40
1.6000000000000003
210
1.0414001159495685e-34
220
9.8607613152626476e-32
230
1
0
CIRCLE
5
118
100
AcDbEntity
8
0
100
AcDbCircle
10
281.58805364216119
20
600.2376019183489
30
0
40
1.6000000000000003
210
1.0414001159495685e-34
220
9.8607613152626476e-32
230
1
0
CIRCLE
5
119
100
AcDbEntity
8
0
100
AcDbCircle
10
301.58805364216119
20
580.2376019183489
30
3.5527136788005009e-14
40
1.6000000000000003
210
1.0414001159495685e-34
220
9.8607613152626476e-32
230
1
0
CIRCLE
5
120
100
AcDbEntity
8
0
100
AcDbCircle
10
281.5880536421592
20
652.23760191830604
30
0
40
1.6000000000000003
210
1.0414001159495685e-34
220
9.8607613152626476e-32
230
1
0
CIRCLE
5
121
100
AcDbEntity
8
0
100
AcDbCircle
10
281.58805364216119
20
725.23760191834913
30
0
40
1.6000000000000003
210
1.0414001159495685e-34
220
9.8607613152626476e-32
230
1
0
CIRCLE
5
122
100
AcDbEntity
8
0
100
AcDbCircle
10
397.58805364216119
20
745.23760191834913
30
0
40
1.5999999999999701
210
-4.9199666564718281e-32
220
1.0669439349604522e-50
230
1
0
CIRCLE
5
123
100
AcDbEntity
8
0
100
AcDbCircle
10
417.58805364215914
20
672.23760191830706
30
0
40
1.5999999999999701
210
-4.9199666564718281e-32
220
1.0669439349604522e-50
230
1
0
CIRCLE
5
124
100
AcDbEntity
8
0
100
AcDbCircle
10
397.58805364216119
20
600.23760191834992
30
0
40
1.5999999999999701
210
-4.9199666564718281e-32
220
1.0669439349604522e-50
230
1
0
CIRCLE
5
125
100
AcDbEntity
8
0
100
AcDbCircle
10
397.58805364216119
20
580.23760191834992
30
0
40
1.5999999999999701
210
-4.9199666564718281e-32
220
1.0669439349604522e-50
230
1
0
CIRCLE
5
126
100
AcDbEntity
8
0
100
AcDbCircle
10
417.58805364215914
20
652.23760191830706
30
0
40
1.5999999999999701
210
-4.9199666564718281e-32
220
1.0669439349604522e-50
230
1
0
CIRCLE
5
127
100
AcDbEntity
8
0
100
AcDbCircle
10
397.58805364216119
20
725.23760191834913
30
0
40
1.5999999999999701
210
-4.9199666564718281e-32
220
1.0669439349604522e-50
230
1
0
CIRCLE
5
128
100
AcDbEntity
8
0
100
AcDbCircle
10
301.58805364216119
20
725.23760191834913
30
3.5527136788005009e-14
40
1.6000000000000003
210
1.0414001159495685e-34
220
9.8607613152626476e-32
230
1
0
CIRCLE
5
129
100
AcDbEntity
8
0
100
AcDbCircle
10
301.5880536421592
20
652.23760191830604
30
3.5527136788005009e-14
40
1.6000000000000003
210
1.0414001159495685e-34
220
9.8607613152626476e-32
230
1
0
CIRCLE
5
130
100
AcDbEntity
8
0
100
AcDbCircle
10
281.58805364216119
20
580.2376019183489
30
0
40
1.6000000000000003
210
1.0414001159495685e-34
220
9.8607613152626476e-32
230
1
0
CIRCLE
5
131
100
AcDbEntity
8
0
100
AcDbCircle
10
416.08805364216016
20
630.23754207526395
30
3.5527136788005009e-14
40
2.5999999999999801
210
1.04140011597893e-34
220
-2.2583802192654537e-53
230
1
0
CIRCLE
5
132
100
AcDbEntity
8
0
100
AcDbCircle
10
416.08805364216016
20
836.23754207526417
30
0
40
2.5999999999999801
210
1.04140011597893e-34
220
-2.2583802192654537e-53
230
1
0
CIRCLE
5
133
100
AcDbEntity
8
0
100
AcDbCircle
10
283.08805364216022
20
630.23754207526395
30
3.5527136788005009e-14
40
2.5999999999999801
210
1.04140011597893e-34
220
-2.2583802192654537e-53
230
1
0
CIRCLE
5
134
100
AcDbEntity
8
0
100
AcDbCircle
10
283.08805364216022
20
767.570875408598
30
0
40
2.5999999999999801
210
1.04140011597893e-34
220
-2.2583802192654537e-53
230
1
0
CIRCLE
5
135
100
AcDbEntity
8
0
100
AcDbCircle
10
416.08805364216016
20
698.90420874193114
30
0
40
2.5999999999999801
210
1.04140011597893e-34
220
-2.2583802192654537e-53
230
1
0
CIRCLE
5
136
100
AcDbEntity
8
0
100
AcDbCircle
10
416.08805364216016
20
767.570875408598
30
0
40
2.5999999999999801
210
1.04140011597893e-34
220
-2.2583802192654537e-53
230
1
0
CIRCLE
5
137
100
AcDbEntity
8
0
100
AcDbCircle
10
283.08805364216022
20
698.90420874193114
30
0
40
2.5999999999999801
210
1.04140011597893e-34
220
-2.2583802192654537e-53
230
1
0
CIRCLE
5
138
100
AcDbEntity
8
0
100
AcDbCircle
10
361.58805513784813
20
682.73756822148016
30
0
40
2.5999999999999801
210
3.4364416935374465e-33
220
-2.4590331040239719e-50
230
1
0
CIRCLE
5
139
100
AcDbEntity
8
0
100
AcDbCircle
10
337.58805513784813
20
682.73756822148016
30
-3.5527136788005009e-14
40
2.5999999999999801
210
3.4364416935374465e-33
220
-2.4590331040239719e-50
230
1
0
CIRCLE
5
140
100
AcDbEntity
8
0
100
AcDbCircle
10
361.58805513784813
20
642.73756822148016
30
0
40
2.6000000000000503
210
3.4364416935374465e-33
220
-2.4590331040239719e-50
230
1
0
CIRCLE
5
141
100
AcDbEntity
8
0
100
AcDbCircle
10
337.58805513784813
20
642.73756822148016
30
0
40
2.6000000000000503
210
3.4364416935374465e-33
220
-2.4590331040239719e-50
230
1
0
CIRCLE
5
142
100
AcDbEntity
8
0
100
AcDbCircle
10
326.58805420352917
20
795.48760239041098
30
0
40
2.5
210
3.4364416935375416e-33
220
-2.4590331040241091e-50
230
1
0
CIRCLE
5
143
100
AcDbEntity
8
0
100
AcDbCircle
10
372.58805420352923
20
795.48760239039314
30
0
40
2.5
210
3.4364416935375416e-33
220
-2.4590331040241091e-50
230
1
0
CIRCLE
5
144
100
AcDbEntity
8
0
100
AcDbCircle
10
326.58805420352422
20
782.48760239041098
30
0
40
2.5
210
3.4364416935375416e-33
220
-2.4590331040241091e-50
230
1
0
CIRCLE
5
145
100
AcDbEntity
8
0
100
AcDbCircle
10
372.58805420352417
20
782.48760239039314
30
0
40
2.4999999999999298
210
3.4364416935375416e-33
220
-2.4590331040241091e-50
230
1
0
CIRCLE
5
146
100
AcDbEntity
8
0
100
AcDbCircle
10
309.58805351948422
20
774.01612583105316
30
0
40
3.4000000000000004
210
3.4364416935375416e-33
220
-2.4590331040241091e-50
230
1
0
CIRCLE
5
147
100
AcDbEntity
8
0
100
AcDbCircle
10
389.58805351948422
20
774.01612583105316
30
0
40
3.40000000000011
210
3.4364416935375437e-33
220
-2.459033104024111e-50
230
1
0
CIRCLE
5
148
100
AcDbEntity
8
0
100
AcDbCircle
10
283.08805364216022
20
836.23754207526417
30
0
40
2.5999999999999801
210
1.04140011597893e-34
220
-2.2583802192654537e-53
230
1
0
ENDSEC
0
SECTION
2
OBJECTS
0
DICTIONARY
5
C
100
AcDbDictionary
3
ACAD_GROUP
350
D
3
ACAD_MLINESTYLE
350
17
0
DICTIONARY
5
D
100
AcDbDictionary
0
DICTIONARY
5
1A
330
C
100
AcDbDictionary
0
DICTIONARY
5
17
100
AcDbDictionary
0
ENDSEC
0
EOF
