0
SECTION
2
HEADER
9
$INSUNITS
70
4
9
$ACADVER
1
AC1014
9
$HANDSEED
5
FFFF
0
ENDSEC
0
SECTION
2
TABLES
0
TABLE
2
VPORT
5
8
100
AcDbSymbolTable
0
ENDTAB
0
TABLE
2
LTYPE
5
5
100
AcDbSymbolTable
0
LTYPE
5
14
100
AcDbSymbolTableRecord
100
AcDbLinetypeTableRecord
2
BYBLOCK
70
0
0
LTYPE
5
15
100
AcDbSymbolTableRecord
100
AcDbLinetypeTableRecord
2
BYLAYER
70
0
0
ENDTAB
0
TABLE
2
LAYER
5
2
100
AcDbSymbolTable
70
2
0
LAYER
5
50
100
AcDbSymbolTableRecord
100
AcDbLayerTableRecord
2
0
70
0
6
CONTINUOUS
0
ENDTAB
0
TABLE
2
STYLE
5
3
100
AcDbSymbolTable
70
1
0
STYLE
5
11
100
AcDbSymbolTableRecord
100
AcDbTextStyleTableRecord
2
STANDARD
70
0
0
ENDTAB
0
TABLE
2
VIEW
5
6
100
AcDbSymbolTable
70
0
0
ENDTAB
0
TABLE
2
UCS
5
7
100
AcDbSymbolTable
70
0
0
ENDTAB
0
TABLE
2
APPID
5
9
100
AcDbSymbolTable
70
2
0
APPID
5
12
100
AcDbSymbolTableRecord
100
AcDbRegAppTableRecord
2
ACAD
70
0
0
ENDTAB
0
TABLE
2
DIMSTYLE
5
A
100
AcDbSymbolTable
70
1
0
ENDTAB
0
TABLE
2
BLOCK_RECORD
5
1
100
AcDbSymbolTable
70
1
0
BLOCK_RECORD
5
1F
100
AcDbSymbolTableRecord
100
AcDbBlockTableRecord
2
*MODEL_SPACE
0
BLOCK_RECORD
5
1B
100
AcDbSymbolTableRecord
100
AcDbBlockTableRecord
2
*PAPER_SPACE
0
ENDTAB
0
ENDSEC
0
SECTION
2
BLOCKS
0
BLOCK
5
20
100
AcDbEntity
100
AcDbBlockBegin
2
*MODEL_SPACE
0
ENDBLK
5
21
100
AcDbEntity
100
AcDbBlockEnd
0
BLOCK
5
1C
100
AcDbEntity
100
AcDbBlockBegin
2
*PAPER_SPACE
0
ENDBLK
5
1D
100
AcDbEntity
100
AcDbBlockEnd
0
ENDSEC
0
SECTION
2
ENTITIES
0
CIRCLE
5
100
100
AcDbEntity
8
0
100
AcDbCircle
10
142.08096281949301
20
-326.01749545743439
30
0
40
2.5999999999999623
210
3.9524128430486164e-72
220
-2.4651903288156619e-32
230
1
0
CIRCLE
5
101
100
AcDbEntity
8
0
100
AcDbCircle
10
170.65096281948996
20
-416.08805420352638
30
0
40
2.6000000000000156
210
0
220
-0
230
1
0
CIRCLE
5
102
100
AcDbEntity
8
0
100
AcDbCircle
10
165.65096281949297
20
-349.58749545743444
30
0
40
19.250000000000007
210
-3.9524128430486164e-72
220
2.4651903288156619e-32
230
1
0
CIRCLE
5
103
100
AcDbEntity
8
0
100
AcDbCircle
10
189.22096281949297
20
-326.01749545743439
30
0
40
2.5999999999999801
210
0
220
-0
230
1
0
CIRCLE
5
104
100
AcDbEntity
8
0
100
AcDbCircle
10
142.08096281949301
20
-373.15749545743438
30
0
40
2.5999999999999801
210
0
220
-0
230
1
0
CIRCLE
5
105
100
AcDbEntity
8
0
100
AcDbCircle
10
189.22096281949297
20
-373.15749545743438
30
0
40
2.6000000000000156
210
0
220
-0
230
1
0
CIRCLE
5
106
100
AcDbEntity
8
0
100
AcDbCircle
10
170.65096281948897
20
-283.08805420352439
30
0
40
2.5999999999999801
210
0
220
-0
230
1
0
LWPOLYLINE
5
107
100
AcDbEntity
8
0
100
AcDbPolyline
90
8
70
1
43
0.0
10
187.50095988853712
20
-341.91236919158757
42
-0.99999999999999989
10
189.97583362268972
20
-339.4374954574343
10
191.67608615438428
20
-339.43749545743435
42
-0.99999999999999989
10
194.15095988853705
20
-341.91236919158746
10
194.15095988853727
20
-357.26262172328211
42
-0.99999999999999989
10
191.67608615438377
20
-359.73749545743436
10
189.97583362268995
20
-359.73749545743453
42
-0.99999999999999989
10
187.5009598885369
20
-357.26262172328171
0
CIRCLE
5
108
100
AcDbEntity
8
0
100
AcDbCircle
10
201.325959888537
20
-279.66305364216038
30
0
40
2.6000000000000156
210
0
220
-0
230
1
0
CIRCLE
5
109
100
AcDbEntity
8
0
100
AcDbCircle
10
201.325959888537
20
-419.5130536421604
30
0
40
2.6000000000000156
210
0
220
-0
230
1
0
CIRCLE
5
110
100
AcDbEntity
8
0
100
AcDbCircle
10
201.325959888537
20
-314.62555364216036
30
0
40
2.6000000000000156
210
0
220
-0
230
1
0
CIRCLE
5
111
100
AcDbEntity
8
0
100
AcDbCircle
10
201.325959888537
20
-384.55055364216037
30
0
40
2.6000000000000156
210
0
220
-0
230
1
0
CIRCLE
5
112
100
AcDbEntity
8
0
100
AcDbCircle
10
201.325959888537
20
-349.58805364216039
30
0
40
2.6000000000000156
210
0
220
-0
230
1
0
ARC
5
113
100
AcDbEntity
8
0
100
AcDbCircle
10
186.50095988853695
20
-428.58805364216039
30
0
40
1.0000000000000142
210
0
220
0
230
1
100
AcDbArc
50
-90.000000000001634
51
0
0
LINE
5
114
100
AcDbEntity
8
0
100
AcDbLine
10
187.50095988853698
20
-428.58805364216039
30
0
11
187.50095988853695
21
-411.91292737631363
31
0
0
ARC
5
115
100
AcDbEntity
8
0
100
AcDbCircle
10
188.73839675561331
20
-410.67549050923708
30
-5.9869929506065182e-48
40
1.7500000000000091
210
-1.0894704990180856e-33
220
6.863664143782841e-32
230
1
100
AcDbArc
50
45.000000000013813
51
225.0000000000046
0
LINE
5
116
100
AcDbEntity
8
0
100
AcDbLine
10
189.97583362268949
20
-409.4380536421603
30
-8.3585359586420903e-32
11
191.67608615438442
21
-409.4380536421603
31
0
0
ARC
5
117
100
AcDbEntity
8
0
100
AcDbCircle
10
192.91352302146066
20
-410.67549050923702
30
8.7581154020301067e-46
40
1.7500000000000091
210
-8.8247110420040599e-32
220
1.2093122539047787e-31
230
1
100
AcDbArc
50
-45.000000000003972
51
134.99999999998883
0
LINE
5
118
100
AcDbEntity
8
0
100
AcDbLine
10
194.15095988853705
20
-411.91292737631358
30
2.5884498452564038e-31
11
194.15095988853699
21
-428.58805364216039
31
0
0
ARC
5
119
100
AcDbEntity
8
0
100
AcDbCircle
10
195.15095988853702
20
-428.58805364216039
30
0
40
1.0000000000000142
210
0
220
2.4651903288156619e-32
230
1
100
AcDbArc
50
180
51
270
0
LINE
5
120
100
AcDbEntity
8
0
100
AcDbLine
10
195.15095988853702
20
-429.58805364216039
30
2.4651903288156619e-32
11
203.50095988853698
21
-429.58805364216039
31
0
0
ARC
5
121
100
AcDbEntity
8
0
100
AcDbCircle
10
203.50095988853698
20
-424.58805364216039
30
0
40
5
210
-0
220
0
230
1
100
AcDbArc
50
-90
51
0
0
LINE
5
122
100
AcDbEntity
8
0
100
AcDbLine
10
208.50095988853698
20
-424.58805364216039
30
0
11
208.50095988853698
21
-274.58805364216039
31
0
0
ARC
5
123
100
AcDbEntity
8
0
100
AcDbCircle
10
203.50095988853698
20
-274.58805364216039
30
0
40
5
210
0
220
0
230
1
100
AcDbArc
50
0
51
90
0
LINE
5
124
100
AcDbEntity
8
0
100
AcDbLine
10
203.50095988853698
20
-269.58805364216039
30
0
11
195.15095988853702
21
-269.58805364216039
31
0
0
ARC
5
125
100
AcDbEntity
8
0
100
AcDbCircle
10
195.15095988853702
20
-270.58805364216039
30
0
40
1.0000000000000142
210
0
220
-0
230
1
100
AcDbArc
50
90
51
180
0
LINE
5
126
100
AcDbEntity
8
0
100
AcDbLine
10
194.15095988853699
20
-270.58805364216039
30
0
11
194.15095988853699
21
-287.26317990800663
31
0
0
ARC
5
127
100
AcDbEntity
8
0
100
AcDbCircle
10
192.91352302146123
20
-288.5006167750837
30
-3.1474477226045696e-46
40
1.7500000000000342
210
-1.7431527984200771e-32
220
-1.7431527984219286e-32
230
1
100
AcDbArc
50
-134.99999999999343
51
45.000000000030262
0
LINE
5
128
100
AcDbEntity
8
0
100
AcDbLine
10
191.6760861543849
20
-289.73805364216031
30
-4.3140830754274089e-32
11
189.97583362268995
21
-289.73805364216037
31
0
0
ARC
5
129
100
AcDbEntity
8
0
100
AcDbCircle
10
188.73839675561339
20
-288.50061677508404
30
-1.0947644252537633e-46
40
1.7500000000000091
210
4.1944614212010491e-31
220
-4.1726720112199424e-31
230
1
100
AcDbArc
50
134.99999999999343
51
315.00000000000523
0
LINE
5
130
100
AcDbEntity
8
0
100
AcDbLine
10
187.50095988853707
20
-287.26317990800743
30
1.0353799381025773e-30
11
187.50095988853707
21
-270.58805364216039
31
0
0
ARC
5
131
100
AcDbEntity
8
0
100
AcDbCircle
10
186.50095988853704
20
-270.58805364216039
30
0
40
1.0000000000000497
210
0
220
-0
230
1
100
AcDbArc
50
0
51
89.99999999999838
0
LINE
5
132
100
AcDbEntity
8
0
100
AcDbLine
10
186.50095988853707
20
-269.58805364216039
30
0
11
154.00096179587899
21
-269.58805364216039
31
0
0
ARC
5
133
100
AcDbEntity
8
0
100
AcDbCircle
10
154.00096179587899
20
-274.58805364216039
30
0
40
5
210
0
220
-0
230
1
100
AcDbArc
50
90
51
180
0
LINE
5
134
100
AcDbEntity
8
0
100
AcDbLine
10
149.00096179587899
20
-274.58805364216039
30
0
11
149.00096179587902
21
-311.08749545743331
31
0
0
ARC
5
135
100
AcDbEntity
8
0
100
AcDbCircle
10
144.00096179587899
20
-311.08749545743331
30
0
40
5
210
0
220
0
230
1
100
AcDbArc
50
-90.000000000000654
51
0
0
LINE
5
136
100
AcDbEntity
8
0
100
AcDbLine
10
144.00096179587894
20
-316.08749545743331
30
0
11
142.43096281950397
21
-316.08749545743331
31
0
0
ARC
5
137
100
AcDbEntity
8
0
100
AcDbCircle
10
142.43096281950383
20
-326.01749545743337
30
0
40
9.9300000000000921
210
-2.4651903288156619e-32
220
3.086949033948146e-46
230
1
100
AcDbArc
50
89.99999999999919
51
180
0
LINE
5
138
100
AcDbEntity
8
0
100
AcDbLine
10
132.50096281950385
20
-326.01749545743087
30
-2.4479339965145337e-31
11
132.50096281949214
21
-373.15749545743188
31
0
0
ARC
5
139
100
AcDbEntity
8
0
100
AcDbCircle
10
142.43096281949212
20
-373.15749545743438
30
0
40
9.9299999999999855
210
-6.1738980678963591e-45
220
-2.4651903288156619e-32
230
1
100
AcDbArc
50
180
51
269.99999999999983
0
LINE
5
140
100
AcDbEntity
8
0
100
AcDbLine
10
142.43096281949209
20
-383.08749545743439
30
-2.4479339965145609e-31
11
144.00096179587902
21
-383.08749545743439
31
0
0
ARC
5
141
100
AcDbEntity
8
0
100
AcDbCircle
10
144.00096179587908
20
-388.08749545743433
30
0
40
4.9999999999999289
210
0
220
0
230
1
100
AcDbArc
50
0
51
90.000000000000654
0
LINE
5
142
100
AcDbEntity
8
0
100
AcDbLine
10
149.00096179587899
20
-388.08749545743439
30
0
11
149.00096179587902
21
-424.5880536421605
31
0
0
ARC
5
143
100
AcDbEntity
8
0
100
AcDbCircle
10
154.00096179587899
20
-424.5880536421605
30
0
40
4.9999999999999822
210
0
220
0
230
1
100
AcDbArc
50
180
51
270
0
LINE
5
144
100
AcDbEntity
8
0
100
AcDbLine
10
154.00096179587899
20
-429.5880536421605
30
0
11
186.50095988853693
21
-429.58805364216039
31
0
0
ENDSEC
0
SECTION
2
OBJECTS
0
DICTIONARY
5
C
100
AcDbDictionary
3
ACAD_GROUP
350
D
3
ACAD_MLINESTYLE
350
17
0
DICTIONARY
5
D
100
AcDbDictionary
0
DICTIONARY
5
1A
330
C
100
AcDbDictionary
0
DICTIONARY
5
17
100
AcDbDictionary
0
ENDSEC
0
EOF
