0
SECTION
2
HEADER
9
$INSUNITS
70
4
9
$ACADVER
1
AC1014
9
$HANDSEED
5
FFFF
0
ENDSEC
0
SECTION
2
TABLES
0
TABLE
2
VPORT
5
8
100
AcDbSymbolTable
0
ENDTAB
0
TABLE
2
LTYPE
5
5
100
AcDbSymbolTable
0
LTYPE
5
14
100
AcDbSymbolTableRecord
100
AcDbLinetypeTableRecord
2
BYBLOCK
70
0
0
LTYPE
5
15
100
AcDbSymbolTableRecord
100
AcDbLinetypeTableRecord
2
BYLAYER
70
0
0
ENDTAB
0
TABLE
2
LAYER
5
2
100
AcDbSymbolTable
70
2
0
LAYER
5
50
100
AcDbSymbolTableRecord
100
AcDbLayerTableRecord
2
0
70
0
6
CONTINUOUS
0
ENDTAB
0
TABLE
2
STYLE
5
3
100
AcDbSymbolTable
70
1
0
STYLE
5
11
100
AcDbSymbolTableRecord
100
AcDbTextStyleTableRecord
2
STANDARD
70
0
0
ENDTAB
0
TABLE
2
VIEW
5
6
100
AcDbSymbolTable
70
0
0
ENDTAB
0
TABLE
2
UCS
5
7
100
AcDbSymbolTable
70
0
0
ENDTAB
0
TABLE
2
APPID
5
9
100
AcDbSymbolTable
70
2
0
APPID
5
12
100
AcDbSymbolTableRecord
100
AcDbRegAppTableRecord
2
ACAD
70
0
0
ENDTAB
0
TABLE
2
DIMSTYLE
5
A
100
AcDbSymbolTable
70
1
0
ENDTAB
0
TABLE
2
BLOCK_RECORD
5
1
100
AcDbSymbolTable
70
1
0
BLOCK_RECORD
5
1F
100
AcDbSymbolTableRecord
100
AcDbBlockTableRecord
2
*MODEL_SPACE
0
BLOCK_RECORD
5
1B
100
AcDbSymbolTableRecord
100
AcDbBlockTableRecord
2
*PAPER_SPACE
0
ENDTAB
0
ENDSEC
0
SECTION
2
BLOCKS
0
BLOCK
5
20
100
AcDbEntity
100
AcDbBlockBegin
2
*MODEL_SPACE
0
ENDBLK
5
21
100
AcDbEntity
100
AcDbBlockEnd
0
BLOCK
5
1C
100
AcDbEntity
100
AcDbBlockBegin
2
*PAPER_SPACE
0
ENDBLK
5
1D
100
AcDbEntity
100
AcDbBlockEnd
0
ENDSEC
0
SECTION
2
ENTITIES
0
LWPOLYLINE
5
100
100
AcDbEntity
8
0
100
AcDbPolyline
90
12
70
1
43
0.0
10
509.09999999999906
20
479.99999999990655
42
-0.41421356237309503
10
504.09999999999906
20
484.99999999990655
10
504.09999999999957
20
516.9831908408936
42
-0.2783132376139868
10
506.76886625157101
20
521.40651712853446
10
578.90576163079891
20
559.42332628754696
42
-0.12185297734674612
10
581.23689537922701
20
559.99999999990553
10
699.09980317847896
20
559.99999999990553
42
-0.41421356237262885
10
704.09980317847896
20
554.99999999991348
10
704.09980317859197
20
484.99999998813655
42
-0.41421356237308671
10
699.09980317860004
20
479.99999998812859
10
685.99980317860002
20
479.99999998810756
10
620.29999999999905
20
479.99999999990655
0
CIRCLE
5
101
100
AcDbEntity
8
0
100
AcDbCircle
10
644.9998031786331
20
519.99999998803548
30
0
40
2.6000000000000503
210
-0
220
0
230
1
0
CIRCLE
5
102
100
AcDbEntity
8
0
100
AcDbCircle
10
690.99980317863299
20
519.99999998803355
30
0
40
2.6000000000000503
210
-0
220
0
230
1
0
CIRCLE
5
103
100
AcDbEntity
8
0
100
AcDbCircle
10
644.99980317863208
20
501.99999998803554
30
-1.4210854715202004e-13
40
2.6000000000000503
210
-0
220
0
230
1
0
CIRCLE
5
104
100
AcDbEntity
8
0
100
AcDbCircle
10
690.99980317863196
20
501.99999998803355
30
-1.4210854715202004e-13
40
2.6000000000000503
210
-0
220
0
230
1
0
CIRCLE
5
105
100
AcDbEntity
8
0
100
AcDbCircle
10
551.36666666666599
20
509.99999999990558
30
4.2632564145606011e-13
40
2.5999999999999801
210
-0
220
0
230
1
0
CIRCLE
5
106
100
AcDbEntity
8
0
100
AcDbCircle
10
532.73333333333198
20
489.99999999990558
30
3.5527136788005009e-13
40
2.5999999999999801
210
-0
220
0
230
1
0
CIRCLE
5
107
100
AcDbEntity
8
0
100
AcDbCircle
10
551.36666666666599
20
489.99999999990558
30
3.5527136788005009e-13
40
2.5999999999999801
210
-0
220
0
230
1
0
CIRCLE
5
108
100
AcDbEntity
8
0
100
AcDbCircle
10
532.73333333333198
20
509.99999999990558
30
4.2632564145606011e-13
40
2.5999999999999801
210
-0
220
0
230
1
0
CIRCLE
5
109
100
AcDbEntity
8
0
100
AcDbCircle
10
569.99999999999898
20
509.99999999990558
30
4.2632564145606011e-13
40
2.5999999999999801
210
-0
220
0
230
1
0
CIRCLE
5
110
100
AcDbEntity
8
0
100
AcDbCircle
10
514.099999999999
20
489.99999999990558
30
3.5527136788005009e-13
40
2.5999999999999801
210
-0
220
0
230
1
0
CIRCLE
5
111
100
AcDbEntity
8
0
100
AcDbCircle
10
569.99999999999898
20
489.99999999990558
30
3.5527136788005009e-13
40
2.5999999999999801
210
-0
220
0
230
1
0
CIRCLE
5
112
100
AcDbEntity
8
0
100
AcDbCircle
10
514.099999999999
20
509.99999999990558
30
4.2632564145606011e-13
40
2.5999999999999801
210
-0
220
0
230
1
0
CIRCLE
5
113
100
AcDbEntity
8
0
100
AcDbCircle
10
667.99980317863299
20
519.99999998803457
30
0
40
13.000000000000099
210
-4.9251954607631302e-32
220
0
230
1
0
CIRCLE
5
114
100
AcDbEntity
8
0
100
AcDbCircle
10
-590
20
489.99999999990558
30
-3.5527136788005009e-13
40
2.6000000000000001
210
0
220
0
230
-1
0
CIRCLE
5
115
100
AcDbEntity
8
0
100
AcDbCircle
10
-590
20
509.99999999990558
30
-4.2632564145606011e-13
40
2.6000000000000001
210
0
220
0
230
-1
0
CIRCLE
5
116
100
AcDbEntity
8
0
100
AcDbCircle
10
-590
20
529.99999999990553
30
4.2632564145606011e-13
40
2.6000000000000001
210
0
220
0
230
-1
0
CIRCLE
5
117
100
AcDbEntity
8
0
100
AcDbCircle
10
-590
20
549.99999999990553
30
2.1316282072803006e-13
40
2.6000000000000001
210
0
220
0
230
-1
0
CIRCLE
5
118
100
AcDbEntity
8
0
100
AcDbCircle
10
-610
20
509.99999999990558
30
-4.2632564145606011e-13
40
2.6000000000000001
210
0
220
0
230
-1
0
CIRCLE
5
119
100
AcDbEntity
8
0
100
AcDbCircle
10
-610
20
529.99999999990553
30
4.2632564145606011e-13
40
2.6000000000000001
210
0
220
0
230
-1
0
CIRCLE
5
120
100
AcDbEntity
8
0
100
AcDbCircle
10
-610
20
549.99999999990553
30
2.1316282072803006e-13
40
2.6000000000000001
210
0
220
0
230
-1
0
CIRCLE
5
121
100
AcDbEntity
8
0
100
AcDbCircle
10
-610
20
489.99999999990558
30
-3.5527136788005009e-13
40
2.6000000000000001
210
0
220
0
230
-1
0
LWPOLYLINE
5
122
100
AcDbEntity
8
0
100
AcDbPolyline
90
12
70
1
43
0.0
10
509.09999999999906
20
479.99999999990655
42
-0.41421356237309503
10
504.09999999999906
20
484.99999999990655
10
504.09999999999957
20
516.9831908408936
42
-0.2783132376139868
10
506.76886625157101
20
521.40651712853446
10
578.90576163079891
20
559.42332628754696
42
-0.12185297734674612
10
581.23689537922701
20
559.99999999990553
10
699.09980317847896
20
559.99999999990553
42
-0.41421356237262885
10
704.09980317847896
20
554.99999999991348
10
704.09980317859197
20
484.99999998813655
42
-0.41421356237308671
10
699.09980317860004
20
479.99999998812859
10
685.99980317860002
20
479.99999998810756
10
620.29999999999905
20
479.99999999990655
0
CIRCLE
5
123
100
AcDbEntity
8
0
100
AcDbCircle
10
644.9998031786331
20
519.99999998803548
30
0
40
2.6000000000000503
210
0
220
0
230
1
0
CIRCLE
5
124
100
AcDbEntity
8
0
100
AcDbCircle
10
690.99980317863299
20
519.99999998803355
30
0
40
2.6000000000000503
210
0
220
0
230
1
0
CIRCLE
5
125
100
AcDbEntity
8
0
100
AcDbCircle
10
644.99980317863208
20
501.99999998803554
30
0
40
2.6000000000000503
210
0
220
0
230
1
0
CIRCLE
5
126
100
AcDbEntity
8
0
100
AcDbCircle
10
690.99980317863196
20
501.99999998803355
30
0
40
2.6000000000000503
210
0
220
0
230
1
0
CIRCLE
5
127
100
AcDbEntity
8
0
100
AcDbCircle
10
551.36666666666599
20
509.99999999990558
30
0
40
2.5999999999999801
210
0
220
0
230
1
0
CIRCLE
5
128
100
AcDbEntity
8
0
100
AcDbCircle
10
532.73333333333198
20
489.99999999990558
30
0
40
2.5999999999999801
210
0
220
0
230
1
0
CIRCLE
5
129
100
AcDbEntity
8
0
100
AcDbCircle
10
551.36666666666599
20
489.99999999990558
30
0
40
2.5999999999999801
210
0
220
0
230
1
0
CIRCLE
5
130
100
AcDbEntity
8
0
100
AcDbCircle
10
532.73333333333198
20
509.99999999990558
30
0
40
2.5999999999999801
210
0
220
0
230
1
0
CIRCLE
5
131
100
AcDbEntity
8
0
100
AcDbCircle
10
569.99999999999898
20
509.99999999990558
30
0
40
2.5999999999999801
210
0
220
0
230
1
0
CIRCLE
5
132
100
AcDbEntity
8
0
100
AcDbCircle
10
514.099999999999
20
489.99999999990558
30
0
40
2.5999999999999801
210
0
220
0
230
1
0
CIRCLE
5
133
100
AcDbEntity
8
0
100
AcDbCircle
10
569.99999999999898
20
489.99999999990558
30
0
40
2.5999999999999801
210
0
220
0
230
1
0
CIRCLE
5
134
100
AcDbEntity
8
0
100
AcDbCircle
10
514.099999999999
20
509.99999999990558
30
0
40
2.5999999999999801
210
0
220
0
230
1
0
CIRCLE
5
135
100
AcDbEntity
8
0
100
AcDbCircle
10
667.99980317863299
20
519.99999998803457
30
0
40
13.000000000000099
210
2.3996258650987753e-73
220
1.2692972156711373e-132
230
1
0
CIRCLE
5
136
100
AcDbEntity
8
0
100
AcDbCircle
10
590
20
489.99999999990558
30
0
40
2.6000000000000001
210
0
220
0
230
1
0
CIRCLE
5
137
100
AcDbEntity
8
0
100
AcDbCircle
10
590
20
509.99999999990558
30
0
40
2.6000000000000001
210
0
220
0
230
1
0
CIRCLE
5
138
100
AcDbEntity
8
0
100
AcDbCircle
10
590
20
529.99999999990553
30
0
40
2.6000000000000001
210
0
220
0
230
1
0
CIRCLE
5
139
100
AcDbEntity
8
0
100
AcDbCircle
10
590
20
549.99999999990553
30
0
40
2.6000000000000001
210
0
220
0
230
1
0
CIRCLE
5
140
100
AcDbEntity
8
0
100
AcDbCircle
10
610
20
509.99999999990558
30
0
40
2.6000000000000001
210
0
220
0
230
1
0
CIRCLE
5
141
100
AcDbEntity
8
0
100
AcDbCircle
10
610
20
529.99999999990553
30
0
40
2.6000000000000001
210
0
220
0
230
1
0
CIRCLE
5
142
100
AcDbEntity
8
0
100
AcDbCircle
10
610
20
549.99999999990553
30
0
40
2.6000000000000001
210
0
220
0
230
1
0
CIRCLE
5
143
100
AcDbEntity
8
0
100
AcDbCircle
10
610
20
489.99999999990558
30
0
40
2.6000000000000001
210
0
220
0
230
1
0
ENDSEC
0
SECTION
2
OBJECTS
0
DICTIONARY
5
C
100
AcDbDictionary
3
ACAD_GROUP
350
D
3
ACAD_MLINESTYLE
350
17
0
DICTIONARY
5
D
100
AcDbDictionary
0
DICTIONARY
5
1A
330
C
100
AcDbDictionary
0
DICTIONARY
5
17
100
AcDbDictionary
0
ENDSEC
0
EOF
