0
SECTION
2
HEADER
9
$INSUNITS
70
4
9
$ACADVER
1
AC1014
9
$HANDSEED
5
FFFF
0
ENDSEC
0
SECTION
2
TABLES
0
TABLE
2
VPORT
5
8
100
AcDbSymbolTable
0
ENDTAB
0
TABLE
2
LTYPE
5
5
100
AcDbSymbolTable
0
LTYPE
5
14
100
AcDbSymbolTableRecord
100
AcDbLinetypeTableRecord
2
BYBLOCK
70
0
0
LTYPE
5
15
100
AcDbSymbolTableRecord
100
AcDbLinetypeTableRecord
2
BYLAYER
70
0
0
ENDTAB
0
TABLE
2
LAYER
5
2
100
AcDbSymbolTable
70
2
0
LAYER
5
50
100
AcDbSymbolTableRecord
100
AcDbLayerTableRecord
2
0
70
0
6
CONTINUOUS
0
ENDTAB
0
TABLE
2
STYLE
5
3
100
AcDbSymbolTable
70
1
0
STYLE
5
11
100
AcDbSymbolTableRecord
100
AcDbTextStyleTableRecord
2
STANDARD
70
0
0
ENDTAB
0
TABLE
2
VIEW
5
6
100
AcDbSymbolTable
70
0
0
ENDTAB
0
TABLE
2
UCS
5
7
100
AcDbSymbolTable
70
0
0
ENDTAB
0
TABLE
2
APPID
5
9
100
AcDbSymbolTable
70
2
0
APPID
5
12
100
AcDbSymbolTableRecord
100
AcDbRegAppTableRecord
2
ACAD
70
0
0
ENDTAB
0
TABLE
2
DIMSTYLE
5
A
100
AcDbSymbolTable
70
1
0
ENDTAB
0
TABLE
2
BLOCK_RECORD
5
1
100
AcDbSymbolTable
70
1
0
BLOCK_RECORD
5
1F
100
AcDbSymbolTableRecord
100
AcDbBlockTableRecord
2
*MODEL_SPACE
0
BLOCK_RECORD
5
1B
100
AcDbSymbolTableRecord
100
AcDbBlockTableRecord
2
*PAPER_SPACE
0
ENDTAB
0
ENDSEC
0
SECTION
2
BLOCKS
0
BLOCK
5
20
100
AcDbEntity
100
AcDbBlockBegin
2
*MODEL_SPACE
0
ENDBLK
5
21
100
AcDbEntity
100
AcDbBlockEnd
0
BLOCK
5
1C
100
AcDbEntity
100
AcDbBlockBegin
2
*PAPER_SPACE
0
ENDBLK
5
1D
100
AcDbEntity
100
AcDbBlockEnd
0
ENDSEC
0
SECTION
2
ENTITIES
0
LWPOLYLINE
5
100
100
AcDbEntity
8
0
100
AcDbPolyline
90
12
70
1
43
0.0
10
95.900000000001199
20
484.99999999990655
42
-0.41421356237309503
10
90.900000000001199
20
479.99999999990655
10
-20.299999999998803
20
479.99999999990655
10
-85.999803178599606
20
479.99999998810756
10
-99.099803178599615
20
479.9999999881282
42
-0.41421356237309193
10
-104.09980317859201
20
484.99999998813655
10
-104.09980317847922
20
554.99999999991348
42
-0.41421356237262885
10
-99.09980317847922
20
559.99999999990553
10
18.763104620773397
20
559.99999999990496
42
-0.12185297734673553
10
21.094238369201097
20
559.42332628754662
10
93.231133748429187
20
521.40651712853503
42
-0.27831323761400278
10
95.900000000001199
20
516.9831908408936
0
CIRCLE
5
101
100
AcDbEntity
8
0
100
AcDbCircle
10
-90.999803178632206
20
501.99999998803355
30
-1.4210854715202004e-13
40
2.6000000000000201
210
-0
220
0
230
1
0
CIRCLE
5
102
100
AcDbEntity
8
0
100
AcDbCircle
10
-44.999803178632106
20
501.99999998803554
30
-1.4210854715202004e-13
40
2.5999999999999801
210
-0
220
0
230
1
0
CIRCLE
5
103
100
AcDbEntity
8
0
100
AcDbCircle
10
-90.999803178633002
20
519.99999998803355
30
0
40
2.6000000000000001
210
-0
220
0
230
1
0
CIRCLE
5
104
100
AcDbEntity
8
0
100
AcDbCircle
10
-44.999803178632803
20
519.99999998803548
30
0
40
2.6000000000000001
210
-0
220
0
230
1
0
CIRCLE
5
105
100
AcDbEntity
8
0
100
AcDbCircle
10
67.266666666667703
20
509.99999999990655
30
4.2632564145606011e-13
40
2.6000000000000201
210
-0
220
0
230
1
0
CIRCLE
5
106
100
AcDbEntity
8
0
100
AcDbCircle
10
48.633333333334299
20
489.99999999990655
30
3.5527136788005009e-13
40
2.6000000000000201
210
-0
220
0
230
1
0
CIRCLE
5
107
100
AcDbEntity
8
0
100
AcDbCircle
10
67.266666666667703
20
489.99999999990655
30
3.5527136788005009e-13
40
2.6000000000000201
210
-0
220
0
230
1
0
CIRCLE
5
108
100
AcDbEntity
8
0
100
AcDbCircle
10
48.633333333334299
20
509.99999999990655
30
4.2632564145606011e-13
40
2.6000000000000201
210
-0
220
0
230
1
0
CIRCLE
5
109
100
AcDbEntity
8
0
100
AcDbCircle
10
85.900000000001015
20
509.99999999990655
30
4.2632564145606011e-13
40
2.6000000000000201
210
-0
220
0
230
1
0
CIRCLE
5
110
100
AcDbEntity
8
0
100
AcDbCircle
10
30.000000000000998
20
489.99999999990655
30
3.5527136788005009e-13
40
2.6000000000000201
210
-0
220
0
230
1
0
CIRCLE
5
111
100
AcDbEntity
8
0
100
AcDbCircle
10
85.900000000001015
20
489.99999999990655
30
3.5527136788005009e-13
40
2.6000000000000201
210
-0
220
0
230
1
0
CIRCLE
5
112
100
AcDbEntity
8
0
100
AcDbCircle
10
30.000000000000998
20
509.99999999990655
30
4.2632564145606011e-13
40
2.6000000000000201
210
-0
220
0
230
1
0
CIRCLE
5
113
100
AcDbEntity
8
0
100
AcDbCircle
10
-67.999803178632902
20
519.99999998803457
30
0
40
13.000000000000099
210
4.9251954607631302e-32
220
0
230
1
0
CIRCLE
5
114
100
AcDbEntity
8
0
100
AcDbCircle
10
10
20
489.99999999990558
30
3.5527136788005009e-13
40
2.6000000000000001
210
-0
220
0
230
1
0
CIRCLE
5
115
100
AcDbEntity
8
0
100
AcDbCircle
10
10
20
509.99999999990558
30
4.2632564145606011e-13
40
2.6000000000000001
210
-0
220
0
230
1
0
CIRCLE
5
116
100
AcDbEntity
8
0
100
AcDbCircle
10
10
20
529.99999999990553
30
-4.2632564145606011e-13
40
2.6000000000000001
210
-0
220
0
230
1
0
CIRCLE
5
117
100
AcDbEntity
8
0
100
AcDbCircle
10
10
20
549.99999999990553
30
-2.1316282072803006e-13
40
2.6000000000000001
210
-0
220
0
230
1
0
CIRCLE
5
118
100
AcDbEntity
8
0
100
AcDbCircle
10
-10
20
509.99999999990558
30
4.2632564145606011e-13
40
2.6000000000000001
210
-0
220
0
230
1
0
CIRCLE
5
119
100
AcDbEntity
8
0
100
AcDbCircle
10
-10
20
529.99999999990553
30
-4.2632564145606011e-13
40
2.6000000000000001
210
-0
220
0
230
1
0
CIRCLE
5
120
100
AcDbEntity
8
0
100
AcDbCircle
10
-10
20
549.99999999990553
30
-2.1316282072803006e-13
40
2.6000000000000001
210
-0
220
0
230
1
0
CIRCLE
5
121
100
AcDbEntity
8
0
100
AcDbCircle
10
-10
20
489.99999999990558
30
3.5527136788005009e-13
40
2.6000000000000001
210
-0
220
0
230
1
0
ENDSEC
0
SECTION
2
OBJECTS
0
DICTIONARY
5
C
100
AcDbDictionary
3
ACAD_GROUP
350
D
3
ACAD_MLINESTYLE
350
17
0
DICTIONARY
5
D
100
AcDbDictionary
0
DICTIONARY
5
1A
330
C
100
AcDbDictionary
0
DICTIONARY
5
17
100
AcDbDictionary
0
ENDSEC
0
EOF
