0
SECTION
2
HEADER
9
$INSUNITS
70
4
9
$ACADVER
1
AC1014
9
$HANDSEED
5
FFFF
0
ENDSEC
0
SECTION
2
TABLES
0
TABLE
2
VPORT
5
8
100
AcDbSymbolTable
0
ENDTAB
0
TABLE
2
LTYPE
5
5
100
AcDbSymbolTable
0
LTYPE
5
14
100
AcDbSymbolTableRecord
100
AcDbLinetypeTableRecord
2
BYBLOCK
70
0
0
LTYPE
5
15
100
AcDbSymbolTableRecord
100
AcDbLinetypeTableRecord
2
BYLAYER
70
0
0
ENDTAB
0
TABLE
2
LAYER
5
2
100
AcDbSymbolTable
70
2
0
LAYER
5
50
100
AcDbSymbolTableRecord
100
AcDbLayerTableRecord
2
0
70
0
6
CONTINUOUS
0
ENDTAB
0
TABLE
2
STYLE
5
3
100
AcDbSymbolTable
70
1
0
STYLE
5
11
100
AcDbSymbolTableRecord
100
AcDbTextStyleTableRecord
2
STANDARD
70
0
0
ENDTAB
0
TABLE
2
VIEW
5
6
100
AcDbSymbolTable
70
0
0
ENDTAB
0
TABLE
2
UCS
5
7
100
AcDbSymbolTable
70
0
0
ENDTAB
0
TABLE
2
APPID
5
9
100
AcDbSymbolTable
70
2
0
APPID
5
12
100
AcDbSymbolTableRecord
100
AcDbRegAppTableRecord
2
ACAD
70
0
0
ENDTAB
0
TABLE
2
DIMSTYLE
5
A
100
AcDbSymbolTable
70
1
0
ENDTAB
0
TABLE
2
BLOCK_RECORD
5
1
100
AcDbSymbolTable
70
1
0
BLOCK_RECORD
5
1F
100
AcDbSymbolTableRecord
100
AcDbBlockTableRecord
2
*MODEL_SPACE
0
BLOCK_RECORD
5
1B
100
AcDbSymbolTableRecord
100
AcDbBlockTableRecord
2
*PAPER_SPACE
0
ENDTAB
0
ENDSEC
0
SECTION
2
BLOCKS
0
BLOCK
5
20
100
AcDbEntity
100
AcDbBlockBegin
2
*MODEL_SPACE
0
ENDBLK
5
21
100
AcDbEntity
100
AcDbBlockEnd
0
BLOCK
5
1C
100
AcDbEntity
100
AcDbBlockBegin
2
*PAPER_SPACE
0
ENDBLK
5
1D
100
AcDbEntity
100
AcDbBlockEnd
0
ENDSEC
0
SECTION
2
ENTITIES
0
ARC
5
100
100
AcDbEntity
8
0
100
AcDbCircle
10
652.21401673723915
20
504.21421354618366
30
0
40
2.0000000000000466
210
0
220
0
230
1
100
AcDbArc
50
135
51
315.00000000002188
0
LINE
5
101
100
AcDbEntity
8
0
100
AcDbLine
10
650.79980317486604
20
505.62842710855676
30
0
11
650.79980317486616
21
529.49999999988165
31
-7.1054273576010019e-14
0
ARC
5
102
100
AcDbEntity
8
0
100
AcDbCircle
10
645.79980317486616
20
529.49999999988165
30
-7.1054273576010019e-14
40
5
210
0
220
0
230
1
100
AcDbArc
50
0
51
90
0
LINE
5
103
100
AcDbEntity
8
0
100
AcDbLine
10
645.79980317486616
20
534.49999999988165
30
-7.1054273576010019e-14
11
625.00000000000011
21
534.49999999988165
31
-7.1054273576010019e-14
0
ARC
5
104
100
AcDbEntity
8
0
100
AcDbCircle
10
625.00000000000011
20
529.49999999988165
30
-7.1054273576010019e-14
40
5
210
0
220
-0
230
1
100
AcDbArc
50
90
51
180
0
LINE
5
105
100
AcDbEntity
8
0
100
AcDbLine
10
620.00000000000011
20
529.49999999988165
30
-7.1054273576010019e-14
11
620.00000000000011
21
484.99999998757767
31
0
0
ARC
5
106
100
AcDbEntity
8
0
100
AcDbCircle
10
625.00000000000011
20
484.99999998757767
30
0
40
5
210
0
220
0
230
1
100
AcDbArc
50
180
51
270
0
LINE
5
107
100
AcDbEntity
8
0
100
AcDbLine
10
625.00000000000011
20
479.99999998757767
30
0
11
699.09980317863415
21
479.99999998757767
31
0
0
ARC
5
108
100
AcDbEntity
8
0
100
AcDbCircle
10
699.09980317863415
20
484.99999998757767
30
0
40
5
210
0
220
0
230
1
100
AcDbArc
50
-90
51
0
0
LINE
5
109
100
AcDbEntity
8
0
100
AcDbLine
10
704.09980317863415
20
484.99999998757767
30
0
11
704.09980317863415
21
554.99999998757767
31
-7.1054273576010019e-14
0
ARC
5
110
100
AcDbEntity
8
0
100
AcDbCircle
10
699.09980317863415
20
554.99999998757767
30
-7.1054273576010019e-14
40
5
210
0
220
0
230
1
100
AcDbArc
50
0
51
90
0
LINE
5
111
100
AcDbEntity
8
0
100
AcDbLine
10
699.09980317863415
20
559.99999998757767
30
-7.1054273576010019e-14
11
690.19980317856209
21
559.99999998757767
31
-7.1054273576010019e-14
0
ARC
5
112
100
AcDbEntity
8
0
100
AcDbCircle
10
690.19980317856209
20
554.99999998757767
30
-7.1054273576010019e-14
40
5
210
0
220
-0
230
1
100
AcDbArc
50
90
51
180
0
LINE
5
113
100
AcDbEntity
8
0
100
AcDbLine
10
685.19980317856209
20
554.99999998757767
30
-7.1054273576010019e-14
11
685.19980317856209
21
505.62842710855671
31
0
0
ARC
5
114
100
AcDbEntity
8
0
100
AcDbCircle
10
683.78558961618921
20
504.21421354618366
30
0
40
2.0000000000000466
210
0
220
0
230
1
100
AcDbArc
50
-135.00000000000347
51
45.00000000000346
0
LINE
5
115
100
AcDbEntity
8
0
100
AcDbLine
10
682.37137605381599
20
502.79999998381061
30
0
11
653.62823029961282
21
502.79999998381106
31
0
0
CIRCLE
5
116
100
AcDbEntity
8
0
100
AcDbCircle
10
-644.99980317863321
20
519.99999998757869
30
0
40
2.6000000000000001
210
0
220
0
230
-1
0
CIRCLE
5
117
100
AcDbEntity
8
0
100
AcDbCircle
10
-690.99980317863412
20
519.99999998757664
30
0
40
2.6000000000000001
210
0
220
0
230
-1
0
CIRCLE
5
118
100
AcDbEntity
8
0
100
AcDbCircle
10
-644.99980317863321
20
501.99999998757869
30
0
40
2.6000000000000001
210
0
220
0
230
-1
0
CIRCLE
5
119
100
AcDbEntity
8
0
100
AcDbCircle
10
-690.9998031786331
20
501.9999999875767
30
0
40
2.6000000000000001
210
0
220
0
230
-1
0
CIRCLE
5
120
100
AcDbEntity
8
0
100
AcDbCircle
10
-627.50000000000011
20
526.99999999988165
30
7.1054273576010019e-14
40
3.1000000000000005
210
0
220
0
230
-1
0
CIRCLE
5
121
100
AcDbEntity
8
0
100
AcDbCircle
10
-696.59980317863415
20
552.49999998757767
30
7.1054273576010019e-14
40
3.1000000000000005
210
0
220
0
230
-1
0
CIRCLE
5
122
100
AcDbEntity
8
0
100
AcDbCircle
10
-627.50000000000011
20
487.49999998757767
30
0
40
3.1000000000000005
210
0
220
0
230
-1
0
CIRCLE
5
123
100
AcDbEntity
8
0
100
AcDbCircle
10
-696.59980317863415
20
487.49999998757767
30
0
40
3.1000000000000005
210
0
220
0
230
-1
0
ARC
5
124
100
AcDbEntity
8
0
100
AcDbCircle
10
652.21401673723915
20
504.21421354618366
30
7.4170289810942466e-45
40
2.0000000000000466
210
-5.1694776160482705e-44
220
1.3945222387368337e-31
230
1
100
AcDbArc
50
135
51
315.00000000000347
0
LINE
5
125
100
AcDbEntity
8
0
100
AcDbLine
10
650.79980317486604
20
505.62842710855676
30
-1.9721522630531741e-31
11
650.79980317486616
21
529.49999999988165
31
0
0
ARC
5
126
100
AcDbEntity
8
0
100
AcDbCircle
10
645.79980317486616
20
529.49999999988165
30
0
40
5
210
-0
220
6.7034024278742955e-108
230
1
100
AcDbArc
50
0
51
90
0
LINE
5
127
100
AcDbEntity
8
0
100
AcDbLine
10
645.79980317486616
20
534.49999999988165
30
0
11
625.00000000000011
21
534.49999999988165
31
3.6121207907826687e-45
0
ARC
5
128
100
AcDbEntity
8
0
100
AcDbCircle
10
625.00000000000011
20
529.49999999988165
30
0
40
5
210
1.7366129671588695e-46
220
-7.2242415815653619e-46
230
1
100
AcDbArc
50
90
51
180
0
LINE
5
129
100
AcDbEntity
8
0
100
AcDbLine
10
620.00000000000011
20
529.49999999988165
30
8.6830648357948629e-46
11
620.00000000000011
21
484.99999998757767
31
0
0
ARC
5
130
100
AcDbEntity
8
0
100
AcDbCircle
10
625.00000000000011
20
484.99999998757767
30
0
40
5
210
0
220
6.7034024278742955e-108
230
1
100
AcDbArc
50
180
51
270
0
LINE
5
131
100
AcDbEntity
8
0
100
AcDbLine
10
625.00000000000011
20
479.99999998757767
30
0
11
699.09980317863415
21
479.99999998757767
31
-1.2868267906394345e-44
0
ARC
5
132
100
AcDbEntity
8
0
100
AcDbCircle
10
699.09980317863415
20
484.99999998757767
30
0
40
5
210
1.7366129671589722e-46
220
-2.573653581278869e-45
230
1
100
AcDbArc
50
-90
51
0
0
LINE
5
133
100
AcDbEntity
8
0
100
AcDbLine
10
704.09980317863415
20
484.99999998757767
30
-8.6830648357948629e-46
11
704.09980317863415
21
554.99999998757767
31
0
0
ARC
5
134
100
AcDbEntity
8
0
100
AcDbCircle
10
699.09980317863415
20
554.99999998757767
30
0
40
5
210
-0
220
6.7034024278742955e-108
230
1
100
AcDbArc
50
0
51
90
0
LINE
5
135
100
AcDbEntity
8
0
100
AcDbLine
10
699.09980317863415
20
559.99999998757767
30
0
11
690.19980317856209
21
559.99999998757767
31
1.5455855407839983e-45
0
ARC
5
136
100
AcDbEntity
8
0
100
AcDbCircle
10
690.19980317856209
20
554.99999998757767
30
0
40
5
210
1.7366129671589722e-46
220
-3.0911710815679967e-46
230
1
100
AcDbArc
50
90
51
180
0
LINE
5
137
100
AcDbEntity
8
0
100
AcDbLine
10
685.19980317856209
20
554.99999998757767
30
8.6830648357948629e-46
11
685.19980317856209
21
505.62842710855671
31
0
0
ARC
5
138
100
AcDbEntity
8
0
100
AcDbCircle
10
683.78558961618921
20
504.21421354618366
30
-4.9401244689576071e-45
40
2.0000000000000466
210
-6.9726111936833386e-32
220
-6.9726111936843874e-32
230
1
100
AcDbArc
50
-135.00000000000347
51
45.00000000000346
0
LINE
5
139
100
AcDbEntity
8
0
100
AcDbLine
10
682.37137605381599
20
502.79999998381061
30
-1.9721522630525295e-31
11
653.62823029961237
21
502.79999998381061
31
1.972152263053323e-31
0
CIRCLE
5
140
100
AcDbEntity
8
0
100
AcDbCircle
10
644.99980317863321
20
519.99999998757869
30
0
40
2.6000000000000001
210
1.7366129671589724e-46
220
9.8607613152626476e-32
230
1
0
CIRCLE
5
141
100
AcDbEntity
8
0
100
AcDbCircle
10
690.99980317863412
20
519.99999998757664
30
0
40
2.6000000000000001
210
1.7366129671589724e-46
220
9.8607613152626476e-32
230
1
0
CIRCLE
5
142
100
AcDbEntity
8
0
100
AcDbCircle
10
644.99980317863321
20
501.99999998757869
30
0
40
2.6000000000000001
210
1.7366129671589724e-46
220
9.8607613152626476e-32
230
1
0
CIRCLE
5
143
100
AcDbEntity
8
0
100
AcDbCircle
10
690.9998031786331
20
501.9999999875767
30
0
40
2.6000000000000001
210
1.7366129671589724e-46
220
9.8607613152626476e-32
230
1
0
CIRCLE
5
144
100
AcDbEntity
8
0
100
AcDbCircle
10
627.50000000000011
20
526.99999999988165
30
0
40
3.1000000000000005
210
-4.5087336825354208e-49
220
2.3073956843326886e-82
230
1
0
CIRCLE
5
145
100
AcDbEntity
8
0
100
AcDbCircle
10
696.59980317863415
20
552.49999998757767
30
0
40
3.1000000000000005
210
1.9321419798738045e-47
220
4.2373172591551778e-79
230
1
0
CIRCLE
5
146
100
AcDbEntity
8
0
100
AcDbCircle
10
627.50000000000011
20
487.49999998757767
30
0
40
3.1000000000000005
210
-4.5087336825354208e-49
220
2.3073956843326886e-82
230
1
0
CIRCLE
5
147
100
AcDbEntity
8
0
100
AcDbCircle
10
696.59980317863415
20
487.49999998757767
30
0
40
3.1000000000000005
210
1.9321419798738045e-47
220
4.2373172591551778e-79
230
1
0
ENDSEC
0
SECTION
2
OBJECTS
0
DICTIONARY
5
C
100
AcDbDictionary
3
ACAD_GROUP
350
D
3
ACAD_MLINESTYLE
350
17
0
DICTIONARY
5
D
100
AcDbDictionary
0
DICTIONARY
5
1A
330
C
100
AcDbDictionary
0
DICTIONARY
5
17
100
AcDbDictionary
0
ENDSEC
0
EOF
