0
SECTION
2
HEADER
9
$INSUNITS
70
4
9
$ACADVER
1
AC1014
9
$HANDSEED
5
FFFF
0
ENDSEC
0
SECTION
2
TABLES
0
TABLE
2
VPORT
5
8
100
AcDbSymbolTable
0
ENDTAB
0
TABLE
2
LTYPE
5
5
100
AcDbSymbolTable
0
LTYPE
5
14
100
AcDbSymbolTableRecord
100
AcDbLinetypeTableRecord
2
BYBLOCK
70
0
0
LTYPE
5
15
100
AcDbSymbolTableRecord
100
AcDbLinetypeTableRecord
2
BYLAYER
70
0
0
ENDTAB
0
TABLE
2
LAYER
5
2
100
AcDbSymbolTable
70
2
0
LAYER
5
50
100
AcDbSymbolTableRecord
100
AcDbLayerTableRecord
2
0
70
0
6
CONTINUOUS
0
ENDTAB
0
TABLE
2
STYLE
5
3
100
AcDbSymbolTable
70
1
0
STYLE
5
11
100
AcDbSymbolTableRecord
100
AcDbTextStyleTableRecord
2
STANDARD
70
0
0
ENDTAB
0
TABLE
2
VIEW
5
6
100
AcDbSymbolTable
70
0
0
ENDTAB
0
TABLE
2
UCS
5
7
100
AcDbSymbolTable
70
0
0
ENDTAB
0
TABLE
2
APPID
5
9
100
AcDbSymbolTable
70
2
0
APPID
5
12
100
AcDbSymbolTableRecord
100
AcDbRegAppTableRecord
2
ACAD
70
0
0
ENDTAB
0
TABLE
2
DIMSTYLE
5
A
100
AcDbSymbolTable
70
1
0
ENDTAB
0
TABLE
2
BLOCK_RECORD
5
1
100
AcDbSymbolTable
70
1
0
BLOCK_RECORD
5
1F
100
AcDbSymbolTableRecord
100
AcDbBlockTableRecord
2
*MODEL_SPACE
0
BLOCK_RECORD
5
1B
100
AcDbSymbolTableRecord
100
AcDbBlockTableRecord
2
*PAPER_SPACE
0
ENDTAB
0
ENDSEC
0
SECTION
2
BLOCKS
0
BLOCK
5
20
100
AcDbEntity
100
AcDbBlockBegin
2
*MODEL_SPACE
0
ENDBLK
5
21
100
AcDbEntity
100
AcDbBlockEnd
0
BLOCK
5
1C
100
AcDbEntity
100
AcDbBlockBegin
2
*PAPER_SPACE
0
ENDBLK
5
1D
100
AcDbEntity
100
AcDbBlockEnd
0
ENDSEC
0
SECTION
2
ENTITIES
0
CIRCLE
5
100
100
AcDbEntity
8
0
100
AcDbCircle
10
-644.42980317863362
20
543.56999998755907
30
0
40
2.6000000000000512
210
-3.4626172290462632e-44
220
-2.7505579040734981e-74
230
1
0
ARC
5
101
100
AcDbEntity
8
0
100
AcDbCircle
10
-699.09980317863358
20
484.99999998755914
30
0
40
5
210
3.185192807841563e-57
220
-2.3209710109075535e-100
230
1
100
AcDbArc
50
180
51
270
0
LINE
5
102
100
AcDbEntity
8
0
100
AcDbLine
10
-699.09980317863358
20
479.99999998755914
30
0
11
-509.09999999999962
21
479.99999999396096
31
-7.1054273576010019e-14
0
ARC
5
103
100
AcDbEntity
8
0
100
AcDbCircle
10
-509.09999999999957
20
484.99999999990598
30
7.1054273576010019e-14
40
5.00000000594504
210
-4.0389678251268507e-28
220
-2.8421709396610367e-14
230
1
100
AcDbArc
50
-90.000000000000654
51
0
0
LINE
5
104
100
AcDbEntity
8
0
100
AcDbLine
10
-504.09999999999962
20
484.99999999990609
30
7.1054273576010019e-14
11
-504.09999999999962
21
516.98319084089303
31
7.1054273576010019e-14
0
ARC
5
105
100
AcDbEntity
8
0
100
AcDbCircle
10
-509.09999999999991
20
516.98319084089292
30
-7.3830912839113799e-43
40
5.0000000000002842
210
-1.4210854715201196e-14
220
-4.0242563124993128e-28
230
1
100
AcDbArc
50
0
51
62.210355889960972
0
LINE
5
106
100
AcDbEntity
8
0
100
AcDbLine
10
-506.76886625157181
20
521.40651712853469
30
9.196021172131612e-44
11
-578.90576163079959
21
559.42332628754707
31
0
0
ARC
5
107
100
AcDbEntity
8
0
100
AcDbCircle
10
-581.23689537922667
20
554.99999999990496
30
1.1802819696602556e-54
40
5.0000000000001288
210
-1.2065200691987371e-42
220
6.3584720379380128e-43
230
1
100
AcDbArc
50
62.210355889973165
51
89.999999999998693
0
LINE
5
108
100
AcDbEntity
8
0
100
AcDbLine
10
-581.23689537922655
20
559.99999999990507
30
-5.575821688963583e-57
11
-699.09980317863358
21
559.99999999990609
31
7.1054273576010006e-14
0
ARC
5
109
100
AcDbEntity
8
0
100
AcDbCircle
10
-699.09980317863358
20
554.99999999990609
30
-7.1054273576010019e-14
40
5
210
-1.5762435820917704e-42
220
-2.8421709430404007e-14
230
1
100
AcDbArc
50
90
51
180
0
LINE
5
110
100
AcDbEntity
8
0
100
AcDbLine
10
-704.09980317863358
20
554.99999999990609
30
-7.1054273576010019e-14
11
-704.09980317863358
21
484.99999998755914
31
1.5925964039207816e-56
0
CIRCLE
5
111
100
AcDbEntity
8
0
100
AcDbCircle
10
-696.59980317863358
20
487.49999998755607
30
0
40
3.1000000000000005
210
-2.1350524555955014e-42
220
-1.0457525203129909e-70
230
1
0
CIRCLE
5
112
100
AcDbEntity
8
0
100
AcDbCircle
10
-627.49999999999955
20
487.49999998755607
30
0
40
3.1000000000000005
210
-1.9982375643955342e-42
220
-9.1602232568703234e-71
230
1
0
CIRCLE
5
113
100
AcDbEntity
8
0
100
AcDbCircle
10
-696.59980317863358
20
552.49999998755607
30
0
40
3.1000000000000005
210
-2.1350524555955014e-42
220
-1.0457525203129909e-70
230
1
0
CIRCLE
5
114
100
AcDbEntity
8
0
100
AcDbCircle
10
-627.49999999999955
20
526.99999999986005
30
-7.1054273576010019e-14
40
3.1000000000000005
210
-1.9982375643955342e-42
220
-9.1602232568703234e-71
230
1
0
CIRCLE
5
115
100
AcDbEntity
8
0
100
AcDbCircle
10
-691.56980317863361
20
543.5699999875601
30
-7.1054273576010019e-14
40
2.6000000000000201
210
-3.4626172290461642e-44
220
-2.7505579040733418e-74
230
1
0
CIRCLE
5
116
100
AcDbEntity
8
0
100
AcDbCircle
10
-644.42980317863453
20
496.42999998755909
30
7.1054273576010019e-14
40
2.5999999999999899
210
2.4468275721694526e-45
220
-1.373468021616738e-76
230
1
0
CIRCLE
5
117
100
AcDbEntity
8
0
100
AcDbCircle
10
-691.56980317863463
20
496.42999998756005
30
0
40
2.5999999999999801
210
-3.4626172290461642e-44
220
-2.7505579040733418e-74
230
1
0
CIRCLE
5
118
100
AcDbEntity
8
0
100
AcDbCircle
10
-551.36666666666554
20
489.99999999990609
30
0
40
2.6000000000000201
210
2.4468275721694526e-45
220
-1.373468021616738e-76
230
1
0
CIRCLE
5
119
100
AcDbEntity
8
0
100
AcDbCircle
10
-532.73333333333267
20
509.99999999990609
30
0
40
2.6000000000000201
210
2.4468275721694526e-45
220
-1.373468021616738e-76
230
1
0
CIRCLE
5
120
100
AcDbEntity
8
0
100
AcDbCircle
10
-551.36666666666554
20
509.99999999990609
30
0
40
2.6000000000000201
210
2.4468275721694526e-45
220
-1.373468021616738e-76
230
1
0
CIRCLE
5
121
100
AcDbEntity
8
0
100
AcDbCircle
10
-532.73333333333267
20
489.99999999990609
30
0
40
2.6000000000000201
210
2.4468275721694526e-45
220
-1.373468021616738e-76
230
1
0
CIRCLE
5
122
100
AcDbEntity
8
0
100
AcDbCircle
10
-569.99999999999955
20
489.99999999990609
30
7.1054273576010019e-14
40
2.6000000000000103
210
2.4468275721692724e-45
220
-1.3734680216164997e-76
230
1
0
CIRCLE
5
123
100
AcDbEntity
8
0
100
AcDbCircle
10
-514.09999999999957
20
509.99999999990609
30
0
40
2.6000000000000201
210
-3.4626172290461642e-44
220
-2.7505579040733418e-74
230
1
0
CIRCLE
5
124
100
AcDbEntity
8
0
100
AcDbCircle
10
-569.99999999999955
20
509.99999999990609
30
0
40
2.6000000000000103
210
2.4468275721692724e-45
220
-1.3734680216164997e-76
230
1
0
CIRCLE
5
125
100
AcDbEntity
8
0
100
AcDbCircle
10
-514.09999999999957
20
489.99999999990609
30
0
40
2.6000000000000201
210
-3.4626172290461642e-44
220
-2.7505579040733418e-74
230
1
0
CIRCLE
5
126
100
AcDbEntity
8
0
100
AcDbCircle
10
-590.00000000000068
20
509.99999999990507
30
0
40
2.6000000000000001
210
9.8607613152628928e-32
220
-5.5351020600527437e-63
230
1
0
CIRCLE
5
127
100
AcDbEntity
8
0
100
AcDbCircle
10
-590.00000000000068
20
489.99999999990507
30
7.1054273576010019e-14
40
2.6000000000000001
210
9.8607613152628928e-32
220
-5.5351020600527437e-63
230
1
0
CIRCLE
5
128
100
AcDbEntity
8
0
100
AcDbCircle
10
-590.00000000000068
20
529.99999999990507
30
0
40
2.6000000000000001
210
9.8607613152628928e-32
220
-5.5351020600527437e-63
230
1
0
CIRCLE
5
129
100
AcDbEntity
8
0
100
AcDbCircle
10
-590.00000000000068
20
549.99999999990507
30
0
40
2.6000000000000001
210
9.8607613152628928e-32
220
-5.5351020600527437e-63
230
1
0
CIRCLE
5
130
100
AcDbEntity
8
0
100
AcDbCircle
10
-610.00000000000068
20
509.99999999990507
30
0
40
2.6000000000000001
210
9.8607613152624286e-32
220
4.9480047312683131e-63
230
1
0
CIRCLE
5
131
100
AcDbEntity
8
0
100
AcDbCircle
10
-610.00000000000068
20
529.99999999990507
30
0
40
2.6000000000000001
210
9.8607613152624286e-32
220
4.9480047312683131e-63
230
1
0
CIRCLE
5
132
100
AcDbEntity
8
0
100
AcDbCircle
10
-610.00000000000068
20
549.99999999990507
30
-7.1054273576010019e-14
40
2.6000000000000001
210
9.8607613152624286e-32
220
4.9480047312683131e-63
230
1
0
CIRCLE
5
133
100
AcDbEntity
8
0
100
AcDbCircle
10
-610.00000000000068
20
489.99999999990507
30
0
40
2.6000000000000001
210
9.8607613152624286e-32
220
4.9480047312683131e-63
230
1
0
CIRCLE
5
134
100
AcDbEntity
8
0
100
AcDbCircle
10
-667.99980317863458
20
519.99999998756005
30
0
40
19.25
210
-1.5762435820917707e-42
220
-5.6997851218636923e-71
230
1
0
ENDSEC
0
SECTION
2
OBJECTS
0
DICTIONARY
5
C
100
AcDbDictionary
3
ACAD_GROUP
350
D
3
ACAD_MLINESTYLE
350
17
0
DICTIONARY
5
D
100
AcDbDictionary
0
DICTIONARY
5
1A
330
C
100
AcDbDictionary
0
DICTIONARY
5
17
100
AcDbDictionary
0
ENDSEC
0
EOF
