0
SECTION
2
HEADER
9
$INSUNITS
70
4
9
$ACADVER
1
AC1014
9
$HANDSEED
5
FFFF
0
ENDSEC
0
SECTION
2
TABLES
0
TABLE
2
VPORT
5
8
100
AcDbSymbolTable
0
ENDTAB
0
TABLE
2
LTYPE
5
5
100
AcDbSymbolTable
0
LTYPE
5
14
100
AcDbSymbolTableRecord
100
AcDbLinetypeTableRecord
2
BYBLOCK
70
0
0
LTYPE
5
15
100
AcDbSymbolTableRecord
100
AcDbLinetypeTableRecord
2
BYLAYER
70
0
0
ENDTAB
0
TABLE
2
LAYER
5
2
100
AcDbSymbolTable
70
2
0
LAYER
5
50
100
AcDbSymbolTableRecord
100
AcDbLayerTableRecord
2
0
70
0
6
CONTINUOUS
0
ENDTAB
0
TABLE
2
STYLE
5
3
100
AcDbSymbolTable
70
1
0
STYLE
5
11
100
AcDbSymbolTableRecord
100
AcDbTextStyleTableRecord
2
STANDARD
70
0
0
ENDTAB
0
TABLE
2
VIEW
5
6
100
AcDbSymbolTable
70
0
0
ENDTAB
0
TABLE
2
UCS
5
7
100
AcDbSymbolTable
70
0
0
ENDTAB
0
TABLE
2
APPID
5
9
100
AcDbSymbolTable
70
2
0
APPID
5
12
100
AcDbSymbolTableRecord
100
AcDbRegAppTableRecord
2
ACAD
70
0
0
ENDTAB
0
TABLE
2
DIMSTYLE
5
A
100
AcDbSymbolTable
70
1
0
ENDTAB
0
TABLE
2
BLOCK_RECORD
5
1
100
AcDbSymbolTable
70
1
0
BLOCK_RECORD
5
1F
100
AcDbSymbolTableRecord
100
AcDbBlockTableRecord
2
*MODEL_SPACE
0
BLOCK_RECORD
5
1B
100
AcDbSymbolTableRecord
100
AcDbBlockTableRecord
2
*PAPER_SPACE
0
ENDTAB
0
ENDSEC
0
SECTION
2
BLOCKS
0
BLOCK
5
20
100
AcDbEntity
100
AcDbBlockBegin
2
*MODEL_SPACE
0
ENDBLK
5
21
100
AcDbEntity
100
AcDbBlockEnd
0
BLOCK
5
1C
100
AcDbEntity
100
AcDbBlockBegin
2
*PAPER_SPACE
0
ENDBLK
5
1D
100
AcDbEntity
100
AcDbBlockEnd
0
ENDSEC
0
SECTION
2
ENTITIES
0
LWPOLYLINE
5
100
100
AcDbEntity
8
0
100
AcDbPolyline
90
10
70
1
43
0.0
10
104.09980317863308
20
484.99999998755914
42
-0.41421356237309503
10
99.099803178633096
20
479.99999998755914
10
-90.90000000000073
20
479.99999999990609
42
-0.41421356237309503
10
-95.90000000000073
20
484.99999999990609
10
-95.900000000001043
20
516.98319084089303
42
-0.27831323761402887
10
-93.231133748428419
20
521.40651712853503
10
-21.094238369200468
20
559.42332628754673
42
-0.12185297734671222
10
-18.763104620772921
20
559.99999999990507
10
99.099803178633081
20
559.99999999990666
42
-0.41421356237309503
10
104.09980317863358
20
554.99999999990609
0
CIRCLE
5
101
100
AcDbEntity
8
0
100
AcDbCircle
10
96.599803178633081
20
487.49999998755607
30
-1.4210854715202004e-12
40
3.1000000000000005
210
-1.9721522630525295e-31
220
0
230
1
0
CIRCLE
5
102
100
AcDbEntity
8
0
100
AcDbCircle
10
27.499999999999581
20
487.49999998755607
30
-1.4921397450962104e-12
40
3.1000000000000005
210
-1.9721522630525295e-31
220
0
230
1
0
CIRCLE
5
103
100
AcDbEntity
8
0
100
AcDbCircle
10
96.599803178633181
20
552.49999998755607
30
1.4210854715202004e-12
40
3.1000000000000005
210
-1.9721522630525295e-31
220
0
230
1
0
CIRCLE
5
104
100
AcDbEntity
8
0
100
AcDbCircle
10
27.499999999999581
20
526.99999999986005
30
2.1316282072803006e-13
40
3.1000000000000005
210
-1.9721522630525295e-31
220
0
230
1
0
CIRCLE
5
105
100
AcDbEntity
8
0
100
AcDbCircle
10
91.569803178633691
20
543.5699999875601
30
0
40
2.6000000000000201
210
0
220
0
230
1
0
CIRCLE
5
106
100
AcDbEntity
8
0
100
AcDbCircle
10
44.429803178633691
20
543.56999998755907
30
0
40
2.5
210
0
220
0
230
1
0
CIRCLE
5
107
100
AcDbEntity
8
0
100
AcDbCircle
10
44.429803178634984
20
496.42999998755909
30
0
40
2.5999999999999899
210
0
220
0
230
1
0
CIRCLE
5
108
100
AcDbEntity
8
0
100
AcDbCircle
10
91.569803178634984
20
496.42999998756005
30
0
40
2.5999999999999801
210
0
220
0
230
1
0
CIRCLE
5
109
100
AcDbEntity
8
0
100
AcDbCircle
10
-48.633333333334122
20
489.99999999990609
30
-4.2632564145606011e-13
40
2.6000000000000201
210
0
220
0
230
1
0
CIRCLE
5
110
100
AcDbEntity
8
0
100
AcDbCircle
10
-67.266666666667433
20
509.99999999990609
30
4.2632564145606011e-13
40
2.6000000000000201
210
0
220
0
230
1
0
CIRCLE
5
111
100
AcDbEntity
8
0
100
AcDbCircle
10
-48.633333333334122
20
509.99999999990609
30
-5.6843418860808015e-13
40
2.6000000000000201
210
0
220
0
230
1
0
CIRCLE
5
112
100
AcDbEntity
8
0
100
AcDbCircle
10
-67.266666666667433
20
489.99999999990609
30
-4.2632564145606011e-13
40
2.6000000000000201
210
0
220
0
230
1
0
CIRCLE
5
113
100
AcDbEntity
8
0
100
AcDbCircle
10
-30.000000000000821
20
489.99999999990609
30
-3.5527136788005009e-13
40
2.6000000000000103
210
-9.8607613152626476e-32
220
0
230
1
0
CIRCLE
5
114
100
AcDbEntity
8
0
100
AcDbCircle
10
-85.90000000000073
20
509.99999999990609
30
-5.6843418860808015e-13
40
2.6000000000000201
210
0
220
0
230
1
0
CIRCLE
5
115
100
AcDbEntity
8
0
100
AcDbCircle
10
-30.000000000000821
20
509.99999999990609
30
-4.9737991503207013e-13
40
2.6000000000000103
210
-9.8607613152626476e-32
220
0
230
1
0
CIRCLE
5
116
100
AcDbEntity
8
0
100
AcDbCircle
10
-85.90000000000073
20
489.99999999990609
30
-4.2632564145606011e-13
40
2.6000000000000201
210
0
220
0
230
1
0
CIRCLE
5
117
100
AcDbEntity
8
0
100
AcDbCircle
10
-9.9999999999995772
20
509.99999999990507
30
-4.9737991503207013e-13
40
2.6000000000000001
210
-9.8607613152626476e-32
220
0
230
1
0
CIRCLE
5
118
100
AcDbEntity
8
0
100
AcDbCircle
10
-9.9999999999995772
20
489.99999999990507
30
-3.5527136788005009e-13
40
2.6000000000000001
210
-9.8607613152626476e-32
220
0
230
1
0
CIRCLE
5
119
100
AcDbEntity
8
0
100
AcDbCircle
10
-9.9999999999995666
20
529.99999999990507
30
3.5527136788005009e-13
40
2.6000000000000001
210
-9.8607613152626476e-32
220
0
230
1
0
CIRCLE
5
120
100
AcDbEntity
8
0
100
AcDbCircle
10
-9.9999999999995666
20
549.99999999990507
30
2.1316282072803006e-13
40
2.6000000000000001
210
-9.8607613152626476e-32
220
0
230
1
0
CIRCLE
5
121
100
AcDbEntity
8
0
100
AcDbCircle
10
10.000000000000382
20
509.99999999990507
30
-4.9737991503207013e-13
40
2.6000000000000001
210
-9.8607613152626476e-32
220
0
230
1
0
CIRCLE
5
122
100
AcDbEntity
8
0
100
AcDbCircle
10
10.000000000000382
20
529.99999999990507
30
3.5527136788005009e-13
40
2.6000000000000001
210
-9.8607613152626476e-32
220
0
230
1
0
CIRCLE
5
123
100
AcDbEntity
8
0
100
AcDbCircle
10
10.000000000000382
20
549.99999999990507
30
2.1316282072803006e-13
40
2.6000000000000001
210
-9.8607613152626476e-32
220
0
230
1
0
CIRCLE
5
124
100
AcDbEntity
8
0
100
AcDbCircle
10
10.000000000000382
20
489.99999999990507
30
-3.5527136788005009e-13
40
2.6000000000000001
210
-9.8607613152626476e-32
220
0
230
1
0
CIRCLE
5
125
100
AcDbEntity
8
0
100
AcDbCircle
10
67.999803178634295
20
519.99999998756005
30
0
40
19.25
210
-8.2955841445692952e-16
220
-8.8352421384753322e-29
230
1
0
LWPOLYLINE
5
126
100
AcDbEntity
8
0
100
AcDbPolyline
90
10
70
1
43
0.0
10
104.09980317863304
20
484.99999998755914
42
-0.41421356237310125
10
99.099803178633096
20
479.99999998755914
10
-90.90000000000073
20
479.99999999990609
42
-0.41421356237309503
10
-95.90000000000073
20
484.99999999990609
10
-95.900000000001043
20
516.98319084089303
42
-0.2783132376140296
10
-93.231133748428405
20
521.40651712853503
10
-21.094238369200468
20
559.42332628754673
42
-0.12185297734671176
10
-18.763104620772921
20
559.99999999990507
10
99.099803178633081
20
559.99999999990666
42
-0.41421356237310125
10
104.09980317863358
20
554.99999999990609
0
CIRCLE
5
127
100
AcDbEntity
8
0
100
AcDbCircle
10
96.599803178633081
20
487.49999998755607
30
0
40
3.1000000000000005
210
2.1350524555955014e-42
220
-1.0457525203129909e-70
230
1
0
CIRCLE
5
128
100
AcDbEntity
8
0
100
AcDbCircle
10
27.499999999999581
20
487.49999998755607
30
0
40
3.1000000000000005
210
1.9982375643955342e-42
220
-9.1602232568703234e-71
230
1
0
CIRCLE
5
129
100
AcDbEntity
8
0
100
AcDbCircle
10
96.599803178633181
20
552.49999998755607
30
0
40
3.1000000000000005
210
2.1350524555955014e-42
220
-1.0457525203129909e-70
230
1
0
CIRCLE
5
130
100
AcDbEntity
8
0
100
AcDbCircle
10
27.499999999999581
20
526.99999999986005
30
-7.1054273576010019e-14
40
3.1000000000000005
210
1.9982375643955342e-42
220
-9.1602232568703234e-71
230
1
0
CIRCLE
5
131
100
AcDbEntity
8
0
100
AcDbCircle
10
91.569803178633691
20
543.5699999875601
30
-7.1054273576010019e-14
40
2.6000000000000201
210
3.4626172290461642e-44
220
-2.7505579040733418e-74
230
1
0
CIRCLE
5
132
100
AcDbEntity
8
0
100
AcDbCircle
10
44.429803178633691
20
543.56999998755907
30
0
40
2.5
210
-2.4468275721694526e-45
220
-1.373468021616738e-76
230
1
0
CIRCLE
5
133
100
AcDbEntity
8
0
100
AcDbCircle
10
44.429803178634984
20
496.42999998755909
30
7.1054273576010019e-14
40
2.5999999999999899
210
-2.4468275721694526e-45
220
-1.373468021616738e-76
230
1
0
CIRCLE
5
134
100
AcDbEntity
8
0
100
AcDbCircle
10
91.569803178634984
20
496.42999998756005
30
0
40
2.5999999999999801
210
3.4626172290461642e-44
220
-2.7505579040733418e-74
230
1
0
CIRCLE
5
135
100
AcDbEntity
8
0
100
AcDbCircle
10
-48.633333333334122
20
489.99999999990609
30
0
40
2.6000000000000201
210
-2.4468275721694526e-45
220
-1.373468021616738e-76
230
1
0
CIRCLE
5
136
100
AcDbEntity
8
0
100
AcDbCircle
10
-67.266666666667433
20
509.99999999990609
30
0
40
2.6000000000000201
210
-2.4468275721694526e-45
220
-1.373468021616738e-76
230
1
0
CIRCLE
5
137
100
AcDbEntity
8
0
100
AcDbCircle
10
-48.633333333334122
20
509.99999999990609
30
0
40
2.6000000000000201
210
-2.4468275721694526e-45
220
-1.373468021616738e-76
230
1
0
CIRCLE
5
138
100
AcDbEntity
8
0
100
AcDbCircle
10
-67.266666666667433
20
489.99999999990609
30
0
40
2.6000000000000201
210
-2.4468275721694526e-45
220
-1.373468021616738e-76
230
1
0
CIRCLE
5
139
100
AcDbEntity
8
0
100
AcDbCircle
10
-30.000000000000821
20
489.99999999990609
30
7.1054273576010019e-14
40
2.6000000000000103
210
-2.4468275721692724e-45
220
-1.3734680216164997e-76
230
1
0
CIRCLE
5
140
100
AcDbEntity
8
0
100
AcDbCircle
10
-85.90000000000073
20
509.99999999990609
30
0
40
2.6000000000000201
210
3.4626172290461642e-44
220
-2.7505579040733418e-74
230
1
0
CIRCLE
5
141
100
AcDbEntity
8
0
100
AcDbCircle
10
-30.000000000000821
20
509.99999999990609
30
0
40
2.6000000000000103
210
-2.4468275721692724e-45
220
-1.3734680216164997e-76
230
1
0
CIRCLE
5
142
100
AcDbEntity
8
0
100
AcDbCircle
10
-85.90000000000073
20
489.99999999990609
30
0
40
2.6000000000000201
210
3.4626172290461642e-44
220
-2.7505579040733418e-74
230
1
0
CIRCLE
5
143
100
AcDbEntity
8
0
100
AcDbCircle
10
-9.9999999999995772
20
509.99999999990507
30
0
40
2.6000000000000001
210
-9.8607613152628928e-32
220
-5.5351020600527437e-63
230
1
0
CIRCLE
5
144
100
AcDbEntity
8
0
100
AcDbCircle
10
-9.9999999999995772
20
489.99999999990507
30
7.1054273576010019e-14
40
2.6000000000000001
210
-9.8607613152628928e-32
220
-5.5351020600527437e-63
230
1
0
CIRCLE
5
145
100
AcDbEntity
8
0
100
AcDbCircle
10
-9.9999999999995666
20
529.99999999990507
30
0
40
2.6000000000000001
210
-9.8607613152628928e-32
220
-5.5351020600527437e-63
230
1
0
CIRCLE
5
146
100
AcDbEntity
8
0
100
AcDbCircle
10
-9.9999999999995666
20
549.99999999990507
30
0
40
2.6000000000000001
210
-9.8607613152628928e-32
220
-5.5351020600527437e-63
230
1
0
CIRCLE
5
147
100
AcDbEntity
8
0
100
AcDbCircle
10
10.000000000000382
20
509.99999999990507
30
0
40
2.6000000000000001
210
-9.8607613152624286e-32
220
4.9480047312683131e-63
230
1
0
CIRCLE
5
148
100
AcDbEntity
8
0
100
AcDbCircle
10
10.000000000000382
20
529.99999999990507
30
0
40
2.6000000000000001
210
-9.8607613152624286e-32
220
4.9480047312683131e-63
230
1
0
CIRCLE
5
149
100
AcDbEntity
8
0
100
AcDbCircle
10
10.000000000000382
20
549.99999999990507
30
-7.1054273576010019e-14
40
2.6000000000000001
210
-9.8607613152624286e-32
220
4.9480047312683131e-63
230
1
0
CIRCLE
5
150
100
AcDbEntity
8
0
100
AcDbCircle
10
10.000000000000382
20
489.99999999990507
30
0
40
2.6000000000000001
210
-9.8607613152624286e-32
220
4.9480047312683131e-63
230
1
0
CIRCLE
5
151
100
AcDbEntity
8
0
100
AcDbCircle
10
67.999803178634295
20
519.99999998756005
30
0
40
19.25
210
1.5762435820917707e-42
220
-5.6997851218636923e-71
230
1
0
ENDSEC
0
SECTION
2
OBJECTS
0
DICTIONARY
5
C
100
AcDbDictionary
3
ACAD_GROUP
350
D
3
ACAD_MLINESTYLE
350
17
0
DICTIONARY
5
D
100
AcDbDictionary
0
DICTIONARY
5
1A
330
C
100
AcDbDictionary
0
DICTIONARY
5
17
100
AcDbDictionary
0
ENDSEC
0
EOF
