0
SECTION
2
HEADER
9
$INSUNITS
70
4
9
$ACADVER
1
AC1014
9
$HANDSEED
5
FFFF
0
ENDSEC
0
SECTION
2
TABLES
0
TABLE
2
VPORT
5
8
100
AcDbSymbolTable
0
ENDTAB
0
TABLE
2
LTYPE
5
5
100
AcDbSymbolTable
0
LTYPE
5
14
100
AcDbSymbolTableRecord
100
AcDbLinetypeTableRecord
2
BYBLOCK
70
0
0
LTYPE
5
15
100
AcDbSymbolTableRecord
100
AcDbLinetypeTableRecord
2
BYLAYER
70
0
0
ENDTAB
0
TABLE
2
LAYER
5
2
100
AcDbSymbolTable
70
2
0
LAYER
5
50
100
AcDbSymbolTableRecord
100
AcDbLayerTableRecord
2
0
70
0
6
CONTINUOUS
0
ENDTAB
0
TABLE
2
STYLE
5
3
100
AcDbSymbolTable
70
1
0
STYLE
5
11
100
AcDbSymbolTableRecord
100
AcDbTextStyleTableRecord
2
STANDARD
70
0
0
ENDTAB
0
TABLE
2
VIEW
5
6
100
AcDbSymbolTable
70
0
0
ENDTAB
0
TABLE
2
UCS
5
7
100
AcDbSymbolTable
70
0
0
ENDTAB
0
TABLE
2
APPID
5
9
100
AcDbSymbolTable
70
2
0
APPID
5
12
100
AcDbSymbolTableRecord
100
AcDbRegAppTableRecord
2
ACAD
70
0
0
ENDTAB
0
TABLE
2
DIMSTYLE
5
A
100
AcDbSymbolTable
70
1
0
ENDTAB
0
TABLE
2
BLOCK_RECORD
5
1
100
AcDbSymbolTable
70
1
0
BLOCK_RECORD
5
1F
100
AcDbSymbolTableRecord
100
AcDbBlockTableRecord
2
*MODEL_SPACE
0
BLOCK_RECORD
5
1B
100
AcDbSymbolTableRecord
100
AcDbBlockTableRecord
2
*PAPER_SPACE
0
ENDTAB
0
ENDSEC
0
SECTION
2
BLOCKS
0
BLOCK
5
20
100
AcDbEntity
100
AcDbBlockBegin
2
*MODEL_SPACE
0
ENDBLK
5
21
100
AcDbEntity
100
AcDbBlockEnd
0
BLOCK
5
1C
100
AcDbEntity
100
AcDbBlockBegin
2
*PAPER_SPACE
0
ENDBLK
5
1D
100
AcDbEntity
100
AcDbBlockEnd
0
ENDSEC
0
SECTION
2
ENTITIES
0
ARC
5
100
100
AcDbEntity
8
0
100
AcDbCircle
10
-99.099803178633096
20
484.99999998755845
30
4.9737991503207013e-13
40
5
210
0
220
0
230
1
100
AcDbArc
50
180
51
270
0
LINE
5
101
100
AcDbEntity
8
0
100
AcDbLine
10
-99.099803178633096
20
479.99999998755845
30
5.6843418860808015e-13
11
90.90000000000073
21
479.99999999396096
31
-7.1054273576010019e-14
0
ARC
5
102
100
AcDbEntity
8
0
100
AcDbCircle
10
90.900000000000716
20
484.99999999990649
30
-3.5527136788005009e-13
40
5.0000000059455374
210
-2.0194839125630234e-28
220
5.684341879321508e-14
230
1
100
AcDbArc
50
-89.999999999999844
51
0
0
LINE
5
103
100
AcDbEntity
8
0
100
AcDbLine
10
95.900000000000716
20
484.99999999990649
30
-3.5527136788005009e-13
11
95.900000000000716
21
516.98319084089349
31
2.8421709430404007e-13
0
ARC
5
104
100
AcDbEntity
8
0
100
AcDbCircle
10
90.900000000000716
20
516.98319084089349
30
2.8421709430404007e-13
40
5
210
0
220
0
230
1
100
AcDbArc
50
0
51
62.210355889960589
0
LINE
5
105
100
AcDbEntity
8
0
100
AcDbLine
10
93.231133748428675
20
521.40651712853492
30
2.8421709430404007e-13
11
21.09423836920061
21
559.4233262875465
31
3.5527136788005009e-13
0
ARC
5
106
100
AcDbEntity
8
0
100
AcDbCircle
10
18.763104620772907
20
554.99999999990553
30
5.6843418860808015e-13
40
4.9999999999994396
210
1.9876441812370639e-14
220
3.7715548338968409e-14
230
1
100
AcDbArc
50
62.210355889960752
51
90
0
LINE
5
107
100
AcDbEntity
8
0
100
AcDbLine
10
18.763104620772907
20
559.99999999990553
30
4.9737991503207013e-13
11
-99.099803178633096
21
559.99999999990553
31
2.1316282072803006e-13
0
ARC
5
108
100
AcDbEntity
8
0
100
AcDbCircle
10
-99.099803178633096
20
554.99999999990553
30
4.9737991503207013e-13
40
5
210
0
220
5.6843418860808015e-14
230
1
100
AcDbArc
50
90
51
180
0
LINE
5
109
100
AcDbEntity
8
0
100
AcDbLine
10
-104.0998031786331
20
554.99999999990553
30
4.9737991503207013e-13
11
-104.0998031786331
21
484.99999998755845
31
4.9737991503207013e-13
0
CIRCLE
5
110
100
AcDbEntity
8
0
100
AcDbCircle
10
-96.599803178633096
20
487.49999998755646
30
1.4210854715202004e-12
40
3.1000000000000005
210
-1.9721522630525295e-31
220
0
230
1
0
CIRCLE
5
111
100
AcDbEntity
8
0
100
AcDbCircle
10
-27.499999999999591
20
487.49999998755646
30
1.4921397450962104e-12
40
3.1000000000000005
210
-1.9721522630525295e-31
220
0
230
1
0
CIRCLE
5
112
100
AcDbEntity
8
0
100
AcDbCircle
10
-96.599803178633209
20
552.49999998755652
30
-1.4210854715202004e-12
40
3.1000000000000005
210
-1.9721522630525295e-31
220
0
230
1
0
CIRCLE
5
113
100
AcDbEntity
8
0
100
AcDbCircle
10
-27.499999999999591
20
526.99999999986051
30
-2.1316282072803006e-13
40
3.1000000000000005
210
-1.9721522630525295e-31
220
0
230
1
0
CIRCLE
5
114
100
AcDbEntity
8
0
100
AcDbCircle
10
-91.569803178633705
20
543.56999998756055
30
0
40
2.6000000000000201
210
0
220
0
230
1
0
CIRCLE
5
115
100
AcDbEntity
8
0
100
AcDbCircle
10
-44.429803178633698
20
543.56999998755953
30
0
40
2.5
210
0
220
0
230
1
0
CIRCLE
5
116
100
AcDbEntity
8
0
100
AcDbCircle
10
-44.429803178634884
20
496.42999998755954
30
0
40
2.5999999999999899
210
0
220
0
230
1
0
CIRCLE
5
117
100
AcDbEntity
8
0
100
AcDbCircle
10
-91.569803178634999
20
496.42999998756045
30
0
40
2.5999999999999801
210
0
220
0
230
1
0
CIRCLE
5
118
100
AcDbEntity
8
0
100
AcDbCircle
10
48.633333333334114
20
489.99999999990553
30
4.2632564145606011e-13
40
2.6000000000000201
210
0
220
0
230
1
0
CIRCLE
5
119
100
AcDbEntity
8
0
100
AcDbCircle
10
67.266666666667419
20
509.99999999990553
30
-4.2632564145606011e-13
40
2.6000000000000201
210
0
220
0
230
1
0
CIRCLE
5
120
100
AcDbEntity
8
0
100
AcDbCircle
10
48.633333333334114
20
509.99999999990553
30
5.6843418860808015e-13
40
2.6000000000000201
210
0
220
0
230
1
0
CIRCLE
5
121
100
AcDbEntity
8
0
100
AcDbCircle
10
67.266666666667419
20
489.99999999990553
30
4.2632564145606011e-13
40
2.6000000000000201
210
0
220
0
230
1
0
CIRCLE
5
122
100
AcDbEntity
8
0
100
AcDbCircle
10
30.000000000000814
20
489.99999999990553
30
3.5527136788005009e-13
40
2.6000000000000103
210
-9.8607613152626476e-32
220
0
230
1
0
CIRCLE
5
123
100
AcDbEntity
8
0
100
AcDbCircle
10
85.900000000000716
20
509.99999999990553
30
5.6843418860808015e-13
40
2.6000000000000201
210
0
220
0
230
1
0
CIRCLE
5
124
100
AcDbEntity
8
0
100
AcDbCircle
10
30.000000000000814
20
509.99999999990553
30
4.9737991503207013e-13
40
2.6000000000000103
210
-9.8607613152626476e-32
220
0
230
1
0
CIRCLE
5
125
100
AcDbEntity
8
0
100
AcDbCircle
10
85.900000000000716
20
489.99999999990553
30
4.2632564145606011e-13
40
2.6000000000000201
210
0
220
0
230
1
0
CIRCLE
5
126
100
AcDbEntity
8
0
100
AcDbCircle
10
9.9999999999995808
20
509.99999999990553
30
4.9737991503207013e-13
40
2.6000000000000001
210
-9.8607613152626476e-32
220
0
230
1
0
CIRCLE
5
127
100
AcDbEntity
8
0
100
AcDbCircle
10
9.9999999999995808
20
489.99999999990553
30
3.5527136788005009e-13
40
2.6000000000000001
210
-9.8607613152626476e-32
220
0
230
1
0
CIRCLE
5
128
100
AcDbEntity
8
0
100
AcDbCircle
10
9.9999999999995701
20
529.99999999990553
30
-3.5527136788005009e-13
40
2.6000000000000001
210
-9.8607613152626476e-32
220
0
230
1
0
CIRCLE
5
129
100
AcDbEntity
8
0
100
AcDbCircle
10
9.9999999999995701
20
549.99999999990553
30
-2.1316282072803006e-13
40
2.6000000000000001
210
-9.8607613152626476e-32
220
0
230
1
0
CIRCLE
5
130
100
AcDbEntity
8
0
100
AcDbCircle
10
-10.000000000000391
20
509.99999999990553
30
4.9737991503207013e-13
40
2.6000000000000001
210
-9.8607613152626476e-32
220
0
230
1
0
CIRCLE
5
131
100
AcDbEntity
8
0
100
AcDbCircle
10
-10.000000000000391
20
529.99999999990553
30
-3.5527136788005009e-13
40
2.6000000000000001
210
-9.8607613152626476e-32
220
0
230
1
0
CIRCLE
5
132
100
AcDbEntity
8
0
100
AcDbCircle
10
-10.000000000000391
20
549.99999999990553
30
-2.1316282072803006e-13
40
2.6000000000000001
210
-9.8607613152626476e-32
220
0
230
1
0
CIRCLE
5
133
100
AcDbEntity
8
0
100
AcDbCircle
10
-10.000000000000391
20
489.99999999990553
30
3.5527136788005009e-13
40
2.6000000000000001
210
-9.8607613152626476e-32
220
0
230
1
0
CIRCLE
5
134
100
AcDbEntity
8
0
100
AcDbCircle
10
67.999803178634309
20
519.99999998755948
30
-5.640980890829709e-14
40
19.25
210
8.2955841445692952e-16
220
-8.8352421384753322e-29
230
-1
0
ENDSEC
0
SECTION
2
OBJECTS
0
DICTIONARY
5
C
100
AcDbDictionary
3
ACAD_GROUP
350
D
3
ACAD_MLINESTYLE
350
17
0
DICTIONARY
5
D
100
AcDbDictionary
0
DICTIONARY
5
1A
330
C
100
AcDbDictionary
0
DICTIONARY
5
17
100
AcDbDictionary
0
ENDSEC
0
EOF
