0
SECTION
2
HEADER
9
$INSUNITS
70
4
9
$ACADVER
1
AC1014
9
$HANDSEED
5
FFFF
0
ENDSEC
0
SECTION
2
TABLES
0
TABLE
2
VPORT
5
8
100
AcDbSymbolTable
0
ENDTAB
0
TABLE
2
LTYPE
5
5
100
AcDbSymbolTable
0
LTYPE
5
14
100
AcDbSymbolTableRecord
100
AcDbLinetypeTableRecord
2
BYBLOCK
70
0
0
LTYPE
5
15
100
AcDbSymbolTableRecord
100
AcDbLinetypeTableRecord
2
BYLAYER
70
0
0
ENDTAB
0
TABLE
2
LAYER
5
2
100
AcDbSymbolTable
70
2
0
LAYER
5
50
100
AcDbSymbolTableRecord
100
AcDbLayerTableRecord
2
0
70
0
6
CONTINUOUS
0
ENDTAB
0
TABLE
2
STYLE
5
3
100
AcDbSymbolTable
70
1
0
STYLE
5
11
100
AcDbSymbolTableRecord
100
AcDbTextStyleTableRecord
2
STANDARD
70
0
0
ENDTAB
0
TABLE
2
VIEW
5
6
100
AcDbSymbolTable
70
0
0
ENDTAB
0
TABLE
2
UCS
5
7
100
AcDbSymbolTable
70
0
0
ENDTAB
0
TABLE
2
APPID
5
9
100
AcDbSymbolTable
70
2
0
APPID
5
12
100
AcDbSymbolTableRecord
100
AcDbRegAppTableRecord
2
ACAD
70
0
0
ENDTAB
0
TABLE
2
DIMSTYLE
5
A
100
AcDbSymbolTable
70
1
0
ENDTAB
0
TABLE
2
BLOCK_RECORD
5
1
100
AcDbSymbolTable
70
1
0
BLOCK_RECORD
5
1F
100
AcDbSymbolTableRecord
100
AcDbBlockTableRecord
2
*MODEL_SPACE
0
BLOCK_RECORD
5
1B
100
AcDbSymbolTableRecord
100
AcDbBlockTableRecord
2
*PAPER_SPACE
0
ENDTAB
0
ENDSEC
0
SECTION
2
BLOCKS
0
BLOCK
5
20
100
AcDbEntity
100
AcDbBlockBegin
2
*MODEL_SPACE
0
ENDBLK
5
21
100
AcDbEntity
100
AcDbBlockEnd
0
BLOCK
5
1C
100
AcDbEntity
100
AcDbBlockBegin
2
*PAPER_SPACE
0
ENDBLK
5
1D
100
AcDbEntity
100
AcDbBlockEnd
0
ENDSEC
0
SECTION
2
ENTITIES
0
LWPOLYLINE
5
100
100
AcDbEntity
8
0
100
AcDbPolyline
90
20
70
1
43
0.0
10
335.07782289468543
20
498.1454536439378
42
-0.41421356237309503
10
332.57782289468543
20
495.6454536439378
10
213.48780573802642
20
495.6454536439378
42
-0.41421356237340717
10
212.48780573802645
20
496.64545364393888
10
212.48780573802844
20
533.14545365623883
42
0.41421356237309503
10
207.48780573802844
20
538.14545365623883
10
132.39782289468644
20
538.14545365623883
42
-0.41421356237309503
10
129.89782289468644
20
540.64545365623883
10
129.89782289468644
20
547.96545364393774
42
0.41421356237309503
10
127.39782289468643
20
550.46545364393774
42
-0.41421356237309503
10
124.89782289468643
20
552.96545364393774
10
124.89782289468643
20
766.70446257389881
42
-0.41421356237309503
10
129.89782289468644
20
771.70446257389881
10
192.33724713787043
20
771.70446257389881
42
-0.24116511006854469
10
196.39436982363242
20
769.62674858191986
10
339.13494558044937
20
571.45448669783286
42
-0.15733195601709346
10
340.07782289468742
20
568.53220068981182
10
340.07782289468742
20
529.39545364437083
42
-0.41421356237309503
10
337.57782289468742
20
526.89545364437083
42
0.41421356237332813
10
335.07782289468543
20
524.39545364437083
0
CIRCLE
5
101
100
AcDbEntity
8
0
100
AcDbCircle
10
303.07782289468742
20
590.39685063897889
30
2.5657787006139188e-09
40
3.4000000000000004
210
-5.0544346145721868e-29
220
7.8266768644401874e-24
230
1
0
CIRCLE
5
102
100
AcDbEntity
8
0
100
AcDbCircle
10
232.48786435694541
20
590.39685063897889
30
2.5657787006139188e-09
40
3.4000000000000301
210
-5.0544346145721868e-29
220
7.8266768644401874e-24
230
1
0
CIRCLE
5
103
100
AcDbEntity
8
0
100
AcDbCircle
10
161.89786435694543
20
590.39685063897889
30
2.5657787006139188e-09
40
3.4000000000000301
210
-5.0544346145721868e-29
220
7.8266768644401874e-24
230
1
0
CIRCLE
5
104
100
AcDbEntity
8
0
100
AcDbCircle
10
303.07782289468742
20
541.64545365623883
30
2.5657787006139188e-09
40
1.6000000000000003
210
-5.0544346145721868e-29
220
7.8266768644401874e-24
230
1
0
CIRCLE
5
105
100
AcDbEntity
8
0
100
AcDbCircle
10
141.89782289468741
20
541.64545365623883
30
2.5657787006139188e-09
40
1.6000000000000003
210
-5.0544346145721868e-29
220
7.8266768644401874e-24
230
1
0
CIRCLE
5
106
100
AcDbEntity
8
0
100
AcDbCircle
10
220.48780573802645
20
501.6454536439378
30
2.5657787006139188e-09
40
2.6000000000000201
210
-5.0544346145721868e-29
220
7.8266768644401874e-24
230
1
0
CIRCLE
5
107
100
AcDbEntity
8
0
100
AcDbCircle
10
220.48780573802944
20
541.6454536439378
30
2.5657787006139188e-09
40
2.6000000000000201
210
-5.0544346145721868e-29
220
7.8266768644401874e-24
230
1
0
CIRCLE
5
108
100
AcDbEntity
8
0
100
AcDbCircle
10
161.89782289468741
20
541.64545365623883
30
2.5657787006139188e-09
40
1.6000000000000003
210
-5.0544346145721868e-29
220
7.8266768644401874e-24
230
1
0
CIRCLE
5
109
100
AcDbEntity
8
0
100
AcDbCircle
10
323.07782289468742
20
561.64545365623883
30
2.5657787006139188e-09
40
1.6000000000000403
210
-5.0544346145721868e-29
220
7.8266768644401874e-24
230
1
0
CIRCLE
5
110
100
AcDbEntity
8
0
100
AcDbCircle
10
303.07782289468742
20
561.64545365623883
30
2.5657787006139188e-09
40
1.6000000000000003
210
-5.0544346145721868e-29
220
7.8266768644401874e-24
230
1
0
CIRCLE
5
111
100
AcDbEntity
8
0
100
AcDbCircle
10
141.89782289468741
20
561.64545365623883
30
2.5657787006139188e-09
40
1.5999999999999803
210
-5.0544346145721868e-29
220
7.8266768644401874e-24
230
1
0
CIRCLE
5
112
100
AcDbEntity
8
0
100
AcDbCircle
10
244.48780573802645
20
501.64545364393683
30
2.5657787006139188e-09
40
2.6000000000000201
210
-5.0544346145721868e-29
220
7.8266768644401874e-24
230
1
0
CIRCLE
5
113
100
AcDbEntity
8
0
100
AcDbCircle
10
244.48780573802941
20
541.64545364393689
30
2.5657787006139188e-09
40
2.6000000000000201
210
-5.0544346145721868e-29
220
7.8266768644401874e-24
230
1
0
CIRCLE
5
114
100
AcDbEntity
8
0
100
AcDbCircle
10
161.89782289468741
20
561.64545365623883
30
2.5657787006139188e-09
40
1.6000000000000003
210
-5.0544346145721868e-29
220
7.8266768644401874e-24
230
1
0
CIRCLE
5
115
100
AcDbEntity
8
0
100
AcDbCircle
10
323.07782289468742
20
541.64545365623883
30
2.5657787006139188e-09
40
1.6000000000000403
210
-5.0544346145721868e-29
220
7.8266768644401874e-24
230
1
0
CIRCLE
5
116
100
AcDbEntity
8
0
100
AcDbCircle
10
172.89783922250746
20
684.2044288872039
30
2.5657787006139188e-09
40
13
210
2.8554662901093214e-30
220
5.2939558543481287e-23
230
1
0
CIRCLE
5
117
100
AcDbEntity
8
0
100
AcDbCircle
10
-179.89782290213142
20
611.70446258407287
30
-2.5657787006187065e-09
40
2.6000000000000201
210
5.0544346145721868e-29
220
-7.8266768644401874e-24
230
-1
0
CIRCLE
5
118
100
AcDbEntity
8
0
100
AcDbCircle
10
-179.89782290213142
20
756.70446258407082
30
-2.5657787006198414e-09
40
2.6000000000000201
210
5.0544346145721868e-29
220
-7.8266768644401874e-24
230
-1
0
CIRCLE
5
119
100
AcDbEntity
8
0
100
AcDbCircle
10
-139.89782290213142
20
756.70446258407082
30
-2.5657787006198414e-09
40
2.6000000000000001
210
5.0544346145721868e-29
220
-7.8266768644401874e-24
230
-1
0
CIRCLE
5
120
100
AcDbEntity
8
0
100
AcDbCircle
10
-159.89782290213142
20
756.70446258407082
30
-2.5657787006198414e-09
40
2.6000000000000001
210
5.0544346145721868e-29
220
-7.8266768644401874e-24
230
-1
0
CIRCLE
5
121
100
AcDbEntity
8
0
100
AcDbCircle
10
-139.89782290213142
20
631.70446258407287
30
-2.5657787006188628e-09
40
2.6000000000000001
210
5.0544346145721868e-29
220
-7.8266768644401874e-24
230
-1
0
CIRCLE
5
122
100
AcDbEntity
8
0
100
AcDbCircle
10
-159.89782290213142
20
611.70446258407287
30
-2.5657787006187065e-09
40
2.6000000000000201
210
5.0544346145721868e-29
220
-7.8266768644401874e-24
230
-1
0
CIRCLE
5
123
100
AcDbEntity
8
0
100
AcDbCircle
10
-154.89783922250541
20
707.20442888720186
30
-2.5657787006194534e-09
40
2.6000000000000001
210
5.0544346145721868e-29
220
-7.8266768644401874e-24
230
-1
0
CIRCLE
5
124
100
AcDbEntity
8
0
100
AcDbCircle
10
-172.89783922250541
20
707.20442888720288
30
-2.5657787006194534e-09
40
2.6000000000000201
210
5.0544346145721868e-29
220
-7.8266768644401874e-24
230
-1
0
CIRCLE
5
125
100
AcDbEntity
8
0
100
AcDbCircle
10
-154.89783922250842
20
661.20442888720174
30
-2.5657787006190936e-09
40
2.6000000000000001
210
5.0544346145721868e-29
220
-7.8266768644401874e-24
230
-1
0
CIRCLE
5
126
100
AcDbEntity
8
0
100
AcDbCircle
10
-172.89783922250845
20
661.20442888720288
30
-2.5657787006190936e-09
40
2.6000000000000201
210
5.0544346145721868e-29
220
-7.8266768644401874e-24
230
-1
0
CIRCLE
5
127
100
AcDbEntity
8
0
100
AcDbCircle
10
-179.89782290213142
20
631.70446258407287
30
-2.5657787006188628e-09
40
2.6000000000000201
210
5.0544346145721868e-29
220
-7.8266768644401874e-24
230
-1
0
CIRCLE
5
128
100
AcDbEntity
8
0
100
AcDbCircle
10
-179.89782290213142
20
736.70446258407082
30
-2.5657787006196846e-09
40
2.6000000000000201
210
5.0544346145721868e-29
220
-7.8266768644401874e-24
230
-1
0
CIRCLE
5
129
100
AcDbEntity
8
0
100
AcDbCircle
10
-139.89782290213142
20
736.70446258407082
30
-2.5657787006196846e-09
40
2.6000000000000001
210
5.0544346145721868e-29
220
-7.8266768644401874e-24
230
-1
0
CIRCLE
5
130
100
AcDbEntity
8
0
100
AcDbCircle
10
-159.89782290213142
20
736.70446258407082
30
-2.5657787006196846e-09
40
2.6000000000000201
210
5.0544346145721868e-29
220
-7.8266768644401874e-24
230
-1
0
CIRCLE
5
131
100
AcDbEntity
8
0
100
AcDbCircle
10
-159.89782290213142
20
631.70446258407287
30
-2.5657787006188628e-09
40
2.6000000000000001
210
5.0544346145721868e-29
220
-7.8266768644401874e-24
230
-1
0
CIRCLE
5
132
100
AcDbEntity
8
0
100
AcDbCircle
10
-139.89782290213142
20
611.70446258407287
30
-2.5657787006187065e-09
40
2.6000000000000001
210
5.0544346145721868e-29
220
-7.8266768644401874e-24
230
-1
0
ENDSEC
0
SECTION
2
OBJECTS
0
DICTIONARY
5
C
100
AcDbDictionary
3
ACAD_GROUP
350
D
3
ACAD_MLINESTYLE
350
17
0
DICTIONARY
5
D
100
AcDbDictionary
0
DICTIONARY
5
1A
330
C
100
AcDbDictionary
0
DICTIONARY
5
17
100
AcDbDictionary
0
ENDSEC
0
EOF
