0
SECTION
2
HEADER
9
$INSUNITS
70
4
9
$ACADVER
1
AC1014
9
$HANDSEED
5
FFFF
0
ENDSEC
0
SECTION
2
TABLES
0
TABLE
2
VPORT
5
8
100
AcDbSymbolTable
0
ENDTAB
0
TABLE
2
LTYPE
5
5
100
AcDbSymbolTable
0
LTYPE
5
14
100
AcDbSymbolTableRecord
100
AcDbLinetypeTableRecord
2
BYBLOCK
70
0
0
LTYPE
5
15
100
AcDbSymbolTableRecord
100
AcDbLinetypeTableRecord
2
BYLAYER
70
0
0
ENDTAB
0
TABLE
2
LAYER
5
2
100
AcDbSymbolTable
70
2
0
LAYER
5
50
100
AcDbSymbolTableRecord
100
AcDbLayerTableRecord
2
0
70
0
6
CONTINUOUS
0
ENDTAB
0
TABLE
2
STYLE
5
3
100
AcDbSymbolTable
70
1
0
STYLE
5
11
100
AcDbSymbolTableRecord
100
AcDbTextStyleTableRecord
2
STANDARD
70
0
0
ENDTAB
0
TABLE
2
VIEW
5
6
100
AcDbSymbolTable
70
0
0
ENDTAB
0
TABLE
2
UCS
5
7
100
AcDbSymbolTable
70
0
0
ENDTAB
0
TABLE
2
APPID
5
9
100
AcDbSymbolTable
70
2
0
APPID
5
12
100
AcDbSymbolTableRecord
100
AcDbRegAppTableRecord
2
ACAD
70
0
0
ENDTAB
0
TABLE
2
DIMSTYLE
5
A
100
AcDbSymbolTable
70
1
0
ENDTAB
0
TABLE
2
BLOCK_RECORD
5
1
100
AcDbSymbolTable
70
1
0
BLOCK_RECORD
5
1F
100
AcDbSymbolTableRecord
100
AcDbBlockTableRecord
2
*MODEL_SPACE
0
BLOCK_RECORD
5
1B
100
AcDbSymbolTableRecord
100
AcDbBlockTableRecord
2
*PAPER_SPACE
0
ENDTAB
0
ENDSEC
0
SECTION
2
BLOCKS
0
BLOCK
5
20
100
AcDbEntity
100
AcDbBlockBegin
2
*MODEL_SPACE
0
ENDBLK
5
21
100
AcDbEntity
100
AcDbBlockEnd
0
BLOCK
5
1C
100
AcDbEntity
100
AcDbBlockBegin
2
*PAPER_SPACE
0
ENDBLK
5
1D
100
AcDbEntity
100
AcDbBlockEnd
0
ENDSEC
0
SECTION
2
ENTITIES
0
CIRCLE
5
100
100
AcDbEntity
8
0
100
AcDbCircle
10
295.1950173856178
20
540.02617268509584
30
0
40
1.6000000000000403
210
2.2490178476998128e-32
220
1.9721522630525295e-31
230
1
0
CIRCLE
5
101
100
AcDbEntity
8
0
100
AcDbCircle
10
315.19501738561775
20
560.02617268509584
30
0
40
1.6000000000000003
210
2.2490178476998136e-32
220
9.6410915510590124e-49
230
1
0
CIRCLE
5
102
100
AcDbEntity
8
0
100
AcDbCircle
10
456.37501738561775
20
540.02617268509584
30
0
40
1.6000000000000003
210
2.2490178476998136e-32
220
9.6410915510590124e-49
230
1
0
CIRCLE
5
103
100
AcDbEntity
8
0
100
AcDbCircle
10
476.37501738561781
20
560.02617268509584
30
7.1054273576010019e-14
40
1.5999999999999803
210
2.2490178476998136e-32
220
9.6410915510590124e-49
230
1
0
CIRCLE
5
104
100
AcDbEntity
8
0
100
AcDbCircle
10
456.37501738561775
20
560.02617268509584
30
0
40
1.6000000000000003
210
2.2490178476998136e-32
220
9.6410915510590124e-49
230
1
0
CIRCLE
5
105
100
AcDbEntity
8
0
100
AcDbCircle
10
476.37501738561781
20
540.02617268509584
30
0
40
1.6000000000000003
210
2.2490178476998136e-32
220
9.6410915510590124e-49
230
1
0
CIRCLE
5
106
100
AcDbEntity
8
0
100
AcDbCircle
10
315.19501738561775
20
540.02617268509584
30
0
40
1.6000000000000003
210
2.2490178476998136e-32
220
9.6410915510590124e-49
230
1
0
CIRCLE
5
107
100
AcDbEntity
8
0
100
AcDbCircle
10
295.1950173856178
20
560.02617268509584
30
0
40
1.6000000000000403
210
2.2490178476998128e-32
220
1.9721522630525295e-31
230
1
0
CIRCLE
5
108
100
AcDbEntity
8
0
100
AcDbCircle
10
478.37501737817377
20
610.08518161292977
30
0
40
2.6000000000000001
210
-2.1617248111580014e-33
220
-9.2668836905342769e-50
230
1
0
CIRCLE
5
109
100
AcDbEntity
8
0
100
AcDbCircle
10
458.37501737817377
20
630.08518161292977
30
0
40
2.6000000000000001
210
-2.1617248111580014e-33
220
-9.2668836905342769e-50
230
1
0
CIRCLE
5
110
100
AcDbEntity
8
0
100
AcDbCircle
10
438.37501737817377
20
610.08518161292977
30
0
40
2.6000000000000201
210
-2.1617248111580014e-33
220
-9.2668836905342769e-50
230
1
0
CIRCLE
5
111
100
AcDbEntity
8
0
100
AcDbCircle
10
438.37501737817377
20
630.08518161292977
30
0
40
2.6000000000000201
210
-2.1617248111580014e-33
220
-9.2668836905342769e-50
230
1
0
CIRCLE
5
112
100
AcDbEntity
8
0
100
AcDbCircle
10
458.37501737817377
20
610.08518161292977
30
0
40
2.6000000000000201
210
-2.1617248111580014e-33
220
-9.2668836905342769e-50
230
1
0
CIRCLE
5
113
100
AcDbEntity
8
0
100
AcDbCircle
10
478.37501737817377
20
630.08518161292977
30
0
40
2.6000000000000001
210
-2.1617248111580014e-33
220
-9.2668836905342769e-50
230
1
0
CIRCLE
5
114
100
AcDbEntity
8
0
100
AcDbCircle
10
480.87501738662473
20
647.58518160283597
30
7.1054273576010019e-14
40
3.1000000000000005
210
-1.4487676455236631e-32
220
-1.9721522630525295e-31
230
1
0
CIRCLE
5
115
100
AcDbEntity
8
0
100
AcDbCircle
10
480.87501738662473
20
717.58518162417386
30
0
40
3.1000000000000005
210
-1.4487676455236631e-32
220
-1.9721522630525295e-31
230
1
0
CIRCLE
5
116
100
AcDbEntity
8
0
100
AcDbCircle
10
435.87501739443775
20
717.58518162417386
30
0
40
3.0999999999999899
210
-2.1617248111583299e-33
220
-9.2668836905357278e-50
230
1
0
CIRCLE
5
117
100
AcDbEntity
8
0
100
AcDbCircle
10
435.87501739443775
20
647.58518160283597
30
0
40
3.0999999999999899
210
-2.1617248111583299e-33
220
-9.2668836905357278e-50
230
1
0
CIRCLE
5
118
100
AcDbEntity
8
0
100
AcDbCircle
10
458.37501737817377
20
735.08518161292886
30
0
40
2.6000000000000201
210
-2.1617248111580014e-33
220
-9.2668836905342769e-50
230
1
0
CIRCLE
5
119
100
AcDbEntity
8
0
100
AcDbCircle
10
438.37501737817377
20
755.08518161292886
30
0
40
2.6000000000000201
210
-2.1617248111580014e-33
220
-9.2668836905342769e-50
230
1
0
CIRCLE
5
120
100
AcDbEntity
8
0
100
AcDbCircle
10
478.37501737817377
20
755.08518161292886
30
0
40
2.6000000000000001
210
-2.1617248111580014e-33
220
-9.2668836905342769e-50
230
1
0
CIRCLE
5
121
100
AcDbEntity
8
0
100
AcDbCircle
10
458.37501737817377
20
755.08518161292886
30
0
40
2.6000000000000001
210
-2.1617248111580014e-33
220
-9.2668836905342769e-50
230
1
0
CIRCLE
5
122
100
AcDbEntity
8
0
100
AcDbCircle
10
438.37501737817377
20
735.08518161292886
30
0
40
2.6000000000000201
210
-2.1617248111580014e-33
220
-9.2668836905342769e-50
230
1
0
CIRCLE
5
123
100
AcDbEntity
8
0
100
AcDbCircle
10
478.37501737817377
20
735.08518161292886
30
0
40
2.6000000000000001
210
-2.1617248111580014e-33
220
-9.2668836905342769e-50
230
1
0
LWPOLYLINE
5
124
100
AcDbEntity
8
0
100
AcDbPolyline
90
20
70
1
43
0.0
10
485.87501738561883
20
536.52617268509687
10
410.78503454227678
20
536.52617268509687
42
0.41421356237315748
10
405.78503454227678
20
531.52617268509584
10
405.78503454227877
20
495.02617267279589
42
-0.41421356237313667
10
404.78503454227877
20
494.02617267279589
10
285.69501738561974
20
494.02617267279561
42
-0.41421356237312834
10
283.19501738561974
20
496.52617267279589
10
283.19501738561974
20
522.77617267322785
42
0.41421356237332813
10
280.69501738561775
20
525.27617267322785
42
-0.4142135623730992
10
278.19501738561775
20
527.77617267322785
10
278.19501738561763
20
566.91291971866883
42
-0.15733195601710234
10
279.13789469985574
20
569.83520572668999
10
421.87847045667269
20
768.00746761077801
42
-0.24116511006855879
10
425.93559314243475
20
770.08518160275696
10
488.37501738561878
20
770.08518160275707
42
-0.41421356237311585
10
493.37501738561878
20
765.08518160275685
10
493.37501738561878
20
551.34617267279691
42
-0.41421356237311169
10
490.87501738561878
20
548.84617267279691
42
0.41421356237309503
10
488.37501738561878
20
546.34617267279691
10
488.37501738561878
20
539.02617268509687
42
-0.41421356237310336
0
CIRCLE
5
125
100
AcDbEntity
8
0
100
AcDbCircle
10
468.94500105822681
20
706.1551479160629
30
0
40
2.6000000000000001
210
-3.2976603921354093e-32
220
-1.4136413269194355e-48
230
1
0
CIRCLE
5
126
100
AcDbEntity
8
0
100
AcDbCircle
10
421.80500105822671
20
706.1551479160629
30
0
40
2.6000000000000001
210
-3.2976603921354093e-32
220
-1.4136413269194355e-48
230
1
0
CIRCLE
5
127
100
AcDbEntity
8
0
100
AcDbCircle
10
468.94500105822681
20
659.01514791606292
30
0
40
2.6000000000000001
210
-3.2976603921354093e-32
220
-1.4136413269194355e-48
230
1
0
CIRCLE
5
128
100
AcDbEntity
8
0
100
AcDbCircle
10
445.37500105822681
20
682.58514791606285
30
7.1054273576010019e-14
40
19.25
210
4.0012510108808256e-33
220
1.7152566109745852e-49
230
1
0
CIRCLE
5
129
100
AcDbEntity
8
0
100
AcDbCircle
10
421.80500105822671
20
659.01514791606292
30
0
40
2.6000000000000001
210
-3.2976603921354093e-32
220
-1.4136413269194355e-48
230
1
0
CIRCLE
5
130
100
AcDbEntity
8
0
100
AcDbCircle
10
373.78503454227575
20
540.0261726727939
30
0
40
2.6000000000000201
210
-3.9139579743393412e-32
220
-1.6778358249222624e-48
230
1
0
CIRCLE
5
131
100
AcDbEntity
8
0
100
AcDbCircle
10
373.78503454227877
20
500.02617267279385
30
0
40
2.6000000000000201
210
-3.9139579743393412e-32
220
-1.6778358249222624e-48
230
1
0
CIRCLE
5
132
100
AcDbEntity
8
0
100
AcDbCircle
10
397.78503454227575
20
540.0261726727947
30
0
40
2.6000000000000201
210
-3.9139579743393412e-32
220
-1.6778358249222624e-48
230
1
0
CIRCLE
5
133
100
AcDbEntity
8
0
100
AcDbCircle
10
397.78503454227871
20
500.02617267279481
30
0
40
2.6000000000000201
210
-3.9139579743393412e-32
220
-1.6778358249222624e-48
230
1
0
CIRCLE
5
134
100
AcDbEntity
8
0
100
AcDbCircle
10
456.37497592335978
20
588.77756966783591
30
7.1054273576010019e-14
40
3.4000000000000301
210
-2.265599135637459e-32
220
1.9721522630525295e-31
230
1
0
CIRCLE
5
135
100
AcDbEntity
8
0
100
AcDbCircle
10
385.78497592335975
20
588.77756966783591
30
7.1054273576010019e-14
40
3.4000000000000301
210
-2.265599135637459e-32
220
1.9721522630525295e-31
230
1
0
CIRCLE
5
136
100
AcDbEntity
8
0
100
AcDbCircle
10
315.19501738561775
20
588.77756966783591
30
7.1054273576010019e-14
40
3.4000000000000004
210
1.995911931782023e-33
220
5.786192676219055e-50
230
1
0
ENDSEC
0
SECTION
2
OBJECTS
0
DICTIONARY
5
C
100
AcDbDictionary
3
ACAD_GROUP
350
D
3
ACAD_MLINESTYLE
350
17
0
DICTIONARY
5
D
100
AcDbDictionary
0
DICTIONARY
5
1A
330
C
100
AcDbDictionary
0
DICTIONARY
5
17
100
AcDbDictionary
0
ENDSEC
0
EOF
