0
SECTION
2
HEADER
9
$INSUNITS
70
4
9
$ACADVER
1
AC1014
9
$HANDSEED
5
FFFF
0
ENDSEC
0
SECTION
2
TABLES
0
TABLE
2
VPORT
5
8
100
AcDbSymbolTable
0
ENDTAB
0
TABLE
2
LTYPE
5
5
100
AcDbSymbolTable
0
LTYPE
5
14
100
AcDbSymbolTableRecord
100
AcDbLinetypeTableRecord
2
BYBLOCK
70
0
0
LTYPE
5
15
100
AcDbSymbolTableRecord
100
AcDbLinetypeTableRecord
2
BYLAYER
70
0
0
ENDTAB
0
TABLE
2
LAYER
5
2
100
AcDbSymbolTable
70
2
0
LAYER
5
50
100
AcDbSymbolTableRecord
100
AcDbLayerTableRecord
2
0
70
0
6
CONTINUOUS
0
ENDTAB
0
TABLE
2
STYLE
5
3
100
AcDbSymbolTable
70
1
0
STYLE
5
11
100
AcDbSymbolTableRecord
100
AcDbTextStyleTableRecord
2
STANDARD
70
0
0
ENDTAB
0
TABLE
2
VIEW
5
6
100
AcDbSymbolTable
70
0
0
ENDTAB
0
TABLE
2
UCS
5
7
100
AcDbSymbolTable
70
0
0
ENDTAB
0
TABLE
2
APPID
5
9
100
AcDbSymbolTable
70
2
0
APPID
5
12
100
AcDbSymbolTableRecord
100
AcDbRegAppTableRecord
2
ACAD
70
0
0
ENDTAB
0
TABLE
2
DIMSTYLE
5
A
100
AcDbSymbolTable
70
1
0
ENDTAB
0
TABLE
2
BLOCK_RECORD
5
1
100
AcDbSymbolTable
70
1
0
BLOCK_RECORD
5
1F
100
AcDbSymbolTableRecord
100
AcDbBlockTableRecord
2
*MODEL_SPACE
0
BLOCK_RECORD
5
1B
100
AcDbSymbolTableRecord
100
AcDbBlockTableRecord
2
*PAPER_SPACE
0
ENDTAB
0
ENDSEC
0
SECTION
2
BLOCKS
0
BLOCK
5
20
100
AcDbEntity
100
AcDbBlockBegin
2
*MODEL_SPACE
0
ENDBLK
5
21
100
AcDbEntity
100
AcDbBlockEnd
0
BLOCK
5
1C
100
AcDbEntity
100
AcDbBlockBegin
2
*PAPER_SPACE
0
ENDBLK
5
1D
100
AcDbEntity
100
AcDbBlockEnd
0
ENDSEC
0
SECTION
2
ENTITIES
0
CIRCLE
5
100
100
AcDbEntity
8
0
100
AcDbCircle
10
-295.19501738561763
20
540.02617268509721
30
0
40
1.6000000000000403
210
-3.4808261751048428e-33
220
1.4921608497607329e-49
230
1
0
CIRCLE
5
101
100
AcDbEntity
8
0
100
AcDbCircle
10
-315.19501738561758
20
560.02617268509721
30
0
40
1.6000000000000003
210
2.1171077113051784e-32
220
9.8607613152626476e-32
230
1
0
CIRCLE
5
102
100
AcDbEntity
8
0
100
AcDbCircle
10
-456.37501738561758
20
540.02617268509721
30
0
40
1.6000000000000003
210
2.1171077113051784e-32
220
9.8607613152626476e-32
230
1
0
CIRCLE
5
103
100
AcDbEntity
8
0
100
AcDbCircle
10
-476.37501738561758
20
560.02617268509721
30
0
40
1.5999999999999803
210
2.1171077113051782e-32
220
9.8607613152626476e-32
230
1
0
CIRCLE
5
104
100
AcDbEntity
8
0
100
AcDbCircle
10
-438.37501737817365
20
610.08518161293125
30
4.4408920985006262e-15
40
2.6000000000000201
210
-3.4808261751048702e-33
220
1.4921608497607426e-49
230
1
0
CIRCLE
5
105
100
AcDbEntity
8
0
100
AcDbCircle
10
-458.37501737817365
20
630.08518161293125
30
0
40
2.6000000000000001
210
-2.8132729463261489e-32
220
1.2059940769873293e-48
230
1
0
CIRCLE
5
106
100
AcDbEntity
8
0
100
AcDbCircle
10
-478.37501737817365
20
610.08518161293125
30
0
40
2.6000000000000001
210
-2.8132729463261489e-32
220
1.2059940769873293e-48
230
1
0
CIRCLE
5
107
100
AcDbEntity
8
0
100
AcDbCircle
10
-445.37500105779657
20
659.58514791606137
30
-4.4408920985006262e-15
40
2.6000000000000201
210
-3.4808261751048866e-33
220
1.4921608497607484e-49
230
1
0
CIRCLE
5
108
100
AcDbEntity
8
0
100
AcDbCircle
10
-463.37500105779958
20
705.58514791606046
30
0
40
2.6000000000000001
210
-2.8132729463261506e-32
220
1.2059940769873291e-48
230
1
0
CIRCLE
5
109
100
AcDbEntity
8
0
100
AcDbCircle
10
-458.37501737817365
20
735.08518161292943
30
0
40
2.6000000000000201
210
-3.4808261751048702e-33
220
1.4921608497607426e-49
230
1
0
CIRCLE
5
110
100
AcDbEntity
8
0
100
AcDbCircle
10
-478.37501737817365
20
755.08518161292943
30
0
40
2.6000000000000001
210
-2.8132729463261489e-32
220
1.2059940769873293e-48
230
1
0
CIRCLE
5
111
100
AcDbEntity
8
0
100
AcDbCircle
10
-438.37501737817365
20
755.08518161292943
30
0
40
2.6000000000000201
210
-3.4808261751048702e-33
220
1.4921608497607426e-49
230
1
0
CIRCLE
5
112
100
AcDbEntity
8
0
100
AcDbCircle
10
-458.37501737817365
20
755.08518161292943
30
0
40
2.6000000000000001
210
-2.8132729463261489e-32
220
1.2059940769873293e-48
230
1
0
CIRCLE
5
113
100
AcDbEntity
8
0
100
AcDbCircle
10
-478.37501737817365
20
735.08518161292943
30
0
40
2.6000000000000001
210
-2.8132729463261489e-32
220
1.2059940769873293e-48
230
1
0
CIRCLE
5
114
100
AcDbEntity
8
0
100
AcDbCircle
10
-438.37501737817365
20
735.08518161292943
30
4.4408920985006262e-15
40
2.6000000000000201
210
-3.4808261751048702e-33
220
1.4921608497607426e-49
230
1
0
CIRCLE
5
115
100
AcDbEntity
8
0
100
AcDbCircle
10
-445.37500105779952
20
705.58514791606126
30
-4.4408920985006262e-15
40
2.6000000000000201
210
-3.4808261751048866e-33
220
1.4921608497607484e-49
230
1
0
CIRCLE
5
116
100
AcDbEntity
8
0
100
AcDbCircle
10
-463.37500105779657
20
659.58514791606024
30
0
40
2.6000000000000001
210
-2.8132729463261506e-32
220
1.2059940769873291e-48
230
1
0
CIRCLE
5
117
100
AcDbEntity
8
0
100
AcDbCircle
10
-478.37501737817365
20
630.08518161293125
30
0
40
2.6000000000000001
210
-2.8132729463261489e-32
220
1.2059940769873293e-48
230
1
0
CIRCLE
5
118
100
AcDbEntity
8
0
100
AcDbCircle
10
-438.37501737817365
20
630.08518161293125
30
0
40
2.6000000000000201
210
-3.4808261751048702e-33
220
1.4921608497607426e-49
230
1
0
CIRCLE
5
119
100
AcDbEntity
8
0
100
AcDbCircle
10
-458.37501737817365
20
610.08518161293125
30
0
40
2.6000000000000201
210
-3.4808261751048702e-33
220
1.4921608497607426e-49
230
1
0
CIRCLE
5
120
100
AcDbEntity
8
0
100
AcDbCircle
10
-456.37501738561758
20
560.02617268509721
30
0
40
1.6000000000000003
210
2.1171077113051784e-32
220
9.8607613152626476e-32
230
1
0
CIRCLE
5
121
100
AcDbEntity
8
0
100
AcDbCircle
10
-476.37501738561758
20
540.02617268509721
30
0
40
1.6000000000000003
210
2.1171077113051784e-32
220
9.8607613152626476e-32
230
1
0
CIRCLE
5
122
100
AcDbEntity
8
0
100
AcDbCircle
10
-295.19501738561763
20
560.02617268509721
30
0
40
1.6000000000000403
210
-3.4808261751048428e-33
220
1.4921608497607329e-49
230
1
0
CIRCLE
5
123
100
AcDbEntity
8
0
100
AcDbCircle
10
-315.19501738561758
20
540.02617268509721
30
0
40
1.6000000000000003
210
2.1171077113051784e-32
220
9.8607613152626476e-32
230
1
0
LWPOLYLINE
5
124
100
AcDbEntity
8
0
100
AcDbPolyline
90
20
70
1
43
0.0
10
-410.78503454227655
20
536.52617268509721
10
-485.87501738561861
20
536.52617268509721
42
-0.41421356237311169
10
-488.37501738561861
20
539.02617268509721
10
-488.37501738561861
20
546.34617267279623
42
0.41421356237309503
10
-490.87501738561861
20
548.84617267279634
42
-0.41421356237311169
10
-493.37501738561855
20
551.34617267279623
10
-493.37501738561849
20
765.08518160275707
42
-0.41421356237310752
10
-488.37501738561855
20
770.0851816027573
10
-425.93559314243458
20
770.08518160275707
42
-0.24116511006855279
10
-421.87847045667263
20
768.00746761077835
10
-279.13789469985562
20
569.83520572669124
42
-0.15733195601709732
10
-278.19501738561763
20
566.9129197186702
10
-278.19501738561763
20
527.77617267322921
42
-0.41421356237310752
10
-280.69501738561763
20
525.27617267322921
42
0.41421356237332813
10
-283.19501738561962
20
522.77617267322921
10
-283.19501738561962
20
496.52617267279624
42
-0.41421356237310752
10
-285.69501738561962
20
494.02617267279624
10
-404.78503454227859
20
494.02617267279629
42
-0.41421356237340717
10
-405.78503454227859
20
495.02617267279732
10
-405.78503454227655
20
531.52617268509721
42
0.41421356237309503
0
CIRCLE
5
125
100
AcDbEntity
8
0
100
AcDbCircle
10
-445.37500105779759
20
682.58514791606228
30
0
40
13
210
-3.4808261751048565e-33
220
1.4921608497607376e-49
230
1
0
CIRCLE
5
126
100
AcDbEntity
8
0
100
AcDbCircle
10
-373.78503454227553
20
540.02617267279538
30
0
40
2.6000000000000201
210
-3.4808261751048428e-33
220
1.4921608497607329e-49
230
1
0
CIRCLE
5
127
100
AcDbEntity
8
0
100
AcDbCircle
10
-373.78503454227854
20
500.02617267279527
30
0
40
2.6000000000000201
210
-3.4808261751048428e-33
220
1.4921608497607329e-49
230
1
0
CIRCLE
5
128
100
AcDbEntity
8
0
100
AcDbCircle
10
-397.78503454227564
20
540.02617267279618
30
0
40
2.6000000000000201
210
-3.4808261751048428e-33
220
1.4921608497607329e-49
230
1
0
CIRCLE
5
129
100
AcDbEntity
8
0
100
AcDbCircle
10
-397.78503454227859
20
500.02617267279624
30
0
40
2.6000000000000201
210
-3.4808261751048428e-33
220
1.4921608497607329e-49
230
1
0
CIRCLE
5
130
100
AcDbEntity
8
0
100
AcDbCircle
10
-456.37497592335961
20
588.77756966783727
30
0
40
3.4000000000000301
210
1.4317301598625805e-32
220
-4.1506172859652192e-49
230
1
0
CIRCLE
5
131
100
AcDbEntity
8
0
100
AcDbCircle
10
-385.78497592335964
20
588.77756966783727
30
0
40
3.4000000000000301
210
1.4317301598625805e-32
220
-4.1506172859652192e-49
230
1
0
CIRCLE
5
132
100
AcDbEntity
8
0
100
AcDbCircle
10
-315.19501738561758
20
588.77756966783727
30
-4.4408920985006262e-15
40
3.4000000000000004
210
1.4317301598625805e-32
220
-4.1506172859652208e-49
230
1
0
ENDSEC
0
SECTION
2
OBJECTS
0
DICTIONARY
5
C
100
AcDbDictionary
3
ACAD_GROUP
350
D
3
ACAD_MLINESTYLE
350
17
0
DICTIONARY
5
D
100
AcDbDictionary
0
DICTIONARY
5
1A
330
C
100
AcDbDictionary
0
DICTIONARY
5
17
100
AcDbDictionary
0
ENDSEC
0
EOF
