0
SECTION
2
HEADER
9
$INSUNITS
70
4
9
$ACADVER
1
AC1014
9
$HANDSEED
5
FFFF
0
ENDSEC
0
SECTION
2
TABLES
0
TABLE
2
VPORT
5
8
100
AcDbSymbolTable
0
ENDTAB
0
TABLE
2
LTYPE
5
5
100
AcDbSymbolTable
0
LTYPE
5
14
100
AcDbSymbolTableRecord
100
AcDbLinetypeTableRecord
2
BYBLOCK
70
0
0
LTYPE
5
15
100
AcDbSymbolTableRecord
100
AcDbLinetypeTableRecord
2
BYLAYER
70
0
0
ENDTAB
0
TABLE
2
LAYER
5
2
100
AcDbSymbolTable
70
2
0
LAYER
5
50
100
AcDbSymbolTableRecord
100
AcDbLayerTableRecord
2
0
70
0
6
CONTINUOUS
0
ENDTAB
0
TABLE
2
STYLE
5
3
100
AcDbSymbolTable
70
1
0
STYLE
5
11
100
AcDbSymbolTableRecord
100
AcDbTextStyleTableRecord
2
STANDARD
70
0
0
ENDTAB
0
TABLE
2
VIEW
5
6
100
AcDbSymbolTable
70
0
0
ENDTAB
0
TABLE
2
UCS
5
7
100
AcDbSymbolTable
70
0
0
ENDTAB
0
TABLE
2
APPID
5
9
100
AcDbSymbolTable
70
2
0
APPID
5
12
100
AcDbSymbolTableRecord
100
AcDbRegAppTableRecord
2
ACAD
70
0
0
ENDTAB
0
TABLE
2
DIMSTYLE
5
A
100
AcDbSymbolTable
70
1
0
ENDTAB
0
TABLE
2
BLOCK_RECORD
5
1
100
AcDbSymbolTable
70
1
0
BLOCK_RECORD
5
1F
100
AcDbSymbolTableRecord
100
AcDbBlockTableRecord
2
*MODEL_SPACE
0
BLOCK_RECORD
5
1B
100
AcDbSymbolTableRecord
100
AcDbBlockTableRecord
2
*PAPER_SPACE
0
ENDTAB
0
ENDSEC
0
SECTION
2
BLOCKS
0
BLOCK
5
20
100
AcDbEntity
100
AcDbBlockBegin
2
*MODEL_SPACE
0
ENDBLK
5
21
100
AcDbEntity
100
AcDbBlockEnd
0
BLOCK
5
1C
100
AcDbEntity
100
AcDbBlockBegin
2
*PAPER_SPACE
0
ENDBLK
5
1D
100
AcDbEntity
100
AcDbBlockEnd
0
ENDSEC
0
SECTION
2
ENTITIES
0
CIRCLE
5
100
100
AcDbEntity
8
0
100
AcDbCircle
10
-392.37498327009263
20
-357.38888947735404
30
0
40
2.5999999999999801
210
-1.6421680093573544e-47
220
-9.8607613152626476e-32
230
1
0
CIRCLE
5
101
100
AcDbEntity
8
0
100
AcDbCircle
10
-387.37498327009467
20
-290.8888894773491
30
0
40
11.25
210
-1.6421680093573544e-47
220
-9.8607613152626476e-32
230
1
0
CIRCLE
5
102
100
AcDbEntity
8
0
100
AcDbCircle
10
-392.37498327009166
20
-224.38888947735205
30
0
40
2.5999999999999801
210
-1.6421680093573544e-47
220
-9.8607613152626476e-32
230
1
0
CIRCLE
5
103
100
AcDbEntity
8
0
100
AcDbCircle
10
-393.62498327009359
20
-246.13888947735103
30
0
40
3.4000000000000004
210
0
220
-0
230
1
0
CIRCLE
5
104
100
AcDbEntity
8
0
100
AcDbCircle
10
-393.62498327009467
20
-335.63888947735211
30
0
40
3.4000000000000004
210
0
220
-0
230
1
0
LWPOLYLINE
5
105
100
AcDbEntity
8
0
100
AcDbPolyline
90
8
70
1
43
0.0
10
-409.22498033913945
20
-298.56345699710943
42
-0.99999999999999989
10
-411.69985407329273
20
-301.03833073126202
10
-413.05010660498669
20
-301.03833073126202
42
-0.99999999999999989
10
-415.5249803391398
20
-298.56345699710926
10
-415.52498033913969
20
-283.213204465415
42
-0.99999999999999989
10
-413.05010660498675
20
-280.73833073126201
10
-411.6998540732925
20
-280.73833073126201
42
-0.99999999999999989
10
-409.22498033913968
20
-283.21320446541495
0
LWPOLYLINE
5
106
100
AcDbEntity
8
0
100
AcDbPolyline
90
24
70
1
43
0.0
10
-408.22498033913962
20
-370.88888891598805
42
-0.41421356237313667
10
-409.22498033913962
20
-369.88888891598805
10
-409.22498033913968
20
-353.21376265014101
42
0.99999999999999989
10
-411.69985407329256
20
-350.73888891598807
10
-413.05010660498675
20
-350.73888891598813
42
0.99999999999999989
10
-415.52498033913969
20
-353.21376265014095
10
-415.52498033913969
20
-369.88888891598805
42
-0.41421356237313667
10
-416.52498033913969
20
-370.88888891598805
10
-421.37498033913971
20
-370.88888891598799
42
-0.41421356237310752
10
-426.37498033913965
20
-365.88888891598799
10
-426.37498033913971
20
-215.88888891598802
42
-0.41421356237309709
10
-421.37498033913971
20
-210.88888891598802
10
-416.52498033913969
20
-210.88888891598799
42
-0.4142135623730846
10
-415.52498033913963
20
-211.88888891598805
10
-415.52498033913969
20
-228.56401518183526
42
0.99999999999999989
10
-413.05010660498658
20
-231.038888915988
10
-411.69985407329261
20
-231.03888891598803
42
0.99999999999999989
10
-409.22498033913962
20
-228.56401518183509
10
-409.22498033913968
20
-211.88888891598805
42
-0.4142135623730846
10
-408.22498033913962
20
-210.88888891598802
10
-375.37497270974154
20
-210.88888891598813
42
-0.4142135623730992
10
-370.37497270974171
20
-215.88888891598805
10
-370.37497270974171
20
-365.88888891598805
42
-0.4142135623730992
10
-375.37497270974166
20
-370.88888891598805
0
ENDSEC
0
SECTION
2
OBJECTS
0
DICTIONARY
5
C
100
AcDbDictionary
3
ACAD_GROUP
350
D
3
ACAD_MLINESTYLE
350
17
0
DICTIONARY
5
D
100
AcDbDictionary
0
DICTIONARY
5
1A
330
C
100
AcDbDictionary
0
DICTIONARY
5
17
100
AcDbDictionary
0
ENDSEC
0
EOF
