0
SECTION
2
HEADER
9
$INSUNITS
70
4
9
$ACADVER
1
AC1014
9
$HANDSEED
5
FFFF
0
ENDSEC
0
SECTION
2
TABLES
0
TABLE
2
VPORT
5
8
100
AcDbSymbolTable
0
ENDTAB
0
TABLE
2
LTYPE
5
5
100
AcDbSymbolTable
0
LTYPE
5
14
100
AcDbSymbolTableRecord
100
AcDbLinetypeTableRecord
2
BYBLOCK
70
0
0
LTYPE
5
15
100
AcDbSymbolTableRecord
100
AcDbLinetypeTableRecord
2
BYLAYER
70
0
0
ENDTAB
0
TABLE
2
LAYER
5
2
100
AcDbSymbolTable
70
2
0
LAYER
5
50
100
AcDbSymbolTableRecord
100
AcDbLayerTableRecord
2
0
70
0
6
CONTINUOUS
0
ENDTAB
0
TABLE
2
STYLE
5
3
100
AcDbSymbolTable
70
1
0
STYLE
5
11
100
AcDbSymbolTableRecord
100
AcDbTextStyleTableRecord
2
STANDARD
70
0
0
ENDTAB
0
TABLE
2
VIEW
5
6
100
AcDbSymbolTable
70
0
0
ENDTAB
0
TABLE
2
UCS
5
7
100
AcDbSymbolTable
70
0
0
ENDTAB
0
TABLE
2
APPID
5
9
100
AcDbSymbolTable
70
2
0
APPID
5
12
100
AcDbSymbolTableRecord
100
AcDbRegAppTableRecord
2
ACAD
70
0
0
ENDTAB
0
TABLE
2
DIMSTYLE
5
A
100
AcDbSymbolTable
70
1
0
ENDTAB
0
TABLE
2
BLOCK_RECORD
5
1
100
AcDbSymbolTable
70
1
0
BLOCK_RECORD
5
1F
100
AcDbSymbolTableRecord
100
AcDbBlockTableRecord
2
*MODEL_SPACE
0
BLOCK_RECORD
5
1B
100
AcDbSymbolTableRecord
100
AcDbBlockTableRecord
2
*PAPER_SPACE
0
ENDTAB
0
ENDSEC
0
SECTION
2
BLOCKS
0
BLOCK
5
20
100
AcDbEntity
100
AcDbBlockBegin
2
*MODEL_SPACE
0
ENDBLK
5
21
100
AcDbEntity
100
AcDbBlockEnd
0
BLOCK
5
1C
100
AcDbEntity
100
AcDbBlockBegin
2
*PAPER_SPACE
0
ENDBLK
5
1D
100
AcDbEntity
100
AcDbBlockEnd
0
ENDSEC
0
SECTION
2
ENTITIES
0
LWPOLYLINE
5
100
100
AcDbEntity
8
0
100
AcDbPolyline
90
16
70
1
43
0.0
10
337.88888835906511
20
584.52586453790286
42
-0.41421356237310336
10
332.88888835906511
20
579.52586453790286
10
248.88888835906513
20
579.52586453790286
42
-0.41421356237310336
10
243.88888835906513
20
584.52586453790286
10
243.88888835906513
20
591.08484150270988
42
0.41421356237309503
10
238.88888835906513
20
596.08484150270988
10
213.38888835906712
20
596.08484150270988
42
-0.4142135623730992
10
210.88888835906712
20
598.58484150270988
10
210.88888835906712
20
713.5848415027217
42
-0.4142135623730992
10
213.38888835906715
20
716.0848415027217
10
368.38888835906715
20
716.0848415027217
42
-0.41421356237310336
10
370.88888835906715
20
713.5848415027217
10
370.88888835906715
20
598.58484150270988
42
-0.41421356237311169
10
368.38888835906715
20
596.08484150270988
10
342.88888835906511
20
596.08484150270988
42
0.41421356237309503
10
337.88888835906511
20
591.08484150270988
0
CIRCLE
5
101
100
AcDbEntity
8
0
100
AcDbCircle
10
331.88888835906511
20
585.52586453790286
30
0
40
2.5
210
1.4139551774522886e-32
220
-2.3471323780471617e-48
230
1
0
CIRCLE
5
102
100
AcDbEntity
8
0
100
AcDbCircle
10
249.88888835906516
20
585.52586453790286
30
0
40
2.5
210
1.4139551774522886e-32
220
-2.3471323780471617e-48
230
1
0
CIRCLE
5
103
100
AcDbEntity
8
0
100
AcDbCircle
10
331.88888835906511
20
623.52586453790286
30
0
40
2.5
210
1.4139551774522886e-32
220
-2.3471323780471617e-48
230
1
0
CIRCLE
5
104
100
AcDbEntity
8
0
100
AcDbCircle
10
249.88888835906516
20
623.52586453790286
30
0
40
2.5
210
1.4139551774522886e-32
220
-2.3471323780471617e-48
230
1
0
CIRCLE
5
105
100
AcDbEntity
8
0
100
AcDbCircle
10
331.88888835906511
20
661.52586453790286
30
-7.1054273576010019e-14
40
2.5
210
1.4139551774522886e-32
220
-2.3471323780471617e-48
230
1
0
CIRCLE
5
106
100
AcDbEntity
8
0
100
AcDbCircle
10
249.88888835906516
20
661.52586453790286
30
-7.1054273576010019e-14
40
2.5
210
1.4139551774522886e-32
220
-2.3471323780471617e-48
230
1
0
CIRCLE
5
107
100
AcDbEntity
8
0
100
AcDbCircle
10
331.88888835906511
20
699.52586453790275
30
0
40
2.5
210
1.4139551774522886e-32
220
-2.3471323780471617e-48
230
1
0
CIRCLE
5
108
100
AcDbEntity
8
0
100
AcDbCircle
10
249.88888835906516
20
699.52586453790275
30
0
40
2.5
210
1.4139551774522886e-32
220
-2.3471323780471617e-48
230
1
0
CIRCLE
5
109
100
AcDbEntity
8
0
100
AcDbCircle
10
234.38888835906712
20
628.08484150270988
30
0
40
1.6000000000000003
210
1.413955177452258e-32
220
-7.8886090522101181e-31
230
1
0
CIRCLE
5
110
100
AcDbEntity
8
0
100
AcDbCircle
10
214.38888835906712
20
628.08484150270988
30
0
40
1.6000000000000003
210
1.413955177452258e-32
220
-7.8886090522101181e-31
230
1
0
CIRCLE
5
111
100
AcDbEntity
8
0
100
AcDbCircle
10
234.38888835906712
20
684.08484150272193
30
0
40
1.6000000000000003
210
1.413955177452258e-32
220
-7.8886090522101181e-31
230
1
0
CIRCLE
5
112
100
AcDbEntity
8
0
100
AcDbCircle
10
214.38888835906712
20
684.08484150272193
30
-7.1054273576010019e-14
40
1.6000000000000003
210
1.413955177452258e-32
220
-7.8886090522101181e-31
230
1
0
CIRCLE
5
113
100
AcDbEntity
8
0
100
AcDbCircle
10
234.38888835906712
20
704.08484150272193
30
0
40
1.6000000000000003
210
1.413955177452258e-32
220
-7.8886090522101181e-31
230
1
0
CIRCLE
5
114
100
AcDbEntity
8
0
100
AcDbCircle
10
214.38888835906712
20
704.08484150272193
30
-7.1054273576010019e-14
40
1.6000000000000003
210
1.413955177452258e-32
220
-7.8886090522101181e-31
230
1
0
CIRCLE
5
115
100
AcDbEntity
8
0
100
AcDbCircle
10
234.38888835906712
20
608.08484150270988
30
0
40
1.6000000000000003
210
1.413955177452258e-32
220
-7.8886090522101181e-31
230
1
0
CIRCLE
5
116
100
AcDbEntity
8
0
100
AcDbCircle
10
214.38888835906712
20
608.08484150270988
30
0
40
1.6000000000000003
210
1.413955177452258e-32
220
-7.8886090522101181e-31
230
1
0
CIRCLE
5
117
100
AcDbEntity
8
0
100
AcDbCircle
10
367.38888835906715
20
608.08484150270988
30
0
40
1.6000000000000003
210
1.413955177452258e-32
220
-7.8886090522101181e-31
230
1
0
CIRCLE
5
118
100
AcDbEntity
8
0
100
AcDbCircle
10
347.38888835906715
20
704.08484150272193
30
0
40
1.6000000000000003
210
1.413955177452258e-32
220
-7.8886090522101181e-31
230
1
0
CIRCLE
5
119
100
AcDbEntity
8
0
100
AcDbCircle
10
367.38888835906715
20
704.08484150272193
30
0
40
1.6000000000000003
210
1.413955177452258e-32
220
-7.8886090522101181e-31
230
1
0
CIRCLE
5
120
100
AcDbEntity
8
0
100
AcDbCircle
10
347.38888835906715
20
684.08484150272193
30
0
40
1.6000000000000003
210
1.413955177452258e-32
220
-7.8886090522101181e-31
230
1
0
CIRCLE
5
121
100
AcDbEntity
8
0
100
AcDbCircle
10
347.38888835906715
20
608.08484150270988
30
7.1054273576010019e-14
40
1.6000000000000003
210
1.413955177452258e-32
220
-7.8886090522101181e-31
230
1
0
CIRCLE
5
122
100
AcDbEntity
8
0
100
AcDbCircle
10
367.38888835906715
20
628.08484150270988
30
0
40
1.6000000000000003
210
1.413955177452258e-32
220
-7.8886090522101181e-31
230
1
0
CIRCLE
5
123
100
AcDbEntity
8
0
100
AcDbCircle
10
367.38888835906715
20
684.08484150272193
30
0
40
1.6000000000000003
210
1.413955177452258e-32
220
-7.8886090522101181e-31
230
1
0
CIRCLE
5
124
100
AcDbEntity
8
0
100
AcDbCircle
10
347.38888835906715
20
628.08484150270988
30
7.1054273576010019e-14
40
1.6000000000000003
210
1.413955177452258e-32
220
-7.8886090522101181e-31
230
1
0
CIRCLE
5
125
100
AcDbEntity
8
0
100
AcDbCircle
10
325.88888835906516
20
633.52586453790286
30
0
40
2.5
210
-3.4732345153451723e-32
220
6.0064917605751392e-48
230
1
0
CIRCLE
5
126
100
AcDbEntity
8
0
100
AcDbCircle
10
255.88888835906516
20
613.52586453790286
30
-7.1054273576010019e-14
40
2.5
210
-3.4732345153451723e-32
220
6.0064917605751392e-48
230
1
0
CIRCLE
5
127
100
AcDbEntity
8
0
100
AcDbCircle
10
325.88888835906516
20
613.52586453790286
30
0
40
2.49999999999996
210
-3.4732345153451723e-32
220
6.0064917605751392e-48
230
1
0
CIRCLE
5
128
100
AcDbEntity
8
0
100
AcDbCircle
10
255.88888835906516
20
633.52586453790286
30
-7.1054273576010019e-14
40
2.4999999999999298
210
-3.4732345153451723e-32
220
6.0064917605751392e-48
230
1
0
CIRCLE
5
129
100
AcDbEntity
8
0
100
AcDbCircle
10
357.38888835906715
20
656.08484150271579
30
0
40
3.4000000000000004
210
-3.4732251937698123e-32
220
6.0064751804872321e-48
230
1
0
CIRCLE
5
130
100
AcDbEntity
8
0
100
AcDbCircle
10
224.38888835906712
20
656.08484150271579
30
0
40
3.3999999999999604
210
-2.3194747824295125e-31
220
4.0112192372148921e-47
230
1
0
CIRCLE
5
131
100
AcDbEntity
8
0
100
AcDbCircle
10
308.38888892042814
20
644.08484387612475
30
0
40
2.6000000000000201
210
1.4139551774522886e-32
220
-2.3471323780471617e-48
230
1
0
CIRCLE
5
132
100
AcDbEntity
8
0
100
AcDbCircle
10
273.38888892042814
20
668.08484387612475
30
0
40
2.6000000000000201
210
1.4139551774522886e-32
220
-2.3471323780471617e-48
230
1
0
CIRCLE
5
133
100
AcDbEntity
8
0
100
AcDbCircle
10
273.38888892042814
20
644.08484387612475
30
0
40
2.6000000000000201
210
1.4139551774522886e-32
220
-2.3471323780471617e-48
230
1
0
CIRCLE
5
134
100
AcDbEntity
8
0
100
AcDbCircle
10
308.38888892042814
20
668.08484387612475
30
7.1054273576010019e-14
40
2.6000000000000201
210
1.4139551774522886e-32
220
-2.3471323780471617e-48
230
1
0
ENDSEC
0
SECTION
2
OBJECTS
0
DICTIONARY
5
C
100
AcDbDictionary
3
ACAD_GROUP
350
D
3
ACAD_MLINESTYLE
350
17
0
DICTIONARY
5
D
100
AcDbDictionary
0
DICTIONARY
5
1A
330
C
100
AcDbDictionary
0
DICTIONARY
5
17
100
AcDbDictionary
0
ENDSEC
0
EOF
