0
SECTION
2
HEADER
9
$INSUNITS
70
4
9
$ACADVER
1
AC1014
9
$HANDSEED
5
FFFF
0
ENDSEC
0
SECTION
2
TABLES
0
TABLE
2
VPORT
5
8
100
AcDbSymbolTable
0
ENDTAB
0
TABLE
2
LTYPE
5
5
100
AcDbSymbolTable
0
LTYPE
5
14
100
AcDbSymbolTableRecord
100
AcDbLinetypeTableRecord
2
BYBLOCK
70
0
0
LTYPE
5
15
100
AcDbSymbolTableRecord
100
AcDbLinetypeTableRecord
2
BYLAYER
70
0
0
ENDTAB
0
TABLE
2
LAYER
5
2
100
AcDbSymbolTable
70
2
0
LAYER
5
50
100
AcDbSymbolTableRecord
100
AcDbLayerTableRecord
2
0
70
0
6
CONTINUOUS
0
ENDTAB
0
TABLE
2
STYLE
5
3
100
AcDbSymbolTable
70
1
0
STYLE
5
11
100
AcDbSymbolTableRecord
100
AcDbTextStyleTableRecord
2
STANDARD
70
0
0
ENDTAB
0
TABLE
2
VIEW
5
6
100
AcDbSymbolTable
70
0
0
ENDTAB
0
TABLE
2
UCS
5
7
100
AcDbSymbolTable
70
0
0
ENDTAB
0
TABLE
2
APPID
5
9
100
AcDbSymbolTable
70
2
0
APPID
5
12
100
AcDbSymbolTableRecord
100
AcDbRegAppTableRecord
2
ACAD
70
0
0
ENDTAB
0
TABLE
2
DIMSTYLE
5
A
100
AcDbSymbolTable
70
1
0
ENDTAB
0
TABLE
2
BLOCK_RECORD
5
1
100
AcDbSymbolTable
70
1
0
BLOCK_RECORD
5
1F
100
AcDbSymbolTableRecord
100
AcDbBlockTableRecord
2
*MODEL_SPACE
0
BLOCK_RECORD
5
1B
100
AcDbSymbolTableRecord
100
AcDbBlockTableRecord
2
*PAPER_SPACE
0
ENDTAB
0
ENDSEC
0
SECTION
2
BLOCKS
0
BLOCK
5
20
100
AcDbEntity
100
AcDbBlockBegin
2
*MODEL_SPACE
0
ENDBLK
5
21
100
AcDbEntity
100
AcDbBlockEnd
0
BLOCK
5
1C
100
AcDbEntity
100
AcDbBlockBegin
2
*PAPER_SPACE
0
ENDBLK
5
1D
100
AcDbEntity
100
AcDbBlockEnd
0
ENDSEC
0
SECTION
2
ENTITIES
0
LWPOLYLINE
5
100
100
AcDbEntity
8
0
100
AcDbPolyline
90
32
70
1
43
0.0
10
409.22498033913985
20
-369.88888891598822
42
-0.41421356237313667
10
408.22498033913979
20
-370.88888891598822
10
375.37498224648181
20
-370.88888891598822
42
-0.41421356237310336
10
370.37498224648186
20
-365.88888891598828
10
370.37498224648181
20
-329.38833073126216
42
0.41421356237309087
10
365.37498224648186
20
-324.38833073126216
10
363.80498327009497
20
-324.38833073126204
42
-0.41421356237317047
10
353.87498327009496
20
-314.45833073125965
10
353.87498327010661
20
-267.31833073125864
42
-0.41421356237302065
10
363.80498327010685
20
-257.38833073126108
10
365.37498224648175
20
-257.38833073126108
42
0.4142135623730992
10
370.37498224648181
20
-252.38833073126108
10
370.37498224648181
20
-215.88888891598813
42
-0.41421356237310336
10
375.37498224648181
20
-210.88888891598813
10
408.22498033913973
20
-210.8888889159881
42
-0.41421356237310542
10
409.22498033913973
20
-211.88888891598816
10
409.22498033913973
20
-228.56401518183526
42
0.99999999999999989
10
411.69985407329273
20
-231.03888891598811
10
413.05010660498732
20
-231.03888891598808
42
0.99999999999999989
10
415.52498033913986
20
-228.56401518183475
10
415.5249803391398
20
-211.88888891598816
42
-0.41421356237315748
10
416.52498033913986
20
-210.88888891598813
10
424.87498033913982
20
-210.88888891598805
42
-0.41421356237310752
10
429.87498033913988
20
-215.88888891598822
10
429.87498033913988
20
-365.88888891598822
42
-0.41421356237310752
10
424.87498033913982
20
-370.88888891598822
10
416.52498033913986
20
-370.88888891598822
42
-0.41421356237313667
10
415.52498033913986
20
-369.88888891598822
10
415.52498033913986
20
-353.21376265014123
42
0.99999999999999989
10
413.05010660498692
20
-350.73888891598818
10
411.69985407329256
20
-350.73888891598818
42
0.99999999999999989
10
409.22498033913973
20
-353.21376265014123
0
ARC
5
101
100
AcDbEntity
8
0
100
AcDbCircle
10
410.46241720621617
20
-299.80089386418575
30
1.970575965456774e-44
40
1.7499999999999838
210
1.1156177909895859e-30
220
-1.115617790989362e-30
230
1
100
AcDbArc
50
134.99999999999866
51
314.99999999999733
0
LINE
5
102
100
AcDbEntity
8
0
100
AcDbLine
10
409.22498033913973
20
-298.56345699710926
30
2.7610131682735413e-30
11
409.22498033913973
21
-283.21320446541512
31
9.8607613152626476e-30
0
ARC
5
103
100
AcDbEntity
8
0
100
AcDbCircle
10
410.46241720621623
20
-281.97576759833862
30
0
40
1.7499999999999838
210
5.5780889549474092e-31
220
5.5780889549474109e-31
230
1
100
AcDbArc
50
45.000000000002636
51
225
0
LINE
5
104
100
AcDbEntity
8
0
100
AcDbLine
10
411.69985407329261
20
-280.73833073126212
30
-1.3805065841367708e-30
11
413.05010660498704
21
-280.73833073126212
31
5.9164567891575885e-30
0
ARC
5
105
100
AcDbEntity
8
0
100
AcDbCircle
10
414.28754347206342
20
-281.97576759833862
30
2.955863948185161e-44
40
1.7500000000000091
210
5.5780889549473295e-31
220
5.5780889549475668e-31
230
1
100
AcDbArc
50
-45
51
134.99999999999736
0
LINE
5
106
100
AcDbEntity
8
0
100
AcDbLine
10
415.52498033913992
20
-283.21320446541512
30
3.9151825352621633e-44
11
415.52498033913986
21
-298.56345699710948
31
0
0
ARC
5
107
100
AcDbEntity
8
0
100
AcDbCircle
10
414.28754347206348
20
-299.80089386418587
30
0
40
1.7500000000000091
210
0
220
0
230
1
100
AcDbArc
50
-135.00000000000921
51
45
0
LINE
5
108
100
AcDbEntity
8
0
100
AcDbLine
10
413.05010660498681
20
-301.03833073126214
30
0
11
411.69985407329256
21
-301.03833073126225
31
-2.7610131682735017e-30
0
CIRCLE
5
109
100
AcDbEntity
8
0
100
AcDbCircle
10
422.69998033913987
20
-220.96388891598815
30
0
40
2.6000000000000156
210
8.2108400467867842e-48
220
-4.9303806576313238e-32
230
1
0
CIRCLE
5
110
100
AcDbEntity
8
0
100
AcDbCircle
10
422.69998033913987
20
-360.81388891598817
30
0
40
2.6000000000000156
210
8.2108400467867842e-48
220
-4.9303806576313238e-32
230
1
0
CIRCLE
5
111
100
AcDbEntity
8
0
100
AcDbCircle
10
422.69998033913987
20
-255.9263889159881
30
0
40
2.6000000000000156
210
8.2108400467867842e-48
220
-4.9303806576313238e-32
230
1
0
CIRCLE
5
112
100
AcDbEntity
8
0
100
AcDbCircle
10
422.69998033913987
20
-325.8513889159882
30
0
40
2.6000000000000156
210
8.2108400467867842e-48
220
-4.9303806576313238e-32
230
1
0
CIRCLE
5
113
100
AcDbEntity
8
0
100
AcDbCircle
10
422.69998033913987
20
-290.88888891598816
30
0
40
2.6000000000000156
210
8.2108400467867842e-48
220
-4.9303806576313238e-32
230
1
0
CIRCLE
5
114
100
AcDbEntity
8
0
100
AcDbCircle
10
392.37498327009286
20
-357.38888947735416
30
0
40
2.6000000000000156
210
8.2108400467867696e-48
220
-4.9303806576313238e-32
230
1
0
CIRCLE
5
115
100
AcDbEntity
8
0
100
AcDbCircle
10
363.80498327010679
20
-267.31833073126126
30
0
40
2.5999999999999979
210
-0
220
0
230
1
0
CIRCLE
5
116
100
AcDbEntity
8
0
100
AcDbCircle
10
410.9449832700958
20
-267.31833073126217
30
0
40
2.6000000000000156
210
8.2108400467867696e-48
220
-4.9303806576313238e-32
230
1
0
CIRCLE
5
117
100
AcDbEntity
8
0
100
AcDbCircle
10
363.80498327009491
20
-314.45833073126215
30
1.2042408677791397e-45
40
2.5999999999999801
210
-0
220
0
230
1
0
CIRCLE
5
118
100
AcDbEntity
8
0
100
AcDbCircle
10
387.37498327009581
20
-290.88833073126222
30
0
40
19.249999999999968
210
-1.577721810442024e-30
220
-2.6274688149717107e-46
230
1
0
CIRCLE
5
119
100
AcDbEntity
8
0
100
AcDbCircle
10
392.37498327009178
20
-224.38888947735217
30
0
40
2.5999999999999801
210
-0
220
0
230
1
0
CIRCLE
5
120
100
AcDbEntity
8
0
100
AcDbCircle
10
410.9449832700958
20
-314.45833073126215
30
0
40
2.6000000000000156
210
8.2108400467867696e-48
220
-4.9303806576313238e-32
230
1
0
ENDSEC
0
SECTION
2
OBJECTS
0
DICTIONARY
5
C
100
AcDbDictionary
3
ACAD_GROUP
350
D
3
ACAD_MLINESTYLE
350
17
0
DICTIONARY
5
D
100
AcDbDictionary
0
DICTIONARY
5
1A
330
C
100
AcDbDictionary
0
DICTIONARY
5
17
100
AcDbDictionary
0
ENDSEC
0
EOF
