0
SECTION
2
HEADER
9
$INSUNITS
70
4
9
$ACADVER
1
AC1014
9
$HANDSEED
5
FFFF
0
ENDSEC
0
SECTION
2
TABLES
0
TABLE
2
VPORT
5
8
100
AcDbSymbolTable
0
ENDTAB
0
TABLE
2
LTYPE
5
5
100
AcDbSymbolTable
0
LTYPE
5
14
100
AcDbSymbolTableRecord
100
AcDbLinetypeTableRecord
2
BYBLOCK
70
0
0
LTYPE
5
15
100
AcDbSymbolTableRecord
100
AcDbLinetypeTableRecord
2
BYLAYER
70
0
0
ENDTAB
0
TABLE
2
LAYER
5
2
100
AcDbSymbolTable
70
2
0
LAYER
5
50
100
AcDbSymbolTableRecord
100
AcDbLayerTableRecord
2
0
70
0
6
CONTINUOUS
0
ENDTAB
0
TABLE
2
STYLE
5
3
100
AcDbSymbolTable
70
1
0
STYLE
5
11
100
AcDbSymbolTableRecord
100
AcDbTextStyleTableRecord
2
STANDARD
70
0
0
ENDTAB
0
TABLE
2
VIEW
5
6
100
AcDbSymbolTable
70
0
0
ENDTAB
0
TABLE
2
UCS
5
7
100
AcDbSymbolTable
70
0
0
ENDTAB
0
TABLE
2
APPID
5
9
100
AcDbSymbolTable
70
2
0
APPID
5
12
100
AcDbSymbolTableRecord
100
AcDbRegAppTableRecord
2
ACAD
70
0
0
ENDTAB
0
TABLE
2
DIMSTYLE
5
A
100
AcDbSymbolTable
70
1
0
ENDTAB
0
TABLE
2
BLOCK_RECORD
5
1
100
AcDbSymbolTable
70
1
0
BLOCK_RECORD
5
1F
100
AcDbSymbolTableRecord
100
AcDbBlockTableRecord
2
*MODEL_SPACE
0
BLOCK_RECORD
5
1B
100
AcDbSymbolTableRecord
100
AcDbBlockTableRecord
2
*PAPER_SPACE
0
ENDTAB
0
ENDSEC
0
SECTION
2
BLOCKS
0
BLOCK
5
20
100
AcDbEntity
100
AcDbBlockBegin
2
*MODEL_SPACE
0
ENDBLK
5
21
100
AcDbEntity
100
AcDbBlockEnd
0
BLOCK
5
1C
100
AcDbEntity
100
AcDbBlockBegin
2
*PAPER_SPACE
0
ENDBLK
5
1D
100
AcDbEntity
100
AcDbBlockEnd
0
ENDSEC
0
SECTION
2
ENTITIES
0
ARC
5
100
100
AcDbEntity
8
0
100
AcDbCircle
10
232.1263257830646
20
594.84774437996441
30
0
40
1.7499999999999838
210
0
220
-0
230
1
100
AcDbArc
50
44.999999999994735
51
224.99999999999474
0
LINE
5
101
100
AcDbEntity
8
0
100
AcDbLine
10
233.36376265014115
20
596.08518124704074
30
0
11
278.4140151818354
21
596.08518124704074
31
6.9037487921096111e-33
0
ARC
5
102
100
AcDbEntity
8
0
100
AcDbCircle
10
279.65145204891201
20
594.84774437996441
30
1.9924712539618493e-44
40
1.7499999999999587
210
-5.5780889549479671e-31
220
5.5780889549468513e-31
230
1
100
AcDbArc
50
-45.000000000005237
51
135.00000000000659
0
LINE
5
103
100
AcDbEntity
8
0
100
AcDbLine
10
280.88888891598833
20
593.61030751288786
30
1.3805065841367707e-30
11
280.88888891598833
21
590.08518124704074
31
-3.944304526105059e-30
0
LINE
5
104
100
AcDbEntity
8
0
100
AcDbLine
10
280.88888891598833
20
590.08518124704074
30
-3.944304526105059e-30
11
300.88888891598833
21
590.08518124704074
31
7.1054273576010019e-14
0
LINE
5
105
100
AcDbEntity
8
0
100
AcDbLine
10
300.88888891598833
20
590.08518124704074
30
7.1054273576010019e-14
11
300.88888891598833
21
593.61030751288797
31
7.1054273576010019e-14
0
ARC
5
106
100
AcDbEntity
8
0
100
AcDbCircle
10
302.12632578306466
20
594.84774437996452
30
1.9720577497572795e-44
40
1.7500000000000091
210
2.3121424661359482e-44
220
-1.1156177909894584e-30
230
1
100
AcDbArc
50
44.99999999998947
51
225.00000000000526
0
LINE
5
107
100
AcDbEntity
8
0
100
AcDbLine
10
303.36376265014133
20
596.08518124704074
30
1.3805065841365344e-30
11
348.41401518183545
21
596.08518124704074
31
7.1054273576010019e-14
0
ARC
5
108
100
AcDbEntity
8
0
100
AcDbCircle
10
349.65145204891201
20
594.8477443799643
30
-7.1054273576010019e-14
40
1.7499999999999338
210
-0
220
0
230
1
100
AcDbArc
50
-45.000000000006558
51
135.00000000000264
0
LINE
5
109
100
AcDbEntity
8
0
100
AcDbLine
10
350.88888891598828
20
593.61030751288774
30
-7.1054273576010019e-14
11
350.88888891598828
21
590.08518124704074
31
-7.1054273576010019e-14
0
LINE
5
110
100
AcDbEntity
8
0
100
AcDbLine
10
350.88888891598828
20
590.08518124704074
30
-7.1054273576010019e-14
11
370.88888891598828
21
590.08518124704074
31
6.42459058302299e-32
0
LINE
5
111
100
AcDbEntity
8
0
100
AcDbLine
10
370.88888891598828
20
590.08518124704074
30
6.42459058302299e-32
11
370.88888891598845
21
872.08512140397693
31
0
0
LINE
5
112
100
AcDbEntity
8
0
100
AcDbLine
10
370.88888891598845
20
872.08512140397693
30
0
11
350.88888891598845
21
872.08512140397693
31
-6.42459058302299e-32
0
LINE
5
113
100
AcDbEntity
8
0
100
AcDbLine
10
350.88888891598845
20
872.08512140397693
30
-6.42459058302299e-32
11
350.88888891598845
21
868.55999513812992
31
7.8886090522101181e-30
0
ARC
5
114
100
AcDbEntity
8
0
100
AcDbCircle
10
349.65145204891212
20
867.32255827105314
30
-1.9815236097093116e-44
40
1.7499999999999838
210
-5.5780889549463722e-31
220
-5.5780889549482867e-31
230
1
100
AcDbArc
50
-135.00000000000921
51
45.00000000001053
0
LINE
5
115
100
AcDbEntity
8
0
100
AcDbLine
10
348.41401518183551
20
866.08512140397693
30
-1.3805065841367707e-30
11
319.45833073126238
21
866.08512140397693
31
-7.1054273576010019e-14
0
LINE
5
116
100
AcDbEntity
8
0
100
AcDbLine
10
319.45833073126238
20
866.08512140397693
30
-7.1054273576010019e-14
11
319.45833073126244
21
858.55999513812992
31
-7.8886090522101181e-30
0
ARC
5
117
100
AcDbEntity
8
0
100
AcDbCircle
10
318.22089386418617
20
857.32255827105314
30
7.1054273576010019e-14
40
1.7499999999999838
210
0
220
0
230
1
100
AcDbArc
50
-135.00000000000921
51
45.000000000011845
0
LINE
5
118
100
AcDbEntity
8
0
100
AcDbLine
10
316.98345699710956
20
856.08512140397693
30
7.1054273576010019e-14
11
311.93320446541543
21
856.08512140397693
31
-1.6714535720755755e-33
0
ARC
5
119
100
AcDbEntity
8
0
100
AcDbCircle
10
310.69576759833876
20
857.32255827105314
30
7.1054273576010019e-14
40
1.7499999999999838
210
0
220
0
230
1
100
AcDbArc
50
134.9999999999921
51
315.00000000001057
0
LINE
5
120
100
AcDbEntity
8
0
100
AcDbLine
10
309.45833073126244
20
858.55999513812981
30
7.1054273576010019e-14
11
309.45833073126244
21
866.08512140397693
31
7.1054273576010019e-14
0
LINE
5
121
100
AcDbEntity
8
0
100
AcDbLine
10
309.45833073126244
20
866.08512140397693
30
7.1054273576010019e-14
11
303.36320446541544
21
866.08512140397693
31
7.6731282051125078e-31
0
ARC
5
122
100
AcDbEntity
8
0
100
AcDbCircle
10
302.12576759833883
20
867.32255827105314
30
-3.9649523706625259e-44
40
1.7499999999999838
210
-1.1156177909894778e-30
220
-1.5484348030789229e-43
230
1
100
AcDbArc
50
134.99999999999343
51
315.00000000000921
0
LINE
5
123
100
AcDbEntity
8
0
100
AcDbLine
10
300.88833073126244
20
868.55999513812981
30
-1.380506584136495e-30
11
300.88833073126244
21
872.08512140397704
31
7.1054273576010031e-14
0
LINE
5
124
100
AcDbEntity
8
0
100
AcDbLine
10
300.88833073126244
20
872.08512140397704
30
7.1054273576010031e-14
11
280.88833073126244
21
872.08512140397693
31
7.1054273576010019e-14
0
LINE
5
125
100
AcDbEntity
8
0
100
AcDbLine
10
280.88833073126244
20
872.08512140397693
30
7.1054273576010019e-14
11
280.88833073126244
21
868.55999513812981
31
7.1054273576010019e-14
0
ARC
5
126
100
AcDbEntity
8
0
100
AcDbCircle
10
279.65089386418617
20
867.32255827105314
30
-9.7434033847584937e-45
40
1.7499999999999838
210
-5.5780889549464108e-31
220
-5.5780889549483305e-31
230
1
100
AcDbArc
50
-135.00000000000921
51
45.000000000009209
0
LINE
5
127
100
AcDbEntity
8
0
100
AcDbLine
10
278.41345699710956
20
866.08512140397693
30
-1.3805065841367707e-30
11
272.31833073126245
21
866.08512140397693
31
7.6731282051122976e-31
0
LINE
5
128
100
AcDbEntity
8
0
100
AcDbLine
10
272.31833073126245
20
866.08512140397693
30
7.6731282051122976e-31
11
272.31833073126245
21
858.55999513812992
31
-7.8886090522101181e-30
0
ARC
5
129
100
AcDbEntity
8
0
100
AcDbCircle
10
271.08089386418618
20
857.32255827105314
30
-9.7434033847584937e-45
40
1.7499999999999838
210
-5.5780889549464108e-31
220
-5.5780889549483305e-31
230
1
100
AcDbArc
50
-135.00000000000921
51
45.000000000011845
0
LINE
5
130
100
AcDbEntity
8
0
100
AcDbLine
10
269.84345699710957
20
856.08512140397693
30
-1.3805065841367707e-30
11
264.79320446541544
21
856.08512140397693
31
-1.6714535720755755e-33
0
ARC
5
131
100
AcDbEntity
8
0
100
AcDbCircle
10
263.55576759833878
20
857.32255827105314
30
-3.9649523706625259e-44
40
1.7499999999999838
210
-1.1156177909894778e-30
220
-1.5484348030789229e-43
230
1
100
AcDbArc
50
134.9999999999921
51
315.00000000001057
0
LINE
5
132
100
AcDbEntity
8
0
100
AcDbLine
10
262.31833073126245
20
858.55999513812981
30
-1.380506584136495e-30
11
262.31833073126245
21
866.08512140397693
31
7.1054273576010006e-14
0
LINE
5
133
100
AcDbEntity
8
0
100
AcDbLine
10
262.31833073126245
20
866.08512140397693
30
7.1054273576010006e-14
11
233.36376265014144
21
866.08512140397693
31
-6.1694026345912278e-31
0
ARC
5
134
100
AcDbEntity
8
0
100
AcDbCircle
10
232.12632578306477
20
867.32255827105314
30
0
40
1.7500000000000091
210
0
220
0
230
1
100
AcDbArc
50
134.99999999999343
51
315.00000000001057
0
LINE
5
135
100
AcDbEntity
8
0
100
AcDbLine
10
230.88888891598839
20
868.55999513812981
30
0
11
230.88888891598842
21
872.08512140397693
31
7.1054273576010019e-14
0
LINE
5
136
100
AcDbEntity
8
0
100
AcDbLine
10
230.88888891598842
20
872.08512140397693
30
7.1054273576010019e-14
11
210.88888891598842
21
872.08512140397693
31
7.1054273576010019e-14
0
LINE
5
137
100
AcDbEntity
8
0
100
AcDbLine
10
210.88888891598842
20
872.08512140397693
30
7.1054273576010019e-14
11
210.88888891598828
21
590.08518124704074
31
7.1054273576010019e-14
0
LINE
5
138
100
AcDbEntity
8
0
100
AcDbLine
10
210.88888891598828
20
590.08518124704074
30
7.1054273576010019e-14
11
230.88888891598828
21
590.08518124704074
31
7.1054273576010019e-14
0
LINE
5
139
100
AcDbEntity
8
0
100
AcDbLine
10
230.88888891598828
20
590.08518124704074
30
7.1054273576010019e-14
11
230.88888891598805
21
593.61030751288808
31
0
0
CIRCLE
5
140
100
AcDbEntity
8
0
100
AcDbCircle
10
315.83131117365139
20
661.10729726859381
30
7.1054273576010019e-14
40
2.1000000000000099
210
-2.9339090184746138e-32
220
1.4642100469205935e-47
230
1
0
CIRCLE
5
141
100
AcDbEntity
8
0
100
AcDbCircle
10
265.85790060078426
20
631.06302600574691
30
7.1054273576010019e-14
40
2.1000000000000099
210
-2.9339090184746138e-32
220
1.4642100469205935e-47
230
1
0
CIRCLE
5
142
100
AcDbEntity
8
0
100
AcDbCircle
10
265.83133078352239
20
661.06301423982472
30
7.1054273576010019e-14
40
2.1000000000000099
210
-2.9339090184746138e-32
220
1.4642100469205935e-47
230
1
0
CIRCLE
5
143
100
AcDbEntity
8
0
100
AcDbCircle
10
315.85788099091326
20
631.10730903451679
30
7.1054273576010019e-14
40
2.1000000000000099
210
-2.9339090184746138e-32
220
1.4642100469205935e-47
230
1
0
CIRCLE
5
144
100
AcDbEntity
8
0
100
AcDbCircle
10
267.88888947734927
20
606.08518171913192
30
0
40
2.5
210
-4.6871868965895193e-33
220
2.3392089197602754e-48
230
1
0
CIRCLE
5
145
100
AcDbEntity
8
0
100
AcDbCircle
10
313.88888947734932
20
606.08518171913192
30
7.1054273576010019e-14
40
2.5
210
-4.6871868965895193e-33
220
2.3392089197602754e-48
230
1
0
CIRCLE
5
146
100
AcDbEntity
8
0
100
AcDbCircle
10
242.88888891598924
20
620.08518124706188
30
7.1054273576010019e-14
40
1.6000000000000003
210
-1.7013138540707459e-32
220
-7.8886090522101181e-31
230
1
0
CIRCLE
5
147
100
AcDbEntity
8
0
100
AcDbCircle
10
222.88888891598728
20
692.08518124701891
30
7.1054273576010019e-14
40
1.6000000000000003
210
-1.7013138540707459e-32
220
-7.8886090522101181e-31
230
1
0
CIRCLE
5
148
100
AcDbEntity
8
0
100
AcDbCircle
10
222.8888889159893
20
765.085181247062
30
7.1054273576010019e-14
40
1.6000000000000003
210
-1.7013138540707459e-32
220
-7.8886090522101181e-31
230
1
0
CIRCLE
5
149
100
AcDbEntity
8
0
100
AcDbCircle
10
358.8888889159893
20
765.08518124706166
30
0
40
1.5999999999999701
210
-4.1665041828863684e-32
220
2.0793546243948586e-47
230
1
0
CIRCLE
5
150
100
AcDbEntity
8
0
100
AcDbCircle
10
338.88888891598731
20
692.08518124701982
30
0
40
1.5999999999999701
210
-4.1665041828863684e-32
220
2.0793546243948586e-47
230
1
0
CIRCLE
5
151
100
AcDbEntity
8
0
100
AcDbCircle
10
358.88888891598924
20
620.08518124706279
30
0
40
1.5999999999999701
210
-4.1665041828863684e-32
220
2.0793546243948586e-47
230
1
0
CIRCLE
5
152
100
AcDbEntity
8
0
100
AcDbCircle
10
358.88888891598924
20
600.08518124706279
30
0
40
1.5999999999999701
210
-4.1665041828863684e-32
220
2.0793546243948586e-47
230
1
0
CIRCLE
5
153
100
AcDbEntity
8
0
100
AcDbCircle
10
338.88888891598731
20
672.08518124701982
30
0
40
1.5999999999999701
210
-4.1665041828863684e-32
220
2.0793546243948586e-47
230
1
0
CIRCLE
5
154
100
AcDbEntity
8
0
100
AcDbCircle
10
358.8888889159893
20
745.08518124706166
30
0
40
1.5999999999999701
210
-4.1665041828863684e-32
220
2.0793546243948586e-47
230
1
0
CIRCLE
5
155
100
AcDbEntity
8
0
100
AcDbCircle
10
242.8888889159893
20
765.085181247062
30
7.1054273576010019e-14
40
1.6000000000000003
210
-1.7013138540707459e-32
220
-7.8886090522101181e-31
230
1
0
CIRCLE
5
156
100
AcDbEntity
8
0
100
AcDbCircle
10
242.88888891598728
20
692.08518124701891
30
7.1054273576010019e-14
40
1.6000000000000003
210
-1.7013138540707459e-32
220
-7.8886090522101181e-31
230
1
0
CIRCLE
5
157
100
AcDbEntity
8
0
100
AcDbCircle
10
222.88888891598924
20
620.08518124706188
30
7.1054273576010019e-14
40
1.6000000000000003
210
-1.7013138540707459e-32
220
-7.8886090522101181e-31
230
1
0
CIRCLE
5
158
100
AcDbEntity
8
0
100
AcDbCircle
10
242.88888891598924
20
600.08518124706188
30
7.1054273576010019e-14
40
1.6000000000000003
210
-1.7013138540707459e-32
220
-7.8886090522101181e-31
230
1
0
CIRCLE
5
159
100
AcDbEntity
8
0
100
AcDbCircle
10
222.88888891598728
20
672.08518124701891
30
7.1054273576010019e-14
40
1.6000000000000003
210
-1.7013138540707459e-32
220
-7.8886090522101181e-31
230
1
0
CIRCLE
5
160
100
AcDbEntity
8
0
100
AcDbCircle
10
222.8888889159893
20
745.085181247062
30
7.1054273576010019e-14
40
1.6000000000000003
210
-1.7013138540707459e-32
220
-7.8886090522101181e-31
230
1
0
CIRCLE
5
161
100
AcDbEntity
8
0
100
AcDbCircle
10
338.8888889159893
20
765.08518124706166
30
0
40
1.5999999999999701
210
-4.1665041828863684e-32
220
2.0793546243948586e-47
230
1
0
CIRCLE
5
162
100
AcDbEntity
8
0
100
AcDbCircle
10
358.88888891598731
20
692.08518124701982
30
0
40
1.5999999999999701
210
-4.1665041828863684e-32
220
2.0793546243948586e-47
230
1
0
CIRCLE
5
163
100
AcDbEntity
8
0
100
AcDbCircle
10
338.88888891598924
20
620.08518124706279
30
0
40
1.5999999999999701
210
-4.1665041828863684e-32
220
2.0793546243948586e-47
230
1
0
CIRCLE
5
164
100
AcDbEntity
8
0
100
AcDbCircle
10
338.88888891598924
20
600.08518124706279
30
0
40
1.5999999999999701
210
-4.1665041828863684e-32
220
2.0793546243948586e-47
230
1
0
CIRCLE
5
165
100
AcDbEntity
8
0
100
AcDbCircle
10
358.88888891598731
20
672.08518124701982
30
0
40
1.5999999999999701
210
-4.1665041828863684e-32
220
2.0793546243948586e-47
230
1
0
CIRCLE
5
166
100
AcDbEntity
8
0
100
AcDbCircle
10
338.8888889159893
20
745.08518124706166
30
0
40
1.5999999999999701
210
-4.1665041828863684e-32
220
2.0793546243948586e-47
230
1
0
CIRCLE
5
167
100
AcDbEntity
8
0
100
AcDbCircle
10
242.8888889159893
20
745.085181247062
30
7.1054273576010019e-14
40
1.6000000000000003
210
-1.7013138540707459e-32
220
-7.8886090522101181e-31
230
1
0
CIRCLE
5
168
100
AcDbEntity
8
0
100
AcDbCircle
10
242.88888891598728
20
672.08518124701891
30
7.1054273576010019e-14
40
1.6000000000000003
210
-1.7013138540707459e-32
220
-7.8886090522101181e-31
230
1
0
CIRCLE
5
169
100
AcDbEntity
8
0
100
AcDbCircle
10
222.88888891598924
20
600.08518124706188
30
7.1054273576010019e-14
40
1.6000000000000003
210
-1.7013138540707459e-32
220
-7.8886090522101181e-31
230
1
0
CIRCLE
5
170
100
AcDbEntity
8
0
100
AcDbCircle
10
357.38888891598828
20
650.0851214039767
30
0
40
2.5999999999999801
210
-4.687186896670094e-33
220
2.339208919800543e-48
230
1
0
CIRCLE
5
171
100
AcDbEntity
8
0
100
AcDbCircle
10
357.38888891598839
20
856.08512140397693
30
0
40
2.5999999999999801
210
-4.687186896670094e-33
220
2.339208919800543e-48
230
1
0
CIRCLE
5
172
100
AcDbEntity
8
0
100
AcDbCircle
10
224.38888891598833
20
650.08512140397681
30
7.1054273576010019e-14
40
2.5999999999999801
210
-4.687186896670094e-33
220
2.339208919800543e-48
230
1
0
CIRCLE
5
173
100
AcDbEntity
8
0
100
AcDbCircle
10
224.38888891598839
20
787.41845473731075
30
7.1054273576010019e-14
40
2.5999999999999801
210
-4.687186896670094e-33
220
2.339208919800543e-48
230
1
0
CIRCLE
5
174
100
AcDbEntity
8
0
100
AcDbCircle
10
357.38888891598833
20
718.75178807064367
30
-7.1054273576010019e-14
40
2.5999999999999801
210
-4.687186896670094e-33
220
2.339208919800543e-48
230
1
0
CIRCLE
5
175
100
AcDbEntity
8
0
100
AcDbCircle
10
357.38888891598833
20
787.41845473731075
30
0
40
2.5999999999999801
210
-4.687186896670094e-33
220
2.339208919800543e-48
230
1
0
CIRCLE
5
176
100
AcDbEntity
8
0
100
AcDbCircle
10
224.38888891598836
20
718.75178807064401
30
0
40
2.5999999999999801
210
-4.687186896670094e-33
220
2.339208919800543e-48
230
1
0
CIRCLE
5
177
100
AcDbEntity
8
0
100
AcDbCircle
10
302.8888904116763
20
702.58514755019291
30
7.1054273576010019e-14
40
2.5999999999999801
210
3.4400473947443346e-32
220
-1.7406759026546652e-47
230
1
0
CIRCLE
5
178
100
AcDbEntity
8
0
100
AcDbCircle
10
278.88889041167636
20
702.58514755019291
30
7.1054273576010019e-14
40
2.5999999999999801
210
3.4400473947443346e-32
220
-1.7406759026546652e-47
230
1
0
CIRCLE
5
179
100
AcDbEntity
8
0
100
AcDbCircle
10
302.8888904116763
20
662.58514755019291
30
7.1054273576010019e-14
40
2.6000000000000503
210
9.7485706592867275e-33
220
-4.9328105356548025e-48
230
1
0
CIRCLE
5
180
100
AcDbEntity
8
0
100
AcDbCircle
10
278.88889041167636
20
662.58514755019291
30
7.1054273576010019e-14
40
2.6000000000000503
210
9.7485706592867275e-33
220
-4.9328105356548025e-48
230
1
0
CIRCLE
5
181
100
AcDbEntity
8
0
100
AcDbCircle
10
267.88888947735745
20
815.33518171912363
30
0
40
2.5
210
-2.5773809847929832e-33
220
1.3041637097918319e-48
230
1
0
CIRCLE
5
182
100
AcDbEntity
8
0
100
AcDbCircle
10
313.88888947735745
20
815.33518171910578
30
7.1054273576010019e-14
40
2.5
210
-2.5773809847929832e-33
220
1.3041637097918319e-48
230
1
0
CIRCLE
5
183
100
AcDbEntity
8
0
100
AcDbCircle
10
267.88888947735239
20
802.33518171912374
30
0
40
2.5
210
-2.5773809847929832e-33
220
1.3041637097918319e-48
230
1
0
CIRCLE
5
184
100
AcDbEntity
8
0
100
AcDbCircle
10
313.88888947735234
20
802.33518171910589
30
0
40
2.4999999999999298
210
2.2074522303363636e-32
220
-1.1169784781100022e-47
230
1
0
CIRCLE
5
185
100
AcDbEntity
8
0
100
AcDbCircle
10
250.88888879331239
20
793.86370515976614
30
0
40
3.4000000000000004
210
-1.4903332628871293e-32
220
7.5411379552377593e-48
230
1
0
CIRCLE
5
186
100
AcDbEntity
8
0
100
AcDbCircle
10
330.88888879331239
20
793.8637051597658
30
0
40
3.40000000000011
210
2.2074522303363636e-32
220
-1.1169784781100022e-47
230
1
0
CIRCLE
5
187
100
AcDbEntity
8
0
100
AcDbCircle
10
224.38888891598845
20
856.08512140397693
30
0
40
2.5999999999999801
210
-4.687186896670094e-33
220
2.339208919800543e-48
230
1
0
ENDSEC
0
SECTION
2
OBJECTS
0
DICTIONARY
5
C
100
AcDbDictionary
3
ACAD_GROUP
350
D
3
ACAD_MLINESTYLE
350
17
0
DICTIONARY
5
D
100
AcDbDictionary
0
DICTIONARY
5
1A
330
C
100
AcDbDictionary
0
DICTIONARY
5
17
100
AcDbDictionary
0
ENDSEC
0
EOF
